<svg width="34" height="26" viewBox="0 0 34 26" fill="none" xmlns="http://www.w3.org/2000/svg">
<g clip-path="url(#clip0_3191_9465)">
<path d="M21.1352 21.5382C21.0596 21.5382 20.9835 21.5382 20.9079 21.5382C14.4857 21.5382 8.06354 21.5297 1.64135 21.5472C0.645838 21.5497 -0.00254184 20.8162 7.49053e-06 19.8959C0.0174279 13.7839 0.00893015 7.67186 0.00935504 1.55983C0.00935504 0.813099 0.439767 0.225011 1.11789 0.0574116C1.28105 0.0173244 1.45398 0.00197181 1.62223 0.00197181C11.3866 -0.00058695 21.151 -0.00058695 30.9153 0.000265971C31.9389 0.000265971 32.5486 0.61778 32.549 1.65109C32.5494 3.81879 32.549 5.98649 32.549 8.15376C32.549 8.2237 32.549 8.29321 32.549 8.41134C32.4585 8.34737 32.3978 8.30857 32.3412 8.26379C31.5611 7.64627 30.7007 7.17674 29.7571 6.8667C29.6079 6.81766 29.585 6.73876 29.5854 6.60315C29.5888 5.48753 29.5863 4.37148 29.5854 3.25586C29.5854 3.17185 29.5854 3.08784 29.5854 2.98933C20.7112 2.98933 11.8574 2.98933 2.97848 2.98933C2.97295 3.06353 2.96318 3.13816 2.96318 3.21236C2.96233 8.25099 2.96403 13.29 2.95723 18.3287C2.95681 18.5573 3.05028 18.5739 3.23341 18.5739C8.43064 18.576 13.6279 18.5837 18.8251 18.5841C19.0133 18.5841 19.1068 18.634 19.1897 18.8123C19.6256 19.7479 20.2192 20.5748 20.9568 21.296C21.0218 21.36 21.0961 21.4145 21.1658 21.4734C21.1561 21.4947 21.1454 21.5165 21.1352 21.5382Z" fill="#61CA96"/>
<path d="M27.0098 22.1098C23.1374 22.0847 20.0187 18.9327 20.0523 15.0788C20.0863 11.1976 23.2224 8.07461 27.0493 8.11128C30.9579 8.14838 34.029 11.2871 33.9997 15.2144C33.9712 19.0052 30.799 22.1346 27.0098 22.1098ZM28.1201 19.0184C28.6448 19.0163 29.1109 18.7101 29.2902 18.2499C29.4912 17.7331 29.3769 17.2362 28.9452 16.8635C28.8062 16.7437 28.8054 16.6622 28.8959 16.5121C29.399 15.6805 29.894 14.8442 30.383 14.0041C30.4676 13.8587 30.5551 13.8212 30.7216 13.8395C31.5876 13.9346 32.3481 13.2885 32.3749 12.4509C32.3957 11.7933 31.9428 11.1899 31.2965 11.0133C30.6239 10.83 29.9122 11.1246 29.5851 11.7221C29.2651 12.3068 29.3837 13.0105 29.8927 13.4663C30.0142 13.5751 30.0465 13.6544 29.9564 13.8041C29.4402 14.6609 28.9316 15.5223 28.4251 16.385C28.3554 16.5036 28.2722 16.5394 28.1358 16.5488C27.9492 16.5616 27.767 16.6294 27.5804 16.6597C27.4997 16.6725 27.3914 16.6806 27.3327 16.6388C26.5837 16.1027 25.8422 15.5556 25.0961 15.0157C24.9941 14.9419 24.989 14.8762 25.0383 14.7658C25.0953 14.6387 25.1463 14.4992 25.1565 14.3623C25.1943 13.86 24.8769 13.4062 24.4014 13.2548C23.9183 13.1013 23.3834 13.2919 23.1161 13.7128C22.8493 14.1325 22.8965 14.6434 23.2581 15.0229C23.3702 15.1411 23.3706 15.2272 23.2912 15.3543C23.1255 15.6187 22.956 15.8822 22.8153 16.1603C22.7027 16.3829 22.5672 16.5062 22.3055 16.4533C22.2341 16.4388 22.1508 16.4648 22.0764 16.4853C21.6804 16.5949 21.3962 16.9416 21.3792 17.3296C21.3605 17.7527 21.5967 18.1288 21.9719 18.2738C22.3802 18.4316 22.8242 18.3254 23.0936 18.0056C23.3723 17.6747 23.411 17.2631 23.1676 16.9028C23.0618 16.7458 23.0707 16.6307 23.1663 16.4801C23.36 16.1748 23.547 15.8643 23.7195 15.5466C23.9052 15.2046 24.2812 15.4656 24.5161 15.2784C24.5493 15.2519 24.6432 15.3018 24.7086 15.318C24.7214 15.3214 24.732 15.3338 24.7435 15.3423C25.47 15.8737 26.1953 16.4064 26.924 16.9343C27.034 17.0141 27.0634 17.0785 26.9971 17.2132C26.5684 18.0802 27.1577 19.0223 28.1201 19.0184Z" fill="#61CA96"/>
<path d="M16.27 25.9987C13.2184 25.9987 10.1669 25.9996 7.11532 25.9983C6.39725 25.9979 5.82323 25.5932 5.62311 24.9543C5.33163 24.0234 6.00296 23.0655 6.97808 23.0225C7.06305 23.0186 7.14803 23.0203 7.23301 23.0203C12.5645 23.0203 17.896 23.0195 23.2271 23.0242C23.3915 23.0242 23.5657 23.0583 23.7183 23.1193C24.6194 23.48 25.5491 23.7142 26.52 23.7453C26.7753 23.7534 26.879 23.8613 26.9423 24.0878C27.2159 25.0678 26.5093 25.9949 25.4671 25.9979C23.697 26.003 21.9269 25.9996 20.1568 25.9996C18.8614 25.9987 17.5659 25.9987 16.27 25.9987Z" fill="#61CA96"/>
<path d="M12.5809 12.2731C12.5805 11.1502 12.5758 10.0274 12.583 8.90449C12.586 8.42344 12.8265 8.07502 13.2629 7.88866C13.6933 7.70528 14.0982 7.78716 14.4453 8.10274C14.6705 8.30745 14.795 8.56972 14.7954 8.87592C14.7984 11.1289 14.8018 13.3819 14.7937 15.6349C14.7916 16.2332 14.2868 16.7057 13.6924 16.7079C13.0904 16.71 12.589 16.2315 12.5839 15.6204C12.5741 14.5048 12.5809 13.3891 12.5809 12.2731Z" fill="#61CA96"/>
<path d="M8.88568 12.9925C8.88568 12.1396 8.88313 11.2867 8.88653 10.4342C8.88908 9.77276 9.36538 9.28361 9.99634 9.28574C10.6171 9.28788 11.0985 9.77575 11.0998 10.4227C11.1036 12.1426 11.104 13.8625 11.0994 15.5824C11.0977 16.1744 10.6766 16.6439 10.1136 16.7062C9.55531 16.7676 9.04714 16.4076 8.91373 15.8468C8.88781 15.7381 8.88653 15.6217 8.88611 15.5087C8.88483 14.6698 8.88568 13.8314 8.88568 12.9925Z" fill="#61CA96"/>
<path d="M7.40322 13.7401C7.40322 14.3436 7.40535 14.947 7.4028 15.5505C7.3994 16.2106 6.92565 16.7057 6.29979 16.7083C5.67393 16.7109 5.19168 16.2174 5.18955 15.5586C5.18573 14.3448 5.1853 13.1307 5.18955 11.917C5.1921 11.2522 5.66373 10.7741 6.30191 10.7754C6.93415 10.7767 7.39982 11.2628 7.40237 11.9298C7.40535 12.5337 7.40322 13.1367 7.40322 13.7401Z" fill="#61CA96"/>
</g>
<defs>
<clipPath id="clip0_3191_9465">
<rect width="34" height="26" fill="white"/>
</clipPath>
</defs>
</svg>
