<svg width="37" height="40" viewBox="0 0 37 40" fill="none" xmlns="http://www.w3.org/2000/svg">
<path d="M18.7458 0.225914C17.4625 0.225914 16.7864 0.616659 16.1403 1.18092L2.03206 13.396C0.403815 14.8365 0.433723 17.175 1.7921 18.5876C3.15048 19.9989 5.749 20.1049 7.24161 18.8161L14.8981 12.1741V35.6513C14.8981 37.6739 16.6216 39.3156 18.7458 39.3156C20.8699 39.3156 22.5928 37.6752 22.5928 35.6513V12.1741L30.2492 18.8161C31.7418 20.1049 34.261 19.9274 35.7001 18.5876C37.2171 17.175 36.9368 14.6987 35.4587 13.396L21.3505 1.1796C20.5889 0.517978 20.029 0.225914 18.7458 0.225914Z" fill="#F5F5F5"/>
</svg>
