<svg width="34" height="34" viewBox="0 0 34 34" fill="none" xmlns="http://www.w3.org/2000/svg">
<path d="M29.0417 14.4358H24.9476C21.5901 14.4358 18.8559 11.7017 18.8559 8.34416V4.25C18.8559 3.47083 18.2184 2.83333 17.4392 2.83333H11.4326C7.06925 2.83333 3.54175 5.66667 3.54175 10.7242V23.2758C3.54175 28.3333 7.06925 31.1667 11.4326 31.1667H22.5676C26.9309 31.1667 30.4584 28.3333 30.4584 23.2758V15.8525C30.4584 15.0733 29.8209 14.4358 29.0417 14.4358ZM16.3342 19.1675C16.1217 19.38 15.8526 19.4792 15.5834 19.4792C15.3142 19.4792 15.0451 19.38 14.8326 19.1675L13.8126 18.1475V24.0833C13.8126 24.6642 13.3309 25.1458 12.7501 25.1458C12.1692 25.1458 11.6876 24.6642 11.6876 24.0833V18.1475L10.6676 19.1675C10.2567 19.5783 9.57675 19.5783 9.16591 19.1675C8.75508 18.7567 8.75508 18.0767 9.16591 17.6658L11.9992 14.8325C12.0984 14.7475 12.1976 14.6767 12.3109 14.62C12.3392 14.6058 12.3817 14.5917 12.4101 14.5775C12.4951 14.5492 12.5801 14.535 12.6792 14.5208C12.7217 14.5208 12.7501 14.5208 12.7926 14.5208C12.9059 14.5208 13.0192 14.5492 13.1326 14.5917C13.1467 14.5917 13.1467 14.5917 13.1609 14.5917C13.2742 14.6342 13.3876 14.7192 13.4726 14.8042C13.4867 14.8183 13.5009 14.8183 13.5009 14.8325L16.3342 17.6658C16.7451 18.0767 16.7451 18.7567 16.3342 19.1675Z" fill="#61CA96"/>
<path d="M24.6925 12.4808C26.0383 12.495 27.9083 12.495 29.5091 12.495C30.3166 12.495 30.7416 11.5458 30.175 10.9792C28.135 8.925 24.48 5.2275 22.3833 3.13083C21.8025 2.55 20.7966 2.94667 20.7966 3.75417V8.69833C20.7966 10.7667 22.5533 12.4808 24.6925 12.4808Z" fill="#61CA96"/>
</svg>
