<svg width="29" height="24" viewBox="0 0 29 24" fill="none" xmlns="http://www.w3.org/2000/svg">
<g clip-path="url(#clip0_3191_9473)">
<path d="M26.4099 15.6961C26.7612 16.0969 27.1066 16.4887 27.4492 16.8823C27.8955 17.395 28.3417 17.9077 28.7836 18.4236C28.9696 18.641 29.0581 18.8849 28.9584 19.1731C28.801 19.6282 28.2536 19.7707 27.9303 19.4141C27.2194 18.6302 26.5277 17.8286 25.8288 17.0338C25.7142 16.9035 25.6015 16.7715 25.4768 16.6269C24.6673 17.1651 23.8081 17.5789 22.8742 17.8498C22.8742 17.9325 22.8742 18.0038 22.8742 18.0754C22.8742 19.8743 22.8742 21.6729 22.8742 23.4718C22.8742 23.7647 22.6694 23.9716 22.3754 23.973C20.255 23.9824 18.1347 23.991 16.0139 23.9993C15.961 23.9996 15.9081 23.995 15.8345 23.9917C15.8345 23.9057 15.8345 23.8298 15.8345 23.7535C15.8345 21.2293 15.833 18.705 15.8378 16.1807C15.8381 16.0296 15.7997 15.9184 15.6877 15.8184C15.5713 15.7144 15.4571 15.6043 15.3614 15.4817C15.2512 15.3403 15.1435 15.3198 14.9757 15.3892C14.6052 15.5428 14.4326 15.7716 14.4326 16.1631C14.4326 18.6874 14.4326 21.2116 14.4326 23.7359C14.4326 23.8133 14.4326 23.891 14.4326 23.9842C13.1939 23.9842 11.9653 23.9842 10.7168 23.9842C10.7139 23.9306 10.7078 23.873 10.7078 23.8154C10.7176 18.3952 10.7273 12.975 10.7389 7.55482C10.7393 7.39327 10.7509 7.23137 10.7607 7.06982C10.7795 6.75429 10.9608 6.54813 11.2737 6.53518C11.7924 6.51431 12.3123 6.51503 12.8314 6.51071C13.2722 6.50711 13.7134 6.51395 14.1542 6.50352C14.222 6.50208 14.3148 6.45063 14.3507 6.39414C14.7517 5.76199 15.2218 5.18669 15.7515 4.65673C15.8055 4.60276 15.8312 4.49914 15.8316 4.41819C15.8378 3.24312 15.8359 2.06769 15.8403 0.892626C15.841 0.688986 15.8606 0.485706 15.8697 0.282426C15.8769 0.115485 15.961 0.0320139 16.131 0.0269769C16.288 0.0222997 16.4446 0.00143198 16.6012 0.00107219C18.3834 -0.00072675 20.1655 -0.00072675 21.9476 0.00179176C22.1405 0.00215155 22.3337 0.0230192 22.5266 0.0320139C22.6846 0.0395695 22.7727 0.119083 22.7851 0.27559C22.7945 0.39504 22.805 0.514849 22.8057 0.634299C22.8093 1.30566 22.8151 1.97739 22.8079 2.64875C22.8061 2.80238 22.8543 2.8675 23.0029 2.90852C24.8572 3.42265 26.3232 4.49662 27.3575 6.08652C28.9845 8.58705 29.061 11.1962 27.6769 13.8284C27.3608 14.4296 26.9203 14.9664 26.5364 15.532C26.4994 15.5864 26.4566 15.6356 26.4099 15.6961ZM21.0069 16.4736C21.1776 16.4635 21.4314 16.4563 21.6837 16.4308C21.9114 16.4078 22.139 16.3747 22.3634 16.3293C24.4189 15.913 25.915 14.7948 26.7278 12.8502C27.2806 11.5269 27.3724 10.1474 27.0733 8.75651C26.6074 6.58699 25.3227 5.11006 23.1983 4.36422C22.3602 4.06991 21.4963 4.04868 20.6252 4.05048C20.0665 4.05156 19.5195 4.12244 18.9822 4.27931C17.1435 4.81719 15.8461 5.95268 15.1319 7.72248C14.7082 8.77306 14.6092 9.87005 14.7183 10.9904C14.8851 12.6994 15.5775 14.1382 16.9641 15.1996C18.1267 16.0897 19.4709 16.4552 21.0069 16.4736Z" fill="#61CA96"/>
<path d="M9.30536 23.9924C7.90676 23.9924 6.52521 23.9924 5.12843 23.9924C5.12444 23.9363 5.11719 23.8845 5.11719 23.8327C5.12734 20.2424 5.13676 16.652 5.1509 13.0617C5.15163 12.8473 5.18933 12.6329 5.20782 12.4184C5.22703 12.1954 5.37566 12.0961 5.57251 12.054C5.6838 12.0302 5.79981 12.0191 5.914 12.018C6.99503 12.0086 8.07606 12.0025 9.15709 11.9964C9.20385 11.996 9.25098 12.005 9.30572 12.0108C9.30536 16.0041 9.30536 19.9876 9.30536 23.9924Z" fill="#61CA96"/>
<path d="M3.71871 16.153C3.71871 18.7744 3.71871 21.3725 3.71871 23.9888C3.65962 23.9924 3.60198 23.9993 3.54434 23.9996C2.51189 24.0004 1.47944 24.0004 0.446985 24C0.20591 23.9996 0 23.7924 0 23.5506C0.000362518 21.5131 0 19.4757 0.00326266 17.4382C0.00362518 17.127 0.019576 16.8154 0.0362518 16.5045C0.0478524 16.2861 0.126519 16.1958 0.346567 16.185C0.768176 16.1645 1.19087 16.157 1.61321 16.1541C2.30743 16.1494 3.00129 16.153 3.71871 16.153Z" fill="#61CA96"/>
<path d="M15.9033 10.1719C15.866 9.31634 16.0397 8.51402 16.4943 7.77969C17.0949 6.80898 17.9856 6.21749 19.0544 5.8595C19.6862 5.64759 20.3359 5.57419 20.9996 5.60513C21.3157 5.61988 21.5554 5.95557 21.456 6.25455C21.3872 6.46179 21.1994 6.501 21.0163 6.50604C20.1698 6.53015 19.4143 6.83057 18.6984 7.24756C17.8435 7.74551 17.4179 8.51402 17.3367 9.47429C17.2969 9.94525 17.3056 10.4202 17.2925 10.8933C17.2849 11.17 17.1714 11.3643 16.9278 11.5287C16.5791 11.764 15.9588 11.4855 15.949 11.0153C15.9436 10.7339 15.9193 10.4533 15.9033 10.1719Z" fill="#61CA96"/>
</g>
<defs>
<clipPath id="clip0_3191_9473">
<rect width="29" height="24" fill="white"/>
</clipPath>
</defs>
</svg>
