<svg width="21" height="23" viewBox="0 0 21 23" fill="none" xmlns="http://www.w3.org/2000/svg">
<path d="M8.11299 13.3835C10.9756 13.3835 13.2962 11.0464 13.2962 8.16349C13.2962 5.28058 10.9756 2.94351 8.11299 2.94351C5.2504 2.94351 2.92981 5.28058 2.92981 8.16349C2.92981 11.0464 5.2504 13.3835 8.11299 13.3835Z" stroke="#2B2B2B" stroke-miterlimit="10" stroke-linecap="round"/>
<path d="M8.11298 15.327C12.0414 15.327 15.226 12.1198 15.226 8.16349C15.226 4.2072 12.0414 1 8.11298 1C4.18459 1 1 4.2072 1 8.16349C1 12.1198 4.18459 15.327 8.11298 15.327Z" stroke="#2B2B2B" stroke-miterlimit="10" stroke-linecap="round"/>
<path d="M13.7646 12.513L18.5213 17.2757C18.8844 17.6392 18.8852 18.2303 18.5231 18.5946C18.1609 18.9593 17.5735 18.958 17.2126 18.592L12.4962 13.8054" stroke="#2B2B2B" stroke-miterlimit="10" stroke-linecap="round"/>
<path d="M8.11296 10.71C8.96135 10.71 9.6491 10.0174 9.6491 9.16299C9.6491 8.30858 8.96135 7.61594 8.11296 7.61594C7.26457 7.61594 6.57681 8.30858 6.57681 9.16299C6.57681 10.0174 7.26457 10.71 8.11296 10.71Z" stroke="#2B2B2B" stroke-miterlimit="10" stroke-linecap="round"/>
<path d="M6.88826 21.9618C7.73665 21.9618 8.4244 21.2692 8.4244 20.4148C8.4244 19.5604 7.73665 18.8677 6.88826 18.8677C6.03987 18.8677 5.35211 19.5604 5.35211 20.4148C5.35211 21.2692 6.03987 21.9618 6.88826 21.9618Z" stroke="#2B2B2B" stroke-miterlimit="10" stroke-linecap="round"/>
<path d="M18.9246 9.95809C19.773 9.95809 20.4607 9.26545 20.4607 8.41104C20.4607 7.55662 19.773 6.86398 18.9246 6.86398C18.0762 6.86398 17.3885 7.55662 17.3885 8.41104C17.3885 9.26545 18.0762 9.95809 18.9246 9.95809Z" stroke="#2B2B2B" stroke-miterlimit="10" stroke-linecap="round"/>
<path d="M15.2155 8.55465L17.388 8.41104" stroke="#2B2B2B" stroke-miterlimit="10" stroke-linecap="round"/>
<path d="M9.64914 8.92292L13.2704 8.68329" stroke="#2B2B2B" stroke-miterlimit="10" stroke-linecap="round"/>
<path d="M7.47394 15.2979L7.15289 18.8911" stroke="#2B2B2B" stroke-miterlimit="10" stroke-linecap="round"/>
<path d="M7.88511 10.6929L7.64673 13.3623" stroke="#2B2B2B" stroke-miterlimit="10" stroke-linecap="round"/>
</svg>
