<svg width="41" height="40" viewBox="0 0 41 40" fill="none" xmlns="http://www.w3.org/2000/svg">
<path d="M17.3746 24.7124V28.0976C17.3746 29.0454 16.6717 29.7902 15.7772 29.7902H12.5825C11.688 29.7902 10.9851 29.0454 10.9851 28.0976V23.0197V16.2491V11.1714C10.9851 10.2234 11.688 9.47869 12.5825 9.47869H13.509C14.9465 9.47869 15.6494 7.65066 14.6271 6.60124L8.94055 0.507787C8.30162 -0.169262 7.31126 -0.169262 6.67232 0.507787L0.953832 6.60124C-0.0684685 7.65066 0.66631 9.47869 2.07197 9.47869H2.99843C3.89294 9.47869 4.59577 10.2234 4.59577 11.1714V16.2491V23.0197V29.7902V34.868C4.59577 35.816 5.2986 36.5607 6.19312 36.5607H10.9851H17.3746H22.1666C23.0611 36.5607 23.7639 35.816 23.7639 34.868V29.7902V24.7124C23.7639 23.7644 23.0611 23.0197 22.1666 23.0197H18.9718C18.1093 23.0197 17.3746 23.7644 17.3746 24.7124Z" fill="#E46934"/>
<path d="M38.1366 29.7901C37.242 29.7901 36.5392 29.0453 36.5392 28.0974V23.0195V16.249V9.47852V4.40064C36.5392 3.45276 35.8364 2.70801 34.9418 2.70801H30.1499H23.7604H18.9684C18.0739 2.70801 17.3711 3.45276 17.3711 4.40064V9.47852V14.5564C17.3711 15.5043 18.0739 16.249 18.9684 16.249H22.163C23.0576 16.249 23.7604 15.5043 23.7604 14.5564V11.1711C23.7604 10.2233 24.4632 9.47852 25.3578 9.47852H28.5525C29.447 9.47852 30.1499 10.2233 30.1499 11.1711V16.249V23.0195V28.0974C30.1499 29.0453 29.447 29.7901 28.5525 29.7901H27.626C26.1884 29.7901 25.4856 31.6181 26.5079 32.6675L32.2263 38.7272C32.8653 39.4041 33.8556 39.4041 34.4946 38.7272L40.2131 32.6675C41.2034 31.6181 40.5006 29.7901 39.095 29.7901H38.1366Z" fill="#E46934"/>
</svg>
