<svg width="26" height="16" viewBox="0 0 26 16" fill="none" xmlns="http://www.w3.org/2000/svg">
<path d="M0.900391 15.3557C1.2406 13.9542 1.68192 12.6325 2.38804 11.3739C3.78657 8.88026 6.13973 7.21759 9.29413 6.24156C11.4982 5.55972 13.7982 5.24972 16.1368 5.08201C16.2636 5.07308 16.3913 5.06552 16.5824 5.05314C16.3279 4.53283 16.0871 4.03588 15.842 3.54099C15.4641 2.77529 15.0682 2.01509 14.716 1.24252C14.6466 1.09062 14.7383 0.891977 14.7563 0.714643C14.9739 0.747635 15.2447 0.72564 15.4024 0.821867C18.5474 2.74436 21.6795 4.6806 24.8133 6.61479C25.2521 6.8856 25.2555 7.05056 24.7996 7.33237C22.2322 8.91807 19.6614 10.5003 17.0914 12.084C16.5259 12.4324 15.9714 12.7947 15.387 13.1232C15.2284 13.2119 14.9414 13.271 14.7828 13.216C14.5035 13.1191 14.6012 12.8923 14.6946 12.7046C15.2687 11.5465 15.842 10.3876 16.4145 9.22943C16.465 9.12702 16.507 9.02117 16.5456 8.93594C15.1976 8.93594 13.8711 8.8892 12.5522 8.94694C10.7175 9.02736 8.93507 9.3346 7.28632 10.0281C5.54416 10.7608 4.16191 11.8283 2.9699 13.0607C2.26293 13.7913 1.61508 14.5584 0.900391 15.3557Z" fill="white"/>
</svg>
