<svg width="32" height="32" viewBox="0 0 32 32" fill="none" xmlns="http://www.w3.org/2000/svg">
<circle cx="16" cy="16" r="16" fill="white"/>
<path d="M8 15.4C7.66863 15.4 7.4 15.6686 7.4 16C7.4 16.3314 7.66863 16.6 8 16.6V15.4ZM23.4243 16.4243C23.6586 16.1899 23.6586 15.8101 23.4243 15.5757L19.6059 11.7574C19.3716 11.523 18.9917 11.523 18.7574 11.7574C18.523 11.9917 18.523 12.3716 18.7574 12.6059L22.1515 16L18.7574 19.3941C18.523 19.6284 18.523 20.0083 18.7574 20.2426C18.9917 20.477 19.3716 20.477 19.6059 20.2426L23.4243 16.4243ZM8 16.6H23V15.4H8V16.6Z" fill="#1B76FF"/>
</svg>
