<svg width="26" height="16" viewBox="0 0 26 16" fill="none" xmlns="http://www.w3.org/2000/svg">
<path d="M25.0974 0.560386C24.3852 3.39705 23.3029 5.9842 20.5307 7.88951C18.6754 9.16453 16.4868 9.90205 14.1319 10.3124C12.7831 10.5475 11.4017 10.6609 10.0349 10.8286C9.85237 10.8506 9.66898 10.8664 9.43332 10.8911C9.4916 11.0238 9.53701 11.1379 9.591 11.2486C10.1497 12.3875 10.7102 13.5257 11.2697 14.6646C11.3649 14.8585 11.484 15.0606 11.2072 15.2214C10.9475 15.3726 10.7539 15.2255 10.5602 15.1066C7.4238 13.1731 4.28739 11.2396 1.1527 9.30475C0.749937 9.05662 0.758506 8.86348 1.18269 8.6016C4.31738 6.66673 7.45122 4.73049 10.5962 2.80593C10.747 2.71383 10.9998 2.72758 11.2046 2.69252C11.232 2.86779 11.3426 3.0685 11.274 3.2149C10.7324 4.37101 10.1557 5.51681 9.591 6.66673C9.53958 6.77052 9.49845 6.87775 9.4239 7.04752C10.2577 7.04752 11.0349 7.05371 11.8122 7.04615C13.5886 7.02896 15.3462 6.89356 17.0507 6.45709C19.6052 5.80206 21.5016 4.44524 23.1007 2.78394C23.7691 2.08835 24.3835 1.35839 25.0974 0.560386Z" fill="white"/>
</svg>
