<svg width="18" height="18" viewBox="0 0 18 18" fill="none" xmlns="http://www.w3.org/2000/svg">
<path d="M11.3475 14.295H5.34753C5.04003 14.295 4.78503 14.04 4.78503 13.7325C4.78503 13.425 5.04003 13.17 5.34753 13.17H11.3475C13.1025 13.17 14.535 11.7375 14.535 9.9825C14.535 8.2275 13.1025 6.795 11.3475 6.795H3.09753C2.79003 6.795 2.53503 6.54 2.53503 6.2325C2.53503 5.925 2.79003 5.67 3.09753 5.67H11.3475C13.725 5.67 15.66 7.605 15.66 9.9825C15.66 12.36 13.725 14.295 11.3475 14.295Z" fill="white"/>
<path d="M4.82254 8.67C4.68004 8.67 4.53754 8.6175 4.42504 8.505L2.50504 6.585C2.28754 6.3675 2.28754 6.0075 2.50504 5.79L4.42504 3.87C4.64254 3.6525 5.00254 3.6525 5.22004 3.87C5.43754 4.0875 5.43754 4.4475 5.22004 4.665L3.69754 6.1875L5.22004 7.71C5.43754 7.9275 5.43754 8.2875 5.22004 8.505C5.11504 8.6175 4.96504 8.67 4.82254 8.67Z" fill="white"/>
</svg>
