<svg width="31" height="31" viewBox="0 0 31 31" fill="none" xmlns="http://www.w3.org/2000/svg">
<path d="M15.5 13.5884C14.9704 13.5884 14.5312 13.1492 14.5312 12.6196V8.31836C14.5312 7.78878 14.9704 7.34961 15.5 7.34961C16.0296 7.34961 16.4688 7.78878 16.4688 8.31836V12.6196C16.4688 13.1621 16.0296 13.5884 15.5 13.5884Z" fill="white"/>
<path d="M15.5256 26.2853C12.1931 26.2853 8.87354 25.7557 5.70895 24.6966C4.53354 24.3091 3.64229 23.4695 3.25479 22.4103C2.86729 21.3511 2.99645 20.137 3.62937 19.0778L5.26979 16.3395C5.63145 15.7324 5.95437 14.5957 5.95437 13.8853V11.1728C5.95437 5.8899 10.2427 1.60156 15.5256 1.60156C20.8085 1.60156 25.0969 5.8899 25.0969 11.1728V13.8853C25.0969 14.5828 25.4198 15.7324 25.7815 16.3395L27.4219 19.0778C28.029 20.0853 28.1323 21.2866 27.7319 22.3845C27.3315 23.4824 26.4531 24.322 25.3423 24.6966C22.1777 25.7686 18.8581 26.2853 15.5256 26.2853ZM15.5256 3.55198C11.3148 3.55198 7.89187 6.9749 7.89187 11.1857V13.8982C7.89187 14.9445 7.47854 16.4557 6.93604 17.347L5.29562 20.0982C4.95979 20.6536 4.88229 21.2478 5.07604 21.7645C5.26979 22.2811 5.70895 22.6686 6.32895 22.8753C12.2706 24.8516 18.8065 24.8516 24.7481 22.8753C25.3035 22.6945 25.7298 22.2811 25.9235 21.7386C26.1302 21.1961 26.0656 20.602 25.7685 20.0982L24.1281 17.3599C23.5856 16.4686 23.1723 14.9574 23.1723 13.9111V11.1986C23.1594 6.9749 19.7365 3.55198 15.5256 3.55198Z" fill="white"/>
<path d="M15.5005 29.5786C14.1184 29.5786 12.7621 29.0103 11.7805 28.0286C10.7988 27.0469 10.2305 25.6907 10.2305 24.3086H12.168C12.168 25.1869 12.5296 26.0394 13.1496 26.6594C13.7696 27.2794 14.6221 27.6411 15.5005 27.6411C17.3346 27.6411 18.833 26.1428 18.833 24.3086H20.7705C20.7705 27.2148 18.4067 29.5786 15.5005 29.5786Z" fill="white"/>
</svg>
