<svg width="21" height="20" viewBox="0 0 21 20" fill="none" xmlns="http://www.w3.org/2000/svg">
<path d="M10.7118 18.9577C5.77008 18.9577 1.75342 14.941 1.75342 9.99935C1.75342 5.05768 5.77008 1.04102 10.7118 1.04102C15.6534 1.04102 19.6701 5.05768 19.6701 9.99935C19.6701 14.941 15.6534 18.9577 10.7118 18.9577ZM10.7118 2.29102C6.46175 2.29102 3.00342 5.74935 3.00342 9.99935C3.00342 14.2493 6.46175 17.7077 10.7118 17.7077C14.9618 17.7077 18.4201 14.2493 18.4201 9.99935C18.4201 5.74935 14.9618 2.29102 10.7118 2.29102Z" fill="white"/>
<path d="M12.545 10.6259H8.02832C7.68665 10.6259 7.40332 10.3426 7.40332 10.0009V6.39258C7.40332 6.05091 7.68665 5.76758 8.02832 5.76758H12.545C13.8367 5.76758 14.9783 6.90091 14.9783 8.20091C14.9783 9.53424 13.8867 10.6259 12.545 10.6259ZM8.65332 9.37591H12.545C13.195 9.37591 13.7283 8.84258 13.7283 8.19258C13.7283 7.64258 13.2117 7.00924 12.545 7.00924H8.65332V9.37591Z" fill="white"/>
<path d="M13.1867 14.2333H8.02832C7.68665 14.2333 7.40332 13.95 7.40332 13.6083V10C7.40332 9.65833 7.68665 9.375 8.02832 9.375H13.1867C14.67 9.375 15.8783 10.4667 15.8783 11.8083C15.8783 13.15 14.67 14.2333 13.1867 14.2333ZM8.65332 12.9833H13.1867C13.9783 12.9833 14.6283 12.45 14.6283 11.8C14.6283 11.15 13.9867 10.6167 13.1867 10.6167H8.65332V12.9833Z" fill="white"/>
<path d="M11.1868 16.0408C10.8451 16.0408 10.5618 15.7574 10.5618 15.4158V13.6074C10.5618 13.2658 10.8451 12.9824 11.1868 12.9824C11.5284 12.9824 11.8118 13.2658 11.8118 13.6074V15.4158C11.8118 15.7574 11.5368 16.0408 11.1868 16.0408Z" fill="white"/>
<path d="M8.93677 16.0408C8.5951 16.0408 8.31177 15.7574 8.31177 15.4158V13.6074C8.31177 13.2658 8.5951 12.9824 8.93677 12.9824C9.27843 12.9824 9.56177 13.2658 9.56177 13.6074V15.4158C9.56177 15.7574 9.27843 16.0408 8.93677 16.0408Z" fill="white"/>
<path d="M11.1868 7.01732C10.8451 7.01732 10.5618 6.73398 10.5618 6.39232V4.58398C10.5618 4.24232 10.8451 3.95898 11.1868 3.95898C11.5284 3.95898 11.8118 4.24232 11.8118 4.58398V6.39232C11.8118 6.73398 11.5368 7.01732 11.1868 7.01732Z" fill="white"/>
<path d="M8.93677 7.01732C8.5951 7.01732 8.31177 6.73398 8.31177 6.39232V4.58398C8.31177 4.24232 8.5951 3.95898 8.93677 3.95898C9.27843 3.95898 9.56177 4.24232 9.56177 4.58398V6.39232C9.56177 6.73398 9.27843 7.01732 8.93677 7.01732Z" fill="white"/>
<path d="M9.745 7.01758H6.58667C6.245 7.01758 5.96167 6.73424 5.96167 6.39258C5.96167 6.05091 6.245 5.76758 6.58667 5.76758H9.745C10.0867 5.76758 10.37 6.05091 10.37 6.39258C10.37 6.73424 10.095 7.01758 9.745 7.01758Z" fill="white"/>
<path d="M9.745 14.2324H6.58667C6.245 14.2324 5.96167 13.9491 5.96167 13.6074C5.96167 13.2658 6.245 12.9824 6.58667 12.9824H9.745C10.0867 12.9824 10.37 13.2658 10.37 13.6074C10.37 13.9491 10.095 14.2324 9.745 14.2324Z" fill="white"/>
</svg>
