<svg width="17" height="17" viewBox="0 0 17 17" fill="none" xmlns="http://www.w3.org/2000/svg">
<circle cx="8.5" cy="8.5" r="8.5" fill="white"/>
<path d="M13.1049 4.14548L9.00052 7.83977L4.89619 4.14548C4.79747 4.06417 4.66771 4.02028 4.53394 4.02295C4.40016 4.02561 4.27269 4.07464 4.17807 4.1598C4.08345 4.24496 4.02899 4.3597 4.02602 4.48011C4.02306 4.60053 4.07182 4.71732 4.16216 4.80618L8.26441 8.50047L4.16112 12.1938C4.11099 12.2368 4.07091 12.2884 4.04325 12.3456C4.01559 12.4027 4.0009 12.4642 4.00004 12.5266C3.99918 12.5889 4.01218 12.6507 4.03826 12.7085C4.06434 12.7662 4.10298 12.8187 4.15191 12.8628C4.20084 12.9069 4.25908 12.9418 4.32319 12.9653C4.3873 12.9889 4.456 13.0007 4.52525 13C4.59449 12.9993 4.66289 12.9862 4.72641 12.9613C4.78993 12.9365 4.8473 12.9005 4.89515 12.8555L9.00052 9.16211L13.1049 12.8564C13.2036 12.9377 13.3333 12.9816 13.4671 12.9789C13.6009 12.9763 13.7284 12.9272 13.823 12.8421C13.9176 12.7569 13.9721 12.6422 13.975 12.5218C13.978 12.4013 13.9292 12.2846 13.8389 12.1957L9.73455 8.50141L13.8389 4.80618C13.889 4.76318 13.9291 4.71159 13.9567 4.65445C13.9844 4.5973 13.9991 4.53576 14 4.47343C14.0008 4.41111 13.9878 4.34926 13.9617 4.29152C13.9357 4.23378 13.897 4.18131 13.8481 4.1372C13.7992 4.0931 13.7409 4.05824 13.6768 4.03468C13.6127 4.01113 13.544 3.99934 13.4748 4.00003C13.4055 4.00071 13.3371 4.01385 13.2736 4.03867C13.2101 4.06348 13.1527 4.09948 13.1049 4.14454V4.14548Z" fill="#6E6E6E" stroke="#6E6E6E" stroke-width="0.5"/>
</svg>
