<svg width="20" height="20" viewBox="0 0 20 20" fill="currentColor" xmlns="http://www.w3.org/2000/svg">
<path d="M4.29175 18.9583C3.95008 18.9583 3.66675 18.675 3.66675 18.3333V1.66666C3.66675 1.32499 3.95008 1.04166 4.29175 1.04166C4.63341 1.04166 4.91675 1.32499 4.91675 1.66666V18.3333C4.91675 18.675 4.63341 18.9583 4.29175 18.9583Z" fill="currentColor"/>
<path d="M13.6251 13.9583H4.29175C3.95008 13.9583 3.66675 13.675 3.66675 13.3333C3.66675 12.9917 3.95008 12.7083 4.29175 12.7083H13.6251C14.5334 12.7083 14.9584 12.4667 15.0417 12.2583C15.1251 12.05 15.0001 11.5833 14.3501 10.9417L13.3501 9.94168C12.9417 9.58334 12.6917 9.04168 12.6667 8.44168C12.6417 7.80834 12.8917 7.18334 13.3501 6.72501L14.3501 5.72501C14.9667 5.10834 15.1584 4.60834 15.0667 4.39168C14.9751 4.17501 14.5001 3.95834 13.6251 3.95834H4.29175C3.94175 3.95834 3.66675 3.67501 3.66675 3.33334C3.66675 2.99168 3.95008 2.70834 4.29175 2.70834H13.6251C15.4501 2.70834 16.0334 3.46668 16.2251 3.91668C16.4084 4.36668 16.5334 5.31668 15.2334 6.61668L14.2334 7.61668C14.0251 7.82501 13.9084 8.11668 13.9167 8.40834C13.9251 8.65834 14.0251 8.88334 14.2001 9.04168L15.2334 10.0667C16.5084 11.3417 16.3834 12.2917 16.2001 12.75C16.0084 13.1917 15.4167 13.9583 13.6251 13.9583Z" fill="currentColor"/>
</svg>
