<svg width="18" height="18" viewBox="0 0 18 18" fill="none" xmlns="http://www.w3.org/2000/svg">
<path d="M9 17.0625C4.5525 17.0625 0.9375 13.4475 0.9375 9C0.9375 4.5525 4.5525 0.9375 9 0.9375C13.4475 0.9375 17.0625 4.5525 17.0625 9C17.0625 13.4475 13.4475 17.0625 9 17.0625ZM9 2.0625C5.175 2.0625 2.0625 5.175 2.0625 9C2.0625 12.825 5.175 15.9375 9 15.9375C12.825 15.9375 15.9375 12.825 15.9375 9C15.9375 5.175 12.825 2.0625 9 2.0625Z" fill="white"/>
<path d="M6.87752 11.6849C6.73502 11.6849 6.59252 11.6324 6.48002 11.5199C6.26252 11.3024 6.26252 10.9424 6.48002 10.7249L10.725 6.4799C10.9425 6.2624 11.3025 6.2624 11.52 6.4799C11.7375 6.6974 11.7375 7.0574 11.52 7.2749L7.27502 11.5199C7.17002 11.6324 7.02002 11.6849 6.87752 11.6849Z" fill="white"/>
<path d="M11.1225 11.6849C10.98 11.6849 10.8375 11.6324 10.725 11.5199L6.48002 7.2749C6.26252 7.0574 6.26252 6.6974 6.48002 6.4799C6.69752 6.2624 7.05752 6.2624 7.27502 6.4799L11.52 10.7249C11.7375 10.9424 11.7375 11.3024 11.52 11.5199C11.4075 11.6324 11.265 11.6849 11.1225 11.6849Z" fill="white"/>
</svg>
