<svg width="20" height="20" viewBox="0 0 20 20" fill="currentColor" xmlns="http://www.w3.org/2000/svg">
<path d="M16.475 11.4583H13.1083C11.4333 11.4583 10.625 10.6833 10.625 9.08334V3.41667C10.625 1.81667 11.4417 1.04167 13.1083 1.04167H16.475C18.15 1.04167 18.9583 1.81667 18.9583 3.41667V9.08334C18.9583 10.6833 18.1417 11.4583 16.475 11.4583ZM13.1083 2.29167C12.05 2.29167 11.875 2.575 11.875 3.41667V9.08334C11.875 9.925 12.05 10.2083 13.1083 10.2083H16.475C17.5333 10.2083 17.7083 9.925 17.7083 9.08334V3.41667C17.7083 2.575 17.5333 2.29167 16.475 2.29167H13.1083Z" fill="currentColor"/>
<path d="M16.475 18.9583H13.1083C11.4333 18.9583 10.625 18.1833 10.625 16.5833V15.0833C10.625 13.4833 11.4417 12.7083 13.1083 12.7083H16.475C18.15 12.7083 18.9583 13.4833 18.9583 15.0833V16.5833C18.9583 18.1833 18.1417 18.9583 16.475 18.9583ZM13.1083 13.9583C12.05 13.9583 11.875 14.2417 11.875 15.0833V16.5833C11.875 17.425 12.05 17.7083 13.1083 17.7083H16.475C17.5333 17.7083 17.7083 17.425 17.7083 16.5833V15.0833C17.7083 14.2417 17.5333 13.9583 16.475 13.9583H13.1083Z" fill="currentColor"/>
<path d="M6.89175 18.9583H3.52508C1.85008 18.9583 1.04175 18.1833 1.04175 16.5833V10.9167C1.04175 9.31667 1.85841 8.54167 3.52508 8.54167H6.89175C8.56675 8.54167 9.37508 9.31667 9.37508 10.9167V16.5833C9.37508 18.1833 8.55841 18.9583 6.89175 18.9583ZM3.52508 9.79167C2.46675 9.79167 2.29175 10.075 2.29175 10.9167V16.5833C2.29175 17.425 2.46675 17.7083 3.52508 17.7083H6.89175C7.95008 17.7083 8.12508 17.425 8.12508 16.5833V10.9167C8.12508 10.075 7.95008 9.79167 6.89175 9.79167H3.52508Z" fill="currentColor"/>
<path d="M6.89175 7.29167H3.52508C1.85008 7.29167 1.04175 6.51667 1.04175 4.91667V3.41667C1.04175 1.81667 1.85841 1.04167 3.52508 1.04167H6.89175C8.56675 1.04167 9.37508 1.81667 9.37508 3.41667V4.91667C9.37508 6.51667 8.55841 7.29167 6.89175 7.29167ZM3.52508 2.29167C2.46675 2.29167 2.29175 2.575 2.29175 3.41667V4.91667C2.29175 5.75834 2.46675 6.04167 3.52508 6.04167H6.89175C7.95008 6.04167 8.12508 5.75834 8.12508 4.91667V3.41667C8.12508 2.575 7.95008 2.29167 6.89175 2.29167H3.52508Z" fill="currentColor"/>
</svg>
