<svg width="22" height="25" viewBox="0 0 22 25" fill="none" xmlns="http://www.w3.org/2000/svg">
<path d="M3.13898 4.02752C5.16309 2.00336 7.85428 0.888672 10.7168 0.888672C13.5794 0.888672 16.2706 2.00336 18.2947 4.02752C20.3189 6.05162 21.4336 8.74286 21.4336 11.6054V24.4105C21.4336 24.6745 21.2196 24.8886 20.9555 24.8886H0.47817C0.21417 24.8886 9.34601e-05 24.6745 9.34601e-05 24.4105V11.6054C9.34601e-05 8.74286 1.11478 6.05162 3.13898 4.02752ZM0.956247 23.9325H20.4774V11.6054C20.4774 6.22342 16.0989 1.84483 10.7168 1.84483C5.33479 1.84483 0.956247 6.22337 0.956247 11.6054V23.9325Z" fill="white"/>
<path d="M2.60098 13.3724C2.96969 12.8026 3.59524 12.4625 4.27437 12.4625H6.00762C5.95301 12.1719 5.92465 11.876 5.92465 11.5786C5.92465 11.223 5.96388 10.8765 6.03771 10.5428H4.34407C3.65463 10.5428 3.02308 10.1945 2.65465 9.61123C2.28757 9.03003 2.24454 8.31303 2.53947 7.6933C3.26444 6.17009 4.39873 4.88094 5.81969 3.96519C7.27934 3.02455 8.97265 2.52734 10.7167 2.52734C12.4607 2.52734 14.154 3.02455 15.6136 3.96519C17.0346 4.88098 18.1689 6.17014 18.8938 7.69325C19.1887 8.31298 19.1457 9.02994 18.7786 9.61119C18.4102 10.1945 17.7786 10.5427 17.0892 10.5427H15.3956C15.4694 10.8764 15.5087 11.2229 15.5087 11.5785C15.5087 11.876 15.4804 12.1719 15.4257 12.4625H17.1589C17.838 12.4625 18.4637 12.8026 18.8323 13.3723C19.2029 13.9451 19.257 14.6591 18.977 15.2827C17.5185 18.531 14.2761 20.6298 10.7167 20.6298C7.15727 20.6298 3.91488 18.5309 2.45632 15.2827C2.17633 14.6592 2.23038 13.9451 2.60098 13.3724ZM17.0892 9.58662C17.4486 9.58662 17.778 9.40494 17.9701 9.10067C18.1639 8.79392 18.1858 8.43073 18.0304 8.10425C16.6945 5.29723 13.8237 3.4835 10.7167 3.4835C7.60966 3.4835 4.73885 5.29728 3.40296 8.10416C3.24757 8.43073 3.26951 8.79392 3.46319 9.10063C3.65538 9.40494 3.98468 9.58658 4.34416 9.58658H6.3588C7.11635 7.93583 8.78473 6.78655 10.7167 6.78655C12.6486 6.78655 14.317 7.93587 15.0746 9.58658H17.0892V9.58662ZM8.58705 15.1959H15.3716V14.1863H6.0618V15.1959H6.60616C6.81433 15.1959 6.99855 15.3305 7.06169 15.5289C7.57057 17.1262 9.0394 18.1993 10.7167 18.1993C12.165 18.1993 13.4573 17.3988 14.1109 16.1521H8.58705C8.32305 16.1521 8.10897 15.938 8.10897 15.674C8.10893 15.41 8.32305 15.1959 8.58705 15.1959ZM14.5525 11.5786C14.5525 9.46353 12.8318 7.7428 10.7167 7.7428C8.60168 7.7428 6.8809 9.46353 6.8809 11.5786C6.8809 12.1506 7.00957 12.7163 7.25496 13.2301H14.1784C14.4238 12.7163 14.5525 12.1506 14.5525 11.5786ZM3.32857 14.891C4.63315 17.7964 7.53316 19.6737 10.7167 19.6737C13.9002 19.6737 16.8002 17.7964 18.1048 14.891C18.2536 14.5597 18.2262 14.1956 18.0296 13.892C17.835 13.5912 17.5177 13.4188 17.1589 13.4188H16.2295C16.2909 13.4992 16.3277 13.5993 16.3277 13.7083V15.6741C16.3277 15.9381 16.1137 16.1522 15.8496 16.1522H15.1632C14.4381 17.9624 12.6933 19.1555 10.7166 19.1555C8.74005 19.1555 6.99518 17.9624 6.27002 16.1522H5.58363C5.31963 16.1522 5.10555 15.9381 5.10555 15.6741V13.7083C5.10555 13.5994 5.1424 13.4992 5.2038 13.4188H4.27437C3.91572 13.4187 3.59838 13.5912 3.40371 13.892C3.20721 14.1956 3.17979 14.5598 3.32857 14.891Z" fill="white"/>
<path d="M10.0064 4.82031H11.4262C11.6903 4.82031 11.9043 5.03439 11.9043 5.29839C11.9043 5.56239 11.6903 5.77647 11.4262 5.77647H10.0064C9.74242 5.77647 9.52835 5.56239 9.52835 5.29839C9.52835 5.03439 9.74238 4.82031 10.0064 4.82031Z" fill="white"/>
<path d="M8.04045 22.1855H8.64106C8.90506 22.1855 9.11914 22.3996 9.11914 22.6636C9.11914 22.9276 8.90506 23.1417 8.64106 23.1417H8.04045C7.77646 23.1417 7.56238 22.9276 7.56238 22.6636C7.56238 22.3996 7.77646 22.1855 8.04045 22.1855Z" fill="white"/>
<path d="M2.41614 22.1855H6.12934C6.39334 22.1855 6.60742 22.3996 6.60742 22.6636C6.60742 22.9276 6.39334 23.1417 6.12934 23.1417H2.41614C2.15214 23.1417 1.93806 22.9276 1.93806 22.6636C1.93802 22.3996 2.15214 22.1855 2.41614 22.1855Z" fill="white"/>
</svg>
