<svg width="23" height="25" viewBox="0 0 23 25" fill="none" xmlns="http://www.w3.org/2000/svg">
<path d="M3.63898 4.02752C5.66309 2.00336 8.35428 0.888672 11.2168 0.888672C14.0794 0.888672 16.7706 2.00336 18.7947 4.02752C20.8189 6.05162 21.9336 8.74286 21.9336 11.6054V24.4105C21.9336 24.6745 21.7196 24.8886 21.4555 24.8886H0.97817C0.71417 24.8886 0.500093 24.6745 0.500093 24.4105V11.6054C0.500093 8.74286 1.61478 6.05162 3.63898 4.02752ZM1.45625 23.9325H20.9774V11.6054C20.9774 6.22342 16.5989 1.84483 11.2168 1.84483C5.83479 1.84483 1.45625 6.22337 1.45625 11.6054V23.9325Z" fill="white"/>
<path d="M3.10098 13.3724C3.46969 12.8026 4.09524 12.4625 4.77437 12.4625H6.50762C6.45301 12.1719 6.42465 11.876 6.42465 11.5786C6.42465 11.223 6.46388 10.8765 6.53771 10.5428H4.84407C4.15463 10.5428 3.52308 10.1945 3.15465 9.61123C2.78757 9.03003 2.74454 8.31303 3.03947 7.6933C3.76444 6.17009 4.89873 4.88094 6.31969 3.96519C7.77934 3.02455 9.47265 2.52734 11.2167 2.52734C12.9607 2.52734 14.654 3.02455 16.1136 3.96519C17.5346 4.88098 18.6689 6.17014 19.3938 7.69325C19.6887 8.31298 19.6457 9.02994 19.2786 9.61119C18.9102 10.1945 18.2786 10.5427 17.5892 10.5427H15.8956C15.9694 10.8764 16.0087 11.2229 16.0087 11.5785C16.0087 11.876 15.9804 12.1719 15.9257 12.4625H17.6589C18.338 12.4625 18.9637 12.8026 19.3323 13.3723C19.7029 13.9451 19.757 14.6591 19.477 15.2827C18.0185 18.531 14.7761 20.6298 11.2167 20.6298C7.65727 20.6298 4.41488 18.5309 2.95632 15.2827C2.67633 14.6592 2.73038 13.9451 3.10098 13.3724ZM17.5892 9.58662C17.9486 9.58662 18.278 9.40494 18.4701 9.10067C18.6639 8.79392 18.6858 8.43073 18.5304 8.10425C17.1945 5.29723 14.3237 3.4835 11.2167 3.4835C8.10966 3.4835 5.23885 5.29728 3.90296 8.10416C3.74757 8.43073 3.76951 8.79392 3.96319 9.10063C4.15538 9.40494 4.48468 9.58658 4.84416 9.58658H6.8588C7.61635 7.93583 9.28473 6.78655 11.2167 6.78655C13.1486 6.78655 14.817 7.93587 15.5746 9.58658H17.5892V9.58662ZM9.08705 15.1959H15.8716V14.1863H6.5618V15.1959H7.10616C7.31433 15.1959 7.49855 15.3305 7.56169 15.5289C8.07057 17.1262 9.5394 18.1993 11.2167 18.1993C12.665 18.1993 13.9573 17.3988 14.6109 16.1521H9.08705C8.82305 16.1521 8.60897 15.938 8.60897 15.674C8.60893 15.41 8.82305 15.1959 9.08705 15.1959ZM15.0525 11.5786C15.0525 9.46353 13.3318 7.7428 11.2167 7.7428C9.10168 7.7428 7.3809 9.46353 7.3809 11.5786C7.3809 12.1506 7.50957 12.7163 7.75496 13.2301H14.6784C14.9238 12.7163 15.0525 12.1506 15.0525 11.5786ZM3.82857 14.891C5.13315 17.7964 8.03316 19.6737 11.2167 19.6737C14.4002 19.6737 17.3002 17.7964 18.6048 14.891C18.7536 14.5597 18.7262 14.1956 18.5296 13.892C18.335 13.5912 18.0177 13.4188 17.6589 13.4188H16.7295C16.7909 13.4992 16.8277 13.5993 16.8277 13.7083V15.6741C16.8277 15.9381 16.6137 16.1522 16.3496 16.1522H15.6632C14.9381 17.9624 13.1933 19.1555 11.2166 19.1555C9.24005 19.1555 7.49518 17.9624 6.77002 16.1522H6.08363C5.81963 16.1522 5.60555 15.9381 5.60555 15.6741V13.7083C5.60555 13.5994 5.6424 13.4992 5.7038 13.4188H4.77437C4.41572 13.4187 4.09838 13.5912 3.90371 13.892C3.70721 14.1956 3.67979 14.5598 3.82857 14.891Z" fill="white"/>
<path d="M10.5064 4.82031H11.9262C12.1903 4.82031 12.4043 5.03439 12.4043 5.29839C12.4043 5.56239 12.1903 5.77647 11.9262 5.77647H10.5064C10.2424 5.77647 10.0283 5.56239 10.0283 5.29839C10.0283 5.03439 10.2424 4.82031 10.5064 4.82031Z" fill="white"/>
<path d="M8.54143 22.1855H9.14204C9.40604 22.1855 9.62012 22.3996 9.62012 22.6636C9.62012 22.9276 9.40604 23.1417 9.14204 23.1417H8.54143C8.27743 23.1417 8.06335 22.9276 8.06335 22.6636C8.06335 22.3996 8.27743 22.1855 8.54143 22.1855Z" fill="white"/>
<path d="M2.91614 22.1855H6.62934C6.89334 22.1855 7.10742 22.3996 7.10742 22.6636C7.10742 22.9276 6.89334 23.1417 6.62934 23.1417H2.91614C2.65214 23.1417 2.43806 22.9276 2.43806 22.6636C2.43802 22.3996 2.65214 22.1855 2.91614 22.1855Z" fill="white"/>
</svg>
