<svg width="60" height="60" viewBox="0 0 60 60" fill="none" xmlns="http://www.w3.org/2000/svg">
<circle cx="30" cy="30" r="29" stroke="url(#paint0_linear_3308_3497)" stroke-width="2"/>
<path d="M12.2766 29.3849L20.216 32.3481L23.289 42.231C23.4857 42.864 24.2597 43.0979 24.7734 42.6779L29.199 39.0701C29.6629 38.6921 30.3237 38.6733 30.8085 39.0252L38.7906 44.8204C39.3402 45.2199 40.1188 44.9187 40.2566 44.2546L46.104 16.1278C46.2544 15.4024 45.5416 14.7972 44.8509 15.0644L12.2673 27.6342C11.4632 27.9443 11.4702 29.0827 12.2766 29.3849ZM22.7938 30.7707L38.3104 21.214C38.5893 21.0428 38.8762 21.4198 38.6367 21.642L25.831 33.5455C25.3809 33.9645 25.0905 34.5252 25.0083 35.1338L24.5721 38.3665C24.5143 38.7981 23.908 38.841 23.7889 38.4233L22.1112 32.5283C21.9191 31.856 22.1991 31.1378 22.7938 30.7707Z" fill="white"/>
<defs>
<linearGradient id="paint0_linear_3308_3497" x1="-0.454827" y1="29.8431" x2="57.9251" y2="38.138" gradientUnits="userSpaceOnUse">
<stop stop-color="#8D139B"/>
<stop offset="0.1651" stop-color="#851BA1"/>
<stop offset="0.4284" stop-color="#6E33B2"/>
<stop offset="0.7551" stop-color="#4958CD"/>
<stop offset="1" stop-color="#2979E4"/>
</linearGradient>
</defs>
</svg>
