<svg width="60" height="60" viewBox="0 0 60 60" fill="none" xmlns="http://www.w3.org/2000/svg">
<circle cx="30" cy="30" r="29" stroke="url(#paint0_linear_3308_3490)" stroke-width="2"/>
<path d="M42.5078 21.0998L44.9996 18.7161V18.1943H36.3676L30.2157 33.5065L23.2167 18.1943H14.1657V18.7161L17.0765 22.2202C17.3601 22.4791 17.5084 22.8577 17.4707 23.239V37.0092C17.5605 37.505 17.3991 38.0151 17.0504 38.3755L13.7715 42.3493V42.8645H23.0683V42.3427L19.7894 38.3755C19.4342 38.0138 19.2663 37.5128 19.3379 37.0092V25.0983L27.4988 42.871H28.4474L35.4646 25.0983V39.2564C35.4646 39.6298 35.4646 39.7066 35.22 39.9512L32.6957 42.3935V42.9166H44.9423V42.3948L42.5091 40.0124C42.2957 39.851 42.1851 39.5804 42.2307 39.3175V21.7947C42.1851 21.5305 42.2944 21.2599 42.5078 21.0998Z" fill="white"/>
<defs>
<linearGradient id="paint0_linear_3308_3490" x1="-0.454827" y1="29.8431" x2="57.9251" y2="38.138" gradientUnits="userSpaceOnUse">
<stop stop-color="#8D139B"/>
<stop offset="0.1651" stop-color="#851BA1"/>
<stop offset="0.4284" stop-color="#6E33B2"/>
<stop offset="0.7551" stop-color="#4958CD"/>
<stop offset="1" stop-color="#2979E4"/>
</linearGradient>
</defs>
</svg>
