<svg width="60" height="60" viewBox="0 0 60 60" fill="none" xmlns="http://www.w3.org/2000/svg">
<circle cx="30" cy="30" r="29" stroke="url(#paint0_linear_3308_3448)" stroke-width="2"/>
<g clip-path="url(#clip0_3308_3448)">
<path d="M24.7 41.6079C35.4817 41.6079 41.3788 32.6753 41.3788 24.929C41.3788 24.6753 41.3788 24.4227 41.3617 24.1713C42.5089 23.3415 43.4993 22.314 44.2863 21.137C43.2165 21.6113 42.0816 21.9222 40.9194 22.0593C42.1432 21.3268 43.0591 20.1745 43.4966 18.817C42.3459 19.4999 41.087 19.9811 39.7743 20.2399C38.8905 19.3001 37.7215 18.6778 36.4484 18.4692C35.1753 18.2607 33.8689 18.4776 32.7315 19.0864C31.594 19.6951 30.6889 20.6617 30.1562 21.8367C29.6235 23.0117 29.4929 24.3295 29.7846 25.5861C27.454 25.4692 25.1741 24.8636 23.0928 23.8084C21.0115 22.7533 19.1753 21.2723 17.7034 19.4616C16.9538 20.752 16.7242 22.2797 17.0614 23.7335C17.3986 25.1873 18.2772 26.458 19.5183 27.2867C18.5854 27.2594 17.6728 27.0077 16.8577 26.553V26.6273C16.8581 27.9807 17.3266 29.2923 18.1837 30.3396C19.0409 31.387 20.234 32.1056 21.5606 32.3736C20.6976 32.609 19.7921 32.6434 18.9137 32.4741C19.2884 33.6388 20.0177 34.6573 20.9997 35.3872C21.9816 36.1171 23.167 36.5219 24.3903 36.545C23.1749 37.5003 21.7831 38.2067 20.2945 38.6236C18.8058 39.0405 17.2496 39.1598 15.7148 38.9747C18.3956 40.695 21.5148 41.6075 24.7 41.6033" fill="white"/>
</g>
<defs>
<linearGradient id="paint0_linear_3308_3448" x1="-0.454827" y1="29.8431" x2="57.9251" y2="38.138" gradientUnits="userSpaceOnUse">
<stop stop-color="#8D139B"/>
<stop offset="0.1651" stop-color="#851BA1"/>
<stop offset="0.4284" stop-color="#6E33B2"/>
<stop offset="0.7551" stop-color="#4958CD"/>
<stop offset="1" stop-color="#2979E4"/>
</linearGradient>
<clipPath id="clip0_3308_3448">
<rect width="28.5714" height="28.5714" fill="white" transform="translate(15.7148 15.7144)"/>
</clipPath>
</defs>
</svg>
