<svg width="22" height="20" viewBox="0 0 22 20" fill="none" xmlns="http://www.w3.org/2000/svg">
<path d="M20.3333 5.2583H12C11.6583 5.2583 11.375 4.97497 11.375 4.6333C11.375 4.29163 11.6583 4.0083 12 4.0083H20.3333C20.675 4.0083 20.9583 4.29163 20.9583 4.6333C20.9583 4.9833 20.675 5.2583 20.3333 5.2583Z" fill="white"/>
<path d="M18.4828 9.37502H13.8578C12.0328 9.37502 11.3828 8.73335 11.3828 6.91669V3.50002C11.3828 1.68335 12.0328 1.04169 13.8578 1.04169H18.4828C20.3078 1.04169 20.9578 1.68335 20.9578 3.50002V6.92502C20.9578 8.73335 20.3078 9.37502 18.4828 9.37502ZM13.8495 2.29169C12.7161 2.29169 12.6245 2.38335 12.6245 3.50002V6.92502C12.6245 8.04169 12.7161 8.13335 13.8495 8.13335H18.4745C19.6078 8.13335 19.6995 8.04169 19.6995 6.92502V3.50002C19.6995 2.38335 19.6078 2.29169 18.4745 2.29169H13.8495Z" fill="white"/>
<path d="M12.0003 14.8417H3.66699C3.32533 14.8417 3.04199 14.5583 3.04199 14.2167C3.04199 13.875 3.32533 13.5917 3.66699 13.5917H12.0003C12.342 13.5917 12.6253 13.875 12.6253 14.2167C12.6253 14.5667 12.342 14.8417 12.0003 14.8417Z" fill="white"/>
<path d="M10.1498 18.9583H5.52481C3.69981 18.9583 3.0498 18.3167 3.0498 16.5V13.0833C3.0498 11.2667 3.69981 10.625 5.52481 10.625H10.1498C11.9748 10.625 12.6248 11.2667 12.6248 13.0833V16.5083C12.6248 18.3167 11.9748 18.9583 10.1498 18.9583ZM5.51646 11.875C4.38313 11.875 4.29146 11.9667 4.29146 13.0833V16.5083C4.29146 17.625 4.38313 17.7167 5.51646 17.7167H10.1415C11.2748 17.7167 11.3665 17.625 11.3665 16.5083V13.0833C11.3665 11.9667 11.2748 11.875 10.1415 11.875H5.51646Z" fill="white"/>
<path d="M14.4998 18.9583C14.2748 18.9583 14.0665 18.8333 13.9582 18.6416C13.8498 18.4416 13.8498 18.2083 13.9665 18.0083L14.8415 16.55C15.0165 16.2583 15.3998 16.1583 15.6998 16.3333C15.9998 16.5083 16.0915 16.8916 15.9165 17.1916L15.6915 17.5666C17.9915 17.025 19.7165 14.9583 19.7165 12.4916C19.7165 12.15 19.9998 11.8666 20.3415 11.8666C20.6832 11.8666 20.9665 12.15 20.9665 12.4916C20.9582 16.0583 18.0582 18.9583 14.4998 18.9583Z" fill="white"/>
<path d="M3.66699 8.12502C3.32533 8.12502 3.04199 7.84169 3.04199 7.50002C3.04199 3.94169 5.94199 1.04169 9.50033 1.04169C9.72533 1.04169 9.93365 1.16669 10.042 1.35835C10.1503 1.55835 10.1503 1.79169 10.0337 1.99169L9.15866 3.45002C8.98366 3.74169 8.60032 3.84169 8.30032 3.66669C8.00032 3.49169 7.90865 3.10835 8.08365 2.80835L8.30867 2.43335C6.00867 2.97502 4.28365 5.04169 4.28365 7.50835C4.29198 7.84169 4.00866 8.12502 3.66699 8.12502Z" fill="white"/>
</svg>
