<svg width="22" height="20" viewBox="0 0 22 20" fill="none" xmlns="http://www.w3.org/2000/svg">
<path d="M20.3333 5.25833H12C11.6583 5.25833 11.375 4.975 11.375 4.63333C11.375 4.29166 11.6583 4.00833 12 4.00833H20.3333C20.675 4.00833 20.9583 4.29166 20.9583 4.63333C20.9583 4.98333 20.675 5.25833 20.3333 5.25833Z" fill="#9B5FCC"/>
<path d="M18.4828 9.37499H13.8578C12.0328 9.37499 11.3828 8.73332 11.3828 6.91666V3.49999C11.3828 1.68332 12.0328 1.04166 13.8578 1.04166H18.4828C20.3078 1.04166 20.9578 1.68332 20.9578 3.49999V6.92499C20.9578 8.73332 20.3078 9.37499 18.4828 9.37499ZM13.8495 2.29166C12.7161 2.29166 12.6245 2.38332 12.6245 3.49999V6.92499C12.6245 8.04166 12.7161 8.13332 13.8495 8.13332H18.4745C19.6078 8.13332 19.6995 8.04166 19.6995 6.92499V3.49999C19.6995 2.38332 19.6078 2.29166 18.4745 2.29166H13.8495Z" fill="#9B5FCC"/>
<path d="M12.0003 14.8417H3.66699C3.32533 14.8417 3.04199 14.5583 3.04199 14.2167C3.04199 13.875 3.32533 13.5917 3.66699 13.5917H12.0003C12.342 13.5917 12.6253 13.875 12.6253 14.2167C12.6253 14.5667 12.342 14.8417 12.0003 14.8417Z" fill="#9B5FCC"/>
<path d="M10.1498 18.9583H5.52481C3.69981 18.9583 3.0498 18.3167 3.0498 16.5V13.0833C3.0498 11.2667 3.69981 10.625 5.52481 10.625H10.1498C11.9748 10.625 12.6248 11.2667 12.6248 13.0833V16.5083C12.6248 18.3167 11.9748 18.9583 10.1498 18.9583ZM5.51646 11.875C4.38313 11.875 4.29146 11.9667 4.29146 13.0833V16.5083C4.29146 17.625 4.38313 17.7167 5.51646 17.7167H10.1415C11.2748 17.7167 11.3665 17.625 11.3665 16.5083V13.0833C11.3665 11.9667 11.2748 11.875 10.1415 11.875H5.51646Z" fill="#9B5FCC"/>
<path d="M14.4998 18.9583C14.2748 18.9583 14.0665 18.8333 13.9582 18.6417C13.8498 18.4417 13.8498 18.2083 13.9665 18.0083L14.8415 16.55C15.0165 16.2583 15.3998 16.1583 15.6998 16.3333C15.9998 16.5083 16.0915 16.8917 15.9165 17.1917L15.6915 17.5667C17.9915 17.025 19.7165 14.9583 19.7165 12.4917C19.7165 12.15 19.9998 11.8667 20.3415 11.8667C20.6832 11.8667 20.9665 12.15 20.9665 12.4917C20.9582 16.0583 18.0582 18.9583 14.4998 18.9583Z" fill="#9B5FCC"/>
<path d="M3.66699 8.12499C3.32533 8.12499 3.04199 7.84166 3.04199 7.49999C3.04199 3.94166 5.94199 1.04166 9.50033 1.04166C9.72533 1.04166 9.93365 1.16666 10.042 1.35832C10.1503 1.55832 10.1503 1.79166 10.0337 1.99166L9.15866 3.44999C8.98366 3.74166 8.60032 3.84166 8.30032 3.66666C8.00032 3.49166 7.90865 3.10832 8.08365 2.80832L8.30867 2.43332C6.00867 2.97499 4.28365 5.04166 4.28365 7.50832C4.29198 7.84166 4.00866 8.12499 3.66699 8.12499Z" fill="#9B5FCC"/>
</svg>
