<svg width="30" height="30" viewBox="0 0 30 30" fill="none" xmlns="http://www.w3.org/2000/svg">
<path d="M27.5 7.88745H15C14.4875 7.88745 14.0625 7.46245 14.0625 6.94995C14.0625 6.43745 14.4875 6.01245 15 6.01245H27.5C28.0125 6.01245 28.4375 6.43745 28.4375 6.94995C28.4375 7.47495 28.0125 7.88745 27.5 7.88745Z" fill="#2B2B2B"/>
<path d="M24.7242 14.0625H17.7867C15.0492 14.0625 14.0742 13.1 14.0742 10.375V5.25C14.0742 2.525 15.0492 1.5625 17.7867 1.5625H24.7242C27.4617 1.5625 28.4367 2.525 28.4367 5.25V10.3875C28.4367 13.1 27.4617 14.0625 24.7242 14.0625ZM17.7742 3.4375C16.0742 3.4375 15.9367 3.575 15.9367 5.25V10.3875C15.9367 12.0625 16.0742 12.2 17.7742 12.2H24.7117C26.4117 12.2 26.5492 12.0625 26.5492 10.3875V5.25C26.5492 3.575 26.4117 3.4375 24.7117 3.4375H17.7742Z" fill="#2B2B2B"/>
<path d="M15 22.2625H2.5C1.9875 22.2625 1.5625 21.8375 1.5625 21.325C1.5625 20.8125 1.9875 20.3875 2.5 20.3875H15C15.5125 20.3875 15.9375 20.8125 15.9375 21.325C15.9375 21.85 15.5125 22.2625 15 22.2625Z" fill="#2B2B2B"/>
<path d="M12.2242 28.4375H5.28672C2.54922 28.4375 1.57422 27.475 1.57422 24.75V19.625C1.57422 16.9 2.54922 15.9375 5.28672 15.9375H12.2242C14.9617 15.9375 15.9367 16.9 15.9367 19.625V24.7625C15.9367 27.475 14.9617 28.4375 12.2242 28.4375ZM5.27421 17.8125C3.57421 17.8125 3.43671 17.95 3.43671 19.625V24.7625C3.43671 26.4375 3.57421 26.575 5.27421 26.575H12.2117C13.9117 26.575 14.0492 26.4375 14.0492 24.7625V19.625C14.0492 17.95 13.9117 17.8125 12.2117 17.8125H5.27421Z" fill="#2B2B2B"/>
<path d="M18.7502 28.4375C18.4127 28.4375 18.1003 28.25 17.9378 27.9625C17.7753 27.6625 17.7752 27.3125 17.9502 27.0125L19.2627 24.825C19.5252 24.3875 20.1002 24.2375 20.5502 24.5C21.0002 24.7625 21.1378 25.3375 20.8753 25.7875L20.5377 26.35C23.9877 25.5375 26.5753 22.4375 26.5753 18.7375C26.5753 18.225 27.0003 17.8 27.5128 17.8C28.0253 17.8 28.4503 18.225 28.4503 18.7375C28.4378 24.0875 24.0877 28.4375 18.7502 28.4375Z" fill="#2B2B2B"/>
<path d="M2.5 12.1875C1.9875 12.1875 1.5625 11.7625 1.5625 11.25C1.5625 5.9125 5.9125 1.5625 11.25 1.5625C11.5875 1.5625 11.9 1.75 12.0625 2.0375C12.225 2.3375 12.225 2.6875 12.05 2.9875L10.7375 5.175C10.475 5.6125 9.9 5.7625 9.45 5.5C9 5.2375 8.86248 4.6625 9.12498 4.2125L9.46251 3.65C6.01251 4.4625 3.42499 7.5625 3.42499 11.2625C3.43749 11.7625 3.0125 12.1875 2.5 12.1875Z" fill="#2B2B2B"/>
</svg>
