<svg width="21" height="21" viewBox="0 0 21 21" fill="none" xmlns="http://www.w3.org/2000/svg">
<path d="M10.5 11.1562C7.72625 11.1562 5.46875 8.89875 5.46875 6.125C5.46875 3.35125 7.72625 1.09375 10.5 1.09375C13.2738 1.09375 15.5312 3.35125 15.5312 6.125C15.5312 8.89875 13.2738 11.1562 10.5 11.1562ZM10.5 2.40625C8.4525 2.40625 6.78125 4.0775 6.78125 6.125C6.78125 8.1725 8.4525 9.84375 10.5 9.84375C12.5475 9.84375 14.2188 8.1725 14.2188 6.125C14.2188 4.0775 12.5475 2.40625 10.5 2.40625Z" fill="white"/>
<path d="M13.8426 19.9063C13.5101 19.9063 13.1951 19.7837 12.9676 19.5562C12.6964 19.285 12.5739 18.8913 12.6351 18.48L12.8014 17.2988C12.8451 16.9925 13.0289 16.6338 13.2476 16.4063L16.3451 13.3088C17.5876 12.0663 18.6814 12.775 19.2151 13.3088C19.6701 13.7638 19.9064 14.2537 19.9064 14.7437C19.9064 15.2425 19.6789 15.7062 19.2151 16.17L16.1176 19.2675C15.8988 19.4863 15.5314 19.67 15.2251 19.7138L14.0438 19.88C13.9738 19.8975 13.9126 19.9063 13.8426 19.9063ZM17.7714 13.93C17.6139 13.93 17.4738 14.035 17.2726 14.2363L14.1751 17.3338C14.1489 17.36 14.1051 17.4475 14.1051 17.4825L13.9476 18.5762L15.0414 18.4188C15.0764 18.41 15.1638 18.3663 15.1901 18.34L18.2876 15.2425C18.4276 15.1025 18.5939 14.9012 18.5939 14.7437C18.5939 14.6125 18.4889 14.4288 18.2876 14.2363C18.0776 14.0263 17.9201 13.93 17.7714 13.93Z" fill="white"/>
<path d="M18.305 16.8175C18.2438 16.8175 18.1825 16.8088 18.13 16.7913C16.975 16.4675 16.0563 15.5488 15.7325 14.3938C15.6363 14.0438 15.8375 13.685 16.1875 13.5888C16.5375 13.4925 16.8963 13.6938 16.9925 14.0438C17.1938 14.7613 17.7625 15.33 18.48 15.5313C18.83 15.6275 19.0313 15.995 18.9351 16.3362C18.8563 16.625 18.5938 16.8175 18.305 16.8175Z" fill="white"/>
<path d="M2.98389 19.9062C2.62514 19.9062 2.32764 19.6087 2.32764 19.25C2.32764 15.5138 5.99391 12.4688 10.5002 12.4688C11.4539 12.4688 12.3989 12.6088 13.2827 12.8713C13.6327 12.9763 13.8252 13.3438 13.7202 13.685C13.6152 14.035 13.2477 14.2275 12.9064 14.1225C12.1364 13.895 11.3314 13.7725 10.5002 13.7725C6.72016 13.7725 3.64014 16.2225 3.64014 19.2412C3.64014 19.6087 3.34264 19.9062 2.98389 19.9062Z" fill="white"/>
</svg>
