<svg width="22" height="21" viewBox="0 0 22 21" fill="none" xmlns="http://www.w3.org/2000/svg">
<path d="M15.4879 9.83995C15.3264 9.83995 15.1649 9.78218 15.0374 9.65843C14.7909 9.41918 14.7909 9.02318 15.0374 8.78393L17.7489 6.15218L15.0374 3.52043C14.7909 3.28118 14.7909 2.88518 15.0374 2.64593C15.2839 2.40668 15.6919 2.40668 15.9384 2.64593L19.1004 5.71496C19.2194 5.83046 19.2874 5.98718 19.2874 6.15218C19.2874 6.31718 19.2194 6.47395 19.1004 6.58945L15.9384 9.65843C15.8109 9.77393 15.6494 9.83995 15.4879 9.83995Z" fill="#1B76FF"/>
<path d="M18.6501 6.77095H3.35015C3.00165 6.77095 2.71265 6.49045 2.71265 6.1522C2.71265 5.81395 3.00165 5.53345 3.35015 5.53345H18.6501C18.9986 5.53345 19.2876 5.81395 19.2876 6.1522C19.2876 6.49045 18.9986 6.77095 18.6501 6.77095Z" fill="#1B76FF"/>
<path opacity="0.2" d="M6.51212 18.5437C6.35062 18.5437 6.18915 18.486 6.06165 18.3622L2.89962 15.2932C2.78062 15.1777 2.71265 15.021 2.71265 14.856C2.71265 14.691 2.78062 14.5342 2.89962 14.4187L6.06165 11.3497C6.30815 11.1105 6.71615 11.1105 6.96265 11.3497C7.20915 11.589 7.20915 11.985 6.96265 12.2242L4.25114 14.856L6.96265 17.4877C7.20915 17.7269 7.20915 18.123 6.96265 18.3622C6.84365 18.486 6.68212 18.5437 6.51212 18.5437Z" fill="#1B76FF"/>
<path opacity="0.2" d="M18.6501 15.4665H3.35015C3.00165 15.4665 2.71265 15.186 2.71265 14.8478C2.71265 14.5095 3.00165 14.229 3.35015 14.229H18.6501C18.9986 14.229 19.2876 14.5095 19.2876 14.8478C19.2876 15.186 18.9986 15.4665 18.6501 15.4665Z" fill="#1B76FF"/>
</svg>
