<svg width="19" height="19" viewBox="0 0 19 19" fill="none" xmlns="http://www.w3.org/2000/svg">
<path d="M6.11172 1.50415L9.12005 1.50415C9.56338 1.50415 10.5292 1.63874 11.0438 2.15332L13.4425 4.00582L12.7142 4.9479L10.26 3.0479C10.0621 2.8579 9.56338 2.69957 9.12005 2.69957L6.11172 2.69957C5.39922 2.69957 4.6313 3.26957 4.47297 3.91082L2.55713 9.72957C2.43047 10.0779 2.45422 10.3946 2.62047 10.6242C2.79463 10.8696 3.1113 11.0121 3.49922 11.0121L6.66588 11.0121C7.07755 11.0121 7.45755 11.1862 7.7188 11.4871C7.98796 11.7958 8.10671 12.2075 8.04338 12.635L7.64755 15.1762C7.55255 15.6196 7.85338 16.1183 8.28088 16.2608C8.6688 16.4033 9.16755 16.1975 9.34171 15.9442L12.5875 11.115L13.5692 11.7721L10.3234 16.6012C9.82463 17.3454 8.73213 17.7017 7.87713 17.3771C6.88755 17.0525 6.25422 15.96 6.47588 14.9467L6.8638 12.4529C6.87172 12.3975 6.87171 12.3183 6.8163 12.255C6.77671 12.2154 6.7213 12.1917 6.65797 12.1917L3.4913 12.1917C2.71547 12.1917 2.04255 11.8671 1.64672 11.305C1.2588 10.7587 1.17963 10.0383 1.43297 9.34165L3.32505 3.57832C3.61797 2.4304 4.83713 1.50415 6.11172 1.50415Z" fill="white"/>
<path d="M14.7408 2.37498L15.5325 2.37498C16.9971 2.37498 17.7096 3.06373 17.7096 4.4729L17.7096 12.2312C17.7096 13.6404 16.9971 14.3291 15.5325 14.3291L14.7408 14.3291C13.2763 14.3291 12.5638 13.6404 12.5638 12.2312L12.5638 4.4729C12.5638 3.06373 13.2763 2.37498 14.7408 2.37498ZM15.5325 13.1416C16.3954 13.1416 16.5221 12.9358 16.5221 12.2312L16.5221 4.4729C16.5221 3.76831 16.3954 3.56248 15.5325 3.56248L14.7408 3.56248C13.8779 3.56248 13.7513 3.76831 13.7513 4.4729L13.7513 12.2312C13.7513 12.9358 13.8779 13.1416 14.7408 13.1416L15.5325 13.1416Z" fill="white"/>
</svg>
