<svg width="20" height="19" viewBox="0 0 20 19" fill="none" xmlns="http://www.w3.org/2000/svg">
<path d="M11.3199 13.7907H9.3328C8.03447 13.7907 6.98155 12.6982 6.98155 11.3523C6.98155 11.0277 7.25072 10.7586 7.5753 10.7586C7.89988 10.7586 8.16905 11.0277 8.16905 11.3523C8.16905 12.0411 8.69155 12.6032 9.3328 12.6032H11.3199C11.8345 12.6032 12.262 12.144 12.262 11.5898C12.262 10.9011 12.0166 10.7665 11.6128 10.624L8.42238 9.49982C7.80488 9.28607 6.97363 8.8269 6.97363 7.40982C6.97363 6.19065 7.93155 5.20898 9.10322 5.20898H11.0903C12.3886 5.20898 13.4415 6.30148 13.4415 7.64732C13.4415 7.9719 13.1724 8.24107 12.8478 8.24107C12.5232 8.24107 12.254 7.9719 12.254 7.64732C12.254 6.95857 11.7315 6.39648 11.0903 6.39648H9.10322C8.58863 6.39648 8.16113 6.85565 8.16113 7.40982C8.16113 8.09857 8.40655 8.23315 8.8103 8.37565L12.0007 9.49982C12.6182 9.71357 13.4495 10.1727 13.4495 11.5898C13.4415 12.8011 12.4915 13.7907 11.3199 13.7907Z" fill="white"/>
<path d="M10.2117 14.8438C9.88709 14.8438 9.61792 14.5746 9.61792 14.25V4.75C9.61792 4.42542 9.88709 4.15625 10.2117 4.15625C10.5363 4.15625 10.8054 4.42542 10.8054 4.75V14.25C10.8054 14.5746 10.5363 14.8438 10.2117 14.8438Z" fill="white"/>
<path d="M12.5866 18.0111H7.83659C3.53784 18.0111 1.70117 16.1744 1.70117 11.8757V7.12565C1.70117 2.8269 3.53784 0.990234 7.83659 0.990234H12.5866C16.8853 0.990234 18.722 2.8269 18.722 7.12565V11.8757C18.722 16.1744 16.8853 18.0111 12.5866 18.0111ZM7.83659 2.17773C4.18701 2.17773 2.88867 3.47607 2.88867 7.12565V11.8757C2.88867 15.5252 4.18701 16.8236 7.83659 16.8236H12.5866C16.2362 16.8236 17.5345 15.5252 17.5345 11.8757V7.12565C17.5345 3.47607 16.2362 2.17773 12.5866 2.17773H7.83659Z" fill="white"/>
</svg>
