<svg width="9" height="18" viewBox="0 0 9 18" fill="currentColor" xmlns="http://www.w3.org/2000/svg">
<path d="M4.00279 17.8745C3.8236 17.8745 3.65333 17.8012 3.5279 17.6729L0.194876 14.2628C-0.0649586 13.997 -0.0649586 13.557 0.194876 13.2912C0.45471 13.0253 0.884778 13.0253 1.14461 13.2912L4.00279 16.2153L6.86092 13.2912C7.12075 13.0253 7.55087 13.0253 7.81071 13.2912C8.07054 13.557 8.07054 13.997 7.81071 14.2628L4.47763 17.6729C4.3522 17.8012 4.17303 17.8745 4.00279 17.8745Z" fill="currentColor"/>
<path d="M3.99384 17.875C3.62649 17.875 3.32185 17.5633 3.32185 17.1875V0.6875C3.32185 0.311667 3.62649 0 3.99384 0C4.36119 0 4.66582 0.311667 4.66582 0.6875V17.1875C4.66582 17.5633 4.37015 17.875 3.99384 17.875Z" fill="currentColor"/>
</svg>
