<svg width="22" height="20" viewBox="0 0 22 20" fill="none" xmlns="http://www.w3.org/2000/svg">
<path d="M14.8517 8.86479C14.8501 8.86479 14.8487 8.86479 14.8471 8.86479H13.0048V7.01788C13.0072 6.64538 12.7073 6.34136 12.3348 6.33887C12.3333 6.33887 12.3317 6.33887 12.3303 6.33887H9.66854C9.29605 6.33887 8.99406 6.64086 8.99406 7.01335V8.86027H7.15167C6.77917 8.85778 6.47515 9.15767 6.47266 9.53017C6.47266 9.53322 6.47266 9.53622 6.47266 9.53928V12.1965C6.47266 12.569 6.77465 12.871 7.14714 12.871H8.99406V14.7134C8.99157 15.0858 9.29152 15.3899 9.66401 15.3924C9.66554 15.3924 9.66707 15.3924 9.66854 15.3924H12.3257C12.6982 15.3924 13.0002 15.0904 13.0002 14.7179V12.871H14.8471C15.2196 12.8735 15.5237 12.5735 15.5262 12.201C15.5262 12.1995 15.5262 12.198 15.5262 12.1965V9.53928C15.5262 9.16678 15.2242 8.86479 14.8517 8.86479ZM14.6208 11.9656H12.5521C12.3021 11.9656 12.0994 12.1683 12.0994 12.4183V14.487H9.89941V12.4183C9.89941 12.1683 9.69672 11.9656 9.44673 11.9656H7.37801V9.77014H9.44673C9.69672 9.77014 9.89941 9.56746 9.89941 9.31747V7.24422H12.0949V9.31294C12.0949 9.56293 12.2976 9.76562 12.5476 9.76562H14.6208V11.9656Z" fill="white"/>
<path d="M18.8765 2.95326H15.1465V1.35984C15.17 0.632733 14.5996 0.0242243 13.8724 0.0007418C13.8354 -0.000446471 13.7983 -0.000107016 13.7613 0.00181685H8.23868C7.51214 -0.0360381 6.89249 0.522223 6.85457 1.24871C6.85265 1.28572 6.85225 1.32278 6.8535 1.35984V2.9442H3.12346C1.68395 2.9442 0 3.76355 0 6.06766V15.9133C0 18.2175 1.68395 19.0368 3.12346 19.0368H18.8765C20.3161 19.0368 22 18.2175 22 15.9133V6.07671C22 3.7726 20.3206 2.95326 18.8765 2.95326ZM7.75885 1.35984C7.75885 1.22857 7.75885 0.875479 8.24321 0.875479H13.7613C14.2457 0.875479 14.2457 1.22404 14.2457 1.35984V2.9442H7.75885V1.35984ZM21.0947 15.9133C21.0947 17.9142 19.5465 18.1314 18.8765 18.1314H3.12346C2.45802 18.1314 0.90535 17.9142 0.90535 15.9133V6.07671C0.90535 4.07589 2.4535 3.85861 3.12346 3.85861H18.8765C19.542 3.85861 21.0947 4.07589 21.0947 6.07671V15.9133Z" fill="white"/>
</svg>
