<svg width="16" height="15" viewBox="0 0 16 15" fill="none" xmlns="http://www.w3.org/2000/svg">
<path d="M7.99995 10.2062C6.40661 10.2062 5.11328 8.9937 5.11328 7.49995C5.11328 6.0062 6.40661 4.7937 7.99995 4.7937C9.59328 4.7937 10.8866 6.0062 10.8866 7.49995C10.8866 8.9937 9.59328 10.2062 7.99995 10.2062ZM7.99995 5.7312C6.95995 5.7312 6.11328 6.52495 6.11328 7.49995C6.11328 8.47495 6.95995 9.2687 7.99995 9.2687C9.03995 9.2687 9.88661 8.47495 9.88661 7.49995C9.88661 6.52495 9.03995 5.7312 7.99995 5.7312Z" fill="#2B2B2B"/>
<path d="M8.00022 13.1375C5.49355 13.1375 3.12688 11.7625 1.50021 9.37505C0.793548 8.3438 0.793548 6.66255 1.50021 5.62505C3.13355 3.23755 5.50022 1.86255 8.00022 1.86255C10.5002 1.86255 12.8669 3.23755 14.4935 5.62505C15.2002 6.6563 15.2002 8.33755 14.4935 9.37505C12.8669 11.7625 10.5002 13.1375 8.00022 13.1375ZM8.00022 2.80005C5.84688 2.80005 3.78688 4.01255 2.34688 6.1313C1.84688 6.86255 1.84688 8.13755 2.34688 8.8688C3.78688 10.9875 5.84688 12.2 8.00022 12.2C10.1535 12.2 12.2135 10.9875 13.6535 8.8688C14.1535 8.13755 14.1535 6.86255 13.6535 6.1313C12.2135 4.01255 10.1535 2.80005 8.00022 2.80005Z" fill="#2B2B2B"/>
</svg>
