<svg width="8" height="15" viewBox="0 0 8 15" fill="none" xmlns="http://www.w3.org/2000/svg">
<path d="M0.508058 8.19077H2.04267V14.5086C2.04267 14.6333 2.14373 14.7344 2.26848 14.7344H4.87048C4.99522 14.7344 5.09629 14.6333 5.09629 14.5086V8.22055H6.86048C6.97518 8.22055 7.07171 8.13447 7.08481 8.02053L7.35275 5.69464C7.3601 5.63066 7.33984 5.56656 7.29702 5.51855C7.25417 5.4705 7.19284 5.443 7.12847 5.443H5.0964V3.985C5.0964 3.5455 5.33303 3.32262 5.79984 3.32262C5.86637 3.32262 7.12847 3.32262 7.12847 3.32262C7.25321 3.32262 7.35428 3.22151 7.35428 3.09682V0.961848C7.35428 0.837105 7.25321 0.736043 7.12847 0.736043H5.2974C5.28449 0.735414 5.25581 0.734375 5.21354 0.734375C4.89583 0.734375 3.7915 0.796746 2.91915 1.59926C1.9526 2.48859 2.08697 3.55338 2.11907 3.738V5.44294H0.508031C0.383289 5.44294 0.282227 5.544 0.282227 5.66875V7.96494C0.282254 8.08965 0.383316 8.19077 0.508058 8.19077Z" fill="white"/>
</svg>
