<svg width="35" height="35" viewBox="0 0 35 35" fill="none" xmlns="http://www.w3.org/2000/svg">
<path d="M13.2379 23.2779C13.2379 22.9953 13.3502 22.7243 13.55 22.5244C13.7498 22.3246 14.0209 22.2123 14.3035 22.2123H20.6973C20.9799 22.2123 21.2509 22.3246 21.4508 22.5244C21.6506 22.7243 21.7629 22.9953 21.7629 23.2779C21.7629 23.5606 21.6506 23.8316 21.4508 24.0314C21.2509 24.2313 20.9799 24.3436 20.6973 24.3436H14.3035C14.0209 24.3436 13.7498 24.2313 13.55 24.0314C13.3502 23.8316 13.2379 23.5606 13.2379 23.2779ZM8.97539 16.8842C8.97539 16.6016 9.08766 16.3305 9.2875 16.1307C9.48735 15.9308 9.75839 15.8186 10.041 15.8186H24.9598C25.2424 15.8186 25.5134 15.9308 25.7133 16.1307C25.9131 16.3305 26.0254 16.6016 26.0254 16.8842C26.0254 17.1668 25.9131 17.4378 25.7133 17.6377C25.5134 17.8375 25.2424 17.9498 24.9598 17.9498H10.041C9.75839 17.9498 9.48735 17.8375 9.2875 17.6377C9.08766 17.4378 8.97539 17.1668 8.97539 16.8842ZM4.71289 10.4904C4.71289 10.2078 4.82516 9.93676 5.02501 9.73692C5.22485 9.53708 5.49589 9.4248 5.77852 9.4248H29.2223C29.5049 9.4248 29.7759 9.53708 29.9758 9.73692C30.1756 9.93676 30.2879 10.2078 30.2879 10.4904C30.2879 10.7731 30.1756 11.0441 29.9758 11.2439C29.7759 11.4438 29.5049 11.5561 29.2223 11.5561H5.77852C5.49589 11.5561 5.22485 11.4438 5.02501 11.2439C4.82516 11.0441 4.71289 10.7731 4.71289 10.4904Z" fill="white"/>
</svg>
