<svg width="22" height="22" viewBox="0 0 22 22" fill="none" xmlns="http://www.w3.org/2000/svg">
<path d="M20.8913 7.83204H15.6411C15.2741 7.83204 14.9824 7.54036 14.9824 7.17341C14.9824 6.80645 15.2741 6.51477 15.6411 6.51477H20.8913C21.2583 6.51477 21.55 6.80645 21.55 7.17341C21.55 7.54036 21.2583 7.83204 20.8913 7.83204Z" fill="white"/>
<path d="M6.89075 7.83204H3.39057C3.02362 7.83204 2.73193 7.54036 2.73193 7.17341C2.73193 6.80645 3.02362 6.51477 3.39057 6.51477H6.89075C7.25771 6.51477 7.54939 6.80645 7.54939 7.17341C7.54939 7.54036 7.2483 7.83204 6.89075 7.83204Z" fill="white"/>
<path d="M10.3909 10.89C12.4435 10.89 14.1075 9.226 14.1075 7.17338C14.1075 5.12076 12.4435 3.45679 10.3909 3.45679C8.33829 3.45679 6.67432 5.12076 6.67432 7.17338C6.67432 9.226 8.33829 10.89 10.3909 10.89Z" fill="white"/>
<path d="M20.8912 17.4575H17.3911C17.0241 17.4575 16.7324 17.1659 16.7324 16.7989C16.7324 16.4319 17.0241 16.1403 17.3911 16.1403H20.8912C21.2582 16.1403 21.5499 16.4319 21.5499 16.7989C21.5499 17.1659 21.2582 17.4575 20.8912 17.4575Z" fill="white"/>
<path d="M8.64084 17.4575H3.39057C3.02362 17.4575 2.73193 17.1659 2.73193 16.7989C2.73193 16.4319 3.02362 16.1403 3.39057 16.1403H8.64084C9.0078 16.1403 9.29948 16.4319 9.29948 16.7989C9.29948 17.1659 8.99839 17.4575 8.64084 17.4575Z" fill="white"/>
<path d="M13.8909 20.5249C15.9435 20.5249 17.6075 18.8609 17.6075 16.8083C17.6075 14.7557 15.9435 13.0917 13.8909 13.0917C11.8383 13.0917 10.1743 14.7557 10.1743 16.8083C10.1743 18.8609 11.8383 20.5249 13.8909 20.5249Z" fill="white"/>
</svg>
