<svg width="21" height="23" viewBox="0 0 21 23" fill="none" xmlns="http://www.w3.org/2000/svg">
<path d="M4.2915 18.9583C3.94984 18.9583 3.6665 18.675 3.6665 18.3333V1.66666C3.6665 1.32499 3.94984 1.04166 4.2915 1.04166C4.63317 1.04166 4.9165 1.32499 4.9165 1.66666V18.3333C4.9165 18.675 4.63317 18.9583 4.2915 18.9583Z" fill="white"/>
<path d="M13.6248 13.9583H4.2915C3.94984 13.9583 3.6665 13.675 3.6665 13.3333C3.6665 12.9917 3.94984 12.7083 4.2915 12.7083H13.6248C14.5332 12.7083 14.9582 12.4667 15.0415 12.2583C15.1248 12.05 14.9998 11.5833 14.3498 10.9417L13.3498 9.94168C12.9415 9.58334 12.6915 9.04168 12.6665 8.44168C12.6415 7.80834 12.8915 7.18334 13.3498 6.72501L14.3498 5.72501C14.9665 5.10834 15.1582 4.60834 15.0665 4.39168C14.9748 4.17501 14.4998 3.95834 13.6248 3.95834H4.2915C3.9415 3.95834 3.6665 3.67501 3.6665 3.33334C3.6665 2.99168 3.94984 2.70834 4.2915 2.70834H13.6248C15.4498 2.70834 16.0332 3.46668 16.2248 3.91668C16.4082 4.36668 16.5332 5.31668 15.2332 6.61668L14.2332 7.61668C14.0248 7.82501 13.9082 8.11668 13.9165 8.40834C13.9248 8.65834 14.0248 8.88334 14.1998 9.04168L15.2332 10.0667C16.5082 11.3417 16.3832 12.2917 16.1998 12.75C16.0082 13.1917 15.4165 13.9583 13.6248 13.9583Z" fill="white"/>
<circle cx="16.5" cy="18.5" r="4" stroke="white"/>
<path d="M18.3102 18.7808H14.4171C14.1891 18.7808 14 18.5917 14 18.3636C14 18.1356 14.1891 17.9465 14.4171 17.9465H18.3102C18.5382 17.9465 18.7273 18.1356 18.7273 18.3636C18.7273 18.5917 18.5382 18.7808 18.3102 18.7808Z" fill="#F5F5F5"/>
<path d="M16.3639 20.7273C16.1359 20.7273 15.9468 20.5382 15.9468 20.3102V16.4171C15.9468 16.1891 16.1359 16 16.3639 16C16.5919 16 16.781 16.1891 16.781 16.4171V20.3102C16.781 20.5382 16.5919 20.7273 16.3639 20.7273Z" fill="#F5F5F5"/>
</svg>
