<svg width="25" height="24" viewBox="0 0 25 24" fill="none" xmlns="http://www.w3.org/2000/svg">
<path d="M15.5718 22.75H9.57178C4.14178 22.75 1.82178 20.43 1.82178 15V9C1.82178 3.57 4.14178 1.25 9.57178 1.25H15.5718C21.0018 1.25 23.3218 3.57 23.3218 9V15C23.3218 20.43 21.0018 22.75 15.5718 22.75ZM9.57178 2.75C4.96178 2.75 3.32178 4.39 3.32178 9V15C3.32178 19.61 4.96178 21.25 9.57178 21.25H15.5718C20.1818 21.25 21.8218 19.61 21.8218 15V9C21.8218 4.39 20.1818 2.75 15.5718 2.75H9.57178Z" fill="white"/>
<path d="M22.5716 9.25H2.60156C2.19156 9.25 1.85156 8.91 1.85156 8.5C1.85156 8.09 2.19156 7.75 2.60156 7.75H22.5716C22.9816 7.75 23.3216 8.09 23.3216 8.5C23.3216 8.91 22.9816 9.25 22.5716 9.25Z" fill="white"/>
<path d="M22.5716 16.25H2.60156C2.19156 16.25 1.85156 15.91 1.85156 15.5C1.85156 15.09 2.19156 14.75 2.60156 14.75H22.5716C22.9816 14.75 23.3216 15.09 23.3216 15.5C23.3216 15.91 22.9816 16.25 22.5716 16.25Z" fill="white"/>
<path d="M9.08154 22.74C8.67154 22.74 8.33154 22.4 8.33154 21.99V2.01001C8.33154 1.60001 8.67154 1.26001 9.08154 1.26001C9.49154 1.26001 9.83154 1.60001 9.83154 2.01001V21.98C9.83154 22.4 9.50154 22.74 9.08154 22.74Z" fill="white"/>
<path d="M16.0815 22.74C15.6715 22.74 15.3315 22.4 15.3315 21.99V2.01001C15.3315 1.60001 15.6715 1.26001 16.0815 1.26001C16.4915 1.26001 16.8315 1.60001 16.8315 2.01001V21.98C16.8315 22.4 16.5015 22.74 16.0815 22.74Z" fill="white"/>
</svg>
