<svg width="17" height="16" viewBox="0 0 17 16" fill="none" xmlns="http://www.w3.org/2000/svg">
<g clip-path="url(#clip0_3165_4849)">
<path d="M8.51163 0.00237714C10.2517 0.00237714 11.9917 0.00258699 13.7318 0.0021673C14.03 0.0021673 14.3283 0.00132792 14.6265 -0.000350833C14.9298 -0.00202959 15.1349 0.13374 15.2578 0.408636C15.7504 1.50885 16.2534 2.60445 16.7408 3.70676C17.075 4.46241 17.1072 5.22372 16.7146 5.97413C16.4844 6.41417 16.1394 6.75286 15.7176 7.01412C15.6001 7.08672 15.5628 7.16562 15.563 7.30013C15.5675 9.64955 15.5656 11.9992 15.5669 14.3486C15.5671 14.7137 15.4961 15.0595 15.2809 15.3624C14.9756 15.7917 14.5379 15.9738 14.0189 15.9881C13.7529 15.9955 13.4865 15.9965 13.2202 15.9967C10.8587 15.9982 8.49735 15.9992 6.13579 15.9994C5.17348 15.9997 4.21117 15.9994 3.24886 15.9959C2.9722 15.9948 2.69385 15.9938 2.4302 15.8903C1.82191 15.6519 1.50923 15.1953 1.46064 14.567C1.43314 14.2124 1.44508 13.8544 1.44487 13.4979C1.4438 11.4385 1.44359 9.37927 1.44636 7.31986C1.44657 7.22312 1.41609 7.15828 1.34405 7.0947C1.07465 6.85673 0.794799 6.628 0.565037 6.35059C-0.0758648 5.57647 -0.147479 4.72429 0.228708 3.82008C0.655834 2.7952 1.13219 1.79109 1.58532 0.776913C1.64244 0.648908 1.70084 0.521532 1.75605 0.392688C1.87221 0.122618 2.08257 -0.00119021 2.37542 6.88552e-05C2.64163 0.00111808 2.90805 0.00237714 3.17426 0.00237714C4.95352 0.00258699 6.73258 0.00237714 8.51163 0.00237714ZM2.36775 11.0173C2.36775 11.9228 2.36754 12.8283 2.36796 13.7338C2.36817 13.9925 2.36263 14.2512 2.37286 14.5095C2.3848 14.8098 2.56831 15.0113 2.86777 15.0684C2.93341 15.081 3.00183 15.0843 3.06876 15.0845C4.0381 15.0856 5.00745 15.0841 5.97701 15.0872C6.06652 15.0875 6.08187 15.0564 6.08123 14.9783C6.07782 14.6218 6.07974 14.2651 6.07974 13.9086C6.07995 12.5101 6.07761 11.1117 6.0823 9.71334C6.08379 9.26491 6.23618 9.12494 6.68888 9.12431C7.85346 9.12305 9.01826 9.12263 10.1828 9.12221C10.2964 9.12221 10.4096 9.12347 10.5226 9.14194C10.7498 9.17929 10.8561 9.2819 10.8992 9.5077C10.9171 9.60129 10.919 9.6953 10.919 9.78952C10.919 11.2683 10.9179 12.7473 10.9203 14.226C10.9207 14.4774 10.9141 14.729 10.9324 14.9806C10.939 15.0703 10.9704 15.087 11.0537 15.0868C11.9841 15.0841 12.9144 15.0851 13.8447 15.0849C13.9051 15.0849 13.9656 15.0841 14.0257 15.0799C14.4243 15.0524 14.6169 14.8642 14.6444 14.4716C14.6521 14.3637 14.6506 14.255 14.6506 14.1465C14.651 12.2063 14.651 10.2659 14.6506 8.32564C14.6506 8.06691 14.6453 7.80838 14.6449 7.54964C14.6446 7.4806 14.618 7.44786 14.5457 7.44451C14.4643 7.44052 14.3835 7.42751 14.3023 7.41954C13.8665 7.37694 13.433 7.32406 13.0442 7.10141C12.8539 6.9925 12.6633 6.88401 12.4758 6.77049C12.4041 6.72726 12.3509 6.7197 12.2771 6.77615C12.1627 6.86366 12.0378 6.93941 11.9116 7.01055C11.279 7.36728 10.6087 7.52131 9.88487 7.35553C9.40979 7.24662 8.98969 7.02314 8.60882 6.7281C8.52932 6.6664 8.48179 6.66494 8.4025 6.72894C8.28229 6.8261 8.15015 6.91024 8.01651 6.98956C7.38051 7.36686 6.70146 7.5232 5.96528 7.35616C5.51194 7.25334 5.10677 7.04706 4.73463 6.77678C4.67048 6.7302 4.62146 6.72411 4.55474 6.76671C4.45372 6.83134 4.34608 6.88632 4.24314 6.94801C3.89764 7.15492 3.53808 7.32511 3.1295 7.37085C2.91807 7.39456 2.70685 7.42394 2.49478 7.43905C2.39503 7.44619 2.36562 7.47766 2.36583 7.57713C2.36903 8.72393 2.36775 9.87052 2.36775 11.0173ZM8.51035 3.4967C10.8465 3.4967 13.1827 3.4967 15.5189 3.4967C15.6419 3.4967 15.6421 3.49629 15.592 3.38591C15.2355 2.59731 14.8776 1.80935 14.5246 1.01928C14.4899 0.941431 14.4486 0.919397 14.3659 0.919607C10.4567 0.921495 6.54779 0.921705 2.63865 0.918977C2.54806 0.918977 2.50927 0.950874 2.47496 1.02789C2.1284 1.80914 1.778 2.58892 1.42888 3.36912C1.37197 3.49629 1.3724 3.4967 1.51243 3.4967C3.84521 3.4967 6.17778 3.4967 8.51035 3.4967ZM14.2695 6.50545C14.8539 6.48342 15.3618 6.29771 15.7244 5.82178C16.0017 5.45791 16.1468 5.05459 16.0403 4.59335C16.0021 4.42799 15.9974 4.42904 15.829 4.42904C10.9393 4.42904 6.04947 4.42904 1.15969 4.42904C1.13475 4.42904 1.1096 4.43156 1.08509 4.42862C1.01795 4.42044 0.993442 4.45171 0.980228 4.51445C0.892842 4.927 0.954012 5.31333 1.17972 5.673C1.54994 6.26308 2.30082 6.59946 3.00503 6.49034C3.53084 6.40892 3.9473 6.17243 4.18708 5.68433C4.19945 5.65936 4.21586 5.63607 4.23248 5.61341C4.37038 5.42496 4.58373 5.38195 4.78578 5.50093C4.88553 5.55968 4.95779 5.64446 5.0262 5.7349C5.69034 6.61163 6.8449 6.7686 7.70469 6.09898C7.86156 5.97686 7.98966 5.82766 8.11242 5.67258C8.36563 5.35278 8.68256 5.36201 8.91702 5.69084C8.92725 5.70511 8.93662 5.72001 8.94685 5.73428C9.02103 5.8371 9.10138 5.93489 9.19473 6.02134C10.0739 6.83722 11.5412 6.5405 12.0484 5.66922C12.2443 5.33284 12.6435 5.34795 12.8311 5.69063C13.1414 6.25742 13.6431 6.48279 14.2695 6.50545ZM7.01541 12.5521C7.01541 13.3525 7.01647 14.1528 7.0137 14.9532C7.01349 15.036 7.03033 15.0679 7.12326 15.0677C8.0391 15.0644 8.95495 15.0644 9.8708 15.0675C9.96096 15.0677 9.9827 15.0405 9.9827 14.955C9.98035 13.3613 9.98014 11.7677 9.98312 10.174C9.98334 10.0787 9.95329 10.0585 9.86228 10.0587C8.95346 10.0619 8.04486 10.0623 7.13604 10.0583C7.03502 10.0579 7.01306 10.089 7.01349 10.1826C7.0169 10.9724 7.01541 11.7623 7.01541 12.5521Z" fill="white"/>
</g>
<defs>
<clipPath id="clip0_3165_4849">
<rect width="17" height="16" fill="white"/>
</clipPath>
</defs>
</svg>
