<svg width="22" height="20" viewBox="0 0 22 20" fill="none" xmlns="http://www.w3.org/2000/svg">
<path d="M3.15951 15.6243C2.78937 15.6243 2.48242 15.341 2.48242 14.9993V5.83268C2.48242 2.15768 3.69214 1.04102 7.67339 1.04102H13.9928C17.9741 1.04102 19.1838 2.15768 19.1838 5.83268V14.166C19.1838 14.2993 19.1838 14.4243 19.1748 14.5577C19.1477 14.8993 18.8137 15.166 18.4526 15.141C18.0824 15.116 17.7935 14.816 17.8206 14.4743C17.8296 14.3743 17.8296 14.266 17.8296 14.166V5.83268C17.8296 2.85768 17.2248 2.29102 13.9928 2.29102H7.67339C4.44145 2.29102 3.83659 2.85768 3.83659 5.83268V14.9993C3.83659 15.341 3.52964 15.6243 3.15951 15.6243Z" fill="#C6C6C6"/>
<path d="M15.347 18.9583H6.31923C4.20673 18.9583 2.48242 17.3667 2.48242 15.4167V14.875C2.48242 13.2167 3.94492 11.875 5.73242 11.875H18.5067C18.8769 11.875 19.1838 12.1583 19.1838 12.5V15.4167C19.1838 17.3667 17.4595 18.9583 15.347 18.9583ZM5.73242 13.125C4.6852 13.125 3.83659 13.9083 3.83659 14.875V15.4167C3.83659 16.6833 4.94701 17.7083 6.31923 17.7083H15.347C16.7192 17.7083 17.8296 16.6833 17.8296 15.4167V13.125H5.73242Z" fill="#C6C6C6"/>
<path d="M14.4442 6.45898H7.22201C6.85187 6.45898 6.54492 6.17565 6.54492 5.83398C6.54492 5.49232 6.85187 5.20898 7.22201 5.20898H14.4442C14.8144 5.20898 15.1213 5.49232 15.1213 5.83398C15.1213 6.17565 14.8144 6.45898 14.4442 6.45898Z" fill="#C6C6C6"/>
<path d="M11.7359 9.375H7.22201C6.85187 9.375 6.54492 9.09167 6.54492 8.75C6.54492 8.40833 6.85187 8.125 7.22201 8.125H11.7359C12.106 8.125 12.413 8.40833 12.413 8.75C12.413 9.09167 12.106 9.375 11.7359 9.375Z" fill="#C6C6C6"/>
</svg>
