<svg width="22" height="20" viewBox="0 0 22 20" fill="none" xmlns="http://www.w3.org/2000/svg">
<path d="M17.8473 11.4577H14.2C12.3855 11.4577 11.5098 10.6827 11.5098 9.08268V3.41602C11.5098 1.81602 12.3945 1.04102 14.2 1.04102H17.8473C19.6618 1.04102 20.5375 1.81602 20.5375 3.41602V9.08268C20.5375 10.6827 19.6528 11.4577 17.8473 11.4577ZM14.2 2.29102C13.0535 2.29102 12.8639 2.57435 12.8639 3.41602V9.08268C12.8639 9.92435 13.0535 10.2077 14.2 10.2077H17.8473C18.9938 10.2077 19.1834 9.92435 19.1834 9.08268V3.41602C19.1834 2.57435 18.9938 2.29102 17.8473 2.29102H14.2Z" fill="#C6C6C6"/>
<path d="M17.8473 18.959H14.2C12.3855 18.959 11.5098 18.184 11.5098 16.584V15.084C11.5098 13.484 12.3945 12.709 14.2 12.709H17.8473C19.6618 12.709 20.5375 13.484 20.5375 15.084V16.584C20.5375 18.184 19.6528 18.959 17.8473 18.959ZM14.2 13.959C13.0535 13.959 12.8639 14.2423 12.8639 15.084V16.584C12.8639 17.4257 13.0535 17.709 14.2 17.709H17.8473C18.9938 17.709 19.1834 17.4257 19.1834 16.584V15.084C19.1834 14.2423 18.9938 13.959 17.8473 13.959H14.2Z" fill="#C6C6C6"/>
<path d="M7.46641 18.9577H3.81918C2.0046 18.9577 1.12891 18.1827 1.12891 16.5827V10.916C1.12891 9.31602 2.01363 8.54102 3.81918 8.54102H7.46641C9.28099 8.54102 10.1567 9.31602 10.1567 10.916V16.5827C10.1567 18.1827 9.27196 18.9577 7.46641 18.9577ZM3.81918 9.79102C2.67266 9.79102 2.48307 10.0743 2.48307 10.916V16.5827C2.48307 17.4243 2.67266 17.7077 3.81918 17.7077H7.46641C8.61293 17.7077 8.80252 17.4243 8.80252 16.5827V10.916C8.80252 10.0743 8.61293 9.79102 7.46641 9.79102H3.81918Z" fill="#C6C6C6"/>
<path d="M7.46641 7.29102H3.81918C2.0046 7.29102 1.12891 6.51602 1.12891 4.91602V3.41602C1.12891 1.81602 2.01363 1.04102 3.81918 1.04102H7.46641C9.28099 1.04102 10.1567 1.81602 10.1567 3.41602V4.91602C10.1567 6.51602 9.27196 7.29102 7.46641 7.29102ZM3.81918 2.29102C2.67266 2.29102 2.48307 2.57435 2.48307 3.41602V4.91602C2.48307 5.75768 2.67266 6.04102 3.81918 6.04102H7.46641C8.61293 6.04102 8.80252 5.75768 8.80252 4.91602V3.41602C8.80252 2.57435 8.61293 2.29102 7.46641 2.29102H3.81918Z" fill="#C6C6C6"/>
</svg>
