<svg width="25" height="29" viewBox="0 0 25 29" fill="none" xmlns="http://www.w3.org/2000/svg">
<path d="M24.9925 28.7608V18.393C24.9925 13.2976 24.043 9.40527 18.8969 9.40527C16.4158 9.40527 14.7617 10.9622 14.0879 12.4484H14.0266V9.86528H9.15625V28.7608H14.241V19.3838C14.241 16.9069 14.6392 14.5361 17.2735 14.5361C19.8771 14.5361 19.9078 17.3315 19.9078 19.5253V28.7254H24.9925V28.7608Z" fill="#3F4C6C"/>
<path d="M0.886719 9.86475H5.97146V28.76H0.886719V9.86475Z" fill="#3F4C6C"/>
<path d="M3.42887 0.452637C1.80542 0.452637 0.488281 1.97419 0.488281 3.84959C0.488281 5.725 1.80542 7.28194 3.42887 7.28194C5.05232 7.28194 6.36946 5.725 6.36946 3.84959C6.36946 1.97419 5.05232 0.452637 3.42887 0.452637Z" fill="#3F4C6C"/>
</svg>
