<svg width="20" height="20" viewBox="0 0 20 20" fill="none" xmlns="http://www.w3.org/2000/svg">
<path d="M14.1311 10.6755V11.43C15.615 11.43 16.8242 12.6365 16.8242 14.1231C16.8242 15.6097 15.6177 16.8162 14.1311 16.8162C12.6584 16.8162 11.4602 15.6291 11.438 14.1619H11.4408L11.4602 9.92392L10.7058 9.92114L10.6864 14.1231H10.6836C10.6836 16.023 12.2285 17.5678 14.1284 17.5678C16.0282 17.5678 17.5731 16.023 17.5731 14.1231C17.5731 12.2232 16.031 10.6755 14.1311 10.6755Z" fill="#FDF44D"/>
<path d="M17.5564 4.95086C17.5564 3.05097 16.0115 1.5061 14.1116 1.5061C12.2118 1.5061 10.6669 3.05097 10.6669 4.95086H11.4213C11.4213 3.46701 12.6278 2.25774 14.1144 2.25774C15.601 2.25774 16.8075 3.46423 16.8075 4.95086C16.8075 6.43749 15.601 7.64399 14.1144 7.64399V7.64676L9.93466 7.62734L9.93188 8.38175L14.2087 8.40117V8.39562C16.0615 8.3457 17.5564 6.82024 17.5564 4.95086Z" fill="#FEFF9F"/>
<path d="M19.0625 4.9508C19.0625 3.62782 18.5466 2.38526 17.6119 1.45057C16.6772 0.515882 15.4347 0 14.1117 0C12.7887 0 11.5461 0.515882 10.6115 1.45057C9.67677 2.38526 9.16089 3.63059 9.16089 4.9508H9.9153C9.9153 2.63488 11.7985 0.751634 14.1145 0.751634C16.4304 0.751634 18.3136 2.63488 18.3136 4.9508C18.3136 7.18352 16.5774 9.01407 14.3918 9.15829H9.16089V9.9127H14.1117V9.92102C14.2115 9.92102 14.3114 9.91825 14.4112 9.9127H14.5055V9.90715C17.0517 9.70468 19.0625 7.55795 19.0625 4.9508Z" fill="#FEFF9F"/>
<path d="M12.9635 4.56812H9.82935V5.32252H12.9635V4.56812Z" fill="#FEFF9F"/>
<path d="M14.1116 3.05103C13.0632 3.05103 12.209 3.90528 12.209 4.95369H12.9634C12.9634 4.32131 13.4793 3.80543 14.1116 3.80543C14.744 3.80543 15.2599 4.32131 15.2599 4.95369C15.2599 5.56942 14.7745 6.07143 14.1671 6.10194H9.93188V6.8508H14.1116V6.85357C15.16 6.85357 16.0143 5.99932 16.0143 4.95091C16.0143 3.90251 15.16 3.05103 14.1116 3.05103Z" fill="#FEFF9F"/>
<path d="M12.2646 4.56812H9.88208V5.32252H12.2646V4.56812Z" fill="url(#paint0_linear_1463_652)"/>
<path d="M13.8482 0.762708V0.00830078C12.6251 0.0720926 11.4824 0.579654 10.6115 1.45055C9.67677 2.38524 9.16089 3.63057 9.16089 4.95078H9.9153C9.91252 2.72639 11.6543 0.898613 13.8482 0.762708Z" fill="url(#paint1_linear_1463_652)"/>
<path d="M12.234 6.09912H9.9292V6.85353H12.234V6.09912Z" fill="url(#paint2_linear_1463_652)"/>
<path d="M4.96163 9.92102C3.63864 9.92102 2.39609 9.40514 1.4614 8.47045C0.523939 7.53576 0.00805664 6.2932 0.00805664 4.97021H0.762465C0.762465 7.28614 2.64571 9.16938 4.96163 9.16938V9.92102Z" fill="url(#paint3_linear_1463_652)"/>
<path d="M9.92379 9.58256V9.1582H4.56527V9.17207C2.01638 9.37177 0 11.5213 0 14.1312C0 15.4542 0.515881 16.6967 1.45057 17.6314C2.38526 18.5661 3.62781 19.082 4.9508 19.082C6.27378 19.082 7.51634 18.5661 8.45103 17.6314C9.36075 16.7245 9.9016 15.5152 9.92933 14.2338H9.93211V9.58256H9.92379ZM4.9508 18.3304C2.63488 18.3304 0.751634 16.4471 0.751634 14.1312C0.751634 11.807 2.63488 9.91261 4.9508 9.91261H9.1777V14.1395C9.1777 16.4554 7.26672 18.3304 4.9508 18.3304Z" fill="#FFFF66"/>
<path d="M9.92364 13.7512H6.09058V14.5056H9.92364V13.7512Z" fill="#FFFF66"/>
<path d="M9.55473 13.7512H8.00708V14.5056H9.55473V13.7512Z" fill="url(#paint4_linear_1463_652)"/>
<path d="M4.95076 12.9829V12.9746H9.17489V12.2202H4.90361V12.2285C3.87739 12.2535 3.0481 13.0967 3.0481 14.1284C3.0481 15.1768 3.90235 16.0311 4.95076 16.0311C5.99916 16.0311 6.85342 15.1768 6.85342 14.1284H6.09901C6.09901 14.7608 5.58313 15.2767 4.95076 15.2767C4.31839 15.2767 3.8025 14.7608 3.8025 14.1284C3.8025 13.4961 4.31839 12.9829 4.95076 12.9829Z" fill="#FFFF66"/>
<path d="M9.55473 12.2202H8.00708V12.9746H9.55473V12.2202Z" fill="url(#paint5_linear_1463_652)"/>
<path d="M9.17475 11.4438V10.6894H4.95062V10.6838C3.05073 10.6838 1.50586 12.2315 1.50586 14.1314C1.50586 16.0313 3.05073 17.5761 4.95062 17.5761C6.85051 17.5761 8.39815 16.0313 8.39815 14.1314H7.64374C7.64374 15.6152 6.43725 16.8245 4.95062 16.8245C3.46399 16.8245 2.26027 15.6152 2.26027 14.1314C2.26027 12.6947 3.39188 11.5159 4.81194 11.4438V11.4466H9.17475V11.4438Z" fill="#FFFF66"/>
<path d="M9.55473 10.6892H8.00708V11.4436H9.55473V10.6892Z" fill="url(#paint6_linear_1463_652)"/>
<path d="M9.17755 10.3926V14.1397C9.17755 16.1338 7.75749 17.8035 5.88257 18.2251V18.9934C6.85054 18.8103 7.74085 18.3416 8.45088 17.6316C9.3606 16.7246 9.90145 15.5153 9.92918 14.234H9.93196V10.3926H9.17755Z" fill="url(#paint7_linear_1463_652)"/>
<path d="M14.5166 9.92114H13.7622V12.9721H14.5166V9.92114Z" fill="#FDF44D"/>
<path d="M14.5166 9.92114H13.7622V11.5326H14.5166V9.92114Z" fill="url(#paint8_linear_1463_652)"/>
<path d="M14.1312 12.2204V12.9748C14.7635 12.9748 15.2794 13.4907 15.2794 14.1231C15.2794 14.7554 14.7635 15.2713 14.1312 15.2713C13.5238 15.2713 13.0245 14.7971 12.9857 14.198H12.9885V9.92114H12.2341V14.1203H12.2285C12.2285 15.1687 13.0828 16.023 14.1312 16.023C15.1796 16.023 16.0338 15.1687 16.0338 14.1203C16.0338 13.0719 15.1796 12.2204 14.1312 12.2204Z" fill="#FDF44D"/>
<path d="M5.33058 6.11841H4.57617V9.14991H5.33058V6.11841Z" fill="url(#paint9_linear_1463_652)"/>
<path d="M5.33058 6.10181H4.57617V9.14995H5.33058V6.10181Z" fill="url(#paint10_linear_1463_652)"/>
<path d="M6.86172 4.97029C6.86172 3.92188 6.00746 3.06763 4.95906 3.06763C3.91065 3.06763 3.0564 3.92188 3.0564 4.97029C3.0564 6.01869 3.91065 6.87295 4.95906 6.87295V6.11854C4.32669 6.11854 3.8108 5.60266 3.8108 4.97029C3.8108 4.33792 4.32669 3.82203 4.95906 3.82203C5.56647 3.82203 6.06571 4.29631 6.10454 4.8954H6.10176V9.15004H6.85617V4.97029H6.86172Z" fill="url(#paint11_linear_1463_652)"/>
<path d="M8.40645 4.97015C8.40645 3.07026 6.86158 1.52539 4.96169 1.52539C3.06181 1.52539 1.51416 3.07026 1.51416 4.97015C1.51416 6.87004 3.05903 8.41491 4.95892 8.41491V7.6605C3.47507 7.6605 2.26579 6.454 2.26579 4.96738C2.26579 3.48075 3.47229 2.27425 4.95892 2.27425C6.42336 2.27425 7.61876 3.45024 7.64927 4.90913H7.6465L7.62708 9.16654L8.38149 9.16932L8.40645 4.97015Z" fill="url(#paint12_linear_1463_652)"/>
<path d="M9.89579 4.55683C9.79871 3.38916 9.29947 2.30747 8.46186 1.46986C7.52717 0.532395 6.28462 0.0192871 4.96163 0.0192871C3.63864 0.0192871 2.39609 0.532395 1.45863 1.46986C0.523938 2.40455 0.00805664 3.6471 0.00805664 4.97009H0.762464C0.762464 2.65417 2.64571 0.770921 4.96163 0.770921C7.27755 0.770921 9.16079 2.65417 9.16079 4.97009L9.18021 9.92089H9.93462L9.9152 4.55406H9.89579V4.55683Z" fill="#FEEA00"/>
<path d="M18.2914 5.35303C18.0972 7.39992 16.4414 9.02522 14.389 9.16113H12.7166V9.91554H14.1117V9.92386C14.2115 9.92386 14.3113 9.92108 14.4112 9.91554H14.5055V9.90999C16.9185 9.71861 18.8517 7.77989 19.0458 5.3558H18.2914V5.35303Z" fill="url(#paint13_linear_1463_652)"/>
<path d="M17.6314 10.6199C16.6995 9.68797 15.4652 9.17486 14.1478 9.16932L9.92921 9.1499V9.16654L9.1748 9.1499V14.5167H9.19145C9.28297 15.69 9.78499 16.78 10.6254 17.6231C11.5601 18.5578 12.8054 19.0737 14.1256 19.0737C15.4458 19.0737 16.6911 18.5578 17.6258 17.6231C18.5605 16.6884 19.0764 15.4431 19.0764 14.1229C19.0764 12.8027 18.5661 11.5546 17.6314 10.6199ZM14.1312 18.3193C11.8152 18.3193 9.93199 16.436 9.93199 14.1201V9.92095H14.1312C16.4471 9.92095 18.3303 11.8042 18.3303 14.1201C18.3303 16.436 16.4443 18.3193 14.1312 18.3193Z" fill="#FDF44D"/>
<path d="M13.0772 9.16943V9.92107L6.03516 9.90443V9.16943H13.0772Z" fill="url(#paint14_linear_1463_652)"/>
<path d="M9.527 9.16382V9.92101L8.44531 9.90436V9.16382H9.527Z" fill="url(#paint15_linear_1463_652)"/>
<path d="M9.5271 9.92101V9.16382L10.6116 9.18046V9.92101H9.5271Z" fill="url(#paint16_linear_1463_652)"/>
<path d="M9.93189 8.3208H9.17749V10.9196H9.93189V8.3208Z" fill="url(#paint17_linear_1463_652)"/>
<path d="M13.2824 7.64399L9.93197 7.63013L9.9292 8.38176L13.2824 8.3984V7.64399Z" fill="url(#paint18_linear_1463_652)"/>
<path d="M12.9912 11.5381H12.2368L12.2285 9.92114H12.9912V11.5381Z" fill="url(#paint19_linear_1463_652)"/>
<path d="M11.4548 11.5354H10.7031V9.92114H11.4631L11.4548 11.5354Z" fill="url(#paint20_linear_1463_652)"/>
<path d="M12.2175 7.63013H9.91821V8.38453H12.2175V7.63013Z" fill="url(#paint21_linear_1463_652)"/>
<path d="M6.85621 6.10181H6.10181V9.14995H6.85621V6.10181Z" fill="url(#paint22_linear_1463_652)"/>
<path d="M8.38161 6.10181H7.6272V9.14995H8.38161V6.10181Z" fill="url(#paint23_linear_1463_652)"/>
<defs>
<linearGradient id="paint0_linear_1463_652" x1="9.88166" y1="4.9449" x2="12.2634" y2="4.9449" gradientUnits="userSpaceOnUse">
<stop stop-color="#BCA42A"/>
<stop offset="0.0148912" stop-color="#BFA82F"/>
<stop offset="0.1395" stop-color="#D2C251"/>
<stop offset="0.2724" stop-color="#E2D86D"/>
<stop offset="0.4143" stop-color="#EEEA83"/>
<stop offset="0.5692" stop-color="#F7F693"/>
<stop offset="0.7472" stop-color="#FCFD9C"/>
<stop offset="1" stop-color="#FEFF9F"/>
</linearGradient>
<linearGradient id="paint1_linear_1463_652" x1="9.15965" y1="2.47937" x2="13.8478" y2="2.47937" gradientUnits="userSpaceOnUse">
<stop stop-color="#BCA42A"/>
<stop offset="0.0148912" stop-color="#BFA82F"/>
<stop offset="0.1395" stop-color="#D2C251"/>
<stop offset="0.2724" stop-color="#E2D86D"/>
<stop offset="0.4143" stop-color="#EEEA83"/>
<stop offset="0.5692" stop-color="#F7F693"/>
<stop offset="0.7472" stop-color="#FCFD9C"/>
<stop offset="1" stop-color="#FEFF9F"/>
</linearGradient>
<linearGradient id="paint2_linear_1463_652" x1="9.9298" y1="6.47629" x2="12.2356" y2="6.47629" gradientUnits="userSpaceOnUse">
<stop stop-color="#BCA42A"/>
<stop offset="0.0148912" stop-color="#BFA82F"/>
<stop offset="0.1395" stop-color="#D2C251"/>
<stop offset="0.2724" stop-color="#E2D86D"/>
<stop offset="0.4143" stop-color="#EEEA83"/>
<stop offset="0.5692" stop-color="#F7F693"/>
<stop offset="0.7472" stop-color="#FCFD9C"/>
<stop offset="1" stop-color="#FEFF9F"/>
</linearGradient>
<linearGradient id="paint3_linear_1463_652" x1="5.3838" y1="8.37802" x2="2.33905" y2="7.40419" gradientUnits="userSpaceOnUse">
<stop stop-color="#CEBA00"/>
<stop offset="1" stop-color="#FEEA00"/>
</linearGradient>
<linearGradient id="paint4_linear_1463_652" x1="9.04506" y1="14.1279" x2="8.00762" y2="14.1279" gradientUnits="userSpaceOnUse">
<stop stop-color="#E5D117"/>
<stop offset="0.1903" stop-color="#ECDE2D"/>
<stop offset="0.5037" stop-color="#F7F04C"/>
<stop offset="0.7699" stop-color="#FDFB5F"/>
<stop offset="0.9553" stop-color="#FFFF66"/>
</linearGradient>
<linearGradient id="paint5_linear_1463_652" x1="9.04506" y1="12.5965" x2="8.00762" y2="12.5965" gradientUnits="userSpaceOnUse">
<stop stop-color="#E5D117"/>
<stop offset="0.1903" stop-color="#ECDE2D"/>
<stop offset="0.5037" stop-color="#F7F04C"/>
<stop offset="0.7699" stop-color="#FDFB5F"/>
<stop offset="0.9553" stop-color="#FFFF66"/>
</linearGradient>
<linearGradient id="paint6_linear_1463_652" x1="9.24463" y1="11.0651" x2="8.15874" y2="11.0651" gradientUnits="userSpaceOnUse">
<stop stop-color="#E5D117"/>
<stop offset="0.1903" stop-color="#ECDE2D"/>
<stop offset="0.5037" stop-color="#F7F04C"/>
<stop offset="0.7699" stop-color="#FDFB5F"/>
<stop offset="0.9553" stop-color="#FFFF66"/>
</linearGradient>
<linearGradient id="paint7_linear_1463_652" x1="8.57052" y1="14.5656" x2="6.86133" y2="17.399" gradientUnits="userSpaceOnUse">
<stop stop-color="#E5D117"/>
<stop offset="0.0513426" stop-color="#EADA26"/>
<stop offset="0.1561" stop-color="#F2E73D"/>
<stop offset="0.276" stop-color="#F8F24F"/>
<stop offset="0.4182" stop-color="#FCF95C"/>
<stop offset="0.6041" stop-color="#FEFE64"/>
<stop offset="1" stop-color="#FFFF66"/>
</linearGradient>
<linearGradient id="paint8_linear_1463_652" x1="14.1379" y1="9.94126" x2="14.1379" y2="11.4201" gradientUnits="userSpaceOnUse">
<stop stop-color="#9E8402"/>
<stop offset="0.0454909" stop-color="#AE970E"/>
<stop offset="0.1319" stop-color="#C6B322"/>
<stop offset="0.2286" stop-color="#DACB32"/>
<stop offset="0.3382" stop-color="#EADD3E"/>
<stop offset="0.4681" stop-color="#F5EA47"/>
<stop offset="0.6381" stop-color="#FBF24C"/>
<stop offset="1" stop-color="#FDF44D"/>
</linearGradient>
<linearGradient id="paint9_linear_1463_652" x1="4.95332" y1="9.15453" x2="4.95332" y2="8.39288" gradientUnits="userSpaceOnUse">
<stop stop-color="#CEBA00"/>
<stop offset="1" stop-color="#FEEA00"/>
</linearGradient>
<linearGradient id="paint10_linear_1463_652" x1="4.95332" y1="9.15459" x2="4.95332" y2="8.38861" gradientUnits="userSpaceOnUse">
<stop stop-color="#8C7800"/>
<stop offset="1" stop-color="#FEEA00"/>
</linearGradient>
<linearGradient id="paint11_linear_1463_652" x1="4.96111" y1="9.16582" x2="4.96111" y2="8.56778" gradientUnits="userSpaceOnUse">
<stop stop-color="#CEBA00"/>
<stop offset="1" stop-color="#FEEA00"/>
</linearGradient>
<linearGradient id="paint12_linear_1463_652" x1="4.96097" y1="9.14337" x2="4.96097" y2="8.73055" gradientUnits="userSpaceOnUse">
<stop stop-color="#CEBA00"/>
<stop offset="1" stop-color="#FEEA00"/>
</linearGradient>
<linearGradient id="paint13_linear_1463_652" x1="14.8357" y1="8.94913" x2="16.8409" y2="7.68357" gradientUnits="userSpaceOnUse">
<stop stop-color="#BCA42A"/>
<stop offset="0.0148912" stop-color="#BFA82F"/>
<stop offset="0.1395" stop-color="#D2C251"/>
<stop offset="0.2724" stop-color="#E2D86D"/>
<stop offset="0.4143" stop-color="#EEEA83"/>
<stop offset="0.5692" stop-color="#F7F693"/>
<stop offset="0.7472" stop-color="#FCFD9C"/>
<stop offset="1" stop-color="#FEFF9F"/>
</linearGradient>
<linearGradient id="paint14_linear_1463_652" x1="5.93227" y1="9.54586" x2="12.9477" y2="9.54586" gradientUnits="userSpaceOnUse">
<stop stop-color="#FFFF66"/>
<stop offset="1" stop-color="#FDF44D"/>
</linearGradient>
<linearGradient id="paint15_linear_1463_652" x1="9.51657" y1="9.54244" x2="8.79261" y2="9.54244" gradientUnits="userSpaceOnUse">
<stop stop-color="#D8BF0E"/>
<stop offset="0.5819" stop-color="#EFE440"/>
<stop offset="1" stop-color="#FEFC60"/>
</linearGradient>
<linearGradient id="paint16_linear_1463_652" x1="9.53962" y1="9.54245" x2="10.2636" y2="9.54245" gradientUnits="userSpaceOnUse">
<stop stop-color="#D8BF0E"/>
<stop offset="0.5102" stop-color="#ECDD33"/>
<stop offset="1" stop-color="#FDF753"/>
</linearGradient>
<linearGradient id="paint17_linear_1463_652" x1="9.55499" y1="8.28445" x2="9.55499" y2="10.873" gradientUnits="userSpaceOnUse">
<stop stop-color="#FEEA00"/>
<stop offset="1" stop-color="#FDF44D"/>
</linearGradient>
<linearGradient id="paint18_linear_1463_652" x1="9.92839" y1="8.01333" x2="13.283" y2="8.01333" gradientUnits="userSpaceOnUse">
<stop stop-color="#FFF657"/>
<stop offset="0.1304" stop-color="#FFF96E"/>
<stop offset="0.2991" stop-color="#FEFC83"/>
<stop offset="0.4845" stop-color="#FEFD93"/>
<stop offset="0.6974" stop-color="#FEFF9C"/>
<stop offset="1" stop-color="#FEFF9F"/>
</linearGradient>
<linearGradient id="paint19_linear_1463_652" x1="12.6095" y1="9.94132" x2="12.6095" y2="11.4247" gradientUnits="userSpaceOnUse">
<stop stop-color="#9E8402"/>
<stop offset="0.0454909" stop-color="#AE970E"/>
<stop offset="0.1319" stop-color="#C6B322"/>
<stop offset="0.2286" stop-color="#DACB32"/>
<stop offset="0.3382" stop-color="#EADD3E"/>
<stop offset="0.4681" stop-color="#F5EA47"/>
<stop offset="0.6381" stop-color="#FBF24C"/>
<stop offset="1" stop-color="#FDF44D"/>
</linearGradient>
<linearGradient id="paint20_linear_1463_652" x1="11.0838" y1="9.94128" x2="11.0838" y2="11.4218" gradientUnits="userSpaceOnUse">
<stop stop-color="#9E8402"/>
<stop offset="0.0454909" stop-color="#AE970E"/>
<stop offset="0.1319" stop-color="#C6B322"/>
<stop offset="0.2286" stop-color="#DACB32"/>
<stop offset="0.3382" stop-color="#EADD3E"/>
<stop offset="0.4681" stop-color="#F5EA47"/>
<stop offset="0.6381" stop-color="#FBF24C"/>
<stop offset="1" stop-color="#FDF44D"/>
</linearGradient>
<linearGradient id="paint21_linear_1463_652" x1="9.91912" y1="8.00769" x2="12.2176" y2="8.00769" gradientUnits="userSpaceOnUse">
<stop stop-color="#BCA42A"/>
<stop offset="0.0148912" stop-color="#BFA82F"/>
<stop offset="0.1395" stop-color="#D2C251"/>
<stop offset="0.2724" stop-color="#E2D86D"/>
<stop offset="0.4143" stop-color="#EEEA83"/>
<stop offset="0.5692" stop-color="#F7F693"/>
<stop offset="0.7472" stop-color="#FCFD9C"/>
<stop offset="1" stop-color="#FEFF9F"/>
</linearGradient>
<linearGradient id="paint22_linear_1463_652" x1="6.47895" y1="9.15459" x2="6.47895" y2="8.38861" gradientUnits="userSpaceOnUse">
<stop stop-color="#8C7800"/>
<stop offset="1" stop-color="#FEEA00"/>
</linearGradient>
<linearGradient id="paint23_linear_1463_652" x1="8.00435" y1="9.15459" x2="8.00435" y2="8.38861" gradientUnits="userSpaceOnUse">
<stop stop-color="#8C7800"/>
<stop offset="1" stop-color="#FEEA00"/>
</linearGradient>
</defs>
</svg>
