<svg width="15" height="15" viewBox="0 0 15 15" fill="none" xmlns="http://www.w3.org/2000/svg">
<g clip-path="url(#clip0_3273_614)">
<path d="M7.35449 1.99492C9.22481 1.99492 9.44629 2.00312 10.1818 2.03594C10.8654 2.06602 11.2346 2.18086 11.4807 2.27656C11.8061 2.40234 12.0412 2.55547 12.2846 2.79883C12.5307 3.04492 12.6811 3.27734 12.8068 3.60273C12.9025 3.84883 13.0174 4.2207 13.0475 4.90156C13.0803 5.63984 13.0885 5.86133 13.0885 7.72891C13.0885 9.59922 13.0803 9.8207 13.0475 10.5563C13.0174 11.2398 12.9025 11.609 12.8068 11.8551C12.6811 12.1805 12.5279 12.4156 12.2846 12.659C12.0385 12.9051 11.8061 13.0555 11.4807 13.1813C11.2346 13.277 10.8627 13.3918 10.1818 13.4219C9.44356 13.4547 9.22207 13.4629 7.35449 13.4629C5.48418 13.4629 5.2627 13.4547 4.52715 13.4219C3.84356 13.3918 3.47441 13.277 3.22832 13.1813C2.90293 13.0555 2.66777 12.9023 2.42441 12.659C2.17832 12.4129 2.02793 12.1805 1.90215 11.8551C1.80645 11.609 1.6916 11.2371 1.66152 10.5563C1.62871 9.81797 1.62051 9.59649 1.62051 7.72891C1.62051 5.85859 1.62871 5.63711 1.66152 4.90156C1.6916 4.21797 1.80645 3.84883 1.90215 3.60273C2.02793 3.27734 2.18105 3.04219 2.42441 2.79883C2.67051 2.55273 2.90293 2.40234 3.22832 2.27656C3.47441 2.18086 3.84629 2.06602 4.52715 2.03594C5.2627 2.00312 5.48418 1.99492 7.35449 1.99492ZM7.35449 0.734375C5.4541 0.734375 5.21621 0.742578 4.46973 0.775391C3.72598 0.808203 3.21465 0.928516 2.77168 1.10078C2.30957 1.28125 1.91855 1.51914 1.53027 1.91016C1.13926 2.29844 0.901367 2.68945 0.720898 3.14883C0.548633 3.59453 0.42832 4.10313 0.395508 4.84688C0.362695 5.59609 0.354492 5.83398 0.354492 7.73438C0.354492 9.63477 0.362695 9.87266 0.395508 10.6191C0.42832 11.3629 0.548633 11.8742 0.720898 12.3172C0.901367 12.7793 1.13926 13.1703 1.53027 13.5586C1.91855 13.9469 2.30957 14.1875 2.76895 14.3652C3.21465 14.5375 3.72324 14.6578 4.46699 14.6906C5.21348 14.7234 5.45137 14.7316 7.35176 14.7316C9.25215 14.7316 9.49004 14.7234 10.2365 14.6906C10.9803 14.6578 11.4916 14.5375 11.9346 14.3652C12.3939 14.1875 12.785 13.9469 13.1732 13.5586C13.5615 13.1703 13.8021 12.7793 13.9799 12.3199C14.1521 11.8742 14.2725 11.3656 14.3053 10.6219C14.3381 9.87539 14.3463 9.6375 14.3463 7.73711C14.3463 5.83672 14.3381 5.59883 14.3053 4.85234C14.2725 4.10859 14.1521 3.59727 13.9799 3.1543C13.8076 2.68945 13.5697 2.29844 13.1787 1.91016C12.7904 1.52188 12.3994 1.28125 11.94 1.10352C11.4943 0.93125 10.9857 0.810938 10.242 0.778125C9.49277 0.742578 9.25488 0.734375 7.35449 0.734375Z" fill="white"/>
<path d="M7.35449 4.13867C5.36934 4.13867 3.75879 5.74922 3.75879 7.73437C3.75879 9.71953 5.36934 11.3301 7.35449 11.3301C9.33965 11.3301 10.9502 9.71953 10.9502 7.73437C10.9502 5.74922 9.33965 4.13867 7.35449 4.13867ZM7.35449 10.0668C6.0666 10.0668 5.02207 9.02227 5.02207 7.73437C5.02207 6.44648 6.0666 5.40195 7.35449 5.40195C8.64238 5.40195 9.68691 6.44648 9.68691 7.73437C9.68691 9.02227 8.64238 10.0668 7.35449 10.0668Z" fill="white"/>
<path d="M11.9318 3.99644C11.9318 4.46128 11.5545 4.83589 11.0924 4.83589C10.6275 4.83589 10.2529 4.45855 10.2529 3.99644C10.2529 3.53159 10.6303 3.15698 11.0924 3.15698C11.5545 3.15698 11.9318 3.53433 11.9318 3.99644Z" fill="white"/>
</g>
<defs>
<clipPath id="clip0_3273_614">
<rect width="14" height="14" fill="white" transform="translate(0.354492 0.734375)"/>
</clipPath>
</defs>
</svg>
