<svg width="24" height="24" viewBox="0 0 24 24" fill="none" xmlns="http://www.w3.org/2000/svg">
<circle cx="12" cy="12" r="12" fill="#B1B1B1"/>
<g clip-path="url(#clip0_7016_24242)">
<path d="M4.22944 17.0218C4.1126 17.0218 3.99577 16.9932 3.88932 16.9313C3.56738 16.7478 3.45834 16.3475 3.64787 16.0354C5.26536 13.3619 7.58125 11.1173 10.3411 9.54469C13.1866 7.92202 16.4424 7.06184 19.7527 7.05469C19.7527 7.05469 19.7527 7.05469 19.7553 7.05469C20.1291 7.05469 20.4303 7.34777 20.4303 7.70757C20.4303 8.06975 20.1291 8.36283 19.7553 8.36521C13.6436 8.37713 7.91877 11.5724 4.8136 16.7002C4.68898 16.9075 4.4631 17.0218 4.22944 17.0218Z" fill="white"/>
<path d="M4.23021 17.0214C4.11597 17.0214 3.99654 16.9929 3.89009 16.9333C3.56815 16.7522 3.45911 16.3495 3.64604 16.0374C4.35483 14.8603 4.71312 13.5092 4.71312 12.02C4.71312 10.5498 4.34445 9.1559 3.64604 7.98596C3.45911 7.67382 3.57075 7.27113 3.89269 7.09004C4.21463 6.90895 4.63004 7.01617 4.81697 7.32832C5.6348 8.69841 6.06579 10.3211 6.06579 12.02C6.06579 13.7451 5.64519 15.3178 4.81437 16.6974C4.68975 16.9047 4.46387 17.0214 4.23021 17.0214Z" fill="white"/>
<path d="M4.22974 8.31169C3.85847 8.31169 3.5573 8.02099 3.5547 7.66119C3.55211 7.29901 3.85068 7.00354 4.22455 7.00116C7.11163 6.97733 9.92601 5.40232 11.3981 2.98618C11.5876 2.67404 12.003 2.57158 12.3224 2.75505C12.6443 2.93853 12.7508 3.34122 12.5612 3.65098C11.7356 5.00916 10.5335 6.16242 9.08741 6.98925C7.59973 7.8399 5.92252 8.29501 4.23753 8.3093C4.23493 8.31169 4.23234 8.31169 4.22974 8.31169Z" fill="white"/>
<path d="M19.7664 8.35126C18.0372 8.34888 16.3444 7.91045 14.8723 7.07886C13.4392 6.2711 12.2371 5.1083 11.3959 3.71676C11.2064 3.40462 11.3154 3.00431 11.6374 2.82084C11.9593 2.63736 12.3747 2.74221 12.5616 3.05435C14.0701 5.54912 16.765 7.03835 19.7664 7.04073C20.1402 7.04073 20.4414 7.33382 20.4414 7.696C20.4414 8.05818 20.1402 8.35126 19.7664 8.35126Z" fill="white"/>
<path d="M19.7671 17.0182C19.5334 17.0182 19.3075 16.9015 19.1829 16.6918C18.3339 15.2788 17.8848 13.6609 17.8848 12.0192C17.8848 10.3774 18.3313 8.76431 19.1777 7.35371C19.3647 7.04156 19.7775 6.93434 20.102 7.11543C20.4239 7.29652 20.5356 7.69921 20.3486 8.01135C20.3383 8.02803 20.3305 8.04233 20.3201 8.05662C19.6113 9.25754 19.2374 10.6276 19.2374 12.0192C19.2374 13.4322 19.6243 14.8189 20.3512 16.0342C20.5382 16.3463 20.4291 16.7466 20.1072 16.9301C20.0007 16.9873 19.8839 17.0182 19.7671 17.0182Z" fill="white"/>
<path d="M11.9802 21.3326C11.8634 21.3326 11.7465 21.304 11.6401 21.2444C11.3182 21.0633 11.2091 20.6606 11.396 20.3485C12.2346 18.9546 13.4367 17.7918 14.8725 16.984C16.3446 16.1572 18.0374 15.7188 19.7665 15.7188C20.1404 15.7188 20.4415 16.0118 20.4415 16.374C20.4415 16.7362 20.1378 17.0293 19.7665 17.0293C16.7574 17.0293 14.0624 18.5185 12.5644 21.0109C12.4398 21.2158 12.2113 21.3326 11.9802 21.3326Z" fill="white"/>
<path d="M11.9809 21.332C11.7472 21.332 11.5213 21.2152 11.3967 21.0055C9.73768 18.2439 8.89648 15.2202 8.89648 12.0177C8.89648 8.7247 9.73768 5.70573 11.4045 3.04417C11.5992 2.73441 12.0146 2.63671 12.334 2.82257C12.6533 3.01081 12.7546 3.4135 12.5625 3.72326C11.028 6.17513 10.2492 8.96775 10.2517 12.0177C10.2517 14.9843 11.0332 17.7864 12.5702 20.3455C12.7572 20.6576 12.6481 21.058 12.3262 21.2414C12.2145 21.3034 12.0977 21.332 11.9809 21.332Z" fill="white"/>
<path d="M19.7093 17.0221C16.3964 17.0221 13.1433 16.1547 10.3055 14.5178C7.56645 12.938 5.26613 10.6791 3.64604 7.98657C3.45911 7.67443 3.56815 7.27412 3.89009 7.09065C4.21203 6.90956 4.62744 7.0144 4.81437 7.32654C7.96887 12.5758 13.5379 15.7091 19.7093 15.7139C20.0832 15.7139 20.3843 16.007 20.3843 16.3692C20.3843 16.729 20.0832 17.0221 19.7093 17.0221Z" fill="white"/>
<path d="M4.23363 17.0222C3.85976 17.0222 3.55859 16.7291 3.55859 16.3669C3.55859 16.0047 3.86236 15.7117 4.23363 15.7117C10.3765 15.7117 16.0987 12.5187 19.1701 7.3791C19.357 7.06695 19.7698 6.95973 20.0944 7.14082C20.4163 7.32191 20.528 7.72222 20.341 8.03674C18.7365 10.7221 16.4258 12.9715 13.6608 14.5465C10.8126 16.1668 7.55429 17.0222 4.23363 17.0222Z" fill="white"/>
<path d="M11.9795 21.3326C11.8653 21.3326 11.7484 21.3041 11.642 21.2445C11.32 21.0634 11.2084 20.6631 11.3979 20.3486C12.9168 17.8157 13.6853 15.0135 13.6853 12.0208C13.6853 9.08518 12.8882 6.19725 11.3798 3.67151C11.1928 3.35936 11.3045 2.95668 11.6264 2.77558C11.9509 2.59449 12.3638 2.70172 12.5507 3.01386C14.1786 5.73976 15.0379 8.85405 15.0379 12.0184C15.0379 15.2447 14.2071 18.2684 12.5663 21.0038C12.439 21.2159 12.2106 21.3326 11.9795 21.3326Z" fill="white"/>
<path d="M19.753 17.0097C19.5193 17.0097 19.2934 16.8929 19.1688 16.6832C16.0896 11.565 10.3648 8.35781 4.22455 8.31015C3.85328 8.30777 3.55211 8.01231 3.5547 7.65251C3.5573 7.29033 3.86366 6.99724 4.23493 7.00201C7.54521 7.02584 10.7984 7.89793 13.6439 9.52299C16.4141 11.1052 18.7274 13.3521 20.3345 16.0256C20.5215 16.3377 20.4124 16.738 20.0905 16.9215C19.9866 16.9811 19.8672 17.0097 19.753 17.0097Z" fill="white"/>
<path d="M11.9797 21.331C11.746 21.331 11.5201 21.2143 11.3955 21.007C9.9182 18.5551 7.17132 17.0278 4.22972 17.023C3.85586 17.023 3.55469 16.7275 3.55469 16.3677C3.55469 16.0055 3.85845 15.7148 4.22972 15.7148C4.22972 15.7148 4.22972 15.7148 4.23232 15.7148C5.95107 15.7172 7.63346 16.1604 9.10297 16.992C10.5309 17.8022 11.7278 18.9626 12.5638 20.347C12.7534 20.6591 12.6443 21.0594 12.3198 21.2429C12.2133 21.3025 12.0965 21.331 11.9797 21.331Z" fill="white"/>
</g>
<defs>
<clipPath id="clip0_7016_24242">
<rect width="16.8889" height="18.6667" fill="white" transform="translate(3.55469 2.66602)"/>
</clipPath>
</defs>
</svg>
