<svg width="24" height="24" viewBox="0 0 24 24" fill="none" xmlns="http://www.w3.org/2000/svg">
<circle cx="12" cy="12" r="12" fill="#00945D"/>
<path d="M4.64125 16.2541C4.53056 16.2541 4.41986 16.2277 4.31901 16.1706C4.01398 16.0012 3.91066 15.6316 4.09024 15.3435C5.62276 12.8754 7.81699 10.8032 10.4319 9.35144C13.1279 7.85343 16.2126 7.05933 19.349 7.05273C19.349 7.05273 19.349 7.05273 19.3515 7.05273C19.7057 7.05273 19.991 7.3233 19.991 7.65546C19.991 7.98981 19.7057 8.26038 19.3515 8.26258C13.5609 8.27358 8.13678 11.2234 5.19473 15.9572C5.07666 16.1486 4.86265 16.2541 4.64125 16.2541Z" fill="white"/>
<path d="M4.64199 16.2536C4.53375 16.2536 4.4206 16.2272 4.31974 16.1722C4.01471 16.0051 3.9114 15.6333 4.08851 15.3452C4.76006 14.2585 5.09953 13.0113 5.09953 11.6364C5.09953 10.2792 4.75022 8.99238 4.08851 7.91232C3.9114 7.62415 4.01717 7.2524 4.3222 7.08522C4.62723 6.91805 5.02081 7.01703 5.19793 7.30519C5.97279 8.57003 6.38114 10.068 6.38114 11.6364C6.38114 13.229 5.98263 14.6808 5.19547 15.9545C5.07739 16.1458 4.86338 16.2536 4.64199 16.2536Z" fill="white"/>
<path d="M4.64154 8.21374C4.28978 8.21374 4.00443 7.94537 4.00197 7.61321C3.99951 7.27886 4.2824 7.00609 4.63662 7.00389C7.37204 6.9819 10.0386 5.52788 11.4333 3.29737C11.6129 3.00921 12.0065 2.91462 12.3091 3.084C12.6141 3.25338 12.7149 3.62513 12.5354 3.91109C11.7531 5.16493 10.6142 6.22959 9.24402 6.99289C7.8345 7.77819 6.2454 8.19834 4.64892 8.21154C4.64646 8.21374 4.644 8.21374 4.64154 8.21374Z" fill="white"/>
<path d="M19.3608 8.24951C17.7225 8.24731 16.1187 7.84257 14.7239 7.07486C13.366 6.32916 12.2271 5.2557 11.4301 3.97107C11.2505 3.6829 11.3538 3.31335 11.6589 3.14397C11.9639 2.9746 12.3575 3.07138 12.5346 3.35955C13.9638 5.66265 16.5172 7.03747 19.3608 7.03967C19.715 7.03967 20.0004 7.31023 20.0004 7.64459C20.0004 7.97895 19.715 8.24951 19.3608 8.24951Z" fill="white"/>
<path d="M19.3616 16.2507C19.1402 16.2507 18.9262 16.1429 18.8081 15.9493C18.0037 14.6449 17.5781 13.1513 17.5781 11.6357C17.5781 10.1201 18.0012 8.63086 18.8032 7.32863C18.9803 7.04047 19.3714 6.94148 19.6789 7.10866C19.9839 7.27584 20.0897 7.64759 19.9126 7.93575C19.9027 7.95115 19.8954 7.96435 19.8855 7.97755C19.214 9.0862 18.8597 10.351 18.8597 11.6357C18.8597 12.9401 19.2263 14.2203 19.915 15.3422C20.0921 15.6304 19.9888 15.9999 19.6838 16.1693C19.5829 16.2221 19.4723 16.2507 19.3616 16.2507Z" fill="white"/>
<path d="M11.9838 20.2333C11.8731 20.2333 11.7624 20.2069 11.6615 20.1519C11.3565 19.9847 11.2532 19.613 11.4303 19.3248C12.2249 18.038 13.3638 16.9645 14.7241 16.2188C16.1189 15.4555 17.7227 15.0508 19.361 15.0508C19.7153 15.0508 20.0006 15.3213 20.0006 15.6557C20.0006 15.9901 19.7128 16.2606 19.361 16.2606C16.51 16.2606 13.9566 17.6354 12.5373 19.9363C12.4192 20.1255 12.2027 20.2333 11.9838 20.2333Z" fill="white"/>
<path d="M11.9849 20.2328C11.7635 20.2328 11.5495 20.125 11.4314 19.9314C9.85951 17.382 9.0625 14.5905 9.0625 11.6341C9.0625 8.59412 9.85951 5.80708 11.4388 3.34999C11.6233 3.06403 12.0168 2.97384 12.3194 3.14542C12.622 3.3192 12.7179 3.69095 12.5359 3.97691C11.0821 6.24042 10.3441 8.81849 10.3466 11.6341C10.3466 14.3728 11.087 16.9596 12.5433 19.3221C12.7204 19.6103 12.6171 19.9798 12.312 20.1492C12.2063 20.2064 12.0956 20.2328 11.9849 20.2328Z" fill="white"/>
<path d="M19.3079 16.2542C16.1691 16.2542 13.0868 15.4535 10.3982 13.9423C7.80296 12.4839 5.62349 10.3986 4.08851 7.91288C3.9114 7.62472 4.01471 7.25516 4.31974 7.08579C4.62477 6.91861 5.01835 7.0154 5.19547 7.30356C8.18425 12.1495 13.4607 15.0422 19.3079 15.0466C19.6622 15.0466 19.9475 15.3171 19.9475 15.6515C19.9475 15.9836 19.6622 16.2542 19.3079 16.2542Z" fill="white"/>
<path d="M4.64543 16.2543C4.29121 16.2543 4.00586 15.9838 4.00586 15.6494C4.00586 15.315 4.29367 15.0445 4.64543 15.0445C10.4656 15.0445 15.8872 12.0969 18.7973 7.35207C18.9744 7.06391 19.3655 6.96492 19.673 7.1321C19.978 7.29928 20.0838 7.66883 19.9067 7.95919C18.3865 10.4383 16.1971 12.5148 13.5773 13.9688C10.8788 15.4646 7.79165 16.2543 4.64543 16.2543Z" fill="white"/>
<path d="M11.9862 20.2322C11.878 20.2322 11.7673 20.2058 11.6664 20.1508C11.3614 19.9837 11.2556 19.6141 11.4352 19.3237C12.8742 16.9854 13.6024 14.3986 13.6024 11.6357C13.6024 8.92569 12.8472 6.25964 11.418 3.92794C11.2408 3.63978 11.3466 3.26803 11.6517 3.10085C11.9591 2.93367 12.3503 3.03266 12.5274 3.32082C14.0697 5.83729 14.884 8.71232 14.884 11.6335C14.884 14.612 14.0968 17.4034 12.5421 19.9287C12.4216 20.1244 12.2051 20.2322 11.9862 20.2322Z" fill="white"/>
<path d="M19.3493 16.2428C19.1279 16.2428 18.9139 16.135 18.7958 15.9414C15.8784 11.2164 10.4543 8.2556 4.63662 8.2116C4.28486 8.2094 3.99951 7.93664 4.00197 7.60448C4.00443 7.27012 4.2947 6.99956 4.64646 7.00396C7.78284 7.02596 10.8651 7.83105 13.5612 9.33126C16.1859 10.7919 18.3776 12.8662 19.9003 15.3343C20.0774 15.6224 19.9741 15.992 19.6691 16.1614C19.5707 16.2164 19.4575 16.2428 19.3493 16.2428Z" fill="white"/>
<path d="M11.9843 20.2336C11.7629 20.2336 11.5489 20.1258 11.4309 19.9344C10.0312 17.6709 7.4286 16.2609 4.64153 16.2565C4.2873 16.2565 4.00195 15.9837 4.00195 15.6515C4.00195 15.3172 4.28976 15.0488 4.64153 15.0488C4.64153 15.0488 4.64153 15.0488 4.64399 15.0488C6.27244 15.051 7.86646 15.4602 9.25877 16.2279C10.6117 16.9758 11.7457 18.047 12.5378 19.3251C12.7174 19.6132 12.6141 19.9828 12.3066 20.1522C12.2057 20.2072 12.095 20.2336 11.9843 20.2336Z" fill="white"/>
</svg>
