<svg width="50" height="53" viewBox="0 0 50 53" fill="none" xmlns="http://www.w3.org/2000/svg">
<g filter="url(#filter0_d_1470_735)">
<path d="M17.1022 27.6433C16.986 27.6433 16.8684 27.6117 16.7608 27.545C16.4388 27.3456 16.3309 26.9084 16.5198 26.5684C18.1386 23.655 20.4525 21.2095 23.2117 19.4957C26.0579 17.7283 29.3121 16.7897 32.6226 16.7815C32.6231 16.7815 32.6237 16.7815 32.6242 16.7815C32.9968 16.7815 33.2992 17.0999 33.3 17.4934C33.3008 17.8876 32.999 18.2078 32.6258 18.2086C26.5144 18.224 20.7896 21.704 17.686 27.2907C17.5601 27.5171 17.3341 27.6433 17.1022 27.6433Z" fill="#00945D"/>
<path d="M17.1021 27.6431C16.9867 27.6431 16.8697 27.6119 16.7626 27.546C16.44 27.3477 16.3308 26.9108 16.5188 26.5702C17.2264 25.2877 17.5853 23.8145 17.5853 22.1916C17.5853 20.5909 17.2162 19.0706 16.5178 17.7955C16.3308 17.4543 16.4413 17.0177 16.7645 16.8203C17.0876 16.6231 17.5011 16.7396 17.6881 17.0808C18.5054 18.573 18.9372 20.3404 18.9372 22.1916C18.9372 24.0702 18.5164 25.7851 17.687 27.2886C17.5613 27.5164 17.3348 27.6431 17.1021 27.6431Z" fill="#00D587"/>
<path d="M17.1026 18.1519C16.7321 18.1519 16.43 17.8363 16.4268 17.4443C16.4236 17.0503 16.7238 16.7279 17.097 16.7247C19.9842 16.6989 22.7994 14.982 24.2692 12.3513C24.4588 12.0118 24.8729 11.8988 25.1946 12.099C25.5161 12.2993 25.623 12.7368 25.4333 13.0762C24.6065 14.5559 23.405 15.8135 21.9587 16.7134C20.4698 17.6394 18.7927 18.1368 17.1083 18.1519C17.1066 18.1519 17.1048 18.1519 17.1026 18.1519Z" fill="#00C57D"/>
<path d="M32.6383 18.1952C32.638 18.1952 32.6377 18.1952 32.6375 18.1952C30.9084 18.1932 29.2167 17.7143 27.7451 16.8098C26.3122 15.9292 25.1101 14.6623 24.2686 13.1457C24.08 12.8056 24.1879 12.3685 24.5099 12.169C24.832 11.9699 25.246 12.0838 25.4349 12.4239C26.9425 15.1404 29.6356 16.7644 32.6391 16.7675C33.0122 16.7678 33.3146 17.0876 33.3144 17.4819C33.3136 17.8762 33.0112 18.1952 32.6383 18.1952Z" fill="#00B472"/>
<path d="M32.6384 27.6387C32.4057 27.6387 32.1791 27.5118 32.0538 27.2842C31.2041 25.7437 30.7551 23.9828 30.7551 22.1921C30.7551 20.4042 31.2025 18.6461 32.0492 17.1076C32.2367 16.767 32.6502 16.6511 32.9731 16.8491C33.2959 17.0471 33.4076 17.4851 33.2203 17.826C33.2109 17.8431 33.2012 17.8592 33.1907 17.8752C32.4815 19.1841 32.107 20.6755 32.107 22.1921C32.107 23.7309 32.4926 25.2435 33.2219 26.5661C33.4097 26.9067 33.3005 27.3436 32.9779 27.5419C32.8708 27.6072 32.7538 27.6387 32.6384 27.6387Z" fill="#00A468"/>
<path d="M24.8512 32.3387C24.7355 32.3387 24.6185 32.3075 24.5114 32.2416C24.1888 32.043 24.0799 31.6061 24.2679 31.2655C25.1065 29.7472 26.3083 28.4794 27.7431 27.5991C29.2141 26.6969 30.9069 26.22 32.6382 26.22C33.0113 26.22 33.314 26.5395 33.314 26.9335C33.314 27.3278 33.0113 27.6471 32.6382 27.6471C29.6279 27.6471 26.9354 29.2686 25.4355 31.9842C25.3102 32.2117 25.0836 32.3387 24.8512 32.3387Z" fill="#00945D"/>
<path d="M24.8525 32.3388C24.6198 32.3388 24.3932 32.2118 24.2676 31.984C22.609 28.9752 21.7674 25.6806 21.7664 22.192C21.7653 18.6037 22.6087 15.3142 24.2738 12.4151C24.4672 12.0779 24.8829 11.9705 25.2022 12.1748C25.5213 12.379 25.6233 12.8179 25.4298 13.1551C23.895 15.8278 23.1172 18.8682 23.1183 22.1917C23.1193 25.4252 23.899 28.4784 25.436 31.2664C25.6238 31.607 25.5146 32.0439 25.1917 32.2422C25.0849 32.3075 24.9679 32.3388 24.8525 32.3388Z" fill="#00A468"/>
<path d="M32.5803 27.6433H32.5801C29.2666 27.6414 26.0151 26.6971 23.1762 24.9126C20.439 23.1918 18.1366 20.7315 16.5186 17.7974C16.3309 17.4568 16.4401 17.0199 16.7627 16.8216C17.0852 16.6233 17.499 16.7387 17.6868 17.0793C20.8402 22.7969 26.4081 26.2125 32.5809 26.2162C32.9543 26.2165 33.2567 26.5361 33.2564 26.9303C33.2561 27.3241 32.9535 27.6433 32.5803 27.6433Z" fill="#00B472"/>
<path d="M17.1028 27.6433C16.7294 27.6433 16.4268 27.3237 16.4268 26.9297C16.4268 26.5355 16.7294 26.2162 17.1026 26.2162C23.2447 26.2162 28.9678 22.7375 32.0389 17.1375C32.2259 16.7963 32.6394 16.6798 32.9625 16.8776C33.2856 17.075 33.3956 17.5116 33.2086 17.8527C31.6047 20.778 29.2947 23.2307 26.529 24.9458C23.6837 26.7107 20.4241 27.6433 17.1028 27.6433Z" fill="#00C57D"/>
<path d="M24.8512 32.3389C24.736 32.3389 24.6193 32.3077 24.5124 32.2424C24.1896 32.0444 24.0798 31.6078 24.2674 31.2669C25.7855 28.5058 26.5555 25.4526 26.5555 22.1919C26.5555 18.9936 25.7583 15.8476 24.2501 13.0944C24.0632 12.7533 24.1737 12.3167 24.4968 12.1192C24.8202 11.9218 25.2335 12.0386 25.4204 12.3797C27.0476 15.3499 27.9074 18.7428 27.9074 22.1919C27.9074 25.7075 27.0761 29.002 25.4366 31.9836C25.3109 32.2117 25.0841 32.3389 24.8512 32.3389Z" fill="#00D587"/>
<path d="M32.6249 27.6288C32.3921 27.6288 32.1656 27.5018 32.0402 27.2743C28.9625 21.6966 23.2369 18.2012 17.0978 18.1518C16.7243 18.149 16.4241 17.8268 16.4268 17.4328C16.4297 17.0386 16.7359 16.7198 17.1077 16.7247C20.4176 16.7514 23.6714 17.7013 26.5172 19.4716C29.288 21.1953 31.6017 23.645 33.2079 26.5559C33.3956 26.8964 33.2867 27.3333 32.9641 27.5316C32.8573 27.5975 32.7403 27.6288 32.6249 27.6288Z" fill="#00E894"/>
<path d="M24.8521 32.3388C24.6197 32.3388 24.3934 32.2121 24.2678 31.9848C22.79 29.3127 20.0442 27.6492 17.1015 27.6432C16.7281 27.6424 16.4262 27.3225 16.4268 26.9282C16.4276 26.5345 16.73 26.2161 17.1026 26.2161C17.1028 26.2161 17.1034 26.2161 17.1039 26.2161C18.8214 26.2195 20.5059 26.7012 21.9751 27.6088C23.4042 28.4917 24.6006 29.7561 25.4351 31.2653C25.6235 31.6056 25.5145 32.0428 25.1922 32.2414C25.0851 32.3073 24.9678 32.3388 24.8521 32.3388Z" fill="#00E894"/>
</g>
<defs>
<filter id="filter0_d_1470_735" x="0.426758" y="0" width="48.8877" height="52.3389" filterUnits="userSpaceOnUse" color-interpolation-filters="sRGB">
<feFlood flood-opacity="0" result="BackgroundImageFix"/>
<feColorMatrix in="SourceAlpha" type="matrix" values="0 0 0 0 0 0 0 0 0 0 0 0 0 0 0 0 0 0 127 0" result="hardAlpha"/>
<feOffset dy="4"/>
<feGaussianBlur stdDeviation="8"/>
<feComposite in2="hardAlpha" operator="out"/>
<feColorMatrix type="matrix" values="0 0 0 0 0 0 0 0 0 0 0 0 0 0 0 0 0 0 0.12 0"/>
<feBlend mode="normal" in2="BackgroundImageFix" result="effect1_dropShadow_1470_735"/>
<feBlend mode="normal" in="SourceGraphic" in2="effect1_dropShadow_1470_735" result="shape"/>
</filter>
</defs>
</svg>
