<svg width="24" height="24" viewBox="0 0 24 24" fill="none" xmlns="http://www.w3.org/2000/svg">
<circle cx="12" cy="12" r="12" fill="#9B5FCC"/>
<path d="M20.8679 11.0063C20.0328 10.1547 18.6216 10.1053 17.77 10.9405L17.1405 11.5658L15.968 10.3851L15.392 9.79262L15.7417 9.44292C16.2231 8.96568 16.4658 8.30331 16.4617 7.61626C16.4576 6.9292 16.2437 6.34088 15.7541 5.84719C15.2686 5.36173 14.6638 5.05317 13.9809 5.03671C13.9768 5.03671 13.9768 5.0326 13.9727 5.0326C13.3021 5.02437 12.6397 5.16014 12.0884 5.68674L12.0555 5.71965C12.0555 5.71965 12.0555 5.71965 12.0514 5.72377L11.6893 6.08992L11.3355 5.73611C11.3314 5.732 11.3314 5.732 11.3273 5.72788L11.3067 5.70731C10.27 4.73227 8.62845 4.7693 7.63695 5.79371C7.13915 6.30797 6.89641 6.97446 6.90464 7.63683C6.91287 8.31154 7.20909 8.95746 7.73158 9.46349L8.02779 9.75559L6.2505 11.5164L5.74858 11.0022C5.24254 10.4961 4.76942 10.3686 4.21813 10.3645C3.66273 10.3604 3.07441 10.599 2.65066 11.0145C1.79492 11.8579 1.78258 13.2279 2.61774 14.0795C3.45291 14.9311 4.83525 14.9558 5.68687 14.1207L6.29164 13.5159L8.04425 15.2726L7.69455 15.6264C7.2132 16.1037 6.96635 16.7619 6.96224 17.4407C6.95813 18.1196 7.16383 18.7038 7.64107 19.1851C8.11419 19.6624 8.71074 19.9627 9.38545 19.9709C9.38956 19.9709 9.38956 19.975 9.39368 19.975C10.056 19.9791 10.7143 19.8352 11.2656 19.3085L11.2985 19.2756L11.6606 18.9054L11.9321 19.1769C12.4381 19.6994 13.084 19.9956 13.7587 19.9997C14.022 20.0038 14.2895 19.9627 14.5445 19.8886C14.886 19.794 15.2275 19.6171 15.5443 19.325C15.5648 19.3085 15.5813 19.288 15.6019 19.2715C15.6142 19.2592 15.6224 19.251 15.6348 19.2386C16.6345 18.2348 16.651 16.6138 15.6677 15.5894L15.6636 15.5853L15.6595 15.5812L15.6389 15.5606C15.5114 15.4166 15.4003 15.3138 15.3386 15.2603L15.3221 15.2438L17.05 13.52L17.663 14.1453C18.0786 14.5691 18.634 14.7871 19.1853 14.7913C19.6255 14.7954 20.0698 14.6637 20.4483 14.4004C20.5264 14.3511 20.5964 14.3017 20.6622 14.2441C20.761 14.1618 20.8679 14.0384 20.9625 13.8903C21.6002 13.0345 21.6167 11.7674 20.8679 11.0063ZM10.7966 18.0414L10.7266 17.9674L10.4551 18.2389C9.99845 18.7161 9.14683 18.6379 8.66959 18.1813C8.19236 17.7246 8.1759 16.9512 8.63257 16.4739L8.93701 16.1736L10.8007 18.0414C10.8007 18.0373 10.7966 18.0373 10.7966 18.0414ZM19.2141 13.3143C19.0166 13.3143 18.8273 13.2402 18.6833 13.1045L18.0744 12.4956L18.6504 11.9278C18.8026 11.7797 19.0125 11.7057 19.2264 11.7057C19.4403 11.7057 19.6419 11.7921 19.79 11.9443C19.9381 12.0965 20.0204 12.2981 20.0204 12.512C20.0204 12.726 19.934 12.9276 19.7818 13.0757C19.6296 13.232 19.428 13.3143 19.2141 13.3143ZM9.05221 10.78L10.7842 12.5079L9.00284 14.2893L7.26668 12.545L8.59965 11.2202L9.05221 10.78ZM12.9483 18.243L12.9442 18.2471L12.6356 17.9386L14.4211 16.153L14.705 16.441L14.7544 16.4986C15.2275 16.9882 15.2151 17.7699 14.7256 18.2471C14.236 18.7161 13.4214 18.7326 12.9483 18.243ZM10.3029 6.76052L10.3605 6.80989L10.6649 7.11434L8.92467 8.83403L8.60377 8.51313C8.1183 8.04001 8.08539 7.2789 8.55851 6.79344C9.02752 6.29974 9.81332 6.2874 10.3029 6.76052ZM11.6893 11.6028L9.93263 9.84199L11.677 8.11818L13.4255 9.86667L11.6893 11.6028ZM11.6852 13.4089L12.5574 14.2811L12.5615 14.277L13.4831 15.2109L11.6976 17.0005L9.89971 15.1903L11.6852 13.4089ZM14.3306 10.7677L16.1326 12.5655L14.3964 14.2935L12.5986 12.4956L14.3306 10.7677ZM14.7256 18.4076C14.7214 18.4117 14.7214 18.4117 14.7173 18.4158C14.7214 18.4117 14.7214 18.4076 14.7256 18.4076ZM12.7138 7.09788L13.0635 6.7523L13.1581 6.65767C13.6148 6.18043 14.4088 6.19689 14.8819 6.65356C15.3591 7.11022 15.3756 7.88367 14.9189 8.36091L14.4335 8.84638L13.4173 7.82608L12.7138 7.09788ZM5.26723 12.4956L4.69537 13.0674C4.54315 13.2156 4.34155 13.2978 4.12762 13.2978C3.91369 13.2978 3.7121 13.2114 3.56399 13.0592C3.41588 12.907 3.3336 12.7054 3.3336 12.4915C3.3336 12.2775 3.41999 12.0759 3.57222 11.9278C3.72444 11.7797 3.92603 11.6975 4.13996 11.6975C4.3539 11.6975 4.55549 11.7838 4.7036 11.9361L4.72828 11.9114L4.7036 11.9361L5.26723 12.4956Z" fill="url(#paint0_linear_2805_2774)"/>
<path opacity="0.5" d="M8.02821 9.75977L9.05262 10.7801L8.60419 11.2203L7.5592 10.2247L8.02821 9.75977Z" fill="url(#paint1_linear_2805_2774)"/>
<path opacity="0.5" d="M8.92438 8.83364L9.92822 9.83748L10.533 9.25328L9.52504 8.24121L8.92438 8.83364Z" fill="url(#paint2_linear_2805_2774)"/>
<path opacity="0.5" d="M6.24989 11.52L5.26662 12.495L4.77704 12.0096L5.78499 11.0469L6.24989 11.52Z" fill="url(#paint3_linear_2805_2774)"/>
<path opacity="0.5" d="M6.29645 13.52L7.27149 12.5449L7.81867 13.0962L6.87242 14.0959L6.29645 13.52Z" fill="url(#paint4_linear_2805_2774)"/>
<path opacity="0.5" d="M8.04501 15.2764L8.93777 16.165L8.5963 16.5106L7.69531 15.6261L8.04501 15.2764Z" fill="url(#paint5_linear_2805_2774)"/>
<path opacity="0.5" d="M9.00604 14.289L9.8988 15.19L10.3802 14.7127L9.48739 13.8076L9.00604 14.289Z" fill="url(#paint6_linear_2805_2774)"/>
<path opacity="0.5" d="M10.2286 17.4612C10.2286 17.4612 11.2078 16.4821 11.1996 16.4903C11.1872 16.5026 11.7015 16.9922 11.7015 16.9922L10.7306 17.959L10.2286 17.4612Z" fill="url(#paint7_linear_2805_2774)"/>
<path opacity="0.5" d="M11.6936 18.8765L12.6358 17.9385L13.0595 18.3458L12.1462 19.3743L11.6689 18.9053L11.6936 18.8765Z" fill="url(#paint8_linear_2805_2774)"/>
<path opacity="0.5" d="M13.4868 15.207L14.4248 16.1492L13.8201 16.7539L12.8656 15.8283L13.4868 15.207Z" fill="url(#paint9_linear_2805_2774)"/>
<path opacity="0.5" d="M15.3347 15.2398L14.3967 14.2977L15.1085 13.5859L16.0506 14.5281L15.3347 15.2398Z" fill="url(#paint10_linear_2805_2774)"/>
<path opacity="0.5" d="M11.6888 11.6024L10.7837 12.5116L10.1625 11.8863L11.0923 11.0059L11.6888 11.6024Z" fill="url(#paint11_linear_2805_2774)"/>
<path opacity="0.5" d="M11.6859 13.4092L12.5992 12.5L13.1793 13.0801L12.2865 14.0099L11.6859 13.4092Z" fill="url(#paint12_linear_2805_2774)"/>
<path opacity="0.5" d="M13.4306 9.86621L14.3316 10.7713L13.6404 11.4584L12.723 10.5738L13.4306 9.86621Z" fill="url(#paint13_linear_2805_2774)"/>
<path opacity="0.5" d="M14.9237 8.36133L15.8864 9.287L15.3927 9.79304L14.4382 8.84679L14.9237 8.36133Z" fill="url(#paint14_linear_2805_2774)"/>
<path opacity="0.5" d="M11.6933 6.08543L10.6648 7.11395L10.204 6.67786L11.2037 5.6123L11.6933 6.08543Z" fill="url(#paint15_linear_2805_2774)"/>
<path opacity="0.5" d="M11.6768 8.12207L12.7135 7.09766L13.2113 7.60781L12.191 8.63222L11.6768 8.12207Z" fill="url(#paint16_linear_2805_2774)"/>
<path opacity="0.5" d="M17.1451 11.5654L16.1331 12.5692L15.5324 11.9686L16.5856 11.0059L17.1451 11.5654Z" fill="url(#paint17_linear_2805_2774)"/>
<path opacity="0.5" d="M17.0623 13.5154L18.0743 12.4951L18.6174 13.0382L17.6259 14.0873L17.0623 13.5154Z" fill="url(#paint18_linear_2805_2774)"/>
<defs>
<linearGradient id="paint0_linear_2805_2774" x1="2.00063" y1="12.5002" x2="21.4379" y2="12.5002" gradientUnits="userSpaceOnUse">
<stop stop-color="white"/>
<stop offset="0.9944" stop-color="white"/>
</linearGradient>
<linearGradient id="paint1_linear_2805_2774" x1="7.55789" y1="10.4896" x2="9.05369" y2="10.4896" gradientUnits="userSpaceOnUse">
<stop stop-color="white"/>
<stop offset="0.9944" stop-color="white"/>
</linearGradient>
<linearGradient id="paint2_linear_2805_2774" x1="8.92434" y1="9.03925" x2="10.5341" y2="9.03925" gradientUnits="userSpaceOnUse">
<stop stop-color="white"/>
<stop offset="0.9944" stop-color="white"/>
</linearGradient>
<linearGradient id="paint3_linear_2805_2774" x1="4.77847" y1="11.7706" x2="6.25079" y2="11.7706" gradientUnits="userSpaceOnUse">
<stop stop-color="white"/>
<stop offset="0.9944" stop-color="white"/>
</linearGradient>
<linearGradient id="paint4_linear_2805_2774" x1="6.29516" y1="13.3215" x2="7.8179" y2="13.3215" gradientUnits="userSpaceOnUse">
<stop stop-color="white"/>
<stop offset="0.9944" stop-color="white"/>
</linearGradient>
<linearGradient id="paint5_linear_2805_2774" x1="7.69395" y1="15.893" x2="8.93665" y2="15.893" gradientUnits="userSpaceOnUse">
<stop stop-color="white"/>
<stop offset="0.9944" stop-color="white"/>
</linearGradient>
<linearGradient id="paint6_linear_2805_2774" x1="9.00444" y1="14.498" x2="10.3789" y2="14.498" gradientUnits="userSpaceOnUse">
<stop stop-color="white"/>
<stop offset="0.9944" stop-color="white"/>
</linearGradient>
<linearGradient id="paint7_linear_2805_2774" x1="10.2288" y1="17.229" x2="11.6997" y2="17.229" gradientUnits="userSpaceOnUse">
<stop stop-color="white"/>
<stop offset="0.9944" stop-color="white"/>
</linearGradient>
<linearGradient id="paint8_linear_2805_2774" x1="11.667" y1="18.6556" x2="13.061" y2="18.6556" gradientUnits="userSpaceOnUse">
<stop stop-color="white"/>
<stop offset="0.9944" stop-color="white"/>
</linearGradient>
<linearGradient id="paint9_linear_2805_2774" x1="12.8654" y1="15.9809" x2="14.4248" y2="15.9809" gradientUnits="userSpaceOnUse">
<stop stop-color="white"/>
<stop offset="0.9944" stop-color="white"/>
</linearGradient>
<linearGradient id="paint10_linear_2805_2774" x1="14.3948" y1="14.413" x2="16.0487" y2="14.413" gradientUnits="userSpaceOnUse">
<stop stop-color="white"/>
<stop offset="0.9944" stop-color="white"/>
</linearGradient>
<linearGradient id="paint11_linear_2805_2774" x1="10.1606" y1="11.7575" x2="11.6905" y2="11.7575" gradientUnits="userSpaceOnUse">
<stop stop-color="white"/>
<stop offset="0.9944" stop-color="white"/>
</linearGradient>
<linearGradient id="paint12_linear_2805_2774" x1="11.6855" y1="13.2549" x2="13.1797" y2="13.2549" gradientUnits="userSpaceOnUse">
<stop stop-color="white"/>
<stop offset="0.9944" stop-color="white"/>
</linearGradient>
<linearGradient id="paint13_linear_2805_2774" x1="12.7228" y1="10.6627" x2="14.3302" y2="10.6627" gradientUnits="userSpaceOnUse">
<stop stop-color="white"/>
<stop offset="0.9944" stop-color="white"/>
</linearGradient>
<linearGradient id="paint14_linear_2805_2774" x1="14.4387" y1="9.07678" x2="15.8873" y2="9.07678" gradientUnits="userSpaceOnUse">
<stop stop-color="white"/>
<stop offset="0.9944" stop-color="white"/>
</linearGradient>
<linearGradient id="paint15_linear_2805_2774" x1="10.2054" y1="6.36247" x2="11.6925" y2="6.36247" gradientUnits="userSpaceOnUse">
<stop stop-color="white"/>
<stop offset="0.9944" stop-color="white"/>
</linearGradient>
<linearGradient id="paint16_linear_2805_2774" x1="11.6777" y1="7.86447" x2="13.2123" y2="7.86447" gradientUnits="userSpaceOnUse">
<stop stop-color="white"/>
<stop offset="0.9944" stop-color="white"/>
</linearGradient>
<linearGradient id="paint17_linear_2805_2774" x1="15.5336" y1="11.7861" x2="17.1432" y2="11.7861" gradientUnits="userSpaceOnUse">
<stop stop-color="white"/>
<stop offset="0.9944" stop-color="white"/>
</linearGradient>
<linearGradient id="paint18_linear_2805_2774" x1="17.0613" y1="13.2918" x2="18.6171" y2="13.2918" gradientUnits="userSpaceOnUse">
<stop stop-color="white"/>
<stop offset="0.9944" stop-color="white"/>
</linearGradient>
</defs>
</svg>
