<svg width="23" height="25" viewBox="0 0 23 25" fill="none" xmlns="http://www.w3.org/2000/svg">
<path d="M13.1016 11.8008C12.8428 11.8008 12.6328 12.0108 12.6328 12.2695C12.6328 12.5283 12.8428 12.7383 13.1016 12.7383C13.3603 12.7383 13.5703 12.5283 13.5703 12.2695C13.5703 12.0108 13.3603 11.8008 13.1016 11.8008Z" fill="white"/>
<path d="M11.2266 8.98828C10.9678 8.98828 10.7578 9.19828 10.7578 9.45703C10.7578 9.71578 10.9678 9.92578 11.2266 9.92578C11.4853 9.92578 11.6953 9.71578 11.6953 9.45703C11.6953 9.19828 11.4853 8.98828 11.2266 8.98828Z" fill="white"/>
<path d="M5.60156 21.1758C5.34281 21.1758 5.13281 21.3858 5.13281 21.6445C5.13281 21.9033 5.34281 22.1133 5.60156 22.1133C5.86031 22.1133 6.07031 21.9033 6.07031 21.6445C6.07031 21.3858 5.86031 21.1758 5.60156 21.1758Z" fill="white"/>
<path d="M20.5277 20.0357L14.5082 9.33427V3.65794C15.0539 3.46448 15.4457 2.94319 15.4457 2.33203C15.4457 1.55663 14.8149 0.925781 14.0395 0.925781H8.4145C7.63909 0.925781 7.00825 1.55663 7.00825 2.33203C7.00825 2.94319 7.40008 3.46448 7.94575 3.65794V9.33427L1.92625 20.0357C1.34837 21.063 1.35864 22.2838 1.95362 23.3011C2.54856 24.3184 3.60737 24.9258 4.7859 24.9258H17.6681C18.8466 24.9258 19.9054 24.3184 20.5004 23.3011C21.0954 22.2838 21.1056 21.063 20.5277 20.0357ZM8.82306 9.68681C8.86253 9.61669 8.88325 9.53752 8.88325 9.45703V3.73828H9.352C9.61084 3.73828 9.82075 3.52837 9.82075 3.26953C9.82075 3.01069 9.61084 2.80078 9.352 2.80078H8.4145C8.15603 2.80078 7.94575 2.5905 7.94575 2.33203C7.94575 2.07356 8.15603 1.86328 8.4145 1.86328H14.0395C14.298 1.86328 14.5082 2.07356 14.5082 2.33203C14.5082 2.5905 14.298 2.80078 14.0395 2.80078H13.102C12.8432 2.80078 12.6332 3.01069 12.6332 3.26953C12.6332 3.52837 12.8432 3.73828 13.102 3.73828H13.5707V9.45703C13.5707 9.53756 13.5915 9.61664 13.6309 9.68681L16.3938 14.5987C14.7065 14.4621 13.0251 14.8033 11.4803 15.6032C9.4944 16.6309 7.28364 16.8119 5.19906 16.1295L8.82306 9.68681ZM19.6911 22.8278C19.2662 23.5545 18.5099 23.9883 17.6681 23.9883H4.7859C3.94412 23.9883 3.18784 23.5545 2.76292 22.8278C2.3379 22.1011 2.33054 21.2291 2.74337 20.4953L4.73125 16.9613C5.69575 17.298 6.6925 17.4681 7.70486 17.4681C7.85472 17.4681 8.00495 17.4644 8.15547 17.4569C9.46351 17.3921 10.7271 17.0486 11.9113 16.4358C13.4953 15.6157 15.2375 15.3325 16.9636 15.6117L19.7107 20.4953C20.1234 21.2291 20.1161 22.1011 19.6911 22.8278Z" fill="white"/>
<path d="M9.35156 11.8008C8.57616 11.8008 7.94531 12.4316 7.94531 13.207C7.94531 13.9824 8.57616 14.6133 9.35156 14.6133C10.127 14.6133 10.7578 13.9824 10.7578 13.207C10.7578 12.4316 10.127 11.8008 9.35156 11.8008ZM9.35156 13.6758C9.09309 13.6758 8.88281 13.4655 8.88281 13.207C8.88281 12.9486 9.09309 12.7383 9.35156 12.7383C9.61003 12.7383 9.82031 12.9486 9.82031 13.207C9.82031 13.4655 9.61003 13.6758 9.35156 13.6758Z" fill="white"/>
<path d="M16.8516 21.1758H7.47656C7.21772 21.1758 7.00781 21.3857 7.00781 21.6445C7.00781 21.9034 7.21772 22.1133 7.47656 22.1133H16.8516C17.1104 22.1133 17.3203 21.9034 17.3203 21.6445C17.3203 21.3857 17.1104 21.1758 16.8516 21.1758Z" fill="white"/>
</svg>
