<svg width="25" height="24" viewBox="0 0 25 24" fill="none" xmlns="http://www.w3.org/2000/svg">
<path d="M24.4709 13.7663C24.2936 12.5377 23.3283 11.5724 22.0997 11.3951V10.6679C22.0997 8.66152 20.5745 7.02795 18.6997 7.02795C16.8789 7.02795 15.3546 8.61192 15.2998 10.5591H15.323L15.2998 10.5631V18.4458C15.2998 20.9657 13.4158 23.0121 11.0998 23.0121C8.78387 23.0121 6.8999 20.9629 6.8999 18.4458V17.763C7.47989 17.763 8.09988 17.3426 8.09988 16.163V15.157C10.667 14.5006 12.4998 12.2963 12.4998 9.7971V8.96312H11.6998L11.683 3.7572C11.6772 2.79356 10.9857 1.97077 10.0374 1.79923C9.8329 1.17258 9.15906 0.83039 8.53237 1.03499C7.90573 1.23953 7.56354 1.91337 7.76814 2.54006C7.97268 3.1667 8.64652 3.5089 9.27321 3.3043C9.60876 3.19475 9.8786 2.94231 10.0103 2.61481C10.5227 2.76061 10.8777 3.2268 10.8818 3.7596L10.8998 8.96312H10.0998V9.8087C10.0679 11.2 9.13516 12.4091 7.79749 12.7931C7.08175 13.0202 6.31326 13.0202 5.59752 12.7931C4.26139 12.4078 3.33071 11.1989 3.29996 9.8087V8.96312H2.09997V3.7632C2.10227 3.22255 2.46587 2.75016 2.98796 2.60961C3.23141 3.22935 3.93115 3.53435 4.55089 3.2909C5.17063 3.04746 5.47562 2.34767 5.23218 1.72798C4.98873 1.10829 4.28894 0.803241 3.66925 1.04669C3.33346 1.17863 3.07436 1.45398 2.96316 1.79723C2.00453 1.96102 1.30264 2.79066 1.29999 3.7632V8.96312H0.5V9.7951C0.5 12.2971 2.33397 14.5022 4.89993 15.157V16.163C4.89993 17.3426 5.51992 17.763 6.09991 17.763V18.4458C6.09991 21.4057 8.34268 23.8121 11.0998 23.8121C13.857 23.8121 16.0998 21.4029 16.0998 18.4458V10.5823C16.1398 9.06431 17.3069 7.82913 18.6997 7.82913C20.1333 7.82913 21.2997 9.10271 21.2997 10.6691V11.3951C19.7691 11.616 18.7075 13.0358 18.9284 14.5663C19.1493 16.0969 20.5691 17.1585 22.0997 16.9376C23.6302 16.7167 24.6918 15.2968 24.4709 13.7663ZM8.89987 2.56321C8.67897 2.56321 8.49987 2.38412 8.49987 2.16322C8.49987 1.94232 8.67897 1.76323 8.89987 1.76323C9.12076 1.76323 9.29986 1.94232 9.29986 2.16322C9.29986 2.38412 9.12076 2.56321 8.89987 2.56321ZM4.09994 1.76323C4.32084 1.76323 4.49994 1.94232 4.49994 2.16322C4.49994 2.38412 4.32084 2.56321 4.09994 2.56321C3.87905 2.56321 3.69995 2.38412 3.69995 2.16322C3.69995 1.94232 3.87905 1.76323 4.09994 1.76323ZM1.29999 9.7951V9.7631H2.49997V9.8087C2.52997 11.5472 3.6866 13.0645 5.35512 13.5538C6.22946 13.8307 7.16795 13.8307 8.04228 13.5538C9.71161 13.0651 10.8693 11.5478 10.8998 9.8087V9.7631H11.6998V9.7951C11.6998 12.0203 9.98465 13.9782 7.61989 14.4518C7.0646 14.563 6.49581 14.5909 5.93231 14.5346C5.74682 14.5166 5.56242 14.4887 5.37992 14.451C3.01516 13.9782 1.29999 12.0203 1.29999 9.7951ZM6.09991 16.963C5.73992 16.963 5.69992 16.403 5.69992 16.163V15.3142C5.73192 15.3182 5.76472 15.3198 5.79712 15.323C5.83712 15.3274 5.87712 15.3306 5.91712 15.3342C6.10631 15.351 6.29711 15.3622 6.48951 15.3626H6.50951C6.7015 15.3626 6.8919 15.351 7.0799 15.3342C7.1199 15.3306 7.1623 15.3274 7.2035 15.323C7.23509 15.3194 7.26789 15.3182 7.29949 15.3142V16.163C7.29949 16.403 7.25949 16.963 6.8995 16.963H6.09991ZM21.6997 16.163C20.5951 16.163 19.6997 15.2676 19.6997 14.163C19.6997 13.0585 20.5951 12.1631 21.6997 12.1631C22.8042 12.1631 23.6996 13.0585 23.6996 14.163C23.6983 15.2671 22.8036 16.1617 21.6997 16.163Z" fill="white"/>
<path d="M21.7 12.9629C21.0372 12.9629 20.5 13.5001 20.5 14.1629C20.5 14.8256 21.0372 15.3629 21.7 15.3629C22.3627 15.3629 22.9 14.8256 22.9 14.1629C22.9 13.5001 22.3627 12.9629 21.7 12.9629ZM21.7 14.5629C21.4791 14.5629 21.3 14.3838 21.3 14.1629C21.3 13.942 21.4791 13.7629 21.7 13.7629C21.9209 13.7629 22.1 13.942 22.1 14.1629C22.1 14.3838 21.9209 14.5629 21.7 14.5629Z" fill="white"/>
</svg>
