<svg width="24" height="24" viewBox="0 0 24 24" fill="none" xmlns="http://www.w3.org/2000/svg">
<path d="M23.9709 13.7663C23.7936 12.5377 22.8283 11.5724 21.5997 11.3951V10.6679C21.5997 8.66152 20.0745 7.02795 18.1997 7.02795C16.3789 7.02795 14.8546 8.61192 14.7998 10.5591H14.823L14.7998 10.5631V18.4458C14.7998 20.9657 12.9158 23.0121 10.5998 23.0121C8.28387 23.0121 6.3999 20.9629 6.3999 18.4458V17.763C6.97989 17.763 7.59988 17.3426 7.59988 16.163V15.157C10.167 14.5006 11.9998 12.2963 11.9998 9.7971V8.96312H11.1998L11.183 3.7572C11.1772 2.79356 10.4857 1.97077 9.53745 1.79923C9.3329 1.17258 8.65906 0.83039 8.03237 1.03499C7.40573 1.23953 7.06354 1.91337 7.26814 2.54006C7.47268 3.1667 8.14652 3.5089 8.77321 3.3043C9.10876 3.19475 9.3786 2.94231 9.51025 2.61481C10.0227 2.76061 10.3777 3.2268 10.3818 3.7596L10.3998 8.96312H9.59985V9.8087C9.56795 11.2 8.63516 12.4091 7.29749 12.7931C6.58175 13.0202 5.81326 13.0202 5.09752 12.7931C3.76139 12.4078 2.83071 11.1989 2.79996 9.8087V8.96312H1.59997V3.7632C1.60227 3.22255 1.96587 2.75016 2.48796 2.60961C2.73141 3.22935 3.43115 3.53435 4.05089 3.2909C4.67063 3.04746 4.97562 2.34767 4.73218 1.72798C4.48873 1.10829 3.78894 0.803241 3.16925 1.04669C2.83346 1.17863 2.57436 1.45398 2.46316 1.79723C1.50453 1.96102 0.802637 2.79066 0.799987 3.7632V8.96312H0V9.7951C0 12.2971 1.83397 14.5022 4.39993 15.157V16.163C4.39993 17.3426 5.01992 17.763 5.59991 17.763V18.4458C5.59991 21.4057 7.84268 23.8121 10.5998 23.8121C13.357 23.8121 15.5998 21.4029 15.5998 18.4458V10.5823C15.6398 9.06431 16.8069 7.82913 18.1997 7.82913C19.6333 7.82913 20.7997 9.10271 20.7997 10.6691V11.3951C19.2691 11.616 18.2075 13.0358 18.4284 14.5663C18.6493 16.0969 20.0691 17.1585 21.5997 16.9376C23.1302 16.7167 24.1918 15.2968 23.9709 13.7663ZM8.39987 2.56321C8.17897 2.56321 7.99987 2.38412 7.99987 2.16322C7.99987 1.94232 8.17897 1.76323 8.39987 1.76323C8.62076 1.76323 8.79986 1.94232 8.79986 2.16322C8.79986 2.38412 8.62076 2.56321 8.39987 2.56321ZM3.59994 1.76323C3.82084 1.76323 3.99994 1.94232 3.99994 2.16322C3.99994 2.38412 3.82084 2.56321 3.59994 2.56321C3.37905 2.56321 3.19995 2.38412 3.19995 2.16322C3.19995 1.94232 3.37905 1.76323 3.59994 1.76323ZM0.799987 9.7951V9.7631H1.99997V9.8087C2.02997 11.5472 3.1866 13.0645 4.85512 13.5538C5.72946 13.8307 6.66795 13.8307 7.54228 13.5538C9.21161 13.0651 10.3693 11.5478 10.3998 9.8087V9.7631H11.1998V9.7951C11.1998 12.0203 9.48465 13.9782 7.11989 14.4518C6.5646 14.563 5.99581 14.5909 5.43231 14.5346C5.24682 14.5166 5.06242 14.4887 4.87992 14.451C2.51516 13.9782 0.799987 12.0203 0.799987 9.7951ZM5.59991 16.963C5.23992 16.963 5.19992 16.403 5.19992 16.163V15.3142C5.23192 15.3182 5.26472 15.3198 5.29712 15.323C5.33712 15.3274 5.37712 15.3306 5.41712 15.3342C5.60631 15.351 5.79711 15.3622 5.98951 15.3626H6.00951C6.2015 15.3626 6.3919 15.351 6.5799 15.3342C6.6199 15.3306 6.6623 15.3274 6.7035 15.323C6.73509 15.3194 6.76789 15.3182 6.79949 15.3142V16.163C6.79949 16.403 6.75949 16.963 6.3995 16.963H5.59991ZM21.1997 16.163C20.0951 16.163 19.1997 15.2676 19.1997 14.163C19.1997 13.0585 20.0951 12.1631 21.1997 12.1631C22.3042 12.1631 23.1996 13.0585 23.1996 14.163C23.1983 15.2671 22.3036 16.1617 21.1997 16.163Z" fill="white"/>
<path d="M21.2 12.9629C20.5372 12.9629 20 13.5001 20 14.1629C20 14.8256 20.5372 15.3629 21.2 15.3629C21.8627 15.3629 22.4 14.8256 22.4 14.1629C22.4 13.5001 21.8627 12.9629 21.2 12.9629ZM21.2 14.5629C20.9791 14.5629 20.8 14.3838 20.8 14.1629C20.8 13.942 20.9791 13.7629 21.2 13.7629C21.4209 13.7629 21.6 13.942 21.6 14.1629C21.6 14.3838 21.4209 14.5629 21.2 14.5629Z" fill="white"/>
</svg>
