<svg width="22" height="25" viewBox="0 0 22 25" fill="none" xmlns="http://www.w3.org/2000/svg">
<path d="M12.6016 11.8008C12.3428 11.8008 12.1328 12.0108 12.1328 12.2695C12.1328 12.5283 12.3428 12.7383 12.6016 12.7383C12.8603 12.7383 13.0703 12.5283 13.0703 12.2695C13.0703 12.0108 12.8603 11.8008 12.6016 11.8008Z" fill="white"/>
<path d="M10.7266 8.98828C10.4678 8.98828 10.2578 9.19828 10.2578 9.45703C10.2578 9.71578 10.4678 9.92578 10.7266 9.92578C10.9853 9.92578 11.1953 9.71578 11.1953 9.45703C11.1953 9.19828 10.9853 8.98828 10.7266 8.98828Z" fill="white"/>
<path d="M5.10156 21.1758C4.84281 21.1758 4.63281 21.3858 4.63281 21.6445C4.63281 21.9033 4.84281 22.1133 5.10156 22.1133C5.36031 22.1133 5.57031 21.9033 5.57031 21.6445C5.57031 21.3858 5.36031 21.1758 5.10156 21.1758Z" fill="white"/>
<path d="M20.0277 20.0357L14.0082 9.33427V3.65794C14.5539 3.46448 14.9457 2.94319 14.9457 2.33203C14.9457 1.55663 14.3149 0.925781 13.5395 0.925781H7.9145C7.13909 0.925781 6.50825 1.55663 6.50825 2.33203C6.50825 2.94319 6.90008 3.46448 7.44575 3.65794V9.33427L1.42625 20.0357C0.848373 21.063 0.858639 22.2838 1.45362 23.3011C2.04856 24.3184 3.10737 24.9258 4.2859 24.9258H17.1681C18.3466 24.9258 19.4054 24.3184 20.0004 23.3011C20.5954 22.2838 20.6056 21.063 20.0277 20.0357ZM8.32306 9.68681C8.36253 9.61669 8.38325 9.53752 8.38325 9.45703V3.73828H8.852C9.11084 3.73828 9.32075 3.52837 9.32075 3.26953C9.32075 3.01069 9.11084 2.80078 8.852 2.80078H7.9145C7.65603 2.80078 7.44575 2.5905 7.44575 2.33203C7.44575 2.07356 7.65603 1.86328 7.9145 1.86328H13.5395C13.798 1.86328 14.0082 2.07356 14.0082 2.33203C14.0082 2.5905 13.798 2.80078 13.5395 2.80078H12.602C12.3432 2.80078 12.1332 3.01069 12.1332 3.26953C12.1332 3.52837 12.3432 3.73828 12.602 3.73828H13.0707V9.45703C13.0707 9.53756 13.0915 9.61664 13.1309 9.68681L15.8938 14.5987C14.2065 14.4621 12.5251 14.8033 10.9803 15.6032C8.9944 16.6309 6.78364 16.8119 4.69906 16.1295L8.32306 9.68681ZM19.1911 22.8278C18.7662 23.5545 18.0099 23.9883 17.1681 23.9883H4.2859C3.44412 23.9883 2.68784 23.5545 2.26292 22.8278C1.8379 22.1011 1.83054 21.2291 2.24337 20.4953L4.23125 16.9613C5.19575 17.298 6.1925 17.4681 7.20486 17.4681C7.35472 17.4681 7.50495 17.4644 7.65547 17.4569C8.96351 17.3921 10.2271 17.0486 11.4113 16.4358C12.9953 15.6157 14.7375 15.3325 16.4636 15.6117L19.2107 20.4953C19.6234 21.2291 19.6161 22.1011 19.1911 22.8278Z" fill="white"/>
<path d="M8.85156 11.8008C8.07616 11.8008 7.44531 12.4316 7.44531 13.207C7.44531 13.9824 8.07616 14.6133 8.85156 14.6133C9.62697 14.6133 10.2578 13.9824 10.2578 13.207C10.2578 12.4316 9.62697 11.8008 8.85156 11.8008ZM8.85156 13.6758C8.59309 13.6758 8.38281 13.4655 8.38281 13.207C8.38281 12.9486 8.59309 12.7383 8.85156 12.7383C9.11003 12.7383 9.32031 12.9486 9.32031 13.207C9.32031 13.4655 9.11003 13.6758 8.85156 13.6758Z" fill="white"/>
<path d="M16.3516 21.1758H6.97656C6.71772 21.1758 6.50781 21.3857 6.50781 21.6445C6.50781 21.9034 6.71772 22.1133 6.97656 22.1133H16.3516C16.6104 22.1133 16.8203 21.9034 16.8203 21.6445C16.8203 21.3857 16.6104 21.1758 16.3516 21.1758Z" fill="white"/>
</svg>
