<svg width="19" height="19" viewBox="0 0 19 19" fill="none" xmlns="http://www.w3.org/2000/svg">
<path d="M12.8883 17.4958H9.87995C9.43662 17.4958 8.47079 17.3612 7.9562 16.8467L5.55745 14.9942L6.28579 14.0521L8.73995 15.9521C8.93787 16.1421 9.43662 16.3004 9.87995 16.3004H12.8883C13.6008 16.3004 14.3687 15.7304 14.527 15.0892L16.4429 9.27041C16.5695 8.92208 16.5458 8.60541 16.3795 8.37583C16.2054 8.13041 15.8887 7.98791 15.5008 7.98791H12.3341C11.9225 7.98791 11.5425 7.81375 11.2812 7.51291C11.012 7.20416 10.8933 6.7925 10.9566 6.365L11.3525 3.82375C11.4475 3.38041 11.1466 2.88166 10.7191 2.73916C10.3312 2.59666 9.83245 2.8025 9.65829 3.05583L6.41245 7.885L5.43079 7.22791L8.67662 2.39875C9.17537 1.65458 10.2679 1.29833 11.1229 1.62291C12.1125 1.9475 12.7458 3.04 12.5241 4.05333L12.1362 6.54708C12.1283 6.6025 12.1283 6.68166 12.1837 6.745C12.2233 6.78458 12.2787 6.80833 12.342 6.80833H15.5087C16.2845 6.80833 16.9575 7.13291 17.3533 7.695C17.7412 8.24125 17.8204 8.96166 17.567 9.65833L15.675 15.4217C15.382 16.5696 14.1629 17.4958 12.8883 17.4958Z" fill="white"/>
<path d="M4.25916 16.625H3.46749C2.00291 16.625 1.29041 15.9363 1.29041 14.5271V6.76875C1.29041 5.35959 2.00291 4.67084 3.46749 4.67084H4.25916C5.72374 4.67084 6.43624 5.35959 6.43624 6.76875V14.5271C6.43624 15.9363 5.72374 16.625 4.25916 16.625ZM3.46749 5.85834C2.60457 5.85834 2.47791 6.06417 2.47791 6.76875V14.5271C2.47791 15.2317 2.60457 15.4375 3.46749 15.4375H4.25916C5.12207 15.4375 5.24874 15.2317 5.24874 14.5271V6.76875C5.24874 6.06417 5.12207 5.85834 4.25916 5.85834H3.46749Z" fill="white"/>
</svg>
