<svg width="22" height="20" viewBox="0 0 22 20" fill="none" xmlns="http://www.w3.org/2000/svg">
<path d="M20.3327 18.9584H6.16602C4.44102 18.9584 3.04102 17.5584 3.04102 15.8334V1.66669C3.04102 1.32502 3.32435 1.04169 3.66602 1.04169C4.00768 1.04169 4.29102 1.32502 4.29102 1.66669V15.8334C4.29102 16.8667 5.13268 17.7084 6.16602 17.7084H20.3327C20.6744 17.7084 20.9577 17.9917 20.9577 18.3334C20.9577 18.675 20.6744 18.9584 20.3327 18.9584Z" fill="white"/>
<path d="M6.16587 14.7917C6.0242 14.7917 5.8742 14.7417 5.75753 14.6417C5.4992 14.4167 5.46587 14.025 5.69087 13.7584L9.51587 9.29168C9.93253 8.80834 10.5325 8.51668 11.1659 8.49168C11.7992 8.47502 12.4242 8.70834 12.8742 9.15834L13.6659 9.95002C13.8742 10.1583 14.1492 10.2583 14.4409 10.2583C14.7325 10.25 14.9992 10.1167 15.1909 9.89168L19.0159 5.42502C19.2409 5.16669 19.6325 5.13334 19.8992 5.35834C20.1575 5.58334 20.1909 5.97501 19.9659 6.24167L16.1409 10.7084C15.7242 11.1917 15.1242 11.4833 14.4909 11.5083C13.8575 11.525 13.2325 11.2917 12.7825 10.8417L11.9992 10.05C11.7909 9.84168 11.5159 9.73335 11.2242 9.74168C10.9325 9.75002 10.6659 9.88335 10.4742 10.1084L6.6492 14.575C6.51587 14.7167 6.34087 14.7917 6.16587 14.7917Z" fill="white"/>
</svg>
