<svg width="15" height="15" viewBox="0 0 15 15" fill="none" xmlns="http://www.w3.org/2000/svg">
<path d="M13.0881 0.734375H1.62091C0.921492 0.734375 0.354492 1.30138 0.354492 2.00079V13.4679C0.354492 14.1674 0.921492 14.7344 1.62091 14.7344H13.088C13.7875 14.7344 14.3545 14.1674 14.3545 13.4679V2.00079C14.3545 1.30138 13.7875 0.734375 13.0881 0.734375ZM4.68669 12.8229C4.68669 13.0264 4.52169 13.1914 4.31814 13.1914H2.74934C2.54579 13.1914 2.38079 13.0264 2.38079 12.8229V6.24653C2.38079 6.04298 2.54579 5.87798 2.74934 5.87798H4.31814C4.52169 5.87798 4.68669 6.04298 4.68669 6.24653V12.8229ZM3.53374 5.25806C2.71063 5.25806 2.04336 4.59079 2.04336 3.76768C2.04336 2.94458 2.71063 2.27731 3.53374 2.27731C4.35684 2.27731 5.02412 2.94458 5.02412 3.76768C5.02412 4.59079 4.35688 5.25806 3.53374 5.25806ZM12.8852 12.8526C12.8852 13.0397 12.7335 13.1914 12.5464 13.1914H10.8629C10.6758 13.1914 10.5241 13.0397 10.5241 12.8526V9.76789C10.5241 9.30773 10.659 7.75142 9.32149 7.75142C8.28399 7.75142 8.07355 8.81666 8.03129 9.29472V12.8526C8.03129 13.0397 7.8796 13.1914 7.69243 13.1914H6.06426C5.87713 13.1914 5.7254 13.0397 5.7254 12.8526V6.21684C5.7254 6.02971 5.87713 5.87798 6.06426 5.87798H7.69243C7.87957 5.87798 8.03129 6.02971 8.03129 6.21684V6.79058C8.416 6.21325 8.98773 5.76763 10.205 5.76763C12.9007 5.76763 12.8852 8.28602 12.8852 9.66975V12.8526Z" fill="white"/>
</svg>
