<svg width="18" height="17" viewBox="0 0 18 17" fill="none" xmlns="http://www.w3.org/2000/svg">
<path d="M8 9.20017C8.32209 9.63077 8.73302 9.98706 9.20491 10.2449C9.67681 10.5027 10.1986 10.656 10.735 10.6944C11.2713 10.7328 11.8097 10.6554 12.3135 10.4675C12.8173 10.2796 13.2748 9.98547 13.655 9.60517L15.905 7.35517C16.5881 6.64791 16.9661 5.70065 16.9575 4.71741C16.949 3.73418 16.5546 2.79363 15.8593 2.09835C15.164 1.40307 14.2235 1.00869 13.2403 1.00014C12.257 0.991598 11.3098 1.36958 10.6025 2.05267L9.3125 3.33517" stroke="white" stroke-width="2" stroke-linecap="round" stroke-linejoin="round"/>
<path d="M10.5001 7.24992C10.1781 6.81933 9.76713 6.46304 9.29524 6.20522C8.82334 5.9474 8.30152 5.79409 7.76516 5.75567C7.2288 5.71726 6.69046 5.79465 6.18664 5.98259C5.68282 6.17053 5.22531 6.46462 4.84515 6.84492L2.59515 9.09492C1.91206 9.80218 1.53408 10.7494 1.54262 11.7327C1.55117 12.7159 1.94555 13.6565 2.64083 14.3517C3.33611 15.047 4.27666 15.4414 5.2599 15.45C6.24313 15.4585 7.19039 15.0805 7.89765 14.3974L9.18015 13.1149" stroke="white" stroke-width="2" stroke-linecap="round" stroke-linejoin="round"/>
</svg>
