<svg xmlns="http://www.w3.org/2000/svg" viewBox="0 0 910.99 308.83"><defs><style>.cls-1,.cls-2{fill:#fff;}.cls-2{opacity:0.5;}</style></defs><title>Asset 3</title><g id="Layer_2" data-name="Layer 2"><g id="Layer_1-2" data-name="Layer 1"><path class="cls-1" d="M471.05,197.62H445.86V94.52h25.19Z"/><path class="cls-1" d="M583.26,94.52l-42.51,103.1H516.87l-44.3-103.1H499.9l28.29,70.94,29.12-70.94Z"/><path class="cls-1" d="M609.48,197.62H584.3V94.52h25.18Z"/><path class="cls-1" d="M721.28,197.62h-27.4l-21.6-39H650.62v39H626.46V94.52h52.73q18.76,0,27.12,7.79,8.9,7.66,8.9,23.88,0,12-5.38,19.67a24,24,0,0,1-13.53,9.45Zm-30.36-71.15c0-3.87-1.08-6.6-3.25-8.22q-3.66-2.34-13.45-2.34h-23.6v21.46h23.6q9.51,0,13.32-2.55C689.79,133.12,690.92,130.33,690.92,126.47Z"/><path class="cls-1" d="M820.79,166.08q0,16.08-8.9,23.77t-27.26,7.7H727.84V176.36h53.55a34.3,34.3,0,0,0,6.9-.62,9.31,9.31,0,0,0,4.42-1.79q3-2.22,3-7.18,0-5.11-2.83-7.66a9.1,9.1,0,0,0-3.79-1.52,38.71,38.71,0,0,0-6.35-.41h-24.5q-17.19,0-26.09-7.39-8.34-7.46-8.35-23,0-16.48,8.91-24.43,8.76-7.78,27.32-7.79h56.11v21.32l-53,.07q-7.93,0-11,2.69Q749,120.94,749,127a8.74,8.74,0,0,0,2.56,6.69q3.1,2.35,8.62,2.35h27.4q17.94,0,25.57,7T820.79,166.08Z"/><path class="cls-1" d="M911,197.55H874.07q-11.73,0-18.5-2a36.7,36.7,0,0,1-13.31-7.18,40.35,40.35,0,0,1-11.74-16.63q-3.93-10.08-3.93-24,0-27.12,11.73-40.23t36.3-13H911v20.91H875q-10.29,0-15.39,5T853.57,135l57.42.13v20.78H853.44a29.2,29.2,0,0,0,1.31,9.17,14,14,0,0,0,3.52,6.35q5,5.25,16.77,5.25h36Z"/><path class="cls-1" d="M388.47,123.64c-17.2-17.52-46.23-18.58-63.75-1.38l-13,12.88-24.17-24.29L275.68,98.69l7.16-7.21,0,0c9.92-9.82,14.9-23.46,14.81-37.57s-4.5-26.29-14.53-36.41S260.68,1.08,246.68.8c-.09,0-.1-.09-.19-.09C232.68.5,219,3.35,207.68,14.16h0l-.67.67-.05,0h0l-7.42,7.52-7.24-7.28h0l-.13-.13-.42-.42h0A53.83,53.83,0,0,0,101,54.33c.13,13.93,6.23,27.18,17,37.6h0l6.06,6-36.6,36.29L77.16,123.71c-10.41-10.41-20.13-13-31.53-13.15S22.08,115.38,13.32,124a44.58,44.58,0,0,0-.6,63c17.19,17.52,45.68,18.06,63.2.88h0L88.4,175.4l36.05,36.14-7.22,7.27,0,0c-9.91,9.83-15,23.38-15,37.33s4.18,26,14,35.89,22.06,16,35.92,16.17c.09,0,.09.09.18.09,13.66.06,27.22-2.9,38.54-13.72l0,0,.68-.69,0,0h0l7.47-7.58,5.6,5.61h0c10.42,10.77,23.73,16.83,37.65,17a54.14,54.14,0,0,0,16.16-2.32A49.33,49.33,0,0,0,279,294.89c.41-.37.79-.75,1.18-1.14l0,0,0,0,.65-.66a53.8,53.8,0,0,0,.68-75.17h0l-.07-.07-.11-.12h0l-.38-.39a67.34,67.34,0,0,0-6.16-6.16l-.32-.32,35.54-35.51,12.66,12.9a44.57,44.57,0,0,0,57.35,5.26,42.79,42.79,0,0,0,4.4-3.18,33.53,33.53,0,0,0,6.19-7.28C403.49,165.38,403.86,139.34,388.47,123.64ZM181.08,268.46l-1.41-1.54-5.58,5.58,0,0c-9.39,9.81-26.93,8.23-36.74-1.16a25.08,25.08,0,0,1-.76-35.17l0,0,6.25-6.22,38.38,38.47Zm173.29-97.31a16.37,16.37,0,0,1-10.95-4.3l-12.51-12.5,11.88-11.66a16.64,16.64,0,0,1,11.89-4.54,16.5,16.5,0,1,1-.31,33ZM145.19,119l35.66,35.61-36.64,36.63L108.5,155.38l27.41-27.31ZM225.4,272.66l-.09.09L219,266.37l36.73-36.76,5.88,5.94,1,1.14a25.48,25.48,0,0,1-.61,36C251.89,282.4,235.15,282.74,225.4,272.66ZM170.9,36.28l1.15,1,6.3,6.25L142.55,79l-6.64-6.64h0c-10-9.75-10.69-25.39-1-35.45A25.46,25.46,0,0,1,170.9,36.28ZM199.5,136,163.32,99.76l35.91-35.49,36,36Zm-.13,37.14,18,17.94.1-.09,19,19.19L199.68,247l-37-37.22Zm54.46-54.34,37.09,37-35.77,35.61-37-37ZM262,276l-.16.13ZM220.58,43.18l7.21-7.12,0,0,2-2,0,0c9.38-9.81,25.7-9.45,35.51-.06A25.07,25.07,0,0,1,266,69.16l0,0-10,10-20.91-21ZM67.23,154.31,55.42,166.05a16.5,16.5,0,1,1,.23-23.33l.54-.53h0l-.54.54Z"/><polygon class="cls-2" points="124.11 97.97 145.19 119.02 135.91 128.07 114.4 107.6 124.11 97.97"/><polygon class="cls-2" points="142.55 78.96 163.18 99.6 175.69 87.54 154.9 66.74 142.55 78.96"/><polygon class="cls-2" points="87.51 134.26 67.23 154.31 57.2 144.29 77.93 124.5 87.51 134.26"/><polygon class="cls-2" points="88.4 175.4 108.46 155.34 119.75 166.69 100.27 187.3 88.4 175.4"/><polygon class="cls-2" points="124.45 211.54 142.78 229.9 135.79 237 117.19 218.78 124.45 211.54"/><polygon class="cls-2" points="144.21 191.26 162.64 209.78 172.5 199.93 154.15 181.32 144.21 191.26"/><path class="cls-2" d="M169.4,256.58l20-20c-.23.23,10.32,10.38,10.32,10.38l-20,19.92Z"/><polygon class="cls-2" points="199.54 285.71 218.96 266.37 227.7 274.74 208.9 295.91 199 286.25 199.54 285.71"/><polygon class="cls-2" points="236.44 210.16 255.79 229.51 243.34 241.97 223.68 222.94 236.44 210.16"/><polygon class="cls-2" points="274.52 210.8 255.16 191.42 269.86 176.78 289.2 196.13 274.52 210.8"/><polygon class="cls-2" points="199.5 135.98 180.85 154.63 168 141.8 187.17 123.64 199.5 135.98"/><polygon class="cls-2" points="199.37 173.12 218.14 154.39 230.13 166.38 211.77 185.5 199.37 173.12"/><polygon class="cls-2" points="266.03 69.16 285.88 88.24 275.68 98.69 256.05 79.19 266.03 69.16"/><polygon class="cls-2" points="199.53 22.39 178.35 43.53 168.92 34.55 189.5 12.6 199.53 22.39"/><polygon class="cls-2" points="199.23 64.27 220.58 43.18 230.82 53.73 209.76 74.78 199.23 64.27"/><polygon class="cls-2" points="311.73 135.14 290.92 155.81 278.6 143.5 300.29 123.64 311.73 135.14"/><polygon class="cls-2" points="310.06 175.29 330.91 154.35 342.09 165.53 321.65 187.09 310.06 175.29"/></g></g></svg>