<svg width="108" height="110" viewBox="0 0 108 110" fill="none" xmlns="http://www.w3.org/2000/svg">
<path d="M97.2556 28.5907C93.2801 24.5368 86.5629 24.3018 82.5091 28.2773L79.5128 31.254L73.9314 25.6335L71.1897 22.8135L72.8543 21.1489C75.1456 18.8772 76.3011 15.7242 76.2815 12.4537C76.2619 9.18324 75.2435 6.38278 72.9131 4.03274C70.6022 1.72187 67.7234 0.253091 64.4725 0.174757C64.4529 0.174757 64.4529 0.155173 64.4334 0.155173C61.2412 0.116006 58.0883 0.762267 55.464 3.26898L55.3074 3.42565C55.3074 3.42565 55.3074 3.42565 55.2878 3.44523L53.5644 5.18818L51.8802 3.50398C51.8606 3.4844 51.8606 3.4844 51.8411 3.46481L51.7431 3.3669C46.8081 -1.27443 38.9942 -1.09818 34.2745 3.77815C31.9049 6.22611 30.7495 9.39866 30.7886 12.5516C30.8278 15.7634 32.2378 18.838 34.7249 21.2468L36.135 22.6372L27.6748 31.019L25.2856 28.5711C22.8768 26.1623 20.6247 25.5552 18.0005 25.5356C15.3567 25.516 12.5562 26.6519 10.5391 28.6298C6.4657 32.6445 6.40695 39.1658 10.3824 43.2197C14.3579 47.2735 20.938 47.391 24.9919 43.4155L27.8707 40.5367L36.2133 48.8989L34.5487 50.5831C32.2574 52.8548 31.0824 55.9882 31.0628 59.2195C31.0432 62.4508 32.0224 65.2317 34.2941 67.523C36.5462 69.7947 39.3858 71.2243 42.5976 71.2635C42.6172 71.2635 42.6172 71.2831 42.6367 71.2831C45.7897 71.3027 48.9231 70.6172 51.5473 68.1105L51.704 67.9538L53.4273 66.1913L54.7199 67.4838C57.1287 69.971 60.2033 71.381 63.415 71.4006C64.6684 71.4202 65.9413 71.2243 67.1555 70.8718C68.7809 70.4214 70.4064 69.5793 71.9143 68.1889C72.0122 68.1105 72.0906 68.0126 72.1885 67.9343C72.2473 67.8755 72.2864 67.8363 72.3452 67.7776C77.104 62.9992 77.1823 55.2832 72.5018 50.4069L72.4823 50.3873L72.4627 50.3677L72.3648 50.2698C71.7577 49.5844 71.2289 49.0948 70.9351 48.8402L70.8568 48.7618L79.0819 40.5563L81.9999 43.533C83.9779 45.5501 86.6217 46.5881 89.2459 46.6076C91.3413 46.6272 93.4564 46.0005 95.2581 44.7472C95.6301 44.5122 95.9631 44.2772 96.2764 44.003C96.7464 43.6113 97.2556 43.0238 97.706 42.3188C100.741 38.2454 100.82 32.2136 97.2556 28.5907ZM49.3148 62.0787L48.9818 61.7262L47.6893 63.0188C45.5155 65.2905 41.4617 64.9184 39.19 62.7446C36.9183 60.5708 36.84 56.8891 39.0138 54.6174L40.463 53.1878L49.3344 62.0787C49.3344 62.0592 49.3148 62.0592 49.3148 62.0787ZM89.383 39.5771C88.4429 39.5771 87.5421 39.2246 86.8567 38.5783L83.9583 35.68L86.7 32.9774C87.4246 32.2724 88.4234 31.9199 89.4417 31.9199C90.4601 31.9199 91.4197 32.3311 92.1247 33.0557C92.8297 33.7803 93.2214 34.7399 93.2214 35.7583C93.2214 36.7766 92.8101 37.7362 92.0855 38.4412C91.3609 39.1854 90.4013 39.5771 89.383 39.5771ZM41.0113 27.5136L49.256 35.7387L40.7763 44.2184L32.512 35.915L38.8571 29.609L41.0113 27.5136ZM59.557 63.0383L59.5374 63.0579L58.0687 61.5891L66.568 53.0898L67.9193 54.4607L68.1543 54.7349C70.4064 57.0653 70.3476 60.7862 68.0172 63.0579C65.6867 65.2905 61.8092 65.3688 59.557 63.0383ZM46.9647 8.38031L47.2389 8.61532L48.6881 10.0645L40.4042 18.2505L38.8767 16.723C36.5658 14.4708 36.4091 10.8479 38.6613 8.53698C40.8938 6.18694 44.6343 6.12819 46.9647 8.38031ZM53.5644 31.4303L45.2022 23.0485L53.5057 14.8429L61.8287 23.166L53.5644 31.4303ZM53.5448 40.0275L57.6966 44.1793L57.7162 44.1597L62.1029 48.6052L53.6036 57.1241L45.0455 48.5073L53.5448 40.0275ZM66.1371 27.4548L74.7148 36.0129L66.4505 44.238L57.8924 35.68L66.1371 27.4548ZM68.0172 63.8217C67.9976 63.8413 67.9976 63.8413 67.978 63.8609C67.9976 63.8413 67.9976 63.8217 68.0172 63.8217ZM58.4408 9.98618L60.1054 8.34115L60.5558 7.89072C62.7296 5.61902 66.5092 5.69735 68.7614 7.87114C71.0331 10.0449 71.1114 13.7267 68.9376 15.9984L66.6267 18.3092L61.7896 13.4525L58.4408 9.98618ZM22.9943 35.68L20.2722 38.4021C19.5476 39.1071 18.588 39.4988 17.5696 39.4988C16.5513 39.4988 15.5917 39.0875 14.8867 38.3629C14.1817 37.6383 13.79 36.6787 13.79 35.6604C13.79 34.642 14.2012 33.6824 14.9258 32.9774C15.6504 32.2724 16.61 31.8807 17.6284 31.8807C18.6467 31.8807 19.6063 32.292 20.3114 33.0166L20.4289 32.8991L20.3114 33.0166L22.9943 35.68Z" fill="url(#paint0_linear_2836_897)"/>
<path opacity="0.5" d="M36.1349 22.6567L41.0112 27.5135L38.8766 29.6089L33.9023 24.8697L36.1349 22.6567Z" fill="url(#paint1_linear_2836_897)"/>
<path opacity="0.5" d="M40.4043 18.2505L45.1827 23.0289L48.0615 20.248L43.2635 15.4304L40.4043 18.2505Z" fill="url(#paint2_linear_2836_897)"/>
<path opacity="0.5" d="M27.675 31.0385L22.9945 35.6798L20.6641 33.369L25.4621 28.7864L27.675 31.0385Z" fill="url(#paint3_linear_2836_897)"/>
<path opacity="0.5" d="M27.8901 40.5564L32.5315 35.915L35.1361 38.5393L30.6319 43.2981L27.8901 40.5564Z" fill="url(#paint4_linear_2836_897)"/>
<path opacity="0.5" d="M36.2134 48.9185L40.4631 53.1485L38.8377 54.7936L34.5488 50.5831L36.2134 48.9185Z" fill="url(#paint5_linear_2836_897)"/>
<path opacity="0.5" d="M40.7959 44.2185L45.0456 48.5074L47.3368 46.2357L43.0872 41.9272L40.7959 44.2185Z" fill="url(#paint6_linear_2836_897)"/>
<path opacity="0.5" d="M46.6123 59.3173C46.6123 59.3173 51.2732 54.6564 51.2341 54.6956C51.1753 54.7543 53.6233 57.0848 53.6233 57.0848L49.0015 61.6869L46.6123 59.3173Z" fill="url(#paint7_linear_2836_897)"/>
<path opacity="0.5" d="M53.5838 66.0544L58.0685 61.5894L60.0856 63.5281L55.738 68.4241L53.4663 66.1915L53.5838 66.0544Z" fill="url(#paint8_linear_2836_897)"/>
<path opacity="0.5" d="M62.1227 48.5854L66.5877 53.0701L63.7089 55.9489L59.1655 51.5426L62.1227 48.5854Z" fill="url(#paint9_linear_2836_897)"/>
<path opacity="0.5" d="M70.9158 48.7423L66.4507 44.2576L69.8387 40.8696L74.3233 45.3543L70.9158 48.7423Z" fill="url(#paint10_linear_2836_897)"/>
<path opacity="0.5" d="M53.5644 31.4302L49.256 35.7582L46.2988 32.7815L50.7247 28.5906L53.5644 31.4302Z" fill="url(#paint11_linear_2836_897)"/>
<path opacity="0.5" d="M53.5449 40.0275L57.8925 35.6995L60.6538 38.4608L56.4041 42.8867L53.5449 40.0275Z" fill="url(#paint12_linear_2836_897)"/>
<path opacity="0.5" d="M61.8484 23.166L66.1372 27.4744L62.8471 30.7449L58.48 26.5344L61.8484 23.166Z" fill="url(#paint13_linear_2836_897)"/>
<path opacity="0.5" d="M68.9569 15.9983L73.5395 20.4046L71.1894 22.8134L66.646 18.3092L68.9569 15.9983Z" fill="url(#paint14_linear_2836_897)"/>
<path opacity="0.5" d="M53.5839 5.16863L48.688 10.0645L46.4946 7.98867L51.2535 2.9165L53.5839 5.16863Z" fill="url(#paint15_linear_2836_897)"/>
<path opacity="0.5" d="M53.5054 14.8627L58.4405 9.98633L60.8101 12.4147L55.9533 17.291L53.5054 14.8627Z" fill="url(#paint16_linear_2836_897)"/>
<path opacity="0.5" d="M79.5323 31.254L74.7147 36.0324L71.8555 33.1732L76.8689 28.5906L79.5323 31.254Z" fill="url(#paint17_linear_2836_897)"/>
<path opacity="0.5" d="M79.1406 40.5367L83.9582 35.6799L86.5433 38.265L81.8236 43.2588L79.1406 40.5367Z" fill="url(#paint18_linear_2836_897)"/>
<path d="M5.81635 110H0V86.1665H5.81635V110Z" fill="white"/>
<path d="M31.7648 86.1665L21.9338 110H16.4112L6.16895 86.1665H12.4945L19.0354 102.578L25.7722 86.1665H31.7648Z" fill="white"/>
<path d="M37.8354 110H32.019V86.1665H37.8354V110Z" fill="white"/>
<path d="M63.6861 110H57.3606L52.3667 100.991H47.3533V110H41.772V86.1665H53.953C56.8514 86.1665 58.9273 86.7736 60.2198 87.9682C61.5906 89.1432 62.2761 90.9841 62.2761 93.4908C62.2761 95.3512 61.8648 96.8592 61.0227 98.0342C60.2981 99.0917 59.2406 99.8359 57.8893 100.228L63.6861 110ZM56.6556 93.5495C56.6556 92.6487 56.401 92.022 55.9114 91.6499C55.3435 91.2974 54.3055 91.1016 52.7976 91.1016H47.3337V96.0563H52.7976C54.2664 96.0563 55.2847 95.8604 55.8722 95.4687C56.401 95.0967 56.6556 94.4504 56.6556 93.5495Z" fill="white"/>
<path d="M86.6968 102.715C86.6968 105.202 86.0114 107.023 84.6405 108.218C83.2697 109.412 81.1742 110 78.3346 110H65.1939V105.104H77.5708C78.1779 105.104 78.7067 105.065 79.1571 104.967C79.5879 104.888 79.9404 104.751 80.1754 104.556C80.6454 104.223 80.8804 103.655 80.8804 102.891C80.8804 102.108 80.665 101.52 80.2342 101.128C79.9992 100.952 79.7054 100.835 79.3529 100.776C78.9808 100.717 78.4912 100.678 77.8841 100.678H72.2245C69.5807 100.678 67.5635 100.11 66.1927 98.9742C64.9002 97.8188 64.2539 96.0563 64.2539 93.6475C64.2539 91.1016 64.9393 89.2216 66.3102 88.0074C67.681 86.7736 69.7961 86.1665 72.6553 86.1665H85.6197V91.1016L73.3603 91.1212C72.1461 91.1212 71.2844 91.3366 70.8144 91.7478C70.3444 92.1004 70.0898 92.7662 70.0898 93.6866C70.0898 94.3525 70.2857 94.8617 70.6773 95.2337C71.1474 95.5862 71.8132 95.7821 72.6749 95.7821H79.0004C81.7617 95.7821 83.7397 96.3304 84.9147 97.4075C86.1093 98.465 86.6968 100.247 86.6968 102.715Z" fill="white"/>
<path d="M107.554 109.98H99.0152C97.2135 109.98 95.7839 109.824 94.746 109.51C93.6884 109.216 92.6505 108.668 91.6713 107.846C90.4571 106.827 89.5563 105.535 88.9492 104.007C88.3421 102.46 88.0483 100.6 88.0483 98.465C88.0483 94.2937 88.9492 91.1799 90.7705 89.1628C92.533 87.1653 95.3335 86.1665 99.1327 86.1665H107.534V91.0037H99.211C97.6248 91.0037 96.4301 91.3953 95.6468 92.1591C94.8439 92.9425 94.3739 94.0587 94.2368 95.5275L107.515 95.5667V100.365H94.1976C94.1976 101.168 94.2955 101.873 94.4914 102.48C94.6676 103.087 94.9418 103.576 95.3139 103.948C96.0972 104.751 97.3897 105.163 99.1914 105.163H107.515V109.98H107.554Z" fill="white"/>
<defs>
<linearGradient id="paint0_linear_2836_897" x1="7.44488" y1="35.7021" x2="99.969" y2="35.7021" gradientUnits="userSpaceOnUse">
<stop stop-color="white"/>
<stop offset="0.9944" stop-color="white"/>
</linearGradient>
<linearGradient id="paint1_linear_2836_897" x1="33.8961" y1="26.1307" x2="41.0163" y2="26.1307" gradientUnits="userSpaceOnUse">
<stop stop-color="white"/>
<stop offset="0.9944" stop-color="white"/>
</linearGradient>
<linearGradient id="paint2_linear_2836_897" x1="40.4041" y1="19.2292" x2="48.0668" y2="19.2292" gradientUnits="userSpaceOnUse">
<stop stop-color="white"/>
<stop offset="0.9944" stop-color="white"/>
</linearGradient>
<linearGradient id="paint3_linear_2836_897" x1="20.6709" y1="32.2316" x2="27.6793" y2="32.2316" gradientUnits="userSpaceOnUse">
<stop stop-color="white"/>
<stop offset="0.9944" stop-color="white"/>
</linearGradient>
<linearGradient id="paint4_linear_2836_897" x1="27.884" y1="39.6115" x2="35.1324" y2="39.6115" gradientUnits="userSpaceOnUse">
<stop stop-color="white"/>
<stop offset="0.9944" stop-color="white"/>
</linearGradient>
<linearGradient id="paint5_linear_2836_897" x1="34.5424" y1="51.8535" x2="40.4578" y2="51.8535" gradientUnits="userSpaceOnUse">
<stop stop-color="white"/>
<stop offset="0.9944" stop-color="white"/>
</linearGradient>
<linearGradient id="paint6_linear_2836_897" x1="40.7883" y1="45.2137" x2="47.3311" y2="45.2137" gradientUnits="userSpaceOnUse">
<stop stop-color="white"/>
<stop offset="0.9944" stop-color="white"/>
</linearGradient>
<linearGradient id="paint7_linear_2836_897" x1="46.613" y1="58.212" x2="53.6147" y2="58.212" gradientUnits="userSpaceOnUse">
<stop stop-color="white"/>
<stop offset="0.9944" stop-color="white"/>
</linearGradient>
<linearGradient id="paint8_linear_2836_897" x1="53.4572" y1="65.0027" x2="60.0926" y2="65.0027" gradientUnits="userSpaceOnUse">
<stop stop-color="white"/>
<stop offset="0.9944" stop-color="white"/>
</linearGradient>
<linearGradient id="paint9_linear_2836_897" x1="59.1646" y1="52.269" x2="66.5877" y2="52.269" gradientUnits="userSpaceOnUse">
<stop stop-color="white"/>
<stop offset="0.9944" stop-color="white"/>
</linearGradient>
<linearGradient id="paint10_linear_2836_897" x1="66.4414" y1="44.8065" x2="74.3144" y2="44.8065" gradientUnits="userSpaceOnUse">
<stop stop-color="white"/>
<stop offset="0.9944" stop-color="white"/>
</linearGradient>
<linearGradient id="paint11_linear_2836_897" x1="46.2901" y1="32.1683" x2="53.5725" y2="32.1683" gradientUnits="userSpaceOnUse">
<stop stop-color="white"/>
<stop offset="0.9944" stop-color="white"/>
</linearGradient>
<linearGradient id="paint12_linear_2836_897" x1="53.543" y1="39.293" x2="60.656" y2="39.293" gradientUnits="userSpaceOnUse">
<stop stop-color="white"/>
<stop offset="0.9944" stop-color="white"/>
</linearGradient>
<linearGradient id="paint13_linear_2836_897" x1="58.479" y1="26.9573" x2="66.1305" y2="26.9573" gradientUnits="userSpaceOnUse">
<stop stop-color="white"/>
<stop offset="0.9944" stop-color="white"/>
</linearGradient>
<linearGradient id="paint14_linear_2836_897" x1="66.6482" y1="19.4039" x2="73.5439" y2="19.4039" gradientUnits="userSpaceOnUse">
<stop stop-color="white"/>
<stop offset="0.9944" stop-color="white"/>
</linearGradient>
<linearGradient id="paint15_linear_2836_897" x1="46.5015" y1="6.48737" x2="53.5801" y2="6.48737" gradientUnits="userSpaceOnUse">
<stop stop-color="white"/>
<stop offset="0.9944" stop-color="white"/>
</linearGradient>
<linearGradient id="paint16_linear_2836_897" x1="53.5101" y1="13.6365" x2="60.8145" y2="13.6365" gradientUnits="userSpaceOnUse">
<stop stop-color="white"/>
<stop offset="0.9944" stop-color="white"/>
</linearGradient>
<linearGradient id="paint17_linear_2836_897" x1="71.8611" y1="32.3048" x2="79.5232" y2="32.3048" gradientUnits="userSpaceOnUse">
<stop stop-color="white"/>
<stop offset="0.9944" stop-color="white"/>
</linearGradient>
<linearGradient id="paint18_linear_2836_897" x1="79.1361" y1="39.4722" x2="86.5417" y2="39.4722" gradientUnits="userSpaceOnUse">
<stop stop-color="white"/>
<stop offset="0.9944" stop-color="white"/>
</linearGradient>
</defs>
</svg>
