<svg width="21" height="21" viewBox="0 0 21 21" fill="none" xmlns="http://www.w3.org/2000/svg">
<path d="M10.0625 19.0312C5.11875 19.0312 1.09375 15.0063 1.09375 10.0625C1.09375 5.11875 5.11875 1.09375 10.0625 1.09375C15.0063 1.09375 19.0312 5.11875 19.0312 10.0625C19.0312 15.0063 15.0063 19.0312 10.0625 19.0312ZM10.0625 2.40625C5.83625 2.40625 2.40625 5.845 2.40625 10.0625C2.40625 14.28 5.83625 17.7188 10.0625 17.7188C14.2887 17.7188 17.7188 14.28 17.7188 10.0625C17.7188 5.845 14.2887 2.40625 10.0625 2.40625Z" fill="white"/>
<path d="M19.2498 19.9063C19.0835 19.9063 18.9173 19.845 18.786 19.7138L17.036 17.9638C16.7823 17.71 16.7823 17.29 17.036 17.0363C17.2898 16.7825 17.7098 16.7825 17.9635 17.0363L19.7135 18.7863C19.9673 19.04 19.9673 19.46 19.7135 19.7138C19.5823 19.845 19.416 19.9063 19.2498 19.9063Z" fill="white"/>
</svg>
