<svg width="34" height="34" viewBox="0 0 34 34" fill="none" xmlns="http://www.w3.org/2000/svg">
<path d="M29.75 7.9036C29.75 8.06304 29.75 8.22248 29.75 8.38097C29.1402 8.87743 28.5367 9.38058 27.9162 9.86654C27.6134 10.1043 27.4902 10.3745 27.4912 10.7392C27.5018 14.9238 27.4902 19.1074 27.5146 23.2921C27.5167 23.5708 27.6952 23.9041 27.9088 24.116C28.4889 24.6936 29.1317 25.2197 29.7489 25.7658C29.7489 25.8613 29.7489 25.9567 29.7489 26.0522C29.6278 26.0704 29.5067 26.1038 29.3856 26.1038C26.2885 26.1066 23.1915 26.1076 20.0944 26.1019C19.968 26.1019 19.8426 26.0331 19.7172 25.9968C19.7682 25.8546 19.7757 25.6732 19.8787 25.5768C20.3951 25.0965 20.9242 24.6258 21.4767 24.179C21.8326 23.8907 21.9834 23.5718 21.9813 23.1364C21.9654 20.002 21.9728 16.8667 21.9728 13.7323C21.9728 13.5671 21.9728 13.401 21.9728 13.2358C21.8135 13.3609 21.7401 13.4993 21.6775 13.6406C19.9297 17.6314 18.1852 21.6222 16.4353 25.6121C16.3376 25.8336 16.3078 26.0818 15.8881 26.0751C15.5025 26.0694 15.3813 25.9061 15.2475 25.6445C13.2203 21.6566 11.1846 17.6715 9.15111 13.6864C9.07355 13.5346 8.98855 13.3867 8.90674 13.2368C8.87275 13.2406 8.83981 13.2454 8.80581 13.2492C8.80581 13.4143 8.80581 13.5805 8.80581 13.7456C8.80581 16.4027 8.81325 19.0607 8.79837 21.7177C8.79625 22.1588 8.93543 22.5159 9.24779 22.85C10.0457 23.7016 10.833 24.5619 11.6064 25.4316C11.7414 25.5834 11.7913 25.7973 11.9146 26.0532C9.27223 26.0532 6.76165 26.0532 4.25 26.0532C4.25 25.8937 4.25 25.7343 4.25 25.5758C4.29462 25.5577 4.35412 25.5491 4.38281 25.5185C5.26252 24.5628 6.1518 23.6138 7.00707 22.64C7.16963 22.4557 7.27162 22.1741 7.27269 21.9373C7.28437 18.5002 7.28012 15.0641 7.25356 11.6271C7.25144 11.3674 7.10694 11.0666 6.92526 10.8576C6.2421 10.068 5.50582 9.31375 4.80673 8.53373C4.66861 8.37906 4.61123 8.1652 4.47843 7.9036C4.7791 7.9036 4.95335 7.9036 5.12759 7.9036C7.23444 7.9036 9.34023 7.9141 11.446 7.89405C11.8423 7.89024 12.0282 8.00003 12.1908 8.32273C13.9215 11.7684 15.6714 15.2064 17.417 18.6463C17.4903 18.7905 17.5753 18.9289 17.6869 19.1285C17.774 18.9394 17.8229 18.8382 17.8686 18.7351C19.4208 15.256 20.9784 11.7789 22.5179 8.296C22.6496 7.99717 22.8037 7.89215 23.167 7.89501C25.361 7.91219 27.556 7.9036 29.75 7.9036Z" fill="white"/>
</svg>
