<svg width="470" height="110" viewBox="0 0 470 110" fill="none" xmlns="http://www.w3.org/2000/svg">
<path opacity="0.2" d="M3.72 38V37H2.72V38H3.72ZM11.1 38L11.976 37.5178L11.691 37H11.1V38ZM24.84 62.96L23.964 63.4422L24.8497 65.0513L25.7205 63.4341L24.84 62.96ZM38.28 38V37H37.6827L37.3995 37.5259L38.28 38ZM45.66 38H46.66V37H45.66V38ZM45.66 80V81H46.66V80H45.66ZM37.56 80H36.56V81H37.56V80ZM37.56 53.42H38.56L36.6848 52.9363L37.56 53.42ZM28.74 69.38L29.6142 69.8656L29.6152 69.8637L28.74 69.38ZM26.88 71.72L27.4714 72.5265L27.48 72.52L26.88 71.72ZM22.5 72.38L21.6287 72.8708L21.9156 73.38H22.5V72.38ZM11.82 53.42L12.6913 52.9292L10.82 49.6072V53.42H11.82ZM11.82 80V81H12.82V80H11.82ZM3.72 80H2.72V81H3.72V80ZM3.72 39H11.1V37H3.72V39ZM10.224 38.4822L23.964 63.4422L25.716 62.4778L11.976 37.5178L10.224 38.4822ZM25.7205 63.4341L39.1605 38.4741L37.3995 37.5259L23.9595 62.4859L25.7205 63.4341ZM38.28 39H45.66V37H38.28V39ZM44.66 38V80H46.66V38H44.66ZM45.66 79H37.56V81H45.66V79ZM38.56 80V53.42H36.56V80H38.56ZM36.6848 52.9363L27.8648 68.8963L29.6152 69.8637L38.4352 53.9037L36.6848 52.9363ZM27.8658 68.8944C27.3007 69.9116 26.7631 70.5576 26.28 70.92L27.48 72.52C28.2769 71.9224 28.9793 71.0084 29.6142 69.8656L27.8658 68.8944ZM26.2886 70.9136C25.8733 71.2182 25.3843 71.38 24.78 71.38V73.38C25.7757 73.38 26.6867 73.1018 27.4714 72.5264L26.2886 70.9136ZM24.78 71.38H22.5V73.38H24.78V71.38ZM23.3713 71.8892L12.6913 52.9292L10.9487 53.9108L21.6287 72.8708L23.3713 71.8892ZM10.82 53.42V80H12.82V53.42H10.82ZM11.82 79H3.72V81H11.82V79ZM4.72 80V38H2.72V80H4.72ZM57.7945 79.1L57.3473 79.9944L57.3584 80L57.3696 80.0052L57.7945 79.1ZM53.2945 75.14L52.4476 75.6718L52.4534 75.6808L53.2945 75.14ZM53.2945 55.28L52.437 54.7655L53.2945 55.28ZM57.7945 51.08L57.34 50.1892L57.3326 50.1931L57.7945 51.08ZM78.5545 52.82L77.8731 53.5519L78.5545 52.82ZM82.0345 67.82V68.82H83.0345V67.82H82.0345ZM59.8345 67.82V66.82H58.8345V67.82H59.8345ZM61.0945 72.44L60.4049 73.1641L61.0945 72.44ZM72.5545 72.74L73.1358 73.5538L73.1427 73.5487L72.5545 72.74ZM73.8745 70.28V69.28H72.8745V70.28H73.8745ZM81.9145 70.28H82.9145V69.28H81.9145V70.28ZM80.2945 75.62L79.4723 75.0508L80.2945 75.62ZM75.7345 79.22L75.3406 78.3008L75.3337 78.3038L75.7345 79.22ZM73.9945 61.94V62.94H74.9945V61.94H73.9945ZM72.7345 57.74L71.982 58.3985L71.9889 58.4065L71.996 58.4143L72.7345 57.74ZM61.0345 57.8L61.7852 58.4606L61.0345 57.8ZM59.7145 61.94H58.7145V62.94H59.7145V61.94ZM64.5145 79.48C62.1175 79.48 60.0264 79.0429 58.2194 78.1948L57.3696 80.0052C59.4827 80.9971 61.8716 81.48 64.5145 81.48V79.48ZM58.2417 78.2056C56.47 77.3197 55.1113 76.1168 54.1357 74.5992L52.4534 75.6808C53.6378 77.5232 55.2791 78.9603 57.3473 79.9944L58.2417 78.2056ZM54.1414 74.6082C53.1698 73.0608 52.6745 71.2882 52.6745 69.26H50.6745C50.6745 71.6319 51.2593 73.7792 52.4476 75.6718L54.1414 74.6082ZM52.6745 69.26V61.52H50.6745V69.26H52.6745ZM52.6745 61.52C52.6745 59.3182 53.1765 57.4204 54.152 55.7945L52.437 54.7655C51.2526 56.7396 50.6745 59.0018 50.6745 61.52H52.6745ZM54.152 55.7945C55.134 54.1579 56.4948 52.8845 58.2565 51.9669L57.3326 50.1931C55.2543 51.2755 53.6151 52.8021 52.437 54.7655L54.152 55.7945ZM58.249 51.9708C60.0491 51.0524 62.1295 50.58 64.5145 50.58V48.58C61.8596 48.58 59.46 49.1076 57.3401 50.1892L58.249 51.9708ZM64.5145 50.58H69.3145V48.58H64.5145V50.58ZM69.3145 50.58C72.9581 50.58 75.7757 51.5991 77.8731 53.5519L79.236 52.0881C76.6933 49.7209 73.351 48.58 69.3145 48.58V50.58ZM77.8731 53.5519C79.9614 55.4962 81.0345 58.0961 81.0345 61.46H83.0345C83.0345 57.6239 81.7876 54.4638 79.236 52.0881L77.8731 53.5519ZM81.0345 61.46V67.82H83.0345V61.46H81.0345ZM82.0345 66.82H59.8345V68.82H82.0345V66.82ZM58.8345 67.82V69.26H60.8345V67.82H58.8345ZM58.8345 69.26C58.8345 70.8123 59.3386 72.1486 60.4049 73.1641L61.7842 71.7159C61.1705 71.1314 60.8345 70.3477 60.8345 69.26H58.8345ZM60.4049 73.1641C61.4732 74.1816 62.8829 74.64 64.5145 74.64V72.64C63.2662 72.64 62.3959 72.2984 61.7842 71.7159L60.4049 73.1641ZM64.5145 74.64H69.1945V72.64H64.5145V74.64ZM69.1945 74.64C70.7301 74.64 72.0752 74.3113 73.1358 73.5537L71.9733 71.9263C71.3539 72.3687 70.459 72.64 69.1945 72.64V74.64ZM73.1427 73.5487C74.2549 72.7399 74.8745 71.6314 74.8745 70.28H72.8745C72.8745 70.9286 72.6142 71.4601 71.9664 71.9313L73.1427 73.5487ZM73.8745 71.28H81.9145V69.28H73.8745V71.28ZM80.9145 70.28C80.9145 72.0882 80.4301 73.6674 79.4723 75.0508L81.1167 76.1892C82.319 74.4526 82.9145 72.4718 82.9145 70.28H80.9145ZM79.4723 75.0508C78.5122 76.4376 77.1498 77.5255 75.3406 78.3009L76.1284 80.1391C78.2392 79.2345 79.9168 77.9224 81.1167 76.1892L79.4723 75.0508ZM75.3337 78.3038C73.563 79.0785 71.484 79.48 69.0745 79.48V81.48C71.7051 81.48 74.0661 81.0415 76.1354 80.1362L75.3337 78.3038ZM69.0745 79.48H64.5145V81.48H69.0745V79.48ZM74.9945 61.94V61.46H72.9945V61.94H74.9945ZM74.9945 61.46C74.9945 59.716 74.5208 58.2133 73.473 57.0657L71.996 58.4143C72.6283 59.1067 72.9945 60.084 72.9945 61.46H74.9945ZM73.4871 57.0815C72.4374 55.8818 71.0313 55.3 69.3745 55.3V57.3C70.5178 57.3 71.3517 57.6782 71.982 58.3985L73.4871 57.0815ZM69.3745 55.3H64.5145V57.3H69.3745V55.3ZM64.5145 55.3C62.8134 55.3 61.3703 55.9047 60.2838 57.1394L61.7852 58.4606C62.4587 57.6953 63.3357 57.3 64.5145 57.3V55.3ZM60.2838 57.1394C59.2083 58.3616 58.7145 59.9354 58.7145 61.76H60.7145C60.7145 60.3046 61.1008 59.2384 61.7852 58.4606L60.2838 57.1394ZM58.7145 61.76V61.94H60.7145V61.76H58.7145ZM59.7145 62.94H73.9945V60.94H59.7145V62.94ZM92.482 79.1L92.0348 79.9944L92.0459 80L92.0571 80.0052L92.482 79.1ZM87.982 75.14L87.1351 75.6718L87.1409 75.6808L87.982 75.14ZM87.982 55.28L87.1245 54.7655L87.982 55.28ZM92.482 51.08L92.0275 50.1892L92.0201 50.1931L92.482 51.08ZM113.242 52.82L112.561 53.5519L113.242 52.82ZM116.722 67.82V68.82H117.722V67.82H116.722ZM94.522 67.82V66.82H93.522V67.82H94.522ZM95.782 72.44L95.0924 73.1641L95.782 72.44ZM107.242 72.74L107.823 73.5538L107.83 73.5487L107.242 72.74ZM108.562 70.28V69.28H107.562V70.28H108.562ZM116.602 70.28H117.602V69.28H116.602V70.28ZM114.982 75.62L114.16 75.0508L114.982 75.62ZM110.422 79.22L110.028 78.3008L110.021 78.3038L110.422 79.22ZM108.682 61.94V62.94H109.682V61.94H108.682ZM107.422 57.74L106.669 58.3985L106.676 58.4065L106.684 58.4143L107.422 57.74ZM95.722 57.8L96.4727 58.4606L95.722 57.8ZM94.402 61.94H93.402V62.94H94.402V61.94ZM99.202 79.48C96.805 79.48 94.7139 79.0429 92.9069 78.1948L92.0571 80.0052C94.1702 80.9971 96.5591 81.48 99.202 81.48V79.48ZM92.9292 78.2056C91.1575 77.3197 89.7988 76.1168 88.8232 74.5992L87.1409 75.6808C88.3253 77.5232 89.9666 78.9603 92.0348 79.9944L92.9292 78.2056ZM88.8289 74.6082C87.8573 73.0608 87.362 71.2882 87.362 69.26H85.362C85.362 71.6319 85.9468 73.7792 87.1351 75.6718L88.8289 74.6082ZM87.362 69.26V61.52H85.362V69.26H87.362ZM87.362 61.52C87.362 59.3182 87.864 57.4204 88.8395 55.7945L87.1245 54.7655C85.9401 56.7396 85.362 59.0018 85.362 61.52H87.362ZM88.8395 55.7945C89.8215 54.1579 91.1823 52.8845 92.944 51.9669L92.0201 50.1931C89.9418 51.2755 88.3026 52.8021 87.1245 54.7655L88.8395 55.7945ZM92.9365 51.9708C94.7366 51.0524 96.817 50.58 99.202 50.58V48.58C96.5471 48.58 94.1475 49.1076 92.0276 50.1892L92.9365 51.9708ZM99.202 50.58H104.002V48.58H99.202V50.58ZM104.002 50.58C107.646 50.58 110.463 51.5991 112.561 53.5519L113.923 52.0881C111.381 49.7209 108.038 48.58 104.002 48.58V50.58ZM112.561 53.5519C114.649 55.4962 115.722 58.0961 115.722 61.46H117.722C117.722 57.6239 116.475 54.4638 113.923 52.0881L112.561 53.5519ZM115.722 61.46V67.82H117.722V61.46H115.722ZM116.722 66.82H94.522V68.82H116.722V66.82ZM93.522 67.82V69.26H95.522V67.82H93.522ZM93.522 69.26C93.522 70.8123 94.0261 72.1486 95.0924 73.1641L96.4717 71.7159C95.858 71.1314 95.522 70.3477 95.522 69.26H93.522ZM95.0924 73.1641C96.1607 74.1816 97.5704 74.64 99.202 74.64V72.64C97.9537 72.64 97.0834 72.2984 96.4717 71.7159L95.0924 73.1641ZM99.202 74.64H103.882V72.64H99.202V74.64ZM103.882 74.64C105.418 74.64 106.763 74.3113 107.823 73.5537L106.661 71.9263C106.041 72.3687 105.146 72.64 103.882 72.64V74.64ZM107.83 73.5487C108.942 72.7399 109.562 71.6314 109.562 70.28H107.562C107.562 70.9286 107.302 71.4601 106.654 71.9313L107.83 73.5487ZM108.562 71.28H116.602V69.28H108.562V71.28ZM115.602 70.28C115.602 72.0882 115.118 73.6674 114.16 75.0508L115.804 76.1892C117.006 74.4526 117.602 72.4718 117.602 70.28H115.602ZM114.16 75.0508C113.2 76.4376 111.837 77.5255 110.028 78.3009L110.816 80.1391C112.927 79.2345 114.604 77.9224 115.804 76.1892L114.16 75.0508ZM110.021 78.3038C108.25 79.0785 106.171 79.48 103.762 79.48V81.48C106.393 81.48 108.754 81.0415 110.823 80.1362L110.021 78.3038ZM103.762 79.48H99.202V81.48H103.762V79.48ZM109.682 61.94V61.46H107.682V61.94H109.682ZM109.682 61.46C109.682 59.716 109.208 58.2133 108.161 57.0657L106.684 58.4143C107.316 59.1067 107.682 60.084 107.682 61.46H109.682ZM108.175 57.0815C107.125 55.8818 105.719 55.3 104.062 55.3V57.3C105.205 57.3 106.039 57.6782 106.669 58.3985L108.175 57.0815ZM104.062 55.3H99.202V57.3H104.062V55.3ZM99.202 55.3C97.5009 55.3 96.0578 55.9047 94.9713 57.1394L96.4727 58.4606C97.1462 57.6953 98.0232 57.3 99.202 57.3V55.3ZM94.9713 57.1394C93.8958 58.3616 93.402 59.9354 93.402 61.76H95.402C95.402 60.3046 95.7883 59.2384 96.4727 58.4606L94.9713 57.1394ZM93.402 61.76V61.94H95.402V61.76H93.402ZM94.402 62.94H108.682V60.94H94.402V62.94ZM127.238 77.6L126.54 78.3158L127.238 77.6ZM124.778 57.02H125.778V56.02H124.778V57.02ZM119.498 57.02H118.498V58.02H119.498V57.02ZM119.498 50.06V49.06H118.498V50.06H119.498ZM125.018 50.06V51.06H126.018V50.06H125.018ZM125.018 41V40H124.018V41H125.018ZM132.938 41H133.938V40H132.938V41ZM132.938 50.06H131.938V51.06H132.938V50.06ZM140.738 50.06H141.738V49.06H140.738V50.06ZM140.738 57.02V58.02H141.738V57.02H140.738ZM132.938 57.02V56.02H131.938V57.02H132.938ZM133.538 72.26L132.745 72.8697L132.76 72.8882L132.775 72.9059L133.538 72.26ZM140.738 73.04H141.738V72.04H140.738V73.04ZM140.738 80V81H141.738V80H140.738ZM134.978 79C131.582 79 129.31 78.2249 127.936 76.8842L126.54 78.3158C128.445 80.1751 131.333 81 134.978 81V79ZM127.936 76.8842C126.564 75.5451 125.778 73.3763 125.778 70.16H123.778C123.778 73.6637 124.632 76.4549 126.54 78.3158L127.936 76.8842ZM125.778 70.16V57.02H123.778V70.16H125.778ZM124.778 56.02H119.498V58.02H124.778V56.02ZM120.498 57.02V50.06H118.498V57.02H120.498ZM119.498 51.06H125.018V49.06H119.498V51.06ZM126.018 50.06V41H124.018V50.06H126.018ZM125.018 42H132.938V40H125.018V42ZM131.938 41V50.06H133.938V41H131.938ZM132.938 51.06H140.738V49.06H132.938V51.06ZM139.738 50.06V57.02H141.738V50.06H139.738ZM140.738 56.02H132.938V58.02H140.738V56.02ZM131.938 57.02V69.8H133.938V57.02H131.938ZM131.938 69.8C131.938 70.9997 132.145 72.089 132.745 72.8697L134.331 71.6503C134.131 71.391 133.938 70.8403 133.938 69.8H131.938ZM132.775 72.9059C133.465 73.7222 134.473 74.04 135.578 74.04V72.04C134.843 72.04 134.491 71.8378 134.301 71.6141L132.775 72.9059ZM135.578 74.04H140.738V72.04H135.578V74.04ZM139.738 73.04V80H141.738V73.04H139.738ZM140.738 79H134.978V81H140.738V79ZM168.652 79.04L168.191 79.9269L168.202 79.9326L168.213 79.9381L168.652 79.04ZM164.152 74.84L163.287 75.3403L163.291 75.3474L163.295 75.3545L164.152 74.84ZM164.212 55.34L165.07 55.8545L165.075 55.8462L164.212 55.34ZM168.712 51.08L168.258 50.1892L168.251 50.1931L168.712 51.08ZM187.493 51.08L187.031 51.9669L187.038 51.9708L187.493 51.08ZM192.053 55.34L191.19 55.8462L191.195 55.8545L192.053 55.34ZM192.053 74.84L192.91 75.3545L192.053 74.84ZM187.493 79.04L187.94 79.9345L187.947 79.9308L187.493 79.04ZM184.193 71.96L184.943 72.6206L184.95 72.6133L184.956 72.6059L184.193 71.96ZM184.193 58.16L183.429 58.8059L183.435 58.8133L183.442 58.8206L184.193 58.16ZM172.072 58.16L172.823 58.8206L172.83 58.8133L172.836 58.8059L172.072 58.16ZM172.072 71.96L171.309 72.6059L171.315 72.6133L171.322 72.6206L172.072 71.96ZM175.372 79.48C172.981 79.48 170.896 79.0252 169.092 78.1419L168.213 79.9381C170.329 80.9748 172.724 81.48 175.372 81.48V79.48ZM169.114 78.1531C167.353 77.2355 165.992 75.9621 165.01 74.3255L163.295 75.3545C164.473 77.3179 166.112 78.8445 168.191 79.9269L169.114 78.1531ZM165.018 74.3397C164.078 72.7115 163.592 70.8085 163.592 68.6H161.592C161.592 71.1115 162.147 73.3685 163.287 75.3403L165.018 74.3397ZM163.592 68.6V61.58H161.592V68.6H163.592ZM163.592 61.58C163.592 59.3782 164.094 57.4804 165.07 55.8545L163.355 54.8255C162.171 56.7996 161.592 59.0618 161.592 61.58H163.592ZM165.075 55.8462C166.058 54.1707 167.418 52.8815 169.174 51.9669L168.251 50.1931C166.167 51.2785 164.527 52.8293 163.35 54.8338L165.075 55.8462ZM169.167 51.9708C170.967 51.0524 173.047 50.58 175.432 50.58V48.58C172.778 48.58 170.378 49.1076 168.258 50.1892L169.167 51.9708ZM175.432 50.58H180.833V48.58H175.432V50.58ZM180.833 50.58C183.218 50.58 185.275 51.0525 187.031 51.9669L187.954 50.1931C185.87 49.1075 183.487 48.58 180.833 48.58V50.58ZM187.038 51.9708C188.834 52.887 190.21 54.176 191.19 55.8462L192.915 54.8338C191.735 52.824 190.071 51.273 187.947 50.1892L187.038 51.9708ZM191.195 55.8545C192.171 57.4804 192.673 59.3782 192.673 61.58H194.673C194.673 59.0618 194.094 56.7996 192.91 54.8255L191.195 55.8545ZM192.673 61.58V68.6H194.673V61.58H192.673ZM192.673 68.6C192.673 70.8018 192.171 72.6996 191.195 74.3255L192.91 75.3545C194.094 73.3804 194.673 71.1182 194.673 68.6H192.673ZM191.195 74.3255C190.216 75.9569 188.84 77.2301 187.038 78.1492L187.947 79.9308C190.065 78.8499 191.729 77.3231 192.91 75.3545L191.195 74.3255ZM187.045 78.1456C185.288 79.024 183.207 79.48 180.773 79.48V81.48C183.458 81.48 185.857 80.976 187.94 79.9344L187.045 78.1456ZM180.773 79.48H175.372V81.48H180.773V79.48ZM180.652 74.46C182.384 74.46 183.851 73.8618 184.943 72.6206L183.442 71.2994C182.774 72.0582 181.881 72.46 180.652 72.46V74.46ZM184.956 72.6059C186.018 71.3504 186.512 69.7662 186.512 67.94H184.512C184.512 69.3938 184.127 70.4896 183.429 71.3141L184.956 72.6059ZM186.512 67.94V62.12H184.512V67.94H186.512ZM186.512 62.12C186.512 60.2954 186.019 58.7216 184.943 57.4994L183.442 58.8206C184.126 59.5984 184.512 60.6646 184.512 62.12H186.512ZM184.956 57.5141C183.874 56.2353 182.428 55.6 180.712 55.6V57.6C181.878 57.6 182.751 58.0047 183.429 58.8059L184.956 57.5141ZM180.712 55.6H175.553V57.6H180.712V55.6ZM175.553 55.6C173.837 55.6 172.391 56.2353 171.309 57.5141L172.836 58.8059C173.514 58.0047 174.387 57.6 175.553 57.6V55.6ZM171.322 57.4994C170.246 58.7216 169.753 60.2954 169.753 62.12H171.753C171.753 60.6646 172.139 59.5984 172.823 58.8206L171.322 57.4994ZM169.753 62.12V67.94H171.753V62.12H169.753ZM169.753 67.94C169.753 69.7662 170.247 71.3504 171.309 72.6059L172.836 71.3141C172.138 70.4896 171.753 69.3938 171.753 67.94H169.753ZM171.322 72.6206C172.402 73.8486 173.822 74.46 175.493 74.46V72.46C174.363 72.46 173.503 72.0714 172.823 71.2994L171.322 72.6206ZM175.493 74.46H180.652V72.46H175.493V74.46ZM201.938 77.3L201.19 77.9644L201.196 77.9713L201.938 77.3ZM199.057 50.06V49.06H198.057V50.06H199.057ZM207.217 50.06H208.217V49.06H207.217V50.06ZM208.178 72.2L207.382 72.806L207.398 72.8273L207.416 72.8476L208.178 72.2ZM217.898 71.78L218.605 72.4871L218.611 72.4807L218.617 72.4741L217.898 71.78ZM220.178 67.4L221.149 67.6375L221.178 67.5204V67.4H220.178ZM220.178 50.06V49.06H219.178V50.06H220.178ZM228.337 50.06H229.337V49.06H228.337V50.06ZM228.337 80V81H229.337V80H228.337ZM220.777 80H219.777V81H220.777V80ZM220.777 76.16H221.777V73.0553L219.965 75.5764L220.777 76.16ZM217.357 79.28L216.85 78.418L216.839 78.4248L217.357 79.28ZM209.557 79.48C206.647 79.48 204.388 78.5161 202.679 76.6287L201.196 77.9713C203.327 80.3239 206.148 81.48 209.557 81.48V79.48ZM202.685 76.6356C200.959 74.6945 200.057 72.1276 200.057 68.84H198.057C198.057 72.5124 199.076 75.5855 201.19 77.9644L202.685 76.6356ZM200.057 68.84V50.06H198.057V68.84H200.057ZM199.057 51.06H207.217V49.06H199.057V51.06ZM206.217 50.06V68.96H208.217V50.06H206.217ZM206.217 68.96C206.217 70.4433 206.579 71.7523 207.382 72.806L208.973 71.594C208.496 70.9677 208.217 70.1167 208.217 68.96H206.217ZM207.416 72.8476C208.292 73.8784 209.454 74.4 210.818 74.4V72.4C210.021 72.4 209.423 72.1216 208.939 71.5523L207.416 72.8476ZM210.818 74.4H214.298V72.4H210.818V74.4ZM214.298 74.4C215.925 74.4 217.369 73.7228 218.605 72.4871L217.19 71.0729C216.266 71.9972 215.31 72.4 214.298 72.4V74.4ZM218.617 72.4741C219.842 71.2045 220.675 69.5763 221.149 67.6375L219.206 67.1625C218.8 68.8237 218.113 70.1155 217.178 71.0859L218.617 72.4741ZM221.178 67.4V50.06H219.178V67.4H221.178ZM220.178 51.06H228.337V49.06H220.178V51.06ZM227.337 50.06V80H229.337V50.06H227.337ZM228.337 79H220.777V81H228.337V79ZM221.777 80V76.16H219.777V80H221.777ZM219.965 75.5764C219.127 76.7433 218.091 77.6885 216.85 78.4181L217.865 80.1419C219.344 79.2715 220.588 78.1367 221.59 76.7436L219.965 75.5764ZM216.839 78.4248C215.637 79.1531 214.535 79.48 213.518 79.48V81.48C214.98 81.48 216.438 81.0069 217.876 80.1352L216.839 78.4248ZM213.518 79.48H209.557V81.48H213.518V79.48ZM235.277 50.06V49.06H234.277V50.06H235.277ZM242.837 50.06H243.837V49.06H242.837V50.06ZM242.837 53.9H241.837V57.251L243.673 54.448L242.837 53.9ZM246.077 51.08L246.534 51.9693L246.544 51.9644L246.077 51.08ZM254.657 49.94H255.657V48.94H254.657V49.94ZM254.657 57.02V58.02H255.657V57.02H254.657ZM243.437 80V81H244.437V80H243.437ZM235.277 80H234.277V81H235.277V80ZM235.277 51.06H242.837V49.06H235.277V51.06ZM241.837 50.06V53.9H243.837V50.06H241.837ZM243.673 54.448C244.326 53.4513 245.267 52.6211 246.534 51.9693L245.62 50.1907C244.087 50.9789 242.867 52.0287 242 53.352L243.673 54.448ZM246.544 51.9644C247.846 51.2769 249.187 50.94 250.577 50.94V48.94C248.847 48.94 247.187 49.3631 245.61 50.1956L246.544 51.9644ZM250.577 50.94H254.657V48.94H250.577V50.94ZM253.657 49.94V57.02H255.657V49.94H253.657ZM254.657 56.02H250.577V58.02H254.657V56.02ZM250.577 56.02C248.24 56.02 246.256 56.7334 244.721 58.2221L246.113 59.6579C247.218 58.5866 248.674 58.02 250.577 58.02V56.02ZM244.721 58.2221C243.188 59.708 242.437 61.6157 242.437 63.86H244.437C244.437 62.1043 245.005 60.732 246.113 59.6579L244.721 58.2221ZM242.437 63.86V80H244.437V63.86H242.437ZM243.437 79H235.277V81H243.437V79ZM236.277 80V50.06H234.277V80H236.277ZM286.091 45.2H287.091V44.2H286.091V45.2ZM272.771 45.2H271.771V46.2H272.771V45.2ZM272.771 38V37H271.771V38H272.771ZM307.691 38H308.691V37H307.691V38ZM307.691 45.2V46.2H308.691V45.2H307.691ZM294.371 45.2V44.2H293.371V45.2H294.371ZM294.371 80V81H295.371V80H294.371ZM286.091 80H285.091V81H286.091V80ZM286.091 44.2H272.771V46.2H286.091V44.2ZM273.771 45.2V38H271.771V45.2H273.771ZM272.771 39H307.691V37H272.771V39ZM306.691 38V45.2H308.691V38H306.691ZM307.691 44.2H294.371V46.2H307.691V44.2ZM293.371 45.2V80H295.371V45.2H293.371ZM294.371 79H286.091V81H294.371V79ZM287.091 80V45.2H285.091V80H287.091ZM309.865 79.1L309.418 79.9944L309.429 80L309.44 80.0052L309.865 79.1ZM305.365 75.14L304.518 75.6718L304.524 75.6808L305.365 75.14ZM305.365 55.28L304.507 54.7655L305.365 55.28ZM309.865 51.08L309.41 50.1892L309.403 50.1931L309.865 51.08ZM330.625 52.82L329.943 53.5519L330.625 52.82ZM334.105 67.82V68.82H335.105V67.82H334.105ZM311.905 67.82V66.82H310.905V67.82H311.905ZM313.165 72.44L312.475 73.1641L313.165 72.44ZM324.625 72.74L325.206 73.5538L325.213 73.5487L324.625 72.74ZM325.945 70.28V69.28H324.945V70.28H325.945ZM333.985 70.28H334.985V69.28H333.985V70.28ZM332.365 75.62L331.543 75.0508L332.365 75.62ZM327.805 79.22L327.411 78.3008L327.404 78.3038L327.805 79.22ZM326.065 61.94V62.94H327.065V61.94H326.065ZM324.805 57.74L324.052 58.3985L324.059 58.4065L324.066 58.4143L324.805 57.74ZM313.105 57.8L313.856 58.4606L313.105 57.8ZM311.785 61.94H310.785V62.94H311.785V61.94ZM316.585 79.48C314.188 79.48 312.097 79.0429 310.29 78.1948L309.44 80.0052C311.553 80.9971 313.942 81.48 316.585 81.48V79.48ZM310.312 78.2056C308.54 77.3197 307.182 76.1168 306.206 74.5992L304.524 75.6808C305.708 77.5232 307.349 78.9603 309.418 79.9944L310.312 78.2056ZM306.212 74.6082C305.24 73.0608 304.745 71.2882 304.745 69.26H302.745C302.745 71.6319 303.33 73.7792 304.518 75.6718L306.212 74.6082ZM304.745 69.26V61.52H302.745V69.26H304.745ZM304.745 61.52C304.745 59.3182 305.247 57.4204 306.222 55.7945L304.507 54.7655C303.323 56.7396 302.745 59.0018 302.745 61.52H304.745ZM306.222 55.7945C307.204 54.1579 308.565 52.8845 310.327 51.9669L309.403 50.1931C307.325 51.2755 305.685 52.8021 304.507 54.7655L306.222 55.7945ZM310.319 51.9708C312.119 51.0524 314.2 50.58 316.585 50.58V48.58C313.93 48.58 311.53 49.1076 309.41 50.1892L310.319 51.9708ZM316.585 50.58H321.385V48.58H316.585V50.58ZM321.385 50.58C325.028 50.58 327.846 51.5991 329.943 53.5519L331.306 52.0881C328.764 49.7209 325.421 48.58 321.385 48.58V50.58ZM329.943 53.5519C332.032 55.4962 333.105 58.0961 333.105 61.46H335.105C335.105 57.6239 333.858 54.4638 331.306 52.0881L329.943 53.5519ZM333.105 61.46V67.82H335.105V61.46H333.105ZM334.105 66.82H311.905V68.82H334.105V66.82ZM310.905 67.82V69.26H312.905V67.82H310.905ZM310.905 69.26C310.905 70.8123 311.409 72.1486 312.475 73.1641L313.854 71.7159C313.241 71.1314 312.905 70.3477 312.905 69.26H310.905ZM312.475 73.1641C313.543 74.1816 314.953 74.64 316.585 74.64V72.64C315.336 72.64 314.466 72.2984 313.854 71.7159L312.475 73.1641ZM316.585 74.64H321.265V72.64H316.585V74.64ZM321.265 74.64C322.8 74.64 324.146 74.3113 325.206 73.5537L324.044 71.9263C323.424 72.3687 322.529 72.64 321.265 72.64V74.64ZM325.213 73.5487C326.325 72.7399 326.945 71.6314 326.945 70.28H324.945C324.945 70.9286 324.684 71.4601 324.037 71.9313L325.213 73.5487ZM325.945 71.28H333.985V69.28H325.945V71.28ZM332.985 70.28C332.985 72.0882 332.5 73.6674 331.543 75.0508L333.187 76.1892C334.389 74.4526 334.985 72.4718 334.985 70.28H332.985ZM331.543 75.0508C330.583 76.4376 329.22 77.5255 327.411 78.3009L328.199 80.1391C330.31 79.2345 331.987 77.9224 333.187 76.1892L331.543 75.0508ZM327.404 78.3038C325.633 79.0785 323.554 79.48 321.145 79.48V81.48C323.775 81.48 326.136 81.0415 328.206 80.1362L327.404 78.3038ZM321.145 79.48H316.585V81.48H321.145V79.48ZM327.065 61.94V61.46H325.065V61.94H327.065ZM327.065 61.46C327.065 59.716 326.591 58.2133 325.543 57.0657L324.066 58.4143C324.699 59.1067 325.065 60.084 325.065 61.46H327.065ZM325.557 57.0815C324.508 55.8818 323.102 55.3 321.445 55.3V57.3C322.588 57.3 323.422 57.6782 324.052 58.3985L325.557 57.0815ZM321.445 55.3H316.585V57.3H321.445V55.3ZM316.585 55.3C314.884 55.3 313.441 55.9047 312.354 57.1394L313.856 58.4606C314.529 57.6953 315.406 57.3 316.585 57.3V55.3ZM312.354 57.1394C311.279 58.3616 310.785 59.9354 310.785 61.76H312.785C312.785 60.3046 313.171 59.2384 313.856 58.4606L312.354 57.1394ZM310.785 61.76V61.94H312.785V61.76H310.785ZM311.785 62.94H326.065V60.94H311.785V62.94ZM341.552 78.14L340.922 78.9161L341.552 78.14ZM341.672 63.68L342.277 64.4762L342.287 64.4685L341.672 63.68ZM359.912 62.9L359.48 63.8015L360.912 64.4892V62.9H359.912ZM358.892 57.38L358.185 58.0871L358.207 58.1092L358.231 58.1298L358.892 57.38ZM348.452 57.2L347.845 56.4056H347.845L348.452 57.2ZM347.432 59.3V60.3H348.432V59.3H347.432ZM339.512 59.3H338.512V60.3H339.512V59.3ZM342.692 52.28L343.331 53.0494L343.333 53.0482L342.692 52.28ZM364.832 52.4L364.176 53.1543L364.184 53.1612L364.832 52.4ZM368.072 80V81H369.072V80H368.072ZM360.512 80H359.512V81H360.512V80ZM360.512 76.4H361.512V73.4748L359.722 75.7878L360.512 76.4ZM356.972 79.4L357.43 80.2893L357.44 80.2842L357.449 80.2789L356.972 79.4ZM357.392 73.1L356.844 72.2635L357.392 73.1ZM359.912 70.04L360.839 70.4164L360.912 70.2354V70.04H359.912ZM359.912 69.02H360.912V68.52L360.512 68.22L359.912 69.02ZM357.212 67.88L356.97 68.8502L356.978 68.8521L357.212 67.88ZM347.492 68.18L346.868 67.3991L347.492 68.18ZM347.552 73.52L346.952 74.32L346.964 74.3287L346.976 74.337L347.552 73.52ZM349.112 79.48C346.161 79.48 343.882 78.7446 342.183 77.3639L340.922 78.9161C343.062 80.6554 345.824 81.48 349.112 81.48V79.48ZM342.183 77.3639C340.506 76.0013 339.672 74.231 339.672 71.96H337.672C337.672 74.809 338.759 77.1587 340.922 78.9161L342.183 77.3639ZM339.672 71.96V69.74H337.672V71.96H339.672ZM339.672 69.74C339.672 67.5313 340.527 65.8064 342.277 64.4762L341.067 62.8838C338.818 64.5936 337.672 66.9086 337.672 69.74H339.672ZM342.287 64.4685C344.066 63.0812 346.469 62.34 349.592 62.34V60.34C346.155 60.34 343.279 61.1588 341.057 62.8915L342.287 64.4685ZM349.592 62.34H353.252V60.34H349.592V62.34ZM353.252 62.34C354.203 62.34 355.246 62.4681 356.385 62.7338L356.84 60.7862C355.578 60.4919 354.381 60.34 353.252 60.34V62.34ZM356.385 62.7338C357.522 62.9991 358.552 63.3563 359.48 63.8015L360.345 61.9985C359.273 61.4837 358.103 61.0809 356.84 60.7862L356.385 62.7338ZM360.912 62.9V59.78H358.912V62.9H360.912ZM360.912 59.78C360.912 58.5261 360.473 57.4408 359.554 56.6302L358.231 58.1298C358.672 58.5192 358.912 59.0339 358.912 59.78H360.912ZM359.599 56.6729C358.736 55.8098 357.603 55.42 356.312 55.42V57.42C357.182 57.42 357.768 57.6702 358.185 58.0871L359.599 56.6729ZM356.312 55.42H351.152V57.42H356.312V55.42ZM351.152 55.42C349.881 55.42 348.746 55.7162 347.845 56.4056L349.06 57.9944C349.518 57.6438 350.184 57.42 351.152 57.42V55.42ZM347.845 56.4056C346.909 57.121 346.432 58.1187 346.432 59.3H348.432C348.432 58.7213 348.635 58.319 349.06 57.9944L347.845 56.4056ZM347.432 58.3H339.512V60.3H347.432V58.3ZM340.512 59.3C340.512 56.6571 341.455 54.6068 343.331 53.0494L342.054 51.5106C339.69 53.4732 338.512 56.1029 338.512 59.3H340.512ZM343.333 53.0482C345.273 51.431 347.849 50.58 351.152 50.58V48.58C347.496 48.58 344.432 49.529 342.052 51.5118L343.333 53.0482ZM351.152 50.58H356.312V48.58H351.152V50.58ZM356.312 50.58C359.649 50.58 362.237 51.4668 364.176 53.1543L365.489 51.6457C363.108 49.5732 360.016 48.58 356.312 48.58V50.58ZM364.184 53.1612C366.1 54.7936 367.072 56.9646 367.072 59.78H369.072C369.072 56.4354 367.885 53.6864 365.481 51.6388L364.184 53.1612ZM367.072 59.78V80H369.072V59.78H367.072ZM368.072 79H360.512V81H368.072V79ZM361.512 80V76.4H359.512V80H361.512ZM359.722 75.7878C358.848 76.9164 357.775 77.8262 356.495 78.5211L357.449 80.2789C358.969 79.4538 360.257 78.3636 361.303 77.0122L359.722 75.7878ZM356.515 78.5107C355.234 79.1694 354.01 79.48 352.832 79.48V81.48C354.375 81.48 355.911 81.0705 357.43 80.2893L356.515 78.5107ZM352.832 79.48H349.112V81.48H352.832V79.48ZM353.432 75.24C355.093 75.24 356.606 74.8104 357.94 73.9365L356.844 72.2635C355.858 72.9096 354.731 73.24 353.432 73.24V75.24ZM357.94 73.9365C359.27 73.0656 360.242 71.8854 360.839 70.4164L358.986 69.6636C358.543 70.7546 357.835 71.6144 356.844 72.2635L357.94 73.9365ZM360.912 70.04V69.02H358.912V70.04H360.912ZM360.512 68.22C359.724 67.6285 358.68 67.2056 357.447 66.9079L356.978 68.8521C358.065 69.1144 358.821 69.4515 359.312 69.82L360.512 68.22ZM357.455 66.9099C356.247 66.608 354.965 66.46 353.612 66.46V68.46C354.819 68.46 355.937 68.592 356.97 68.8501L357.455 66.9099ZM353.612 66.46H349.832V68.46H353.612V66.46ZM349.832 66.46C348.703 66.46 347.685 66.7449 346.868 67.3991L348.117 68.9609C348.499 68.6551 349.041 68.46 349.832 68.46V66.46ZM346.868 67.3991C346.019 68.0778 345.592 69.0107 345.592 70.1H347.592C347.592 69.5893 347.765 69.2422 348.117 68.9609L346.868 67.3991ZM345.592 70.1V71.66H347.592V70.1H345.592ZM345.592 71.66C345.592 72.7536 346.076 73.6628 346.952 74.32L348.152 72.72C347.749 72.4172 347.592 72.0864 347.592 71.66H345.592ZM346.976 74.337C347.868 74.967 348.967 75.24 350.192 75.24V73.24C349.258 73.24 348.596 73.033 348.129 72.703L346.976 74.337ZM350.192 75.24H353.432V73.24H350.192V75.24ZM416.191 52.58L415.455 53.2571L415.462 53.2644L416.191 52.58ZM418.951 80V81H419.951V80H418.951ZM410.791 80H409.791V81H410.791V80ZM410.011 57.68L409.217 58.2874L409.226 58.2992L409.235 58.3106L410.011 57.68ZM402.451 57.92L403.141 58.6441L403.15 58.6357L403.159 58.6271L402.451 57.92ZM400.891 61.16L399.902 61.0145L399.891 61.0869V61.16H400.891ZM400.891 80V81H401.891V80H400.891ZM392.731 80H391.731V81H392.731V80ZM391.951 57.68L391.157 58.2874L391.951 57.68ZM384.511 58.22L385.275 58.8659V58.8659L384.511 58.22ZM382.831 62.3L381.841 62.1586L381.831 62.2289V62.3H382.831ZM382.831 80V81H383.831V80H382.831ZM374.671 80H373.671V81H374.671V80ZM374.671 50.06V49.06H373.671V50.06H374.671ZM382.231 50.06H383.231V49.06H382.231V50.06ZM382.231 53.54H381.231V57.1503L383.089 54.0545L382.231 53.54ZM384.991 50.66L384.464 49.8104L384.457 49.8145L384.451 49.8188L384.991 50.66ZM395.731 50.72L395.183 51.5565L395.19 51.5607L395.196 51.5648L395.731 50.72ZM398.551 53.9L397.657 54.3472L398.44 55.9131L399.391 54.4432L398.551 53.9ZM401.671 50.72L401.149 49.8674L401.143 49.8712L401.136 49.8752L401.671 50.72ZM408.871 50.58C411.668 50.58 413.828 51.4885 415.455 53.2571L416.927 51.9029C414.874 49.6715 412.154 48.58 408.871 48.58V50.58ZM415.462 53.2644C417.096 55.0047 417.951 57.3229 417.951 60.32H419.951C419.951 56.9171 418.967 54.0753 416.92 51.8956L415.462 53.2644ZM417.951 60.32V80H419.951V60.32H417.951ZM418.951 79H410.791V81H418.951V79ZM411.791 80V60.32H409.791V80H411.791ZM411.791 60.32C411.791 59.0523 411.497 57.9223 410.788 57.0494L409.235 58.3106C409.566 58.7177 409.791 59.3477 409.791 60.32H411.791ZM410.806 57.0725C410.101 56.1507 409.13 55.66 407.971 55.66V57.66C408.493 57.66 408.882 57.8493 409.217 58.2874L410.806 57.0725ZM407.971 55.66H405.391V57.66H407.971V55.66ZM405.391 55.66C403.989 55.66 402.759 56.198 401.744 57.2129L403.159 58.6271C403.824 57.962 404.554 57.66 405.391 57.66V55.66ZM401.762 57.1959C400.732 58.177 400.128 59.476 399.902 61.0145L401.881 61.3055C402.055 60.124 402.491 59.263 403.141 58.6441L401.762 57.1959ZM399.891 61.16V80H401.891V61.16H399.891ZM400.891 79H392.731V81H400.891V79ZM393.731 80V60.38H391.731V80H393.731ZM393.731 60.38C393.731 59.1083 393.435 57.9741 392.746 57.0725L391.157 58.2874C391.508 58.7459 391.731 59.4117 391.731 60.38H393.731ZM392.746 57.0725C392.041 56.1507 391.07 55.66 389.911 55.66V57.66C390.433 57.66 390.822 57.8493 391.157 58.2874L392.746 57.0725ZM389.911 55.66H387.571V57.66H389.911V55.66ZM387.571 55.66C386.065 55.66 384.781 56.3529 383.748 57.5741L385.275 58.8659C386.001 58.0071 386.758 57.66 387.571 57.66V55.66ZM383.748 57.5741C382.72 58.7891 382.102 60.338 381.841 62.1586L383.821 62.4414C384.041 60.902 384.543 59.7309 385.275 58.8659L383.748 57.5741ZM381.831 62.3V80H383.831V62.3H381.831ZM382.831 79H374.671V81H382.831V79ZM375.671 80V50.06H373.671V80H375.671ZM374.671 51.06H382.231V49.06H374.671V51.06ZM381.231 50.06V53.54H383.231V50.06H381.231ZM383.089 54.0545C383.734 52.9794 384.548 52.1338 385.532 51.5012L384.451 49.8188C383.195 50.6262 382.169 51.7006 381.374 53.0255L383.089 54.0545ZM385.519 51.5096C386.549 50.8703 387.529 50.58 388.471 50.58V48.58C387.094 48.58 385.754 49.0097 384.464 49.8104L385.519 51.5096ZM388.471 50.58H391.831V48.58H388.471V50.58ZM391.831 50.58C393.085 50.58 394.193 50.9074 395.183 51.5565L396.279 49.8835C394.95 49.0126 393.458 48.58 391.831 48.58V50.58ZM395.196 51.5648C396.232 52.2206 397.052 53.1381 397.657 54.3472L399.446 53.4528C398.69 51.9419 397.631 50.7394 396.266 49.8752L395.196 51.5648ZM399.391 54.4432C400.203 53.1876 401.145 52.2373 402.206 51.5648L401.136 49.8752C399.798 50.7227 398.659 51.8924 397.712 53.3567L399.391 54.4432ZM402.194 51.5726C403.288 50.902 404.409 50.58 405.571 50.58V48.58C404.014 48.58 402.535 49.018 401.149 49.8674L402.194 51.5726ZM405.571 50.58H408.871V48.58H405.571V50.58Z" fill="url(#paint0_linear_2836_1446)"/>
<path d="M19.72 25H27.1L40.84 49.96L54.28 25H61.66V67H53.56V40.42L44.74 56.38C44.14 57.46 43.52 58.24 42.88 58.72C42.28 59.16 41.58 59.38 40.78 59.38H38.5L27.82 40.42V67H19.72V25ZM80.5145 67.48C77.9945 67.48 75.7545 67.02 73.7945 66.1C71.8745 65.14 70.3745 63.82 69.2945 62.14C68.2145 60.42 67.6745 58.46 67.6745 56.26V48.52C67.6745 46.16 68.2145 44.08 69.2945 42.28C70.3745 40.48 71.8745 39.08 73.7945 38.08C75.7545 37.08 77.9945 36.58 80.5145 36.58H85.3145C89.1545 36.58 92.2345 37.66 94.5545 39.82C96.8745 41.98 98.0345 44.86 98.0345 48.46V54.82H75.8345V56.26C75.8345 57.58 76.2545 58.64 77.0945 59.44C77.9345 60.24 79.0745 60.64 80.5145 60.64H85.1945C86.5945 60.64 87.7145 60.34 88.5545 59.74C89.4345 59.1 89.8745 58.28 89.8745 57.28H97.9145C97.9145 59.28 97.3745 61.06 96.2945 62.62C95.2145 64.18 93.6945 65.38 91.7345 66.22C89.8145 67.06 87.5945 67.48 85.0745 67.48H80.5145ZM89.9945 48.94V48.46C89.9945 46.9 89.5745 45.66 88.7345 44.74C87.8945 43.78 86.7745 43.3 85.3745 43.3H80.5145C79.0745 43.3 77.9145 43.8 77.0345 44.8C76.1545 45.8 75.7145 47.12 75.7145 48.76V48.94H89.9945ZM115.202 67.48C112.682 67.48 110.442 67.02 108.482 66.1C106.562 65.14 105.062 63.82 103.982 62.14C102.902 60.42 102.362 58.46 102.362 56.26V48.52C102.362 46.16 102.902 44.08 103.982 42.28C105.062 40.48 106.562 39.08 108.482 38.08C110.442 37.08 112.682 36.58 115.202 36.58H120.002C123.842 36.58 126.922 37.66 129.242 39.82C131.562 41.98 132.722 44.86 132.722 48.46V54.82H110.522V56.26C110.522 57.58 110.942 58.64 111.782 59.44C112.622 60.24 113.762 60.64 115.202 60.64H119.882C121.282 60.64 122.402 60.34 123.242 59.74C124.122 59.1 124.562 58.28 124.562 57.28H132.602C132.602 59.28 132.062 61.06 130.982 62.62C129.902 64.18 128.382 65.38 126.422 66.22C124.502 67.06 122.282 67.48 119.762 67.48H115.202ZM124.682 48.94V48.46C124.682 46.9 124.262 45.66 123.422 44.74C122.582 43.78 121.462 43.3 120.062 43.3H115.202C113.762 43.3 112.602 43.8 111.722 44.8C110.842 45.8 110.402 47.12 110.402 48.76V48.94H124.682ZM150.978 67C147.458 67 144.878 66.2 143.238 64.6C141.598 63 140.778 60.52 140.778 57.16V44.02H135.498V37.06H141.018V28H148.938V37.06H156.738V44.02H148.938V56.8C148.938 57.92 149.138 58.74 149.538 59.26C149.978 59.78 150.658 60.04 151.578 60.04H156.738V67H150.978ZM191.373 67.48C188.853 67.48 186.613 67 184.653 66.04C182.733 65.04 181.233 63.64 180.153 61.84C179.113 60.04 178.593 57.96 178.593 55.6V48.58C178.593 46.22 179.133 44.14 180.213 42.34C181.293 40.5 182.793 39.08 184.713 38.08C186.673 37.08 188.913 36.58 191.433 36.58H196.833C199.353 36.58 201.573 37.08 203.493 38.08C205.453 39.08 206.973 40.5 208.053 42.34C209.133 44.14 209.673 46.22 209.673 48.58V55.6C209.673 57.96 209.133 60.04 208.053 61.84C206.973 63.64 205.453 65.04 203.493 66.04C201.573 67 199.333 67.48 196.773 67.48H191.373ZM196.653 60.46C198.133 60.46 199.313 59.96 200.193 58.96C201.073 57.92 201.513 56.58 201.513 54.94V49.12C201.513 47.48 201.073 46.16 200.193 45.16C199.313 44.12 198.153 43.6 196.713 43.6H191.553C190.113 43.6 188.953 44.12 188.073 45.16C187.193 46.16 186.753 47.48 186.753 49.12V54.94C186.753 56.58 187.193 57.92 188.073 58.96C188.953 59.96 190.093 60.46 191.493 60.46H196.653ZM225.558 67.48C222.398 67.48 219.858 66.42 217.938 64.3C216.018 62.14 215.058 59.32 215.058 55.84V37.06H223.218V55.96C223.218 57.28 223.538 58.36 224.178 59.2C224.858 60 225.738 60.4 226.818 60.4H230.298C231.618 60.4 232.818 59.86 233.898 58.78C234.978 57.66 235.738 56.2 236.178 54.4V37.06H244.338V67H236.778V63.16C235.858 64.44 234.718 65.48 233.358 66.28C232.038 67.08 230.758 67.48 229.518 67.48H225.558ZM251.277 37.06H258.837V40.9C259.597 39.74 260.677 38.8 262.077 38.08C263.517 37.32 265.017 36.94 266.577 36.94H270.657V44.02H266.577C264.457 44.02 262.737 44.66 261.417 45.94C260.097 47.22 259.437 48.86 259.437 50.86V67H251.277V37.06ZM302.091 32.2H288.771V25H323.691V32.2H310.371V67H302.091V32.2ZM332.585 67.48C330.065 67.48 327.825 67.02 325.865 66.1C323.945 65.14 322.445 63.82 321.365 62.14C320.285 60.42 319.745 58.46 319.745 56.26V48.52C319.745 46.16 320.285 44.08 321.365 42.28C322.445 40.48 323.945 39.08 325.865 38.08C327.825 37.08 330.065 36.58 332.585 36.58H337.385C341.225 36.58 344.305 37.66 346.625 39.82C348.945 41.98 350.105 44.86 350.105 48.46V54.82H327.905V56.26C327.905 57.58 328.325 58.64 329.165 59.44C330.005 60.24 331.145 60.64 332.585 60.64H337.265C338.665 60.64 339.785 60.34 340.625 59.74C341.505 59.1 341.945 58.28 341.945 57.28H349.985C349.985 59.28 349.445 61.06 348.365 62.62C347.285 64.18 345.765 65.38 343.805 66.22C341.885 67.06 339.665 67.48 337.145 67.48H332.585ZM342.065 48.94V48.46C342.065 46.9 341.645 45.66 340.805 44.74C339.965 43.78 338.845 43.3 337.445 43.3H332.585C331.145 43.3 329.985 43.8 329.105 44.8C328.225 45.8 327.785 47.12 327.785 48.76V48.94H342.065ZM365.112 67.48C361.992 67.48 359.472 66.7 357.552 65.14C355.632 63.58 354.672 61.52 354.672 58.96V56.74C354.672 54.22 355.672 52.2 357.672 50.68C359.672 49.12 362.312 48.34 365.592 48.34H369.252C370.292 48.34 371.412 48.48 372.612 48.76C373.812 49.04 374.912 49.42 375.912 49.9V46.78C375.912 45.78 375.572 44.98 374.892 44.38C374.252 43.74 373.392 43.42 372.312 43.42H367.152C366.032 43.42 365.132 43.68 364.452 44.2C363.772 44.72 363.432 45.42 363.432 46.3H355.512C355.512 43.38 356.572 41.04 358.692 39.28C360.852 37.48 363.672 36.58 367.152 36.58H372.312C375.832 36.58 378.672 37.52 380.832 39.4C382.992 41.24 384.072 43.7 384.072 46.78V67H376.512V63.4C375.552 64.64 374.372 65.64 372.972 66.4C371.572 67.12 370.192 67.48 368.832 67.48H365.112ZM369.432 61.24C370.912 61.24 372.232 60.86 373.392 60.1C374.552 59.34 375.392 58.32 375.912 57.04V56.02C375.272 55.54 374.372 55.16 373.212 54.88C372.092 54.6 370.892 54.46 369.612 54.46H365.832C364.872 54.46 364.092 54.7 363.492 55.18C362.892 55.66 362.592 56.3 362.592 57.1V58.66C362.592 59.42 362.912 60.04 363.552 60.52C364.232 61 365.112 61.24 366.192 61.24H369.432ZM424.871 36.58C427.911 36.58 430.351 37.58 432.191 39.58C434.031 41.54 434.951 44.12 434.951 47.32V67H426.791V47.32C426.791 46.2 426.531 45.32 426.011 44.68C425.491 44 424.811 43.66 423.971 43.66H421.391C420.271 43.66 419.291 44.08 418.451 44.92C417.611 45.72 417.091 46.8 416.891 48.16V67H408.731V47.38C408.731 46.26 408.471 45.36 407.951 44.68C407.431 44 406.751 43.66 405.911 43.66H403.571C402.411 43.66 401.391 44.18 400.511 45.22C399.631 46.26 399.071 47.62 398.831 49.3V67H390.671V37.06H398.231V40.54C398.951 39.34 399.871 38.38 400.991 37.66C402.151 36.94 403.311 36.58 404.471 36.58H407.831C409.271 36.58 410.571 36.96 411.731 37.72C412.931 38.48 413.871 39.54 414.551 40.9C415.431 39.54 416.471 38.48 417.671 37.72C418.911 36.96 420.211 36.58 421.571 36.58H424.871Z" fill="url(#paint1_linear_2836_1446)"/>
<defs>
<linearGradient id="paint0_linear_2836_1446" x1="113.104" y1="26.3724" x2="113.104" y2="101.421" gradientUnits="userSpaceOnUse">
<stop stop-color="white"/>
<stop offset="1" stop-color="#EA95BC"/>
</linearGradient>
<linearGradient id="paint1_linear_2836_1446" x1="129.104" y1="13.3724" x2="129.104" y2="88.4214" gradientUnits="userSpaceOnUse">
<stop stop-color="white"/>
<stop offset="1" stop-color="#EA95BC"/>
</linearGradient>
</defs>
</svg>
