<svg width="31" height="27" viewBox="0 0 31 27" fill="none" xmlns="http://www.w3.org/2000/svg">
<path d="M7.10415 11.8854C4.78562 11.8854 2.61562 13.022 1.29165 14.9208V8.19767C1.29165 4.89102 3.90079 2.1979 7.10415 2.1979C7.45937 2.1979 7.75 1.90727 7.75 1.55204C7.75 1.19688 7.45937 0.90625 7.10415 0.90625C3.18398 0.90625 0 4.17415 0 8.19773V18.9896C0 22.9163 3.1775 26.0938 7.10415 26.0938C11.0308 26.0938 14.2083 22.9163 14.2083 18.9896C14.2083 15.063 11.0309 11.8854 7.10415 11.8854ZM7.10415 24.8021C3.89437 24.8021 1.29165 22.1994 1.29165 18.9896C1.29165 15.7798 3.89437 13.1771 7.10415 13.1771C10.3139 13.1771 12.9166 15.7798 12.9166 18.9896C12.9102 22.1994 10.314 24.7956 7.10415 24.8021Z" fill="white"/>
<path d="M23.8959 11.8855C21.5774 11.8855 19.4074 13.0221 18.0834 14.9209V8.19773C18.0834 4.89108 20.6925 2.19796 23.8959 2.19796C24.2511 2.19796 24.5417 1.90733 24.5417 1.5521C24.5417 1.19688 24.2511 0.90625 23.8959 0.90625C19.9821 0.90625 16.7917 4.17415 16.7917 8.19773V18.9896C16.7917 22.9163 19.9692 26.0938 23.8959 26.0938C27.8225 26.0938 31 22.9163 31 18.9897C31 15.063 27.8225 11.8855 23.8959 11.8855ZM23.8959 24.8022C20.6861 24.8022 18.0834 22.1994 18.0834 18.9897C18.0834 15.7799 20.6861 13.1772 23.8959 13.1772C27.1057 13.1772 29.7084 15.7799 29.7084 18.9897C29.7019 22.1994 27.1057 24.7957 23.8959 24.8022Z" fill="white"/>
</svg>
