<svg width="24" height="24" viewBox="0 0 24 24" fill="none" xmlns="http://www.w3.org/2000/svg">
<path d="M12 10.5189C18.0751 10.5189 23 8.388 23 5.75944C23 3.13087 18.0751 1 12 1C5.92487 1 1 3.13087 1 5.75944C1 8.388 5.92487 10.5189 12 10.5189Z" stroke="#2B2B2B" stroke-miterlimit="10"/>
<path d="M22.9973 9.92065C22.9973 12.5511 18.0732 14.6801 11.9973 14.6801C5.92141 14.6801 1 12.5511 1 9.92065" stroke="#2B2B2B" stroke-miterlimit="10"/>
<path d="M22.9973 14.0819C22.9973 16.7124 18.0732 18.8413 11.9973 18.8413C5.92141 18.8413 1 16.7098 1 14.0819" stroke="#2B2B2B" stroke-miterlimit="10"/>
<path d="M22.9973 18.2405C22.9973 20.871 18.0732 23 11.9973 23C5.92141 23 1 20.871 1 18.2405" stroke="#2B2B2B" stroke-miterlimit="10"/>
<path d="M1 5.54779V18.5122" stroke="#2B2B2B" stroke-miterlimit="10"/>
<path d="M22.9966 6.0127V18.5121" stroke="#2B2B2B" stroke-miterlimit="10"/>
</svg>
