<svg width="20" height="20" viewBox="0 0 20 20" fill="none" xmlns="http://www.w3.org/2000/svg">
<path d="M10.8753 13.5416H9.30867C8.20034 13.5416 7.29199 12.6083 7.29199 11.4583C7.29199 11.1166 7.57533 10.8333 7.91699 10.8333C8.25866 10.8333 8.54199 11.1166 8.54199 11.4583C8.54199 11.9166 8.88367 12.2916 9.30867 12.2916H10.8753C11.2003 12.2916 11.4587 12 11.4587 11.6416C11.4587 11.1916 11.3337 11.125 11.0503 11.025L8.54199 10.15C8.00866 9.96664 7.29199 9.57498 7.29199 8.34998C7.29199 7.30831 8.117 6.44998 9.12534 6.44998H10.692C11.8003 6.44998 12.7087 7.38332 12.7087 8.53331C12.7087 8.87498 12.4253 9.15831 12.0837 9.15831C11.742 9.15831 11.4587 8.87498 11.4587 8.53331C11.4587 8.07498 11.117 7.69998 10.692 7.69998H9.12534C8.80034 7.69998 8.54199 7.99165 8.54199 8.34998C8.54199 8.79998 8.66698 8.86664 8.95032 8.96664L11.4587 9.84164C11.992 10.025 12.7087 10.4166 12.7087 11.6416C12.7087 12.6916 11.8836 13.5416 10.8753 13.5416Z" fill="white"/>
<path d="M10 14.375C9.65833 14.375 9.375 14.0917 9.375 13.75V6.25C9.375 5.90833 9.65833 5.625 10 5.625C10.3417 5.625 10.625 5.90833 10.625 6.25V13.75C10.625 14.0917 10.3417 14.375 10 14.375Z" fill="white"/>
<path d="M10.0003 18.9583C5.05866 18.9583 1.04199 14.9417 1.04199 9.99999C1.04199 5.05832 5.05866 1.04166 10.0003 1.04166C10.342 1.04166 10.6253 1.32499 10.6253 1.66666C10.6253 2.00832 10.342 2.29166 10.0003 2.29166C5.75033 2.29166 2.29199 5.74999 2.29199 9.99999C2.29199 14.25 5.75033 17.7083 10.0003 17.7083C14.2503 17.7083 17.7087 14.25 17.7087 9.99999C17.7087 9.65832 17.992 9.37499 18.3337 9.37499C18.6753 9.37499 18.9587 9.65832 18.9587 9.99999C18.9587 14.9417 14.942 18.9583 10.0003 18.9583Z" fill="white"/>
<path d="M17.5003 6.45833H14.167C13.8253 6.45833 13.542 6.175 13.542 5.83333V2.5C13.542 2.15833 13.8253 1.875 14.167 1.875C14.5087 1.875 14.792 2.15833 14.792 2.5V5.20833H17.5003C17.842 5.20833 18.1253 5.49167 18.1253 5.83333C18.1253 6.175 17.842 6.45833 17.5003 6.45833Z" fill="white"/>
<path d="M14.1669 6.45834C14.0085 6.45834 13.8502 6.40001 13.7252 6.27501C13.4835 6.03334 13.4835 5.63335 13.7252 5.39168L17.8919 1.22501C18.1335 0.983346 18.5335 0.983346 18.7752 1.22501C19.0169 1.46668 19.0169 1.86668 18.7752 2.10834L14.6085 6.27501C14.4835 6.40001 14.3252 6.45834 14.1669 6.45834Z" fill="white"/>
</svg>
