<svg width="28" height="31" viewBox="0 0 28 31" fill="none" xmlns="http://www.w3.org/2000/svg">
<path d="M25.5008 7.213L15.376 1.37928C14.4986 0.873573 13.4192 0.873573 12.5418 1.37928L2.4171 7.213C1.5397 7.7187 1 8.65186 1 9.66328V21.3337C1 22.3451 1.5397 23.2783 2.4171 23.784L12.5418 29.6207C13.4192 30.1264 14.4986 30.1264 15.376 29.6207L25.5008 23.787C26.3782 23.2813 26.9179 22.3481 26.9179 21.3367V9.66629C26.9179 8.65487 26.3782 7.7187 25.5008 7.213Z" stroke="#2B2B2B" stroke-miterlimit="10" stroke-linecap="round" stroke-linejoin="round"/>
<path d="M4.61572 20.9874V10.7077L9.79568 22.5015V7.69751" stroke="#2B2B2B" stroke-miterlimit="10" stroke-linecap="round" stroke-linejoin="round"/>
<path d="M13.959 26.8722V4.93109L24.1802 10.7076" stroke="#2B2B2B" stroke-miterlimit="10" stroke-linecap="round" stroke-linejoin="round"/>
<path d="M21.3643 22.1011V9.11523" stroke="#2B2B2B" stroke-miterlimit="10" stroke-linecap="round" stroke-linejoin="round"/>
<path d="M13.959 15.4999H18.15" stroke="#2B2B2B" stroke-miterlimit="10" stroke-linecap="round" stroke-linejoin="round"/>
</svg>
