<svg width="23" height="20" viewBox="0 0 23 20" fill="none" xmlns="http://www.w3.org/2000/svg">
<path d="M15.3526 9.82768C15.3511 9.82768 15.3496 9.82768 15.3481 9.82768H13.5057V7.98077C13.5082 7.60828 13.2083 7.30425 12.8358 7.30176C12.8342 7.30176 12.8327 7.30176 12.8312 7.30176H10.1695C9.79702 7.30176 9.49503 7.60375 9.49503 7.97624V9.82316H7.65265C7.28015 9.82067 6.97612 10.1206 6.97363 10.4931C6.97363 10.4961 6.97363 10.4991 6.97363 10.5022V13.1594C6.97363 13.5319 7.27562 13.8339 7.64812 13.8339H9.49503V15.6762C9.49254 16.0487 9.7925 16.3528 10.165 16.3553C10.1665 16.3553 10.168 16.3553 10.1695 16.3553H12.8267C13.1992 16.3553 13.5012 16.0533 13.5012 15.6808V13.8339H15.3481C15.7206 13.8363 16.0246 13.5364 16.0271 13.1639C16.0271 13.1624 16.0271 13.1608 16.0271 13.1594V10.5022C16.0271 10.1297 15.7252 9.82768 15.3526 9.82768ZM15.1218 12.9285H13.0531C12.8031 12.9285 12.6004 13.1312 12.6004 13.3812V15.4499H10.4004V13.3812C10.4004 13.1312 10.1977 12.9285 9.94771 12.9285H7.87898V10.733H9.94771C10.1977 10.733 10.4004 10.5303 10.4004 10.2804V8.20711H12.5959V10.2758C12.5959 10.5258 12.7985 10.7285 13.0485 10.7285H15.1218V12.9285Z" fill="#61CA96"/>
<path d="M19.3765 3.91615H15.6465V2.32273C15.67 1.59562 15.0996 0.987115 14.3724 0.963632C14.3354 0.962444 14.2983 0.962784 14.2613 0.964707H8.73868C8.01214 0.926853 7.39249 1.48511 7.35457 2.2116C7.35265 2.24861 7.35225 2.28567 7.3535 2.32273V3.90709H3.62346C2.18395 3.90709 0.5 4.72644 0.5 7.03055V16.8762C0.5 19.1803 2.18395 19.9997 3.62346 19.9997H19.3765C20.8161 19.9997 22.5 19.1803 22.5 16.8762V7.03961C22.5 4.73549 20.8206 3.91615 19.3765 3.91615ZM8.25885 2.32273C8.25885 2.19146 8.25885 1.83837 8.74321 1.83837H14.2613C14.7457 1.83837 14.7457 2.18693 14.7457 2.32273V3.90709H8.25885V2.32273ZM21.5947 16.8762C21.5947 18.8771 20.0465 19.0943 19.3765 19.0943H3.62346C2.95802 19.0943 1.40535 18.8771 1.40535 16.8762V7.03961C1.40535 5.03878 2.9535 4.8215 3.62346 4.8215H19.3765C20.042 4.8215 21.5947 5.03878 21.5947 7.03961V16.8762Z" fill="#61CA96"/>
</svg>
