<svg width="18" height="18" viewBox="0 0 18 18" fill="none" xmlns="http://www.w3.org/2000/svg">
<path d="M4.92416 13.8267C4.49207 13.8267 4.08832 13.6779 3.79791 13.4017C3.42957 13.0546 3.25249 12.5304 3.31624 11.9637L3.57832 9.66875C3.62791 9.23667 3.88999 8.66292 4.19457 8.35125L10.01 2.19583C11.4621 0.658749 12.9779 0.616249 14.515 2.06833C16.0521 3.52042 16.0946 5.03625 14.6425 6.57333L8.82707 12.7287C8.52957 13.0475 7.97707 13.345 7.54499 13.4158L5.26416 13.8054C5.14374 13.8125 5.03749 13.8267 4.92416 13.8267ZM12.2837 2.06125C11.7383 2.06125 11.2637 2.40125 10.7821 2.91125L4.96666 9.07375C4.82499 9.2225 4.66207 9.57667 4.63374 9.78208L4.37166 12.0771C4.34332 12.3108 4.39999 12.5021 4.52749 12.6225C4.65499 12.7429 4.84624 12.7854 5.07999 12.75L7.36082 12.3604C7.56624 12.325 7.90624 12.1408 8.04791 11.9921L13.8633 5.83667C14.7417 4.90167 15.0604 4.0375 13.7783 2.83333C13.2117 2.28792 12.7229 2.06125 12.2837 2.06125Z" fill="white"/>
<path d="M13.2824 7.75624C13.2682 7.75624 13.247 7.75624 13.2328 7.75624C11.0228 7.53666 9.2449 5.85791 8.9049 3.66208C8.8624 3.37166 9.06073 3.1025 9.35115 3.05291C9.64157 3.01041 9.91073 3.20875 9.96032 3.49916C10.2295 5.21333 11.6178 6.53083 13.3462 6.70083C13.6366 6.72916 13.8491 6.99124 13.8207 7.28166C13.7853 7.55083 13.5516 7.75624 13.2824 7.75624Z" fill="white"/>
<path d="M15.875 16.1146H3.125C2.83458 16.1146 2.59375 15.8737 2.59375 15.5833C2.59375 15.2929 2.83458 15.0521 3.125 15.0521H15.875C16.1654 15.0521 16.4062 15.2929 16.4062 15.5833C16.4062 15.8737 16.1654 16.1146 15.875 16.1146Z" fill="white"/>
</svg>
