<svg width="24" height="21" viewBox="0 0 24 21" fill="none" xmlns="http://www.w3.org/2000/svg">
<path d="M20.11 6.48437C20.1798 6.48437 20.2468 6.45638 20.2961 6.40657C20.3455 6.35675 20.3732 6.28919 20.3732 6.21874V5.33421C20.3729 5.10351 20.282 4.88234 20.1204 4.71921C19.9588 4.55607 19.7396 4.4643 19.5111 4.46402H18.0969L17.7742 3.50299C17.7523 3.43764 17.706 3.38346 17.6452 3.35193C17.5844 3.32039 17.5139 3.31399 17.4484 3.33405L9.78897 5.6843C9.72557 5.70765 9.67346 5.75464 9.64335 5.81561C9.61325 5.87657 9.60745 5.94686 9.62714 6.01201C9.64684 6.07716 9.69053 6.13221 9.74922 6.16583C9.80792 6.19944 9.87714 6.20906 9.94265 6.19271L17.3579 3.91684L18.0648 6.02324C18.0872 6.08996 18.1349 6.14495 18.1975 6.17614C18.2601 6.20732 18.3323 6.21214 18.3984 6.18952C18.4645 6.16691 18.519 6.11872 18.5499 6.05555C18.5808 5.99239 18.5856 5.91942 18.5632 5.85271L18.2753 4.99474H19.5116C19.6969 4.99474 19.8474 5.14668 19.8474 5.33368V6.21874C19.8469 6.36537 19.9648 6.48437 20.11 6.48437Z" fill="white" stroke="white" stroke-width="0.5"/>
<path d="M22.2105 10.4685C22.1407 10.4685 22.0738 10.4964 22.0244 10.5462C21.9751 10.5961 21.9474 10.6636 21.9474 10.7341C21.9474 10.8045 21.9751 10.8721 22.0244 10.9219C22.0738 10.9717 22.1407 10.9997 22.2105 10.9997C22.3953 10.9997 22.4737 11.0789 22.4737 11.2653V14.4528C22.4737 14.6393 22.3953 14.7185 22.2105 14.7185H18C17.8153 14.7185 17.7368 14.6393 17.7368 14.4528V11.7966C17.7368 11.6101 17.8153 11.531 18 11.531H21.1579C21.2277 11.531 21.2946 11.503 21.344 11.4532C21.3933 11.4033 21.4211 11.3358 21.4211 11.2653V8.07783C21.4211 7.59386 21.1111 7.28095 20.6316 7.28095H4.57895C3.93 7.28095 3.52632 6.87348 3.52632 6.21845C3.52632 5.56342 3.93 5.15595 4.57895 5.15595H7.25053L5.65789 5.68614C5.62388 5.69604 5.5922 5.71276 5.56474 5.73531C5.53729 5.75785 5.51462 5.78576 5.49809 5.81736C5.48157 5.84895 5.47153 5.88359 5.46857 5.91919C5.46562 5.95479 5.46981 5.99063 5.4809 6.02456C5.49198 6.05849 5.50974 6.08982 5.5331 6.11666C5.55646 6.1435 5.58494 6.16531 5.61685 6.18079C5.64875 6.19626 5.68342 6.20508 5.71878 6.20671C5.75414 6.20834 5.78946 6.20276 5.82263 6.19029L15.3589 3.01714C15.3918 3.00618 15.4221 2.98881 15.4483 2.96601C15.4745 2.94321 15.496 2.91543 15.5115 2.88425C15.5271 2.85307 15.5364 2.81911 15.5389 2.7843C15.5414 2.7495 15.5372 2.71453 15.5263 2.68139C15.5155 2.64825 15.4983 2.61759 15.4757 2.59117C15.4531 2.56474 15.4256 2.54307 15.3947 2.52738C15.3638 2.5117 15.3301 2.5023 15.2956 2.49974C15.2612 2.49718 15.2265 2.5015 15.1937 2.51245L8.82526 4.63214C8.81316 4.63001 8.80211 4.6247 8.78947 4.6247H4.57895C3.63474 4.6247 3 5.26539 3 6.21845V17.906C3 18.859 3.63474 19.4997 4.57895 19.4997H20.6316C21.1111 19.4997 21.4211 19.1868 21.4211 18.7028V16.0466C21.4211 15.9761 21.3933 15.9086 21.344 15.8587C21.2946 15.8089 21.2277 15.781 21.1579 15.781C21.0881 15.781 21.0212 15.8089 20.9718 15.8587C20.9225 15.9086 20.8947 15.9761 20.8947 16.0466V18.7028C20.8947 18.8893 20.8163 18.9685 20.6316 18.9685H4.57895C3.93 18.9685 3.52632 18.561 3.52632 17.906V7.4467C3.79632 7.67673 4.15368 7.8122 4.57895 7.8122H20.6316C20.8163 7.8122 20.8947 7.89136 20.8947 8.07783V10.9997H18C17.5205 10.9997 17.2105 11.3126 17.2105 11.7966V14.4528C17.2105 14.9368 17.5205 15.2497 18 15.2497H22.2105C22.69 15.2497 23 14.9368 23 14.4528V11.2653C23 10.7814 22.69 10.4685 22.2105 10.4685Z" fill="white" stroke="white" stroke-width="0.5"/>
<path d="M19.8421 13.6562C20.1328 13.6562 20.3684 13.4184 20.3684 13.125C20.3684 12.8316 20.1328 12.5938 19.8421 12.5938C19.5514 12.5938 19.3158 12.8316 19.3158 13.125C19.3158 13.4184 19.5514 13.6562 19.8421 13.6562Z" fill="white" stroke="white" stroke-width="0.5"/>
</svg>
