<svg width="23" height="24" viewBox="0 0 23 24" fill="none" xmlns="http://www.w3.org/2000/svg">
<path d="M13.4008 14.7034L21.7362 5.67346C22.7531 4.57191 22.7531 2.77938 21.7362 1.67764C20.7193 0.576083 19.0646 0.576264 18.0478 1.67782L9.71248 10.7077V10.7079C9.71232 10.7079 9.71232 10.7079 9.71232 10.7079L8.31482 12.2219C8.1416 12.4095 8.04626 12.659 8.04626 12.9243C8.04626 13.1089 8.09326 13.2851 8.17953 13.4387L6.05475 15.7406C5.8869 15.9224 5.8869 16.2172 6.05475 16.3988C6.2226 16.5806 6.49451 16.5806 6.66236 16.3988L8.76801 14.1177L10.3483 15.8297L5.00167 21.6218C4.51072 22.1535 3.86216 22.4514 3.17012 22.4657H3.05145C2.5093 22.4516 1.99435 22.2634 1.56147 21.9246L3.92829 19.3605C4.09614 19.1789 4.09614 18.8841 3.92829 18.7023C3.76061 18.5205 3.48853 18.5205 3.32068 18.7023L0.625886 21.6218C0.458038 21.8035 0.458038 22.0982 0.625886 22.2801C1.2914 23.0011 2.17629 23.3982 3.11758 23.3982C3.13521 23.3982 3.15266 23.3971 3.17012 23.3969H11.4989C11.7361 23.3969 11.9286 23.1885 11.9286 22.9314C11.9286 22.6743 11.7361 22.4659 11.4989 22.4659H5.42381C5.48709 22.4063 5.54936 22.345 5.60928 22.2801L11.0059 16.4337C11.1174 16.4832 11.2359 16.5081 11.3545 16.5081C11.5894 16.5081 11.8242 16.4112 12.0029 16.2177L13.4006 14.7036C13.4006 14.7036 13.4006 14.7036 13.4008 14.7034C13.4006 14.7036 13.4008 14.7036 13.4008 14.7034ZM18.6556 2.33624C19.3374 1.59745 20.4467 1.59745 21.1285 2.33606C21.8103 3.07468 21.8103 4.27661 21.1285 5.01522L13.0968 13.716L10.6239 11.037L18.6556 2.33624ZM11.3953 15.5593C11.3728 15.5836 11.3364 15.5836 11.3139 15.5593L11.261 15.502C11.2607 15.5016 11.2602 15.5009 11.2597 15.5004L9.07181 13.1303C9.07164 13.13 9.07131 13.1296 9.07097 13.1294L8.92243 12.9685C8.91118 12.9563 8.90564 12.9416 8.90564 12.9243C8.90564 12.9072 8.91118 12.8923 8.92259 12.8801L10.0163 11.6953L12.4892 14.3743L11.3953 15.5593Z" fill="white"/>
<path d="M17.6439 22.4658H14.1758C13.9384 22.4658 13.7461 22.6744 13.7461 22.9313C13.7461 23.1884 13.9384 23.3968 14.1758 23.3968H17.6439C17.8812 23.3968 18.0735 23.1884 18.0735 22.9313C18.0735 22.6744 17.8812 22.4658 17.6439 22.4658Z" fill="white"/>
<path d="M22.0707 22.4658H20.0508C19.8136 22.4658 19.6211 22.6744 19.6211 22.9313C19.6211 23.1884 19.8136 23.3968 20.0508 23.3968H22.0707C22.308 23.3968 22.5003 23.1884 22.5003 22.9313C22.5003 22.6744 22.308 22.4658 22.0707 22.4658Z" fill="white"/>
<path d="M4.99219 18.0154C5.10515 18.0154 5.2161 17.9661 5.29599 17.8796C5.37589 17.7925 5.42188 17.6728 5.42188 17.5505C5.42188 17.4281 5.37589 17.3079 5.29599 17.2208C5.2161 17.1342 5.10515 17.085 4.99219 17.085C4.87873 17.085 4.76795 17.1342 4.68805 17.2208C4.60815 17.3079 4.5625 17.4275 4.5625 17.5505C4.5625 17.6728 4.60815 17.7925 4.68805 17.8796C4.76795 17.9661 4.87873 18.0154 4.99219 18.0154Z" fill="white"/>
</svg>
