<svg width="39" height="41" viewBox="0 0 39 41" fill="none" xmlns="http://www.w3.org/2000/svg">
<path d="M34.3684 0C32.077 0 30.2136 1.96992 30.2136 4.39224C30.2136 5.1499 30.3957 5.86291 30.7163 6.48587L23.9101 13.6811C22.9718 12.9088 21.7974 12.4447 20.5191 12.4447C19.2408 12.4447 18.0663 12.9088 17.1274 13.6804L11.8168 8.06635C12.0606 7.63078 12.2094 7.13007 12.2094 6.58836C12.2094 4.97348 10.9672 3.6602 9.43958 3.6602C7.912 3.6602 6.66971 4.97348 6.66971 6.58836C6.66971 8.20324 7.912 9.51652 9.43958 9.51652C9.95201 9.51652 10.4257 9.35913 10.8377 9.10145L16.1482 14.7155C15.4183 15.7081 14.9793 16.9497 14.9793 18.301C14.9793 19.6523 15.4183 20.8939 16.1482 21.8858L7.3788 31.1571C6.64062 30.4492 5.66494 30.0136 4.59231 30.0136C2.30093 30.0136 0.4375 31.9836 0.4375 34.4059C0.4375 36.8282 2.30093 38.7981 4.59231 38.7981C6.88368 38.7981 8.74711 36.8282 8.74711 34.4059C8.74711 33.6482 8.56499 32.9352 8.24438 32.3122L17.128 22.9209C17.8939 23.5505 18.8177 23.9721 19.8273 24.1061V31.5436C17.8655 31.8935 16.3649 33.6973 16.3649 35.87C16.3649 38.2923 18.2284 40.2622 20.5198 40.2622C22.8111 40.2622 24.6746 38.2923 24.6746 35.87C24.6746 33.698 23.174 31.8943 21.2122 31.5436V24.1061C22.2218 23.9721 23.1456 23.5505 23.9115 22.9209L29.222 28.5349C28.9776 28.9712 28.8287 29.4719 28.8287 30.0136C28.8287 31.6285 30.071 32.9418 31.5985 32.9418C33.1261 32.9418 34.3684 31.6285 34.3684 30.0136C34.3684 28.3988 33.1261 27.0855 31.5985 27.0855C31.0861 27.0855 30.6125 27.2429 30.2005 27.5005L24.8899 21.8865C25.6198 20.8939 26.0588 19.6523 26.0588 18.301C26.0588 16.9497 25.6198 15.7081 24.8899 14.7162L31.5826 7.64103C32.3201 8.34892 33.2958 8.78448 34.3684 8.78448C36.6598 8.78448 38.5232 6.81456 38.5232 4.39224C38.5232 1.96992 36.6598 0 34.3684 0Z" fill="#E6589C"/>
</svg>
