<svg width="23" height="21" viewBox="0 0 23 21" fill="none" xmlns="http://www.w3.org/2000/svg">
<path d="M13.375 18.7868H8.62501C7.58001 18.7868 6.70918 18.6839 5.97293 18.4622C5.70376 18.3831 5.5296 18.1218 5.54543 17.8447C5.74335 15.4776 8.1421 13.6172 11 13.6172C13.8579 13.6172 16.2488 15.4697 16.4546 17.8447C16.4783 18.1297 16.3042 18.3831 16.0271 18.4622C15.2908 18.6839 14.42 18.7868 13.375 18.7868ZM6.82001 17.4489C7.34251 17.5518 7.93626 17.5993 8.62501 17.5993H13.375C14.0638 17.5993 14.6575 17.5518 15.18 17.4489C14.7604 15.9289 13.0267 14.8047 11 14.8047C8.97335 14.8047 7.2396 15.9289 6.82001 17.4489Z" fill="#C6C6C6"/>
<path d="M13.3749 2.36133H8.62492C4.66659 2.36133 3.08325 3.94466 3.08325 7.90299V12.653C3.08325 15.6455 3.98575 17.2842 6.13909 17.8938C6.31325 15.8355 8.427 14.2126 10.9999 14.2126C13.5728 14.2126 15.6866 15.8355 15.8608 17.8938C18.0141 17.2842 18.9166 15.6455 18.9166 12.653V7.90299C18.9166 3.94466 17.3333 2.36133 13.3749 2.36133ZM10.9999 11.9959C9.43242 11.9959 8.16575 10.7213 8.16575 9.15384C8.16575 7.58634 9.43242 6.31966 10.9999 6.31966C12.5674 6.31966 13.8341 7.58634 13.8341 9.15384C13.8341 10.7213 12.5674 11.9959 10.9999 11.9959Z" stroke="#C6C6C6" stroke-linecap="round" stroke-linejoin="round"/>
<path d="M10.9999 12.5883C9.10786 12.5883 7.57202 11.0446 7.57202 9.15254C7.57202 7.26046 9.10786 5.72461 10.9999 5.72461C12.892 5.72461 14.4279 7.26046 14.4279 9.15254C14.4279 11.0446 12.892 12.5883 10.9999 12.5883ZM10.9999 6.91211C9.76494 6.91211 8.75952 7.91754 8.75952 9.15254C8.75952 10.3955 9.76494 11.4008 10.9999 11.4008C12.2349 11.4008 13.2404 10.3955 13.2404 9.15254C13.2404 7.91754 12.2349 6.91211 10.9999 6.91211Z" fill="#C6C6C6"/>
</svg>
