<svg width="21" height="20" viewBox="0 0 21 20" fill="none" xmlns="http://www.w3.org/2000/svg">
<path d="M10.0499 12.0667C8.41658 12.0667 7.08325 10.7333 7.08325 9.1C7.08325 7.46666 8.41658 6.13333 10.0499 6.13333C11.6832 6.13333 13.0166 7.46666 13.0166 9.1C13.0166 10.7333 11.6832 12.0667 10.0499 12.0667ZM10.0499 7.39167C9.10825 7.39167 8.33325 8.15834 8.33325 9.10834C8.33325 10.0583 9.09992 10.825 10.0499 10.825C10.9999 10.825 11.7666 10.0583 11.7666 9.10834C11.7666 8.15834 10.9999 7.39167 10.0499 7.39167Z" fill="white"/>
<path d="M14.375 17.4584C14.0333 17.4584 13.75 17.175 13.75 16.8334C13.75 15.2334 12.0916 13.9333 10.05 13.9333C8.00831 13.9333 6.34998 15.2334 6.34998 16.8334C6.34998 17.175 6.06664 17.4584 5.72498 17.4584C5.38331 17.4584 5.09998 17.175 5.09998 16.8334C5.09998 14.55 7.31664 12.6833 10.05 12.6833C12.7833 12.6833 15 14.5417 15 16.8334C15 17.175 14.7166 17.4584 14.375 17.4584Z" fill="white"/>
<path d="M10.0833 18.9583C5.37496 18.9583 1.54163 15.125 1.54163 10.4167C1.54163 5.70833 5.37496 1.875 10.0833 1.875C11.2416 1.875 12.3583 2.09999 13.4083 2.54166C13.7083 2.66666 13.8583 2.99998 13.7583 3.30831C13.6666 3.58331 13.625 3.875 13.625 4.16667C13.625 4.65833 13.7583 5.14165 14.0166 5.55832C14.15 5.79165 14.325 5.99998 14.525 6.17498C15.25 6.83331 16.325 7.04169 17.1666 6.74169C17.475 6.62502 17.825 6.78334 17.95 7.09168C18.4 8.15001 18.625 9.27501 18.625 10.425C18.625 15.125 14.7916 18.9583 10.0833 18.9583ZM10.0833 3.125C6.06663 3.125 2.79163 6.39167 2.79163 10.4167C2.79163 14.4417 6.06663 17.7083 10.0833 17.7083C14.1 17.7083 17.375 14.4417 17.375 10.4167C17.375 9.61667 17.2416 8.82499 16.9916 8.06666C15.8416 8.26666 14.5833 7.90835 13.7 7.10002C13.4083 6.85002 13.15 6.54167 12.95 6.2C12.5833 5.6 12.3833 4.89167 12.3833 4.16667C12.3833 3.94167 12.4 3.72502 12.4416 3.50835C11.6833 3.25002 10.8916 3.125 10.0833 3.125Z" fill="white"/>
<path d="M16.3333 8.12501C15.35 8.12501 14.4167 7.75836 13.6917 7.10003C13.4 6.85003 13.1417 6.54168 12.9417 6.20001C12.575 5.60001 12.375 4.89168 12.375 4.16668C12.375 3.74168 12.4417 3.32502 12.575 2.92502C12.7583 2.35835 13.075 1.83335 13.5 1.40835C14.25 0.641679 15.2583 0.208344 16.3417 0.208344C17.475 0.208344 18.55 0.691691 19.2833 1.52502C19.9333 2.25002 20.3 3.18334 20.3 4.16668C20.3 4.48334 20.2583 4.80001 20.175 5.10001C20.0917 5.47501 19.9333 5.86669 19.7167 6.20835C19.2333 7.02502 18.4667 7.63334 17.5667 7.91668C17.1917 8.05834 16.775 8.12501 16.3333 8.12501ZM16.3333 1.45834C15.5917 1.45834 14.9 1.74999 14.3917 2.27499C14.1 2.57499 13.8917 2.91665 13.7667 3.30832C13.675 3.58332 13.6333 3.87501 13.6333 4.16668C13.6333 4.65834 13.7667 5.14166 14.025 5.55833C14.1583 5.79166 14.3333 5.99999 14.5333 6.17499C15.2583 6.83332 16.3333 7.0417 17.175 6.7417C17.8083 6.5417 18.325 6.125 18.6583 5.56667C18.8083 5.325 18.9083 5.06669 18.9667 4.80836C19.025 4.59169 19.05 4.38334 19.05 4.16668C19.05 3.50001 18.8 2.85836 18.35 2.35836C17.8417 1.78336 17.1083 1.45834 16.3333 1.45834Z" fill="white"/>
<path d="M17.575 4.77499H15.0834C14.7417 4.77499 14.4584 4.49166 14.4584 4.14999C14.4584 3.80833 14.7417 3.52499 15.0834 3.52499H17.575C17.9167 3.52499 18.2 3.80833 18.2 4.14999C18.2 4.49166 17.925 4.77499 17.575 4.77499Z" fill="white"/>
<path d="M16.3334 6.05001C15.9917 6.05001 15.7084 5.76667 15.7084 5.42501V2.93335C15.7084 2.59168 15.9917 2.30835 16.3334 2.30835C16.675 2.30835 16.9584 2.59168 16.9584 2.93335V5.42501C16.9584 5.77501 16.675 6.05001 16.3334 6.05001Z" fill="white"/>
</svg>
