<svg width="22" height="24" viewBox="0 0 22 24" fill="none" xmlns="http://www.w3.org/2000/svg">
<path d="M12.9008 14.7034L21.2362 5.67346C22.2531 4.57191 22.2531 2.77938 21.2362 1.67764C20.2193 0.576083 18.5646 0.576264 17.5478 1.67782L9.21248 10.7077V10.7079C9.21232 10.7079 9.21232 10.7079 9.21232 10.7079L7.81482 12.2219C7.6416 12.4095 7.54626 12.659 7.54626 12.9243C7.54626 13.1089 7.59326 13.2851 7.67953 13.4387L5.55475 15.7406C5.3869 15.9224 5.3869 16.2172 5.55475 16.3988C5.7226 16.5806 5.99451 16.5806 6.16236 16.3988L8.26801 14.1177L9.84829 15.8297L4.50167 21.6218C4.01072 22.1535 3.36216 22.4514 2.67012 22.4657H2.55145C2.0093 22.4516 1.49435 22.2634 1.06147 21.9246L3.42829 19.3605C3.59614 19.1789 3.59614 18.8841 3.42829 18.7023C3.26061 18.5205 2.98853 18.5205 2.82068 18.7023L0.125886 21.6218C-0.0419619 21.8035 -0.0419619 22.0982 0.125886 22.2801C0.791402 23.0011 1.67629 23.3982 2.61758 23.3982C2.63521 23.3982 2.65266 23.3971 2.67012 23.3969H10.9989C11.2361 23.3969 11.4286 23.1885 11.4286 22.9314C11.4286 22.6743 11.2361 22.4659 10.9989 22.4659H4.92381C4.98709 22.4063 5.04936 22.345 5.10928 22.2801L10.5059 16.4337C10.6174 16.4832 10.7359 16.5081 10.8545 16.5081C11.0894 16.5081 11.3242 16.4112 11.5029 16.2177L12.9006 14.7036C12.9006 14.7036 12.9006 14.7036 12.9008 14.7034C12.9008 14.7036 12.9006 14.7036 12.9008 14.7034ZM18.1556 2.33624C18.8374 1.59745 19.9467 1.59745 20.6285 2.33606C21.3103 3.07468 21.3103 4.27661 20.6285 5.01522L12.5968 13.716L10.1239 11.037L18.1556 2.33624ZM10.8953 15.5593C10.8728 15.5836 10.8364 15.5836 10.8139 15.5593L10.761 15.502C10.7607 15.5016 10.7602 15.5009 10.7597 15.5004L8.57181 13.1303C8.57164 13.13 8.57131 13.1296 8.57097 13.1294L8.42243 12.9685C8.41118 12.9563 8.40564 12.9416 8.40564 12.9243C8.40564 12.9072 8.41118 12.8923 8.42259 12.8801L9.51629 11.6953L11.9892 14.3743L10.8953 15.5593Z" fill="white"/>
<path d="M17.1439 22.4658H13.6758C13.4384 22.4658 13.2461 22.6744 13.2461 22.9313C13.2461 23.1884 13.4384 23.3968 13.6758 23.3968H17.1439C17.3812 23.3968 17.5735 23.1884 17.5735 22.9313C17.5735 22.6744 17.3812 22.4658 17.1439 22.4658Z" fill="white"/>
<path d="M21.5707 22.4658H19.5508C19.3136 22.4658 19.1211 22.6744 19.1211 22.9313C19.1211 23.1884 19.3136 23.3968 19.5508 23.3968H21.5707C21.808 23.3968 22.0003 23.1884 22.0003 22.9313C22.0003 22.6744 21.808 22.4658 21.5707 22.4658Z" fill="white"/>
<path d="M4.49219 18.0154C4.60515 18.0154 4.7161 17.9661 4.79599 17.8796C4.87589 17.7925 4.92188 17.6728 4.92188 17.5505C4.92188 17.4281 4.87589 17.3079 4.79599 17.2208C4.7161 17.1342 4.60515 17.085 4.49219 17.085C4.37873 17.085 4.26795 17.1342 4.18805 17.2208C4.10815 17.3079 4.0625 17.4275 4.0625 17.5505C4.0625 17.6728 4.10815 17.7925 4.18805 17.8796C4.26795 17.9661 4.37873 18.0154 4.49219 18.0154Z" fill="white"/>
</svg>
