<svg width="107" height="121" viewBox="0 0 107 121" fill="none" xmlns="http://www.w3.org/2000/svg">
<g clip-path="url(#clip0_505_851)">
<path d="M4.2799 93.0652C3.54349 93.0652 2.79855 92.8776 2.11669 92.4805C0.0762055 91.2941 -0.607364 88.6933 0.589309 86.6704C10.8463 69.3384 25.5081 54.7896 42.9911 44.5942C61.0247 34.0794 81.6443 28.4958 102.62 28.4468C102.624 28.4468 102.627 28.4468 102.63 28.4468C104.991 28.4468 106.907 30.3412 106.913 32.6818C106.918 35.0274 105.005 36.932 102.641 36.9371C63.9175 37.0283 27.644 57.7318 7.97902 90.968C7.18124 92.3148 5.74932 93.0652 4.2799 93.0652Z" fill="#00945D"/>
<path d="M4.27909 93.0651C3.54779 93.0651 2.80627 92.8792 2.12781 92.4872C0.0839188 91.3076 -0.608174 88.7084 0.583385 86.6822C5.06665 79.0521 7.34067 70.288 7.34067 60.6334C7.34067 51.1106 5.00187 42.066 0.576566 34.4798C-0.608174 32.4502 0.0924421 29.8528 2.13974 28.6782C4.18704 27.5054 6.80711 28.1983 7.99185 30.2279C13.1706 39.1052 15.9066 49.62 15.9066 60.6334C15.9066 71.809 13.2405 82.0112 7.98503 90.9561C7.18895 92.3114 5.75363 93.0651 4.27909 93.0651Z" fill="#00D587"/>
<path d="M4.28228 36.5995C1.93496 36.5995 0.0206194 34.722 0.000163433 32.3899C-0.0202925 30.0459 1.88211 28.1279 4.24648 28.1093C22.5409 27.9555 40.3785 17.7415 49.6911 2.09089C50.8929 0.0714079 53.5164 -0.60119 55.5551 0.590221C57.5922 1.78163 58.269 4.38415 57.0672 6.40363C51.8287 15.2065 44.2157 22.6879 35.0514 28.0417C25.6178 33.5509 14.991 36.51 4.31808 36.5995C4.30785 36.5995 4.29592 36.5995 4.28228 36.5995Z" fill="#00C57D"/>
<path d="M102.718 36.8576C102.716 36.8576 102.714 36.8576 102.713 36.8576C91.7568 36.8457 81.0379 33.9965 71.7134 28.6157C62.6344 23.3769 55.0179 15.8397 49.6858 6.81713C48.4908 4.79427 49.1744 2.19344 51.2148 1.0071C53.2553 -0.177548 55.8788 0.50012 57.0755 2.52298C66.6284 18.6839 83.6921 28.3453 102.723 28.3639C105.087 28.3656 107.003 30.2685 107.002 32.6141C106.996 34.9598 105.08 36.8576 102.718 36.8576Z" fill="#00B472"/>
<path d="M102.718 93.0382C101.243 93.0382 99.808 92.2828 99.0136 90.9291C93.6302 81.7646 90.7852 71.2886 90.7852 60.6352C90.7852 49.9987 93.62 39.5396 98.9846 30.3869C100.173 28.3606 102.793 27.6711 104.838 28.849C106.884 30.0269 107.591 32.6328 106.405 34.6608C106.345 34.7622 106.284 34.8585 106.218 34.9531C101.724 42.7404 99.3511 51.6126 99.3511 60.6352C99.3511 69.7896 101.794 78.7886 106.415 86.657C107.605 88.6832 106.913 91.2823 104.869 92.4619C104.191 92.8506 103.449 93.0382 102.718 93.0382Z" fill="#00A468"/>
<path d="M53.3772 121C52.6442 121 51.9027 120.814 51.2242 120.422C49.1803 119.241 48.4899 116.641 49.6815 114.615C54.9949 105.582 62.6096 98.0402 71.7006 92.8031C81.0217 87.4358 91.7475 84.5984 102.717 84.5984C105.081 84.5984 106.999 86.4996 106.999 88.8435C106.999 91.1892 105.081 93.0887 102.717 93.0887C83.6435 93.0887 66.5832 102.735 57.0797 118.891C56.2853 120.244 54.85 121 53.3772 121Z" fill="#00945D"/>
<path d="M53.3862 121C51.9117 121 50.4764 120.244 49.6803 118.889C39.171 100.989 33.8389 81.3893 33.832 60.6351C33.8252 39.2877 39.1693 19.7182 49.7195 2.47062C50.9452 0.464652 53.5789 -0.174147 55.6023 1.04092C57.624 2.25599 58.2701 4.86696 57.0445 6.87292C47.3193 22.7736 42.3912 40.8611 42.398 60.6334C42.4048 79.87 47.3449 98.0336 57.0837 114.62C58.2735 116.647 57.5814 119.246 55.5358 120.425C54.8591 120.814 54.1175 121 53.3862 121Z" fill="#00A468"/>
<path d="M102.352 93.0655H102.351C81.3559 93.0536 60.7534 87.4363 42.7658 76.82C25.4225 66.5823 10.834 51.9457 0.582189 34.4903C-0.607666 32.464 0.0844276 29.8649 2.12832 28.6853C4.17221 27.5057 6.79398 28.1919 7.98384 30.2181C27.9642 64.2333 63.2439 84.5532 102.356 84.5752C104.722 84.5769 106.638 86.4781 106.636 88.8237C106.634 91.166 104.717 93.0655 102.352 93.0655Z" fill="#00B472"/>
<path d="M4.28382 93.0652C1.91775 93.0652 0 91.164 0 88.8201C0 86.4744 1.91775 84.5749 4.28211 84.5749C43.1996 84.5749 79.4629 63.8799 98.9216 30.5643C100.106 28.5347 102.726 27.8418 104.774 29.018C106.821 30.1925 107.518 32.79 106.333 34.8196C96.1703 52.2226 81.534 66.8136 64.0101 77.0175C45.9816 87.5171 25.3279 93.0652 4.28382 93.0652Z" fill="#00C57D"/>
<path d="M53.3767 121C52.6471 121 51.9073 120.814 51.2305 120.425C49.1849 119.248 48.4894 116.65 49.6776 114.622C59.297 98.1959 64.1758 80.0324 64.1758 60.6335C64.1758 41.6064 59.1248 22.8903 49.5685 6.51134C48.3838 4.48171 49.0844 1.88427 51.1317 0.709758C53.1807 -0.464754 55.799 0.229813 56.9838 2.25944C67.2936 19.9295 72.7417 40.1142 72.7417 60.6335C72.7417 81.5483 67.4743 101.148 57.0861 118.886C56.29 120.243 54.853 121 53.3767 121Z" fill="#00D587"/>
<path d="M102.634 92.9792C101.16 92.9792 99.7246 92.2238 98.9302 90.8702C79.4289 57.6881 43.1502 36.8933 4.25154 36.5993C1.88547 36.5824 -0.016933 34.666 0.000113671 32.322C0.018865 29.9764 1.95877 28.0802 4.31462 28.109C25.2871 28.2678 45.9033 33.919 63.9352 44.4507C81.4915 54.7053 96.1516 69.2794 106.328 86.5963C107.518 88.6225 106.828 91.2217 104.784 92.4012C104.107 92.7933 103.366 92.9792 102.634 92.9792Z" fill="#00E894"/>
<path d="M53.3849 121C51.9121 121 50.4785 120.246 49.6824 118.894C40.3187 102.997 22.9209 93.1007 4.2753 93.0652C1.90923 93.0602 -0.00340478 91.1573 4.55084e-06 88.8117C0.00511854 86.4694 1.92116 84.575 4.28212 84.575C4.28382 84.575 4.28723 84.575 4.29064 84.575C15.1732 84.5952 25.8461 87.4614 35.1553 92.8608C44.2104 98.1131 51.7911 105.635 57.0789 114.614C58.2722 116.638 57.5818 119.239 55.5396 120.42C54.8612 120.812 54.118 121 53.3849 121Z" fill="#00E894"/>
</g>
<defs>
<clipPath id="clip0_505_851">
<path d="M0 40C0 17.9086 17.9086 0 40 0H107V121H0V40Z" fill="white"/>
</clipPath>
</defs>
</svg>
