<svg width="22" height="20" viewBox="0 0 22 20" fill="none" xmlns="http://www.w3.org/2000/svg">
<path d="M18.183 9.79166H15.333C14.9913 9.79166 14.708 9.50832 14.708 9.16666V3.34166C14.708 2.72499 14.9497 2.14999 15.383 1.71666C15.8163 1.28332 16.3913 1.04166 17.008 1.04166H17.0163C18.058 1.04999 19.0413 1.45832 19.7913 2.19999C20.5413 2.95832 20.9497 3.95832 20.9497 4.99999V7.01665C20.958 8.67499 19.8413 9.79166 18.183 9.79166ZM15.958 8.54166H18.183C19.1497 8.54166 19.708 7.98332 19.708 7.01665V4.99999C19.708 4.28332 19.4247 3.59999 18.9163 3.08332C18.408 2.58332 17.7247 2.29999 17.0163 2.29166C17.0163 2.29166 17.0163 2.29166 17.008 2.29166C16.733 2.29166 16.4663 2.39999 16.2663 2.59999C16.0663 2.79999 15.958 3.05832 15.958 3.34166V8.54166Z" fill="white"/>
<path d="M9.50033 19.4417C9.10866 19.4417 8.74199 19.2917 8.46699 19.0083L7.08366 17.6167C7.00866 17.5417 6.89199 17.5333 6.80866 17.6L5.37533 18.6667C4.93366 19 4.35033 19.0583 3.85033 18.8083C3.35033 18.5583 3.04199 18.0583 3.04199 17.5V4.99999C3.04199 2.48332 4.48366 1.04166 7.00033 1.04166H17.0003C17.342 1.04166 17.6253 1.32499 17.6253 1.66666C17.6253 2.00832 17.342 2.29166 17.0003 2.29166C16.4253 2.29166 15.9587 2.75832 15.9587 3.33332V17.5C15.9587 18.0583 15.6503 18.5583 15.1503 18.8083C14.6503 19.0583 14.067 19.0083 13.6253 18.675L12.2003 17.6083C12.117 17.5417 12.0003 17.5583 11.9337 17.625L10.5337 19.025C10.2587 19.2917 9.89199 19.4417 9.50033 19.4417ZM6.92533 16.3083C7.30866 16.3083 7.68366 16.45 7.96699 16.7417L9.35033 18.1333C9.40033 18.1833 9.46699 18.1917 9.50033 18.1917C9.53366 18.1917 9.60033 18.1833 9.65033 18.1333L11.0503 16.7333C11.567 16.2167 12.3837 16.1667 12.9587 16.6083L14.3753 17.6667C14.467 17.7333 14.5503 17.7083 14.592 17.6833C14.6337 17.6583 14.7087 17.6083 14.7087 17.5V3.33332C14.7087 2.95832 14.8003 2.59999 14.9587 2.29166H7.00033C5.15033 2.29166 4.29199 3.14999 4.29199 4.99999V17.5C4.29199 17.6167 4.36699 17.6667 4.40866 17.6917C4.45866 17.7167 4.54199 17.7333 4.62533 17.6667L6.05033 16.6C6.30866 16.4083 6.61699 16.3083 6.92533 16.3083Z" fill="white"/>
<path d="M12 11.4667H9.5C9.15833 11.4667 8.875 11.1833 8.875 10.8417C8.875 10.5 9.15833 10.2167 9.5 10.2167H12C12.3417 10.2167 12.625 10.5 12.625 10.8417C12.625 11.1833 12.3417 11.4667 12 11.4667Z" fill="white"/>
<path d="M12 8.13333H9.5C9.15833 8.13333 8.875 7.85 8.875 7.50833C8.875 7.16666 9.15833 6.88333 9.5 6.88333H12C12.3417 6.88333 12.625 7.16666 12.625 7.50833C12.625 7.85 12.3417 8.13333 12 8.13333Z" fill="white"/>
<path d="M6.97493 8.34168C6.5166 8.34168 6.1416 7.96668 6.1416 7.50835C6.1416 7.05002 6.5166 6.67502 6.97493 6.67502C7.43327 6.67502 7.80827 7.05002 7.80827 7.50835C7.80827 7.96668 7.43327 8.34168 6.97493 8.34168Z" fill="white"/>
<path d="M6.97493 11.675C6.5166 11.675 6.1416 11.3 6.1416 10.8417C6.1416 10.3833 6.5166 10.0083 6.97493 10.0083C7.43327 10.0083 7.80827 10.3833 7.80827 10.8417C7.80827 11.3 7.43327 11.675 6.97493 11.675Z" fill="white"/>
</svg>
