<svg width="19" height="20" viewBox="0 0 19 20" fill="none" xmlns="http://www.w3.org/2000/svg">
<g opacity="0.8">
<path d="M4.28292 17.7188C3.39625 17.7188 2.83417 17.4179 2.47792 17.0617C1.78125 16.365 1.29042 14.8846 2.85792 11.7417L3.54667 10.3721C3.63375 10.19 3.63375 9.81 3.54667 9.62792L2.85792 8.25834C1.2825 5.11542 1.78125 3.62709 2.47792 2.93834C3.16667 2.24167 4.655 1.74292 7.79 3.31834L14.5667 6.70667C16.2529 7.54584 17.1792 8.7175 17.1792 10C17.1792 11.2825 16.2529 12.4542 14.5746 13.2933L7.79792 16.6817C6.26208 17.4496 5.12208 17.7188 4.28292 17.7188ZM4.28292 3.46875C3.85542 3.46875 3.52292 3.57167 3.31708 3.7775C2.73917 4.3475 2.96875 5.82792 3.91875 7.72L4.6075 9.0975C4.86083 9.61209 4.86083 10.3879 4.6075 10.9025L3.91875 12.2721C2.96875 14.1721 2.73917 15.6446 3.31708 16.2146C3.88708 16.7925 5.3675 16.5629 7.2675 15.6129L14.0442 12.2246C15.2871 11.6071 15.9917 10.7917 15.9917 9.99209C15.9917 9.1925 15.2792 8.37709 14.0362 7.75959L7.25958 4.37917C6.05625 3.7775 5.01917 3.46875 4.28292 3.46875Z" fill="white"/>
<path d="M8.58164 10.5938H4.30664C3.98206 10.5938 3.71289 10.3246 3.71289 10C3.71289 9.67542 3.98206 9.40625 4.30664 9.40625H8.58164C8.90622 9.40625 9.17539 9.67542 9.17539 10C9.17539 10.3246 8.90622 10.5938 8.58164 10.5938Z" fill="white"/>
</g>
</svg>
