<svg width="20" height="20" viewBox="0 0 20 20" fill="none" xmlns="http://www.w3.org/2000/svg">
<path d="M12.4759 18.9584H7.47591C2.95091 18.9584 1.01758 17.025 1.01758 12.5V7.50002C1.01758 2.97502 2.95091 1.04169 7.47591 1.04169H12.4759C17.0009 1.04169 18.9342 2.97502 18.9342 7.50002V12.5C18.9342 17.025 17.0092 18.9584 12.4759 18.9584ZM7.47591 2.29169C3.63424 2.29169 2.26758 3.65835 2.26758 7.50002V12.5C2.26758 16.3417 3.63424 17.7084 7.47591 17.7084H12.4759C16.3176 17.7084 17.6842 16.3417 17.6842 12.5V7.50002C17.6842 3.65835 16.3176 2.29169 12.4759 2.29169H7.47591Z" fill="white"/>
<path d="M9.54154 15.05C9.34154 15.05 8.8582 14.975 8.57487 14.25L7.62487 11.85C7.49154 11.5083 7.01654 11.1917 6.6582 11.1917L1.6582 11.2083C1.31654 11.2083 1.0332 10.9333 1.0332 10.5833C1.0332 10.2417 1.3082 9.95834 1.6582 9.95834L6.6582 9.94167H6.66654C7.54154 9.94167 8.47487 10.575 8.79987 11.3917L9.5582 13.3083L11.2749 8.95834C11.5332 8.30834 11.9915 8.21667 12.1832 8.20001C12.3749 8.19167 12.8415 8.23334 13.1665 8.85001L14.0332 10.4917C14.1832 10.775 14.6332 11.05 14.9582 11.05H18.3415C18.6832 11.05 18.9665 11.3333 18.9665 11.675C18.9665 12.0167 18.6832 12.3 18.3415 12.3H14.9582C14.1665 12.3 13.2999 11.775 12.9332 11.075L12.2832 9.84167L10.5332 14.25C10.2249 14.9667 9.7332 15.05 9.54154 15.05Z" fill="white"/>
</svg>
