<svg width="20" height="20" viewBox="0 0 20 20" fill="none" xmlns="http://www.w3.org/2000/svg">
<path d="M17.5 6.45833C17.1583 6.45833 16.875 6.175 16.875 5.83333V3.125H14.1666C13.825 3.125 13.5416 2.84167 13.5416 2.5C13.5416 2.15833 13.825 1.875 14.1666 1.875H17.5C17.8416 1.875 18.125 2.15833 18.125 2.5V5.83333C18.125 6.175 17.8416 6.45833 17.5 6.45833Z" fill="white"/>
<path d="M12.5 8.12499C12.3417 8.12499 12.1833 8.06668 12.0583 7.94168C11.8167 7.70001 11.8167 7.29996 12.0583 7.0583L17.0583 2.05829C17.3 1.81663 17.7 1.81663 17.9417 2.05829C18.1834 2.29996 18.1834 2.70001 17.9417 2.94168L12.9417 7.94168C12.8167 8.06668 12.6583 8.12499 12.5 8.12499Z" fill="white"/>
<path d="M5.83333 18.125H2.5C2.15833 18.125 1.875 17.8417 1.875 17.5V14.1667C1.875 13.825 2.15833 13.5417 2.5 13.5417C2.84167 13.5417 3.125 13.825 3.125 14.1667V16.875H5.83333C6.175 16.875 6.45833 17.1583 6.45833 17.5C6.45833 17.8417 6.175 18.125 5.83333 18.125Z" fill="white"/>
<path d="M2.50002 18.125C2.34168 18.125 2.18333 18.0667 2.05833 17.9417C1.81666 17.7 1.81666 17.3 2.05833 17.0583L7.05832 12.0583C7.29999 11.8166 7.70004 11.8166 7.94171 12.0583C8.18337 12.3 8.18337 12.7 7.94171 12.9417L2.94171 17.9417C2.81671 18.0667 2.65835 18.125 2.50002 18.125Z" fill="white"/>
<path d="M1.8333 12.2917C1.54164 12.2917 1.28327 12.0833 1.22493 11.7917C1.10827 11.2083 1.04163 10.6 1.04163 9.99999C1.04163 5.05832 5.05829 1.04166 9.99996 1.04166C10.6083 1.04166 11.2166 1.09997 11.8083 1.22497C12.1499 1.29163 12.3666 1.62497 12.3 1.9583C12.2333 2.29997 11.8916 2.50833 11.5666 2.44999C11.0583 2.34999 10.5333 2.29166 10.0083 2.29166C5.7583 2.29166 2.29997 5.74999 2.29997 9.99999C2.29997 10.5167 2.34997 11.0416 2.4583 11.5416C2.52497 11.8833 2.30828 12.2083 1.96661 12.275C1.91661 12.2916 1.87497 12.2917 1.8333 12.2917Z" fill="white"/>
<path d="M10 18.9584C9.3917 18.9584 8.78338 18.9001 8.19171 18.7751C7.85005 18.7084 7.63336 18.3751 7.70002 18.0417C7.76669 17.7001 8.10836 17.4917 8.43336 17.55C8.94169 17.65 9.46669 17.7084 9.99169 17.7084C14.2417 17.7084 17.7 14.25 17.7 10C17.7 9.48337 17.65 8.96672 17.55 8.45839C17.4834 8.11672 17.7001 7.79172 18.0417 7.72505C18.3751 7.65838 18.7084 7.87502 18.7751 8.21669C18.8917 8.80002 18.95 9.40003 18.95 10C18.9584 14.9417 14.9417 18.9584 10 18.9584Z" fill="white"/>
</svg>
