<svg width="17" height="17" viewBox="0 0 17 17" fill="none" xmlns="http://www.w3.org/2000/svg">
<path d="M8.5 9.73962C8.20958 9.73962 7.96875 9.49879 7.96875 9.20837V5.48962C7.96875 5.19921 8.20958 4.95837 8.5 4.95837C8.79042 4.95837 9.03125 5.19921 9.03125 5.48962V9.20837C9.03125 9.49879 8.79042 9.73962 8.5 9.73962Z" fill="#262626"/>
<path d="M8.49984 12.2187C8.30859 12.2187 8.13149 12.1479 7.9969 12.0133C7.93315 11.9425 7.88359 11.8646 7.84109 11.7796C7.80568 11.6946 7.7915 11.6025 7.7915 11.5104C7.7915 11.3262 7.8694 11.1421 7.9969 11.0075C8.25899 10.7454 8.74069 10.7454 9.00277 11.0075C9.13027 11.1421 9.20817 11.3262 9.20817 11.5104C9.20817 11.6025 9.18691 11.6946 9.15149 11.7796C9.11607 11.8646 9.06652 11.9425 9.00277 12.0133C8.86819 12.1479 8.69109 12.2187 8.49984 12.2187Z" fill="#262626"/>
<path d="M8.50029 16.1145C8.02571 16.1145 7.54403 15.9941 7.11903 15.7462L2.91153 13.3166C2.06153 12.8208 1.53027 11.907 1.53027 10.9224V6.07746C1.53027 5.09288 2.06153 4.17912 2.91153 3.68329L7.11903 1.25371C7.96903 0.757878 9.02447 0.757878 9.88155 1.25371L14.0891 3.68329C14.9391 4.17912 15.4703 5.09288 15.4703 6.07746V10.9224C15.4703 11.907 14.9391 12.8208 14.0891 13.3166L9.88155 15.7462C9.45655 15.9941 8.97488 16.1145 8.50029 16.1145ZM8.50029 1.94786C8.20988 1.94786 7.91237 2.02579 7.65028 2.17454L3.44278 4.60411C2.91862 4.9087 2.59277 5.46829 2.59277 6.07746V10.9224C2.59277 11.5245 2.91862 12.0912 3.44278 12.3958L7.65028 14.8254C8.17445 15.1299 8.82613 15.1299 9.34321 14.8254L13.5507 12.3958C14.0749 12.0912 14.4007 11.5316 14.4007 10.9224V6.07746C14.4007 5.47538 14.0749 4.9087 13.5507 4.60411L9.34321 2.17454C9.08821 2.02579 8.79071 1.94786 8.50029 1.94786Z" fill="#262626"/>
</svg>
