<svg width="23" height="20" viewBox="0 0 23 20" fill="none" xmlns="http://www.w3.org/2000/svg">
<path d="M5 6.59375H1.25C0.99375 6.59375 0.78125 6.38125 0.78125 6.125C0.78125 5.86875 0.99375 5.65625 1.25 5.65625H5C5.25625 5.65625 5.46875 5.86875 5.46875 6.125C5.46875 6.38125 5.25625 6.59375 5 6.59375Z" fill="white" stroke="white" stroke-width="0.5"/>
<path d="M3.125 15.3438H1.25C0.99375 15.3438 0.78125 15.1313 0.78125 14.875C0.78125 14.6188 0.99375 14.4062 1.25 14.4062H3.125C3.38125 14.4062 3.59375 14.6188 3.59375 14.875C3.59375 15.1313 3.38125 15.3438 3.125 15.3438Z" fill="white" stroke="white" stroke-width="0.5"/>
<path d="M1.875 10.9688H1.25C0.99375 10.9688 0.78125 10.7563 0.78125 10.5C0.78125 10.2438 0.99375 10.0312 1.25 10.0312H1.875C2.13125 10.0312 2.34375 10.2438 2.34375 10.5C2.34375 10.7563 2.13125 10.9688 1.875 10.9688Z" fill="white" stroke="white" stroke-width="0.5"/>
<path d="M16.6684 16.5312H10.1371C9.44964 16.5312 8.84341 16.175 8.51216 15.575C8.18091 14.975 8.19967 14.2688 8.56217 13.6875L10.2934 10.9187C10.4309 10.7 10.4309 10.2937 10.2934 10.0812L8.56217 7.3125C8.19967 6.73125 8.18091 6.025 8.51216 5.425C8.84341 4.825 9.45589 4.46875 10.1371 4.46875H17.2871C17.8746 4.46875 18.5559 4.84375 18.8622 5.34375L21.4747 9.51875C21.8247 10.0812 21.7934 10.9438 21.3934 11.475L18.1559 15.7875C17.8372 16.2125 17.1996 16.5312 16.6684 16.5312ZM10.1371 5.40625C9.79964 5.40625 9.49341 5.58125 9.33091 5.88125C9.16841 6.18125 9.17464 6.53125 9.35589 6.81875L11.0872 9.5875C11.4122 10.1125 11.4122 10.9 11.0872 11.425L9.35589 14.1937C9.17464 14.4812 9.16841 14.8312 9.33091 15.1312C9.49341 15.4312 9.79964 15.6062 10.1371 15.6062H16.6684C16.9059 15.6062 17.2621 15.425 17.4059 15.2375L20.6434 10.925C20.8122 10.7 20.8309 10.2687 20.6809 10.0312L18.0684 5.85625C17.9309 5.63125 17.5496 5.425 17.2871 5.425H10.1371V5.40625Z" fill="white" stroke="white" stroke-width="0.5"/>
</svg>
