<svg width="28" height="28" viewBox="0 0 28 28" fill="none" xmlns="http://www.w3.org/2000/svg">
<g clip-path="url(#clip0_1537_3245)">
<path d="M0.226013 27.4894C0.36406 27.5832 0.540544 27.5996 0.693532 27.5329L8.42702 24.2589C8.45052 24.2484 8.477 24.2449 8.50003 24.2359V15.7045L7.16503 16.172C7.11206 16.1907 7.05622 16.2002 7.00003 16.2C6.72388 16.1992 6.50064 15.9748 6.5014 15.6986C6.50199 15.4871 6.63558 15.2989 6.83503 15.2285L8.50003 14.6455V0.172974L0.306521 3.64248C0.119666 3.72194 -0.00121331 3.90586 1.71536e-05 4.10895V27.067C-0.0013891 27.2371 0.0837476 27.3963 0.226013 27.4894ZM5.16505 16.8715L3.16507 17.5715C3.1121 17.5904 3.05632 17.6 3.00007 17.6C2.72392 17.5992 2.50068 17.3747 2.50144 17.0986C2.50203 16.8871 2.63562 16.6989 2.83507 16.6285L4.83505 15.9285C5.09831 15.8452 5.37927 15.9911 5.46253 16.2544C5.54228 16.5066 5.41191 16.7772 5.16505 16.872V16.8715ZM4.00003 4.49994C5.65618 4.50158 6.99839 5.84379 7.00003 7.49994C7.00003 8.94047 5.89554 10.5434 5.11255 11.5H5.50003C5.77618 11.5 6.00001 11.7238 6.00001 11.9999C6.00001 12.2761 5.77613 12.4999 5.50003 12.4999H2.50004C2.22388 12.4999 2.00005 12.276 2.00005 11.9999C2.00005 11.7238 2.22394 11.5 2.50004 11.5H2.88752C2.10453 10.5435 1.00004 8.94047 1.00004 7.49994C1.00168 5.84379 2.34388 4.50164 4.00003 4.49994ZM1.00004 14C1.00004 13.7238 1.22392 13.5 1.50002 13.5C1.77611 13.5 2 13.7239 2 14V16C2 16.2761 1.77611 16.4999 1.50002 16.4999C1.22392 16.4999 1.00004 16.2761 1.00004 16V14Z" fill="#3F4C6C"/>
<path d="M5.99996 7.49998C5.99996 6.39543 5.10453 5.5 3.99998 5.5C2.89543 5.5 2 6.39543 2 7.49998C2 8.74996 3.23 10.4 3.99998 11.268C4.76996 10.4 5.99996 8.75002 5.99996 7.49998ZM3.5 8.00002V7.49998C3.5 7.22383 3.72383 7 3.99998 7C4.27613 7 4.49996 7.22389 4.49996 7.49998V7.99996C4.49996 8.27611 4.27607 8.49994 3.99998 8.49994C3.72383 8.5 3.5 8.27611 3.5 8.00002Z" fill="#3F4C6C"/>
<path d="M27.774 0.510451C27.6358 0.417111 27.4595 0.400705 27.3065 0.466975L19.573 3.74096C19.5495 3.75144 19.523 3.75543 19.5 3.76398V27.827L27.6935 24.3574C27.8804 24.278 28.0013 24.094 28 23.8909V0.93297C28.0015 0.762814 27.9163 0.603674 27.774 0.510451ZM26.3535 20.1464C26.5522 20.3383 26.5576 20.6548 26.3658 20.8534C26.1739 21.0521 25.8574 21.0575 25.6588 20.8657C25.6546 20.8617 25.6505 20.8576 25.6465 20.8534L24.0001 19.2069L22.3536 20.8534C22.1549 21.0453 21.8384 21.0398 21.6466 20.8412C21.4594 20.6474 21.4594 20.3402 21.6466 20.1464L22.7931 18.9999H21.5001C21.2239 18.9999 21.0001 18.7761 21.0001 18.4999C21.0001 18.2238 21.2239 18 21.5001 18H22.7931L21.6466 16.8535C21.4547 16.6548 21.4602 16.3383 21.6588 16.1465C21.8526 15.9593 22.1598 15.9593 22.3536 16.1465L24.0001 17.793L25.6465 16.1465C25.8452 15.9546 26.1617 15.9601 26.3535 16.1587C26.5407 16.3525 26.5407 16.6597 26.3535 16.8535L24.707 18.4999L26.3535 20.1464Z" fill="#3F4C6C"/>
<path d="M17.165 17.328L18.5 17.7955V3.77145C18.4775 3.76343 18.454 3.76044 18.4315 3.75147L9.5 0.158447V14.6455L11.165 15.2285C11.4254 15.3203 11.562 15.606 11.4701 15.8664C11.3997 16.0658 11.2115 16.1994 11 16.2C10.9438 16.2002 10.888 16.1907 10.835 16.172L9.5 15.7045V24.2285C9.5225 24.236 9.546 24.2395 9.5685 24.2484L18.5 27.8414V18.8545L16.835 18.2715C16.5772 18.1725 16.4485 17.8833 16.5474 17.6255C16.6422 17.3786 16.9128 17.2482 17.165 17.328ZM15.4715 17.2649C15.4014 17.4654 15.2123 17.5997 15 17.5999C14.9438 17.6002 14.8879 17.5907 14.835 17.5719L12.835 16.8719C12.5772 16.7729 12.4484 16.4837 12.5474 16.2259C12.6422 15.979 12.9128 15.8486 13.165 15.9284L15.165 16.6284C15.4252 16.7198 15.5623 17.0046 15.4715 17.2649Z" fill="#3F4C6C"/>
</g>
<defs>
<clipPath id="clip0_1537_3245">
<rect width="28" height="28" fill="white"/>
</clipPath>
</defs>
</svg>
