<svg width="19" height="19" viewBox="0 0 19 19" fill="none" xmlns="http://www.w3.org/2000/svg">
<path d="M9.49974 18.0183C8.63683 18.0183 7.78184 17.765 7.10892 17.2662L3.70474 14.725C2.80224 14.0521 2.09766 12.6508 2.09766 11.5267V5.64458C2.09766 4.42542 2.99225 3.12708 4.14017 2.69958L8.09058 1.21917C8.87433 0.926252 10.1093 0.926252 10.8931 1.21917L14.8514 2.69958C15.9993 3.12708 16.8939 4.42542 16.8939 5.64458V11.5267C16.8939 12.6508 16.1893 14.0521 15.2868 14.725L11.8827 17.2662C11.2177 17.765 10.3627 18.0183 9.49974 18.0183ZM8.51016 2.3275L4.55975 3.80791C3.87892 4.06124 3.28516 4.91625 3.28516 5.64458V11.5267C3.28516 12.2787 3.81558 13.3317 4.40933 13.775L7.81349 16.3162C8.72391 16.9971 10.2677 16.9971 11.1781 16.3162L14.5823 13.775C15.1839 13.3237 15.7064 12.2708 15.7064 11.5267V5.64458C15.7064 4.92417 15.1127 4.06916 14.4318 3.80791L10.4814 2.3275C9.9589 2.12958 9.04058 2.12958 8.51016 2.3275Z" fill="white"/>
<path d="M9.49952 9.23878C9.48369 9.23878 9.46785 9.23878 9.4441 9.23878C8.29618 9.20711 7.45703 8.32836 7.45703 7.25961C7.45703 6.16711 8.3516 5.27252 9.4441 5.27252C10.5366 5.27252 11.4312 6.16711 11.4312 7.25961C11.4233 8.33628 10.5841 9.2071 9.51535 9.24668C9.50743 9.23876 9.50744 9.23878 9.49952 9.23878ZM9.4441 6.46002C9.00076 6.46002 8.64453 6.81628 8.64453 7.25961C8.64453 7.69503 8.98495 8.04335 9.41245 8.05918C9.41245 8.05918 9.45202 8.05918 9.49952 8.05918C9.9191 8.03543 10.2437 7.68711 10.2437 7.25961C10.2516 6.81628 9.88743 6.46002 9.4441 6.46002Z" fill="white"/>
<path d="M9.49981 13.7354C8.81898 13.7354 8.13024 13.5534 7.59982 13.1971C7.0694 12.8488 6.76855 12.3342 6.76855 11.7879C6.76855 11.2417 7.0694 10.7271 7.59982 10.3709C8.66857 9.65836 10.339 9.66627 11.3998 10.3709C11.9302 10.7192 12.2311 11.2338 12.2311 11.78C12.2311 12.3263 11.9302 12.8409 11.3998 13.1971C10.8694 13.5534 10.1806 13.7354 9.49981 13.7354ZM8.25689 11.3525C8.05898 11.4792 7.94814 11.6375 7.95605 11.78C7.95605 11.9225 8.06689 12.0809 8.25689 12.2075C8.92189 12.6509 10.0777 12.6509 10.7427 12.2075C10.9407 12.0809 11.0515 11.9225 11.0515 11.78C11.0515 11.6375 10.9406 11.4792 10.7506 11.3525C10.0856 10.9171 8.92189 10.9171 8.25689 11.3525Z" fill="white"/>
</svg>
