<svg width="24" height="21" viewBox="0 0 24 21" fill="none" xmlns="http://www.w3.org/2000/svg">
<path d="M12.4997 19.0183C11.6368 19.0183 10.7818 18.765 10.1089 18.2662L6.70474 15.725C5.80224 15.0521 5.09766 13.6508 5.09766 12.5267V6.64458C5.09766 5.42542 5.99225 4.12708 7.14017 3.69958L11.0906 2.21917C11.8743 1.92625 13.1093 1.92625 13.8931 2.21917L17.8514 3.69958C18.9993 4.12708 19.8939 5.42542 19.8939 6.64458V12.5267C19.8939 13.6508 19.1893 15.0521 18.2868 15.725L14.8827 18.2662C14.2177 18.765 13.3627 19.0183 12.4997 19.0183ZM11.5102 3.3275L7.55975 4.80791C6.87892 5.06124 6.28516 5.91625 6.28516 6.64458V12.5267C6.28516 13.2787 6.81558 14.3317 7.40933 14.775L10.8135 17.3162C11.7239 17.9971 13.2677 17.9971 14.1781 17.3162L17.5823 14.775C18.1839 14.3237 18.7064 13.2708 18.7064 12.5267V6.64458C18.7064 5.92417 18.1127 5.06916 17.4318 4.80791L13.4814 3.3275C12.9589 3.12958 12.0406 3.12958 11.5102 3.3275Z" fill="white"/>
<path d="M12.4995 10.2388C12.4837 10.2388 12.4678 10.2388 12.4441 10.2388C11.2962 10.2071 10.457 9.32836 10.457 8.25961C10.457 7.16711 11.3516 6.27252 12.4441 6.27252C13.5366 6.27252 14.4312 7.16711 14.4312 8.25961C14.4233 9.33628 13.5841 10.2071 12.5153 10.2467C12.5074 10.2388 12.5074 10.2388 12.4995 10.2388ZM12.4441 7.46002C12.0008 7.46002 11.6445 7.81628 11.6445 8.25961C11.6445 8.69503 11.9849 9.04335 12.4124 9.05918C12.4124 9.05918 12.452 9.05918 12.4995 9.05918C12.9191 9.03543 13.2437 8.68711 13.2437 8.25961C13.2516 7.81628 12.8874 7.46002 12.4441 7.46002Z" fill="white"/>
<path d="M12.4998 14.7354C11.819 14.7354 11.1302 14.5534 10.5998 14.1971C10.0694 13.8488 9.76855 13.3342 9.76855 12.7879C9.76855 12.2417 10.0694 11.7271 10.5998 11.3709C11.6686 10.6584 13.339 10.6663 14.3998 11.3709C14.9302 11.7192 15.2311 12.2338 15.2311 12.78C15.2311 13.3263 14.9302 13.8409 14.3998 14.1971C13.8694 14.5534 13.1806 14.7354 12.4998 14.7354ZM11.2569 12.3525C11.059 12.4792 10.9481 12.6375 10.9561 12.78C10.9561 12.9225 11.0669 13.0809 11.2569 13.2075C11.9219 13.6509 13.0777 13.6509 13.7427 13.2075C13.9407 13.0809 14.0515 12.9225 14.0515 12.78C14.0515 12.6375 13.9406 12.4792 13.7506 12.3525C13.0856 11.9171 11.9219 11.9171 11.2569 12.3525Z" fill="white"/>
</svg>
