<svg width="15" height="15" viewBox="0 0 15 15" fill="none" xmlns="http://www.w3.org/2000/svg">
<path d="M13.859 8.90315C13.9312 8.50881 13.9691 8.10526 13.9691 7.70183C13.9691 6.80726 13.7945 5.93946 13.4492 5.12241C13.1162 4.3332 12.6397 3.62451 12.0323 3.01603C11.4257 2.40745 10.7182 1.92991 9.9313 1.59607C9.11654 1.25045 8.25073 1.07528 7.35843 1.07528C6.93781 1.07528 6.51654 1.1149 6.1066 1.19381C6.10575 1.19403 6.10457 1.19403 6.1035 1.19424C5.54104 0.894444 4.9085 0.734375 4.26817 0.734375C3.2228 0.734375 2.23993 1.14242 1.50079 1.88366C0.761764 2.62458 0.354492 3.60984 0.354492 4.65773C0.354492 5.32467 0.525711 5.98036 0.846892 6.55971C0.781737 6.9351 0.747344 7.31873 0.747344 7.70183C0.747344 8.59661 0.922088 9.4643 1.2673 10.2815C1.59981 11.0709 2.0765 11.7791 2.68341 12.3877C3.29084 12.9962 3.9974 13.4745 4.78513 13.8075C5.6 14.1537 6.46602 14.329 7.35832 14.329C7.7468 14.329 8.13612 14.2935 8.51616 14.2259C9.1017 14.5579 9.76457 14.7344 10.4415 14.7344C11.4867 14.7344 12.469 14.3271 13.2083 13.5856C13.9476 12.8451 14.3545 11.8597 14.3545 10.8118C14.3545 10.1426 14.1824 9.48475 13.859 8.90315V8.90315Z" fill="white"/>
<path d="M7.38463 11.7604C5.03606 11.7604 3.98535 10.6029 3.98535 9.73545C3.98535 9.29057 4.31305 8.97868 4.76465 8.97868C5.76974 8.97868 5.50945 10.4253 7.38463 10.4253C8.34465 10.4253 8.87476 9.9028 8.87476 9.36809C8.87476 9.04645 8.71646 8.69002 8.08435 8.5338L5.99544 8.01109C4.31305 7.58816 4.00778 6.67646 4.00778 5.81947C4.00778 4.04019 5.67906 3.37207 7.24855 3.37207C8.69435 3.37207 10.3986 4.17306 10.3986 5.24055C10.3986 5.69795 10.0035 5.96391 9.55205 5.96391C8.69435 5.96391 8.85211 4.77383 7.12433 4.77383C6.26695 4.77383 5.79207 5.16303 5.79207 5.7199C5.79207 6.27581 6.46925 6.45333 7.05714 6.58759L8.60335 6.93161C10.2971 7.30989 10.7264 8.30114 10.7264 9.23479C10.7265 10.6807 9.61934 11.7604 7.38463 11.7604V11.7604Z" fill="#333333"/>
</svg>
