<svg width="18" height="18" viewBox="0 0 18 18" fill="none" xmlns="http://www.w3.org/2000/svg">
<path d="M7.83791 5.60248C7.69541 5.60248 7.55289 5.55 7.44039 5.4375L5.04789 3.045L2.65539 5.4375C2.43789 5.655 2.07789 5.655 1.86039 5.4375C1.64289 5.22 1.64289 4.86 1.86039 4.6425L4.65041 1.85248C4.75541 1.74748 4.89789 1.6875 5.04789 1.6875C5.19789 1.6875 5.34041 1.74748 5.44541 1.85248L8.23539 4.6425C8.45289 4.86 8.45289 5.22 8.23539 5.4375C8.12289 5.55 7.98041 5.60248 7.83791 5.60248Z" fill="white"/>
<path d="M5.04785 16.3125C4.74035 16.3125 4.48535 16.0575 4.48535 15.75V2.25C4.48535 1.9425 4.74035 1.6875 5.04785 1.6875C5.35535 1.6875 5.61035 1.9425 5.61035 2.25V15.75C5.61035 16.0575 5.35535 16.3125 5.04785 16.3125Z" fill="white"/>
<path d="M12.96 16.3125C12.81 16.3125 12.6675 16.2525 12.5625 16.1475L9.7725 13.3575C9.555 13.14 9.555 12.78 9.7725 12.5625C9.99 12.345 10.35 12.345 10.5675 12.5625L12.96 14.955L15.3525 12.5625C15.57 12.345 15.93 12.345 16.1475 12.5625C16.365 12.78 16.365 13.14 16.1475 13.3575L13.3575 16.1475C13.2525 16.2525 13.1025 16.3125 12.96 16.3125Z" fill="white"/>
<path d="M12.9521 16.3125C12.6446 16.3125 12.3896 16.0575 12.3896 15.75V2.25C12.3896 1.9425 12.6446 1.6875 12.9521 1.6875C13.2596 1.6875 13.5146 1.9425 13.5146 2.25V15.75C13.5146 16.0575 13.2671 16.3125 12.9521 16.3125Z" fill="white"/>
</svg>
