<svg width="20" height="20" viewBox="0 0 20 20" fill="currentColor" xmlns="http://www.w3.org/2000/svg">
<path d="M5.73242 15.75C5.39076 15.75 5.10742 15.4667 5.10742 15.125V13.4C5.10742 13.0583 5.39076 12.775 5.73242 12.775C6.07409 12.775 6.35742 13.0583 6.35742 13.4V15.125C6.35742 15.475 6.07409 15.75 5.73242 15.75Z" fill="currentColor"/>
<path d="M10 15.75C9.65833 15.75 9.375 15.4667 9.375 15.125V11.6667C9.375 11.325 9.65833 11.0417 10 11.0417C10.3417 11.0417 10.625 11.325 10.625 11.6667V15.125C10.625 15.475 10.3417 15.75 10 15.75Z" fill="currentColor"/>
<path d="M14.2676 15.75C13.9259 15.75 13.6426 15.4667 13.6426 15.125V9.94168C13.6426 9.60001 13.9259 9.31668 14.2676 9.31668C14.6092 9.31668 14.8926 9.60001 14.8926 9.94168V15.125C14.8926 15.475 14.6176 15.75 14.2676 15.75Z" fill="currentColor"/>
<path d="M5.73266 10.9833C5.44933 10.9833 5.19933 10.7917 5.12433 10.5083C5.041 10.175 5.24099 9.83334 5.58266 9.75C8.64933 8.98334 11.3493 7.30834 13.4077 4.91667L13.791 4.46667C14.016 4.20834 14.4077 4.175 14.6743 4.4C14.9327 4.625 14.966 5.01667 14.741 5.28334L14.3577 5.73334C12.1327 8.33334 9.19933 10.1417 5.88266 10.9667C5.83266 10.9833 5.78266 10.9833 5.73266 10.9833Z" fill="currentColor"/>
<path d="M14.2659 7.93333C13.9242 7.93333 13.6409 7.65 13.6409 7.30833V5.5H11.8242C11.4826 5.5 11.1992 5.21667 11.1992 4.875C11.1992 4.53333 11.4826 4.25 11.8242 4.25H14.2659C14.6076 4.25 14.8909 4.53333 14.8909 4.875V7.31667C14.8909 7.65833 14.6159 7.93333 14.2659 7.93333Z" fill="currentColor"/>
<path d="M12.4993 18.9583H7.49935C2.97435 18.9583 1.04102 17.025 1.04102 12.5V7.49999C1.04102 2.97499 2.97435 1.04166 7.49935 1.04166H12.4993C17.0243 1.04166 18.9577 2.97499 18.9577 7.49999V12.5C18.9577 17.025 17.0243 18.9583 12.4993 18.9583ZM7.49935 2.29166C3.65768 2.29166 2.29102 3.65832 2.29102 7.49999V12.5C2.29102 16.3417 3.65768 17.7083 7.49935 17.7083H12.4993C16.341 17.7083 17.7077 16.3417 17.7077 12.5V7.49999C17.7077 3.65832 16.341 2.29166 12.4993 2.29166H7.49935Z" fill="currentColor"/>
</svg>
