<svg width="32" height="32" viewBox="0 0 32 32" fill="none" xmlns="http://www.w3.org/2000/svg">
<circle cx="16" cy="16" r="16" fill="#458FFF"/>
<path d="M9 11.4C8.66863 11.4 8.4 11.6686 8.4 12C8.4 12.3314 8.66863 12.6 9 12.6V11.4ZM24.4243 12.4243C24.6586 12.1899 24.6586 11.8101 24.4243 11.5757L20.6059 7.75736C20.3716 7.52304 19.9917 7.52304 19.7574 7.75736C19.523 7.99167 19.523 8.37157 19.7574 8.60589L23.1515 12L19.7574 15.3941C19.523 15.6284 19.523 16.0083 19.7574 16.2426C19.9917 16.477 20.3716 16.477 20.6059 16.2426L24.4243 12.4243ZM9 12.6H24V11.4H9V12.6Z" fill="white"/>
<path d="M8.57574 20.5757C8.34142 20.8101 8.34142 21.1899 8.57574 21.4243L12.3941 25.2426C12.6284 25.477 13.0083 25.477 13.2426 25.2426C13.477 25.0083 13.477 24.6284 13.2426 24.3941L9.84853 21L13.2426 17.6059C13.477 17.3716 13.477 16.9917 13.2426 16.7574C13.0083 16.523 12.6284 16.523 12.3941 16.7574L8.57574 20.5757ZM24 21.6C24.3314 21.6 24.6 21.3314 24.6 21C24.6 20.6686 24.3314 20.4 24 20.4V21.6ZM9 21.6H24V20.4H9V21.6Z" fill="white"/>
</svg>
