<svg width="16" height="16" viewBox="0 0 16 16" fill="none" xmlns="http://www.w3.org/2000/svg">
<path fill-rule="evenodd" clip-rule="evenodd" d="M16 8C16 12.4183 12.4183 16 8 16C3.58172 16 0 12.4183 0 8C0 3.58172 3.58172 0 8 0C12.4183 0 16 3.58172 16 8ZM8.28611 5.90593C7.508 6.22958 5.95285 6.89944 3.62069 7.91553C3.24199 8.06613 3.0436 8.21346 3.02554 8.35752C2.99502 8.60098 3.2999 8.69685 3.71508 8.82739C3.77155 8.84515 3.83007 8.86355 3.89006 8.88305C4.29852 9.01583 4.84798 9.17116 5.13362 9.17733C5.39273 9.18293 5.68192 9.07611 6.00119 8.85687C8.1802 7.38598 9.30502 6.64252 9.37564 6.62649C9.42546 6.61518 9.4945 6.60097 9.54127 6.64254C9.58805 6.68412 9.58345 6.76286 9.5785 6.78398C9.5483 6.91274 8.35151 8.02538 7.73217 8.60117C7.5391 8.78067 7.40215 8.90799 7.37415 8.93707C7.31143 9.00221 7.24751 9.06383 7.18608 9.12305C6.80661 9.48886 6.52204 9.76319 7.20184 10.2112C7.52852 10.4265 7.78993 10.6045 8.05073 10.7821C8.33554 10.976 8.61962 11.1695 8.98717 11.4104C9.08081 11.4718 9.17025 11.5356 9.25735 11.5977C9.58881 11.834 9.8866 12.0463 10.2545 12.0124C10.4683 11.9927 10.6891 11.7917 10.8012 11.1922C11.0662 9.77541 11.5872 6.70562 11.7076 5.44063C11.7181 5.3298 11.7049 5.18796 11.6942 5.1257C11.6835 5.06343 11.6613 4.97472 11.5803 4.90905C11.4845 4.83127 11.3365 4.81487 11.2703 4.81604C10.9694 4.82134 10.5078 4.98186 8.28611 5.90593Z" fill="white"/>
</svg>
