<svg width="22" height="21" viewBox="0 0 22 21" fill="none" xmlns="http://www.w3.org/2000/svg">
<path d="M14.3334 19.698H7.66678C3.81677 19.698 3.10011 17.9064 2.91677 16.1647L2.29177 9.48971C2.20011 8.61471 2.17511 7.32305 3.04177 6.35638C3.79177 5.52305 5.03344 5.12305 6.83344 5.12305H15.1668C16.9751 5.12305 18.2168 5.53138 18.9584 6.35638C19.8251 7.32305 19.8001 8.61471 19.7084 9.49805L19.0834 16.1564C18.9001 17.9064 18.1834 19.698 14.3334 19.698ZM6.83344 6.36471C5.42511 6.36471 4.45844 6.63971 3.96677 7.18971C3.55844 7.63971 3.42511 8.33138 3.53344 9.36471L4.15844 16.0397C4.30011 17.3564 4.65844 18.448 7.66678 18.448H14.3334C17.3334 18.448 17.7001 17.3564 17.8418 16.0314L18.4668 9.37305C18.5751 8.33138 18.4418 7.63971 18.0334 7.18971C17.5418 6.63971 16.5751 6.36471 15.1668 6.36471H6.83344Z" fill="white"/>
<path d="M14.3334 6.36458C13.9917 6.36458 13.7084 6.08125 13.7084 5.73958V5.07292C13.7084 3.58958 13.7084 3.03125 11.6667 3.03125H10.3334C8.29175 3.03125 8.29175 3.58958 8.29175 5.07292V5.73958C8.29175 6.08125 8.00841 6.36458 7.66675 6.36458C7.32508 6.36458 7.04175 6.08125 7.04175 5.73958V5.07292C7.04175 3.60625 7.04175 1.78125 10.3334 1.78125H11.6667C14.9584 1.78125 14.9584 3.60625 14.9584 5.07292V5.73958C14.9584 6.08125 14.6751 6.36458 14.3334 6.36458Z" fill="white"/>
<path d="M10.9999 14.6986C8.70825 14.6986 8.70825 13.2819 8.70825 12.4319V11.5736C8.70825 10.3986 8.99159 10.1152 10.1666 10.1152H11.8333C13.0083 10.1152 13.2916 10.3986 13.2916 11.5736V12.4069C13.2916 13.2736 13.2916 14.6986 10.9999 14.6986ZM9.95825 11.3652C9.95825 11.4319 9.95825 11.5069 9.95825 11.5736V12.4319C9.95825 13.2902 9.95825 13.4486 10.9999 13.4486C12.0416 13.4486 12.0416 13.3152 12.0416 12.4236V11.5736C12.0416 11.5069 12.0416 11.4319 12.0416 11.3652C11.9749 11.3652 11.8999 11.3652 11.8333 11.3652H10.1666C10.0999 11.3652 10.0249 11.3652 9.95825 11.3652Z" fill="white"/>
<path d="M12.6667 13.0491C12.3584 13.0491 12.0834 12.8158 12.0501 12.4991C12.0084 12.1574 12.2501 11.8408 12.5917 11.7991C14.7917 11.5241 16.9001 10.6908 18.6751 9.39909C18.9501 9.19076 19.3417 9.25743 19.5501 9.54076C19.7501 9.81576 19.6917 10.2074 19.4084 10.4158C17.4584 11.8324 15.1584 12.7408 12.7417 13.0491C12.7167 13.0491 12.6917 13.0491 12.6667 13.0491Z" fill="white"/>
<path d="M9.33345 13.0576C9.30845 13.0576 9.28345 13.0576 9.25845 13.0576C6.97511 12.7993 4.75011 11.966 2.82511 10.6493C2.54178 10.4576 2.46678 10.066 2.65845 9.78263C2.85011 9.4993 3.24178 9.4243 3.52511 9.61597C5.28345 10.816 7.30845 11.5743 9.39178 11.816C9.73345 11.8576 9.98345 12.166 9.94178 12.5076C9.91678 12.8243 9.65011 13.0576 9.33345 13.0576Z" fill="white"/>
</svg>
