<svg width="23" height="25" viewBox="0 0 23 25" fill="none" xmlns="http://www.w3.org/2000/svg">
<path d="M5.15625 6.7207C4.8975 6.7207 4.6875 6.9307 4.6875 7.18945C4.6875 7.4482 4.8975 7.6582 5.15625 7.6582C5.415 7.6582 5.625 7.4482 5.625 7.18945C5.625 6.9307 5.415 6.7207 5.15625 6.7207Z" fill="white"/>
<path d="M9.37477 15.4853H7.96861V14.0791C7.96861 13.8203 7.7587 13.6104 7.49986 13.6104C7.24102 13.6104 7.03116 13.8203 7.03116 14.0791V15.4853H5.625C5.36616 15.4853 5.15625 15.6952 5.15625 15.954C5.15625 16.2128 5.36616 16.4227 5.625 16.4227H7.03116V17.8289C7.03116 18.0877 7.24106 18.2976 7.49986 18.2976C7.75866 18.2976 7.96861 18.0877 7.96861 17.8289V16.4227H9.37477C9.63361 16.4227 9.84352 16.2128 9.84352 15.954C9.84352 15.6951 9.63366 15.4853 9.37477 15.4853Z" fill="white"/>
<path d="M22.0255 15.9075C20.9893 14.1128 18.6982 13.4986 16.9033 14.535L14.9993 15.6342V11.5638C14.9993 11.0606 14.8329 10.5612 14.5306 10.1576L12.187 7.03289V5.7023C12.7325 5.5088 13.1244 4.98783 13.1244 4.37672V2.22061C13.1243 1.44525 12.4935 0.814453 11.7182 0.814453H3.28111C2.50575 0.814453 1.87491 1.44525 1.87491 2.22061V4.37677C1.87491 4.98778 2.26683 5.50884 2.81236 5.70234V7.03294L0.468563 10.1579C0.166406 10.5613 0 11.0606 0 11.5638V20.6416C0 21.9339 1.05136 22.9852 2.34361 22.9852H9.87652C10.9275 24.7469 13.1937 25.3365 14.9701 24.3108L20.6531 21.0297C22.4322 20.0023 23.0669 17.7119 22.0255 15.9075ZM2.81236 2.22061C2.81236 1.96214 3.02264 1.75186 3.28106 1.75186H11.7181C11.9766 1.75186 12.1869 1.96214 12.1869 2.22061V4.37677C12.1869 4.63523 11.9766 4.84547 11.7181 4.84547H3.28111C3.02264 4.84547 2.81241 4.63519 2.81241 4.37677V2.22061H2.81236ZM1.21875 10.72L3.65606 7.47038C3.71691 7.38928 3.74981 7.29056 3.74981 7.18913V5.78297H11.2494V6.72042H7.03092C6.77208 6.72042 6.56217 6.93033 6.56217 7.18917C6.56217 7.44802 6.77208 7.65792 7.03092 7.65792H11.4838L13.7804 10.7199C13.9305 10.9203 14.0237 11.16 14.0519 11.4077H0.947437C0.975562 11.16 1.0688 10.9202 1.21875 10.72ZM2.34366 22.0477C1.5683 22.0477 0.9375 21.417 0.9375 20.6416V20.1682H9.45352C9.30488 20.7759 9.30586 21.4251 9.47606 22.0478H2.34366V22.0477ZM9.82116 19.2354H0.937453V12.3451H14.0618V16.1754L11.2203 17.8161C10.6278 18.1583 10.149 18.6455 9.82116 19.2354ZM14.5015 23.4989C13.1563 24.2757 11.4374 23.8163 10.6601 22.4702C9.87914 21.1111 10.3524 19.4 11.6891 18.6279L14.2334 17.1589L17.0457 22.0299L14.5015 23.4989ZM20.1843 20.2178L17.8576 21.5612L15.0452 16.6901L17.372 15.3469C18.718 14.5698 20.4363 15.03 21.2136 16.3761C21.9943 17.729 21.5196 19.4468 20.1843 20.2178Z" fill="white"/>
</svg>
