<svg width="24" height="25" viewBox="0 0 24 25" fill="none" xmlns="http://www.w3.org/2000/svg">
<path d="M5.65625 6.7207C5.3975 6.7207 5.1875 6.9307 5.1875 7.18945C5.1875 7.4482 5.3975 7.6582 5.65625 7.6582C5.915 7.6582 6.125 7.4482 6.125 7.18945C6.125 6.9307 5.915 6.7207 5.65625 6.7207Z" fill="white"/>
<path d="M9.87477 15.4853H8.46861V14.0791C8.46861 13.8203 8.2587 13.6104 7.99986 13.6104C7.74102 13.6104 7.53116 13.8203 7.53116 14.0791V15.4853H6.125C5.86616 15.4853 5.65625 15.6952 5.65625 15.954C5.65625 16.2128 5.86616 16.4227 6.125 16.4227H7.53116V17.8289C7.53116 18.0877 7.74106 18.2976 7.99986 18.2976C8.25866 18.2976 8.46861 18.0877 8.46861 17.8289V16.4227H9.87477C10.1336 16.4227 10.3435 16.2128 10.3435 15.954C10.3435 15.6951 10.1337 15.4853 9.87477 15.4853Z" fill="white"/>
<path d="M22.5255 15.9075C21.4893 14.1128 19.1982 13.4986 17.4033 14.535L15.4993 15.6342V11.5638C15.4993 11.0606 15.3329 10.5612 15.0306 10.1576L12.687 7.03289V5.7023C13.2325 5.5088 13.6244 4.98783 13.6244 4.37672V2.22061C13.6243 1.44525 12.9935 0.814453 12.2182 0.814453H3.78111C3.00575 0.814453 2.37491 1.44525 2.37491 2.22061V4.37677C2.37491 4.98778 2.76683 5.50884 3.31236 5.70234V7.03294L0.968563 10.1579C0.666406 10.5613 0.5 11.0606 0.5 11.5638V20.6416C0.5 21.9339 1.55136 22.9852 2.84361 22.9852H10.3765C11.4275 24.7469 13.6937 25.3365 15.4701 24.3108L21.1531 21.0297C22.9322 20.0023 23.5669 17.7119 22.5255 15.9075ZM3.31236 2.22061C3.31236 1.96214 3.52264 1.75186 3.78106 1.75186H12.2181C12.4766 1.75186 12.6869 1.96214 12.6869 2.22061V4.37677C12.6869 4.63523 12.4766 4.84547 12.2181 4.84547H3.78111C3.52264 4.84547 3.31241 4.63519 3.31241 4.37677V2.22061H3.31236ZM1.71875 10.72L4.15606 7.47038C4.21691 7.38928 4.24981 7.29056 4.24981 7.18913V5.78297H11.7494V6.72042H7.53092C7.27208 6.72042 7.06217 6.93033 7.06217 7.18917C7.06217 7.44802 7.27208 7.65792 7.53092 7.65792H11.9838L14.2804 10.7199C14.4305 10.9203 14.5237 11.16 14.5519 11.4077H1.44744C1.47556 11.16 1.5688 10.9202 1.71875 10.72ZM2.84366 22.0477C2.0683 22.0477 1.4375 21.417 1.4375 20.6416V20.1682H9.95352C9.80488 20.7759 9.80586 21.4251 9.97606 22.0478H2.84366V22.0477ZM10.3212 19.2354H1.43745V12.3451H14.5618V16.1754L11.7203 17.8161C11.1278 18.1583 10.649 18.6455 10.3212 19.2354ZM15.0015 23.4989C13.6563 24.2757 11.9374 23.8163 11.1601 22.4702C10.3791 21.1111 10.8524 19.4 12.1891 18.6279L14.7334 17.1589L17.5457 22.0299L15.0015 23.4989ZM20.6843 20.2178L18.3576 21.5612L15.5452 16.6901L17.872 15.3469C19.218 14.5698 20.9363 15.03 21.7136 16.3761C22.4943 17.729 22.0196 19.4468 20.6843 20.2178Z" fill="white"/>
</svg>
