<svg width="21" height="22" viewBox="0 0 21 22" fill="none" xmlns="http://www.w3.org/2000/svg">
<path d="M14 20.6094H7C4.3575 20.6094 2.84375 19.0956 2.84375 16.4531V7.92188C2.84375 5.16562 4.24375 3.76562 7 3.76562C7.35875 3.76562 7.65625 4.06313 7.65625 4.42188C7.65625 4.77188 7.79625 5.10437 8.04125 5.34937C8.28625 5.59437 8.61875 5.73438 8.96875 5.73438H12.0312C12.7575 5.73438 13.3438 5.14812 13.3438 4.42188C13.3438 4.06313 13.6412 3.76562 14 3.76562C16.7563 3.76562 18.1562 5.16562 18.1562 7.92188V16.4531C18.1562 19.0956 16.6425 20.6094 14 20.6094ZM6.43123 5.09563C5.04873 5.20938 4.15625 5.83062 4.15625 7.92188V16.4531C4.15625 18.3956 5.0575 19.2969 7 19.2969H14C15.9425 19.2969 16.8438 18.3956 16.8438 16.4531V7.92188C16.8438 5.83062 15.9513 5.21813 14.5688 5.09563C14.2713 6.21563 13.2475 7.04688 12.0312 7.04688H8.96875C8.26875 7.04688 7.6125 6.77562 7.11375 6.27687C6.78125 5.94437 6.55373 5.54188 6.43123 5.09563Z" fill="white"/>
<path d="M12.0312 7.04688H8.96875C8.26875 7.04688 7.6125 6.77562 7.11375 6.27687C6.615 5.77812 6.34375 5.12188 6.34375 4.42188C6.34375 2.97812 7.525 1.79688 8.96875 1.79688H12.0312C12.7312 1.79688 13.3875 2.06813 13.8862 2.56688C14.385 3.06563 14.6562 3.72187 14.6562 4.42188C14.6562 5.86562 13.475 7.04688 12.0312 7.04688ZM8.96875 3.10938C8.2425 3.10938 7.65625 3.69563 7.65625 4.42188C7.65625 4.77187 7.79625 5.10437 8.04125 5.34937C8.28625 5.59437 8.61875 5.73438 8.96875 5.73438H12.0312C12.7575 5.73438 13.3438 5.14812 13.3438 4.42188C13.3438 4.07188 13.2037 3.73938 12.9587 3.49438C12.7137 3.24938 12.3812 3.10938 12.0312 3.10938H8.96875Z" fill="white"/>
<path d="M10.5 12.7344H7C6.64125 12.7344 6.34375 12.4369 6.34375 12.0781C6.34375 11.7194 6.64125 11.4219 7 11.4219H10.5C10.8587 11.4219 11.1562 11.7194 11.1562 12.0781C11.1562 12.4369 10.8587 12.7344 10.5 12.7344Z" fill="white"/>
<path d="M14 16.2344H7C6.64125 16.2344 6.34375 15.9369 6.34375 15.5781C6.34375 15.2194 6.64125 14.9219 7 14.9219H14C14.3588 14.9219 14.6562 15.2194 14.6562 15.5781C14.6562 15.9369 14.3588 16.2344 14 16.2344Z" fill="white"/>
</svg>
