<svg width="26" height="20" viewBox="0 0 26 20" fill="none" xmlns="http://www.w3.org/2000/svg">
<path d="M25.75 0.903602C25.75 1.06304 25.75 1.22248 25.75 1.38097C25.1402 1.87743 24.5367 2.38058 23.9162 2.86654C23.6134 3.10427 23.4902 3.37446 23.4912 3.73917C23.5018 7.92379 23.4902 12.1074 23.5146 16.2921C23.5167 16.5708 23.6952 16.9041 23.9088 17.116C24.4889 17.6936 25.1317 18.2197 25.7489 18.7658C25.7489 18.8613 25.7489 18.9567 25.7489 19.0522C25.6278 19.0704 25.5067 19.1038 25.3856 19.1038C22.2885 19.1066 19.1915 19.1076 16.0944 19.1019C15.968 19.1019 15.8426 19.0331 15.7172 18.9968C15.7682 18.8546 15.7757 18.6732 15.8787 18.5768C16.3951 18.0965 16.9242 17.6258 17.4767 17.179C17.8326 16.8907 17.9834 16.5718 17.9813 16.1364C17.9654 13.002 17.9728 9.86668 17.9728 6.73228C17.9728 6.56711 17.9728 6.40098 17.9728 6.23581C17.8135 6.36088 17.7401 6.49932 17.6775 6.64062C15.9297 10.6314 14.1852 14.6222 12.4353 18.6121C12.3376 18.8336 12.3078 19.0818 11.8881 19.0751C11.5025 19.0694 11.3813 18.9061 11.2475 18.6445C9.22031 14.6566 7.18465 10.6715 5.15111 6.68645C5.07355 6.53464 4.98855 6.38666 4.90674 6.23677C4.87275 6.24059 4.83981 6.24536 4.80581 6.24918C4.80581 6.41435 4.80581 6.58047 4.80581 6.74564C4.80581 9.40268 4.81325 12.0607 4.79837 14.7177C4.79625 15.1588 4.93543 15.5159 5.24779 15.85C6.0457 16.7016 6.83298 17.5619 7.60644 18.4316C7.74138 18.5834 7.79131 18.7973 7.91456 19.0532C5.27223 19.0532 2.76165 19.0532 0.25 19.0532C0.25 18.8937 0.25 18.7343 0.25 18.5758C0.294623 18.5577 0.354121 18.5491 0.382807 18.5185C1.26252 17.5628 2.1518 16.6138 3.00707 15.64C3.16963 15.4557 3.27162 15.1741 3.27269 14.9373C3.28437 11.5002 3.28012 8.06413 3.25356 4.62708C3.25144 4.36739 3.10694 4.06665 2.92526 3.85756C2.2421 3.06799 1.50582 2.31375 0.806727 1.53373C0.668608 1.37906 0.611235 1.1652 0.478428 0.903602C0.779103 0.903602 0.953346 0.903602 1.12759 0.903602C3.23444 0.903602 5.34023 0.914104 7.44601 0.894055C7.84231 0.890236 8.02824 1.00003 8.19079 1.32273C9.92154 4.76838 11.6714 8.20639 13.417 11.6463C13.4903 11.7905 13.5753 11.9289 13.6869 12.1285C13.774 11.9394 13.8229 11.8382 13.8686 11.7351C15.4208 8.25604 16.9784 4.77888 18.5179 1.296C18.6496 0.997167 18.8037 0.892145 19.167 0.89501C21.361 0.912195 23.556 0.903602 25.75 0.903602Z" fill="white"/>
</svg>
