<svg width="24" height="18" viewBox="0 0 24 18" fill="none" xmlns="http://www.w3.org/2000/svg">
<path d="M7.55016 17.3165C16.6045 17.3165 21.5583 10.9166 21.5583 5.36838C21.5583 5.18846 21.5536 5.00454 21.5442 4.82463C22.5079 4.23021 23.3395 3.49395 24 2.65043C23.1025 2.99101 22.1496 3.21344 21.1739 3.31012C22.2013 2.78486 22.9705 1.95969 23.3391 0.98759C22.3726 1.47615 21.3156 1.82078 20.2134 2.00672C19.4708 1.33371 18.489 0.888094 17.4197 0.738774C16.3504 0.589453 15.2532 0.744744 14.2977 1.18064C13.3423 1.61653 12.5818 2.30874 12.1338 3.15026C11.6859 3.99178 11.5754 4.93573 11.8195 5.83616C9.86249 5.7524 7.94794 5.31877 6.19998 4.5634C4.45203 3.80803 2.90969 2.74778 1.67297 1.45138C1.0444 2.37573 0.852057 3.46955 1.13503 4.51051C1.418 5.55148 2.15506 6.46149 3.19641 7.0556C2.41463 7.03443 1.64998 6.8549 0.965625 6.53184V6.58382C0.964925 7.55386 1.3581 8.49417 2.07831 9.24492C2.79852 9.99566 3.80132 10.5105 4.91625 10.7019C4.19206 10.8709 3.43198 10.8956 2.69484 10.7739C3.00945 11.6081 3.62157 12.3378 4.44577 12.861C5.26997 13.3842 6.26512 13.6749 7.29234 13.6925C5.54842 14.861 3.39417 15.4947 1.17656 15.4917C0.783287 15.4912 0.390399 15.4706 0 15.4301C2.25286 16.6629 4.87353 17.3177 7.55016 17.3165Z" fill="white"/>
</svg>
