<svg width="20" height="20" viewBox="0 0 20 20" fill="none" xmlns="http://www.w3.org/2000/svg">
<g clip-path="url(#clip0_479_753)">
<path d="M13.2605 20.25H6.74047C1.83047 20.25 -0.269531 18.15 -0.269531 13.24V13.11C-0.269531 8.66999 1.48047 6.53 5.40047 6.16C5.80047 6.13 6.18047 6.43 6.22047 6.84C6.26047 7.25 5.96047 7.62 5.54047 7.66C2.40047 7.95 1.23047 9.43 1.23047 13.12V13.25C1.23047 17.32 2.67047 18.76 6.74047 18.76H13.2605C17.3305 18.76 18.7705 17.32 18.7705 13.25V13.12C18.7705 9.41 17.5805 7.93 14.3805 7.66C13.9705 7.62 13.6605 7.26 13.7005 6.85C13.7405 6.44 14.0905 6.13 14.5105 6.17C18.4905 6.51 20.2705 8.66 20.2705 13.13V13.26C20.2705 18.15 18.1705 20.25 13.2605 20.25Z" fill="white"/>
<path d="M10 13.63C9.59 13.63 9.25 13.29 9.25 12.88V0C9.25 -0.41 9.59 -0.75 10 -0.75C10.41 -0.75 10.75 -0.41 10.75 0V12.88C10.75 13.3 10.41 13.63 10 13.63Z" fill="white"/>
<path d="M9.99984 14.75C9.80984 14.75 9.61984 14.68 9.46984 14.53L6.11984 11.18C5.82984 10.89 5.82984 10.41 6.11984 10.12C6.40984 9.83 6.88984 9.83 7.17984 10.12L9.99984 12.94L12.8198 10.12C13.1098 9.83 13.5898 9.83 13.8798 10.12C14.1698 10.41 14.1698 10.89 13.8798 11.18L10.5298 14.53C10.3798 14.68 10.1898 14.75 9.99984 14.75Z" fill="white"/>
</g>
<defs>
<clipPath id="clip0_479_753">
<rect width="20" height="20" fill="white"/>
</clipPath>
</defs>
</svg>
