<svg width="16" height="20" viewBox="0 0 16 20" fill="none" xmlns="http://www.w3.org/2000/svg">
<g clip-path="url(#clip0_479_1410)">
<path d="M10.3671 19.2857H5.26961C1.43088 19.2857 -0.210938 17.2857 -0.210938 12.6095V12.4857C-0.210938 8.25716 1.15724 6.21906 4.22197 5.86668C4.5347 5.83811 4.83179 6.12383 4.86306 6.5143C4.89434 6.90478 4.65979 7.25716 4.33143 7.29526C1.87652 7.57145 0.96179 8.98097 0.96179 12.4953V12.6191C0.96179 16.4953 2.08761 17.8667 5.26961 17.8667H10.3671C13.5491 17.8667 14.6749 16.4953 14.6749 12.6191V12.4953C14.6749 8.96192 13.7445 7.5524 11.2427 7.29526C10.9222 7.25716 10.6798 6.9143 10.7111 6.52383C10.7423 6.13335 11.016 5.83811 11.3443 5.87621C14.456 6.20002 15.8476 8.24764 15.8476 12.5048V12.6286C15.8476 17.2857 14.2058 19.2857 10.3671 19.2857Z" fill="white"/>
<path d="M7.81879 13.0952C7.49824 13.0952 7.23242 12.7714 7.23242 12.381V1.54287C7.23242 1.15239 7.49824 0.828583 7.81879 0.828583C8.13933 0.828583 8.40515 1.15239 8.40515 1.54287V12.381C8.40515 12.7714 8.13933 13.0952 7.81879 13.0952Z" fill="white"/>
<path d="M10.4378 4.38095C10.2893 4.38095 10.1407 4.31428 10.0235 4.17142L7.81873 1.48571L5.61401 4.17142C5.38728 4.44762 5.01201 4.44762 4.78528 4.17142C4.55855 3.89523 4.55855 3.43809 4.78528 3.1619L7.40437 -0.0285749C7.6311 -0.304765 8.00637 -0.304765 8.2331 -0.0285749L10.8522 3.1619C11.0789 3.43809 11.0789 3.89523 10.8522 4.17142C10.7427 4.31428 10.5864 4.38095 10.4378 4.38095Z" fill="white"/>
</g>
<defs>
<clipPath id="clip0_479_1410">
<rect width="15.6364" height="20" fill="white"/>
</clipPath>
</defs>
</svg>
