<svg width="18" height="18" viewBox="0 0 18 18" fill="none" xmlns="http://www.w3.org/2000/svg">
<path d="M15.75 5.0475C15.735 5.0475 15.7125 5.0475 15.69 5.0475C11.7225 4.65 7.7625 4.5 3.84 4.8975L2.31 5.0475C1.995 5.0775 1.7175 4.8525 1.6875 4.5375C1.6575 4.2225 1.8825 3.9525 2.19 3.9225L3.72 3.7725C7.71 3.3675 11.7525 3.525 15.8025 3.9225C16.11 3.9525 16.335 4.23 16.305 4.5375C16.2825 4.83 16.035 5.0475 15.75 5.0475Z" fill="white"/>
<path d="M6.37507 4.29C6.34507 4.29 6.31507 4.29 6.27757 4.2825C5.97757 4.23 5.76757 3.9375 5.82007 3.6375L5.98507 2.655C6.10507 1.935 6.27007 0.9375 8.01757 0.9375H9.98257C11.7376 0.9375 11.9026 1.9725 12.0151 2.6625L12.1801 3.6375C12.2326 3.945 12.0226 4.2375 11.7226 4.2825C11.4151 4.335 11.1226 4.125 11.0776 3.825L10.9126 2.85C10.8076 2.1975 10.7851 2.07 9.99007 2.07H8.02507C7.23007 2.07 7.21507 2.175 7.10257 2.8425L6.93007 3.8175C6.88507 4.095 6.64507 4.29 6.37507 4.29Z" fill="white"/>
<path d="M11.4075 17.0625H6.59255C3.97505 17.0625 3.87005 15.615 3.78755 14.445L3.30005 6.8925C3.27755 6.585 3.51755 6.315 3.82505 6.2925C4.14005 6.2775 4.40255 6.51 4.42505 6.8175L4.91255 14.37C4.99505 15.51 5.02505 15.9375 6.59255 15.9375H11.4075C12.9825 15.9375 13.0125 15.51 13.0875 14.37L13.575 6.8175C13.5975 6.51 13.8675 6.2775 14.175 6.2925C14.4825 6.315 14.7225 6.5775 14.7 6.8925L14.2125 14.445C14.13 15.615 14.025 17.0625 11.4075 17.0625Z" fill="white"/>
<path d="M10.2451 12.9375H7.74756C7.44006 12.9375 7.18506 12.6825 7.18506 12.375C7.18506 12.0675 7.44006 11.8125 7.74756 11.8125H10.2451C10.5526 11.8125 10.8076 12.0675 10.8076 12.375C10.8076 12.6825 10.5526 12.9375 10.2451 12.9375Z" fill="white"/>
<path d="M10.875 9.9375H7.125C6.8175 9.9375 6.5625 9.6825 6.5625 9.375C6.5625 9.0675 6.8175 8.8125 7.125 8.8125H10.875C11.1825 8.8125 11.4375 9.0675 11.4375 9.375C11.4375 9.6825 11.1825 9.9375 10.875 9.9375Z" fill="white"/>
</svg>
