<svg width="18" height="22" viewBox="0 0 18 22" fill="none" xmlns="http://www.w3.org/2000/svg">
<path d="M3.21909 0C6.29761 0 9.37749 0 12.456 0C12.5077 0.0650567 12.5527 0.13689 12.6112 0.193815C14.3377 1.90833 16.0628 3.62284 17.7947 5.33058C17.9377 5.47154 18.0017 5.60978 18.0017 5.81444C17.9949 10.3535 17.9976 14.8926 17.9962 19.4303C17.9962 19.559 17.9935 19.6878 17.9867 19.8165C17.9336 20.8547 17.118 21.7764 16.0914 21.9499C15.909 21.981 15.7197 21.9946 15.5345 21.9946C11.5723 21.9973 7.6088 21.9946 3.64662 21.9986C3.10472 21.9986 2.60502 21.8753 2.16795 21.5527C1.53891 21.0892 1.20805 20.4644 1.19171 19.6824C1.18354 19.3273 1.19034 18.9722 1.19034 18.6171C0.295791 18.6306 -0.0132863 18.121 0.00305262 17.3457C0.0343688 15.8711 0.0112221 14.3965 0.0125836 12.9219C0.0125836 12.5708 0.0044142 12.2198 0.0234762 11.8701C0.0493461 11.3931 0.421056 11.0352 0.901691 11C0.992917 10.9932 1.08278 10.9905 1.18898 10.9851C1.18898 10.8834 1.18898 10.7994 1.18898 10.714C1.18898 7.94369 1.18762 5.17336 1.19034 2.40303C1.18898 1.31469 1.83028 0.425579 2.83104 0.109783C2.95903 0.0704781 3.08974 0.0365944 3.21909 0ZM2.62136 10.9986C2.73709 10.9986 2.82287 10.9986 2.90865 10.9986C6.51954 10.9986 10.1304 10.9986 13.7413 10.9986C14.5011 10.9986 14.866 11.3605 14.8674 12.1155C14.8674 13.8977 14.8524 15.6814 14.8742 17.4637C14.8823 18.1711 14.4562 18.6171 13.7236 18.613C10.1127 18.594 6.50184 18.6049 2.89095 18.6049C2.80789 18.6049 2.72348 18.6049 2.62136 18.6049C2.62136 18.9261 2.62136 19.2175 2.62136 19.5102C2.62272 20.2069 2.9849 20.566 3.68883 20.566C7.62378 20.5674 11.5574 20.5674 15.4923 20.566C16.2003 20.566 16.5571 20.2109 16.5543 19.5116C16.5434 15.123 16.5312 10.733 16.5189 6.34438C16.5189 6.26848 16.5121 6.19394 16.5067 6.1072C16.391 6.1072 16.2984 6.1072 16.2058 6.1072C15.2568 6.10584 14.3064 6.12481 13.3587 6.09635C12.5949 6.07331 11.925 5.41597 11.8991 4.65968C11.8651 3.67977 11.8801 2.6985 11.8733 1.71858C11.8733 1.62777 11.8733 1.53832 11.8733 1.44209C11.8093 1.43396 11.7739 1.42583 11.7398 1.42583C9.02756 1.42854 6.31667 1.42989 3.60441 1.43531C3.36205 1.43531 3.13603 1.49359 2.94541 1.65895C2.6908 1.88122 2.62 2.1672 2.62136 2.48842C2.62272 5.24519 2.62272 8.00197 2.62272 10.7587C2.62136 10.8279 2.62136 10.8983 2.62136 10.9986ZM5.95313 12.9761C5.95313 14.2921 5.95313 15.5824 5.95313 16.8917C6.49504 16.8917 7.02333 16.9351 7.54072 16.8836C8.78384 16.7575 9.41425 16.0704 9.45101 14.8695C9.48369 13.8395 8.92953 13.1564 7.91107 12.9666C7.25888 12.8433 6.60941 12.8975 5.95313 12.9761ZM2.50018 16.8714C2.79972 16.8714 3.08838 16.8714 3.39473 16.8714C3.39473 16.3997 3.39473 15.9457 3.39473 15.4821C3.4846 15.4821 3.55404 15.4808 3.62484 15.4821C3.98021 15.4862 4.32741 15.451 4.65283 15.2924C5.13755 15.0552 5.35267 14.6527 5.34723 14.1295C5.34178 13.6362 5.12938 13.2512 4.65963 13.0615C3.95162 12.7769 3.22454 12.9056 2.50018 12.9761C2.50018 14.2921 2.50018 15.5784 2.50018 16.8714ZM10.961 13.6524C11.4798 13.6524 11.9726 13.6524 12.4737 13.6524C12.4737 13.403 12.4737 13.1726 12.4737 12.9449C11.6581 12.9449 10.8589 12.9449 10.0569 12.9449C10.0569 14.2637 10.0569 15.5621 10.0569 16.8727C10.3578 16.8727 10.6465 16.8727 10.9596 16.8727C10.9596 16.3401 10.9596 15.8223 10.9596 15.2815C11.4471 15.2815 11.91 15.2815 12.3689 15.2815C12.3689 15.0322 12.3689 14.8072 12.3689 14.5646C12.1265 14.5646 11.8978 14.5646 11.669 14.5646C11.4348 14.5646 11.2006 14.5646 10.961 14.5646C10.961 14.2515 10.961 13.9696 10.961 13.6524Z" fill="#F5F5F5"/>
<path d="M6.84741 16.1936C6.84741 15.337 6.84741 14.4872 6.84741 13.6401C7.34166 13.4788 7.95573 13.6401 8.24711 14.006C8.55619 14.3923 8.57933 15.2001 8.29476 15.6785C8.04423 16.1028 7.46965 16.3128 6.84741 16.1936Z" fill="#F5F5F5"/>
<path d="M3.38905 14.8099C3.38905 14.41 3.38497 14.0617 3.3945 13.7147C3.39586 13.6687 3.47075 13.5914 3.51568 13.5873C3.6709 13.5751 3.83293 13.5684 3.98542 13.5955C4.27544 13.6456 4.43338 13.8272 4.46061 14.0969C4.48784 14.3734 4.34624 14.6432 4.07801 14.7204C3.8656 14.7841 3.6355 14.7814 3.38905 14.8099Z" fill="#F5F5F5"/>
</svg>
