<svg width="32" height="32" viewBox="0 0 32 32" fill="none" xmlns="http://www.w3.org/2000/svg">
<path d="M11.5502 24.3165C20.6045 24.3165 25.5583 17.9166 25.5583 12.3684C25.5583 12.1885 25.5536 12.0045 25.5442 11.8246C26.5079 11.2302 27.3395 10.4939 28 9.65043C27.1025 9.99101 26.1496 10.2134 25.1739 10.3101C26.2013 9.78486 26.9705 8.95969 27.3391 7.98759C26.3726 8.47615 25.3156 8.82078 24.2134 9.00672C23.4708 8.33371 22.489 7.88809 21.4197 7.73877C20.3504 7.58945 19.2532 7.74474 18.2977 8.18064C17.3423 8.61653 16.5818 9.30874 16.1338 10.1503C15.6859 10.9918 15.5754 11.9357 15.8195 12.8362C13.8625 12.7524 11.9479 12.3188 10.2 11.5634C8.45203 10.808 6.90969 9.74778 5.67297 8.45138C5.0444 9.37573 4.85206 10.4695 5.13503 11.5105C5.418 12.5515 6.15506 13.4615 7.19641 14.0556C6.41463 14.0344 5.64998 13.8549 4.96563 13.5318V13.5838C4.96492 14.5539 5.3581 15.4942 6.07831 16.2449C6.79852 16.9957 7.80132 17.5105 8.91625 17.7019C8.19206 17.8709 7.43198 17.8956 6.69484 17.7739C7.00945 18.6081 7.62157 19.3378 8.44577 19.861C9.26997 20.3842 10.2651 20.6749 11.2923 20.6925C9.54842 21.861 7.39417 22.4947 5.17656 22.4917C4.78329 22.4912 4.3904 22.4706 4 22.4301C6.25286 23.6629 8.87353 24.3177 11.5502 24.3165Z" fill="white"/>
</svg>
