<svg width="15" height="12" viewBox="0 0 15 12" fill="none" xmlns="http://www.w3.org/2000/svg">
<path d="M4.68495 11.4222C9.96799 11.4222 12.8576 7.04528 12.8576 3.2496C12.8576 3.12528 12.8576 3.00152 12.8492 2.87832C13.4113 2.47171 13.8966 1.96825 14.2822 1.39152C13.758 1.62392 13.2019 1.77626 12.6325 1.84344C13.2321 1.48451 13.6809 0.919894 13.8953 0.254717C13.3314 0.589322 12.7146 0.825116 12.0713 0.951917C11.6383 0.49142 11.0655 0.186491 10.4417 0.0843162C9.81784 -0.0178586 9.17772 0.0884172 8.62037 0.386698C8.06303 0.684979 7.61952 1.15863 7.35849 1.73437C7.09746 2.31011 7.03346 2.95582 7.17639 3.5716C6.03442 3.51431 4.91725 3.21753 3.89741 2.70052C2.87757 2.18351 1.97784 1.45782 1.25663 0.570557C0.889318 1.20289 0.776819 1.95144 0.942035 2.6638C1.10725 3.37617 1.53776 3.99878 2.14591 4.40488C1.68878 4.39148 1.2416 4.26816 0.842227 4.04536V4.08176C0.842408 4.74492 1.07197 5.3876 1.49198 5.9008C1.912 6.414 2.4966 6.76612 3.14663 6.89744C2.72376 7.01278 2.28007 7.02964 1.84967 6.94672C2.03329 7.51741 2.39064 8.01646 2.87178 8.3741C3.35292 8.73174 3.93379 8.9301 4.53319 8.94144C3.93765 9.40955 3.25566 9.75565 2.52624 9.95994C1.79681 10.1642 1.03427 10.2227 0.282227 10.132C1.5958 10.9749 3.12418 11.422 4.68495 11.42" fill="white"/>
</svg>
