<svg width="26" height="24" viewBox="0 0 26 24" fill="none" xmlns="http://www.w3.org/2000/svg">
<path d="M25.0322 3.0117C24.1133 3.4717 23.1637 3.79016 22.1529 3.93169C23.1943 3.22401 23.9907 2.09171 24.3583 0.711722C23.3781 1.38402 22.306 1.84402 21.1727 2.12709C20.2538 0.994796 18.9366 0.287109 17.497 0.287109C14.7095 0.287109 12.4735 2.90555 12.4735 6.09014C12.4735 6.55013 12.5041 6.97475 12.596 7.39936C8.43016 7.18705 4.75443 4.85169 2.27331 1.34864C0.496713 5.02861 2.48773 8.07166 3.80487 9.09781C3.00846 9.09781 2.21205 8.81473 1.53817 8.39012C1.53817 11.2562 3.28414 13.627 5.55084 14.1578C5.06074 14.3347 3.95802 14.4408 3.28414 14.2639C3.92739 16.5639 5.79589 18.2623 7.97069 18.2977C6.25535 19.8546 3.74361 21.0931 0.527344 20.7039C2.76341 22.3669 5.39768 23.3223 8.24637 23.3223C17.497 23.3223 22.5204 14.4762 22.5204 6.83321C22.5204 6.58552 22.5205 6.33783 22.4898 6.09014C23.5313 5.20553 24.3889 4.17938 25.0322 3.0117Z" fill="#3F4C6C"/>
</svg>
