<svg width="9" height="18" viewBox="0 0 9 18" fill="currentColor" xmlns="http://www.w3.org/2000/svg">
<path d="M7.36319 4.84747C7.19296 4.84747 7.0227 4.78333 6.8883 4.64583L4.03012 1.72166L1.17194 4.64583C0.912107 4.91167 0.482038 4.91167 0.222204 4.64583C-0.0376301 4.38 -0.0376301 3.94 0.222204 3.67417L3.55528 0.26414C3.68072 0.135806 3.85092 0.0625 4.03012 0.0625C4.20932 0.0625 4.37958 0.135806 4.50502 0.26414L7.83804 3.67417C8.09787 3.94 8.09787 4.38 7.83804 4.64583C7.70364 4.78333 7.53343 4.84747 7.36319 4.84747Z" fill="currentColor"/>
<path d="M4.02993 17.9375C3.66257 17.9375 3.35794 17.6258 3.35794 17.25V0.75C3.35794 0.374167 3.66257 0.0625 4.02993 0.0625C4.39728 0.0625 4.70191 0.374167 4.70191 0.75V17.25C4.70191 17.6258 4.39728 17.9375 4.02993 17.9375Z" fill="currentColor"/>
</svg>
