<svg width="97" height="100" viewBox="0 0 97 100" fill="none" xmlns="http://www.w3.org/2000/svg">
<rect width="96.6667" height="100" fill="white"/>
<path d="M47.5855 24.813C46.0661 24.813 45.2656 25.2989 44.5006 26.0005L27.796 41.1898C25.8681 42.981 25.9035 45.8889 27.5119 47.6455C29.1202 49.4005 32.1969 49.5322 33.9643 47.9296L43.0297 39.6704V68.8639C43.0297 71.379 45.0705 73.4205 47.5855 73.4205C50.1006 73.4205 52.1405 71.3806 52.1405 68.8639V39.6704L61.206 47.9296C62.9733 49.5322 65.9562 49.3115 67.6601 47.6455C69.4562 45.8889 69.1243 42.8097 67.3743 41.1898L50.6697 25.9989C49.7679 25.1761 49.105 24.813 47.5855 24.813Z" fill="#9B5FCC"/>
<path d="M47.9155 9.31055C71.0781 9.31055 89.8553 28.0872 89.8553 51.2499C89.8553 74.4127 71.0781 93.1893 47.9155 93.1893C24.753 93.1893 5.97656 74.4127 5.97656 51.2499C5.97656 28.0872 24.753 9.31055 47.9155 9.31055Z" stroke="#9B5FCC" stroke-width="6"/>
</svg>
