<svg width="20" height="20" viewBox="0 0 20 20" fill="currentColor" xmlns="http://www.w3.org/2000/svg">
<path d="M9.54992 12.0667C7.91658 12.0667 6.58325 10.7333 6.58325 9.1C6.58325 7.46666 7.91658 6.13333 9.54992 6.13333C11.1832 6.13333 12.5166 7.46666 12.5166 9.1C12.5166 10.7333 11.1832 12.0667 9.54992 12.0667ZM9.54992 7.39167C8.60825 7.39167 7.83325 8.15834 7.83325 9.10834C7.83325 10.0583 8.59992 10.825 9.54992 10.825C10.4999 10.825 11.2666 10.0583 11.2666 9.10834C11.2666 8.15834 10.4999 7.39167 9.54992 7.39167Z" fill="currentColor"/>
<path d="M13.8751 17.4584C13.5334 17.4584 13.2501 17.175 13.2501 16.8334C13.2501 15.2334 11.5918 13.9333 9.5501 13.9333C7.50843 13.9333 5.8501 15.2334 5.8501 16.8334C5.8501 17.175 5.56676 17.4584 5.2251 17.4584C4.88343 17.4584 4.6001 17.175 4.6001 16.8334C4.6001 14.55 6.81676 12.6833 9.5501 12.6833C12.2834 12.6833 14.5001 14.5417 14.5001 16.8334C14.5001 17.175 14.2168 17.4584 13.8751 17.4584Z" fill="currentColor"/>
<path d="M9.58342 18.9583C4.87508 18.9583 1.04175 15.125 1.04175 10.4167C1.04175 5.70833 4.87508 1.875 9.58342 1.875C10.7417 1.875 11.8584 2.09999 12.9084 2.54166C13.2084 2.66666 13.3584 2.99998 13.2584 3.30831C13.1667 3.58331 13.1251 3.875 13.1251 4.16667C13.1251 4.65833 13.2584 5.14165 13.5167 5.55832C13.6501 5.79165 13.8251 5.99998 14.0251 6.17498C14.7501 6.83331 15.8251 7.04169 16.6667 6.74169C16.9751 6.62502 17.3251 6.78334 17.4501 7.09168C17.9001 8.15001 18.1251 9.27501 18.1251 10.425C18.1251 15.125 14.2917 18.9583 9.58342 18.9583ZM9.58342 3.125C5.56675 3.125 2.29175 6.39167 2.29175 10.4167C2.29175 14.4417 5.56675 17.7083 9.58342 17.7083C13.6001 17.7083 16.8751 14.4417 16.8751 10.4167C16.8751 9.61667 16.7417 8.82499 16.4917 8.06666C15.3417 8.26666 14.0834 7.90835 13.2001 7.10002C12.9084 6.85002 12.6501 6.54167 12.4501 6.2C12.0834 5.6 11.8834 4.89167 11.8834 4.16667C11.8834 3.94167 11.9001 3.72502 11.9418 3.50835C11.1834 3.25002 10.3917 3.125 9.58342 3.125Z" fill="currentColor"/>
<path d="M15.8333 8.12501C14.85 8.12501 13.9167 7.75836 13.1917 7.10003C12.9 6.85003 12.6417 6.54168 12.4417 6.20001C12.075 5.60001 11.875 4.89168 11.875 4.16668C11.875 3.74168 11.9417 3.32502 12.075 2.92502C12.2583 2.35835 12.575 1.83335 13 1.40835C13.75 0.641679 14.7583 0.208344 15.8417 0.208344C16.975 0.208344 18.05 0.691691 18.7833 1.52502C19.4333 2.25002 19.8 3.18334 19.8 4.16668C19.8 4.48334 19.7583 4.80001 19.675 5.10001C19.5917 5.47501 19.4333 5.86669 19.2167 6.20835C18.7333 7.02502 17.9667 7.63334 17.0667 7.91668C16.6917 8.05834 16.275 8.12501 15.8333 8.12501ZM15.8333 1.45834C15.0917 1.45834 14.4 1.74999 13.8917 2.27499C13.6 2.57499 13.3917 2.91665 13.2667 3.30832C13.175 3.58332 13.1333 3.87501 13.1333 4.16668C13.1333 4.65834 13.2667 5.14166 13.525 5.55833C13.6583 5.79166 13.8333 5.99999 14.0333 6.17499C14.7583 6.83332 15.8333 7.0417 16.675 6.7417C17.3083 6.5417 17.825 6.125 18.1583 5.56667C18.3083 5.325 18.4083 5.06669 18.4667 4.80836C18.525 4.59169 18.55 4.38334 18.55 4.16668C18.55 3.50001 18.3 2.85836 17.85 2.35836C17.3417 1.78336 16.6083 1.45834 15.8333 1.45834Z" fill="currentColor"/>
<path d="M17.0749 4.77499H14.5833C14.2416 4.77499 13.9583 4.49166 13.9583 4.14999C13.9583 3.80833 14.2416 3.52499 14.5833 3.52499H17.0749C17.4166 3.52499 17.6999 3.80833 17.6999 4.14999C17.6999 4.49166 17.4249 4.77499 17.0749 4.77499Z" fill="currentColor"/>
<path d="M15.8333 6.05001C15.4916 6.05001 15.2083 5.76667 15.2083 5.42501V2.93335C15.2083 2.59168 15.4916 2.30835 15.8333 2.30835C16.1749 2.30835 16.4583 2.59168 16.4583 2.93335V5.42501C16.4583 5.77501 16.1749 6.05001 15.8333 6.05001Z" fill="currentColor"/>
</svg>
