<svg width="24" height="21" viewBox="0 0 24 21" fill="none" xmlns="http://www.w3.org/2000/svg">
<path d="M6 7.5C6 7.10218 6.15804 6.72064 6.43934 6.43934C6.72064 6.15804 7.10218 6 7.5 6H13.5C13.8978 6 14.2794 6.15804 14.5607 6.43934C14.842 6.72064 15 7.10218 15 7.5V13.5C15 13.8978 14.842 14.2794 14.5607 14.5607C14.2794 14.842 13.8978 15 13.5 15H7.5C7.10218 15 6.72064 14.842 6.43934 14.5607C6.15804 14.2794 6 13.8978 6 13.5V7.5ZM7.5 5C6.83696 5 6.20107 5.26339 5.73223 5.73223C5.26339 6.20107 5 6.83696 5 7.5V13.5C5 14.163 5.26339 14.7989 5.73223 15.2678C6.20107 15.7366 6.83696 16 7.5 16H13.5C13.8283 16 14.1534 15.9353 14.4567 15.8097C14.76 15.6841 15.0356 15.4999 15.2678 15.2678C15.4999 15.0356 15.6841 14.76 15.8097 14.4567C15.9353 14.1534 16 13.8283 16 13.5V13L17.8 14.35C17.9114 14.4336 18.0439 14.4845 18.1826 14.497C18.3214 14.5095 18.4608 14.4831 18.5854 14.4208C18.71 14.3585 18.8148 14.2628 18.888 14.1443C18.9612 14.0258 19 13.8893 19 13.75V7.255C19 7.11572 18.9612 6.97918 18.888 6.8607C18.8148 6.74222 18.71 6.64647 18.5854 6.58418C18.4608 6.52189 18.3214 6.49552 18.1826 6.50803C18.0439 6.52054 17.9114 6.57143 17.8 6.655L16 8V7.5C16 7.1717 15.9353 6.84661 15.8097 6.54329C15.6841 6.23998 15.4999 5.96438 15.2678 5.73223C15.0356 5.50009 14.76 5.31594 14.4567 5.1903C14.1534 5.06466 13.8283 5 13.5 5H7.5ZM16 9.25L18 7.754V13.25L16 11.75V9.25Z" fill="white"/>
</svg>
