<svg width="17" height="17" viewBox="0 0 17 17" fill="none" xmlns="http://www.w3.org/2000/svg">
<path d="M11.7388 5.9809L5.98097 11.7388C5.78424 11.9355 5.45796 11.9355 5.26123 11.7388C5.06451 11.542 5.06451 11.2158 5.26123 11.019L11.0191 5.26117C11.2158 5.06444 11.5421 5.06444 11.7388 5.26117C11.9356 5.4579 11.9356 5.78418 11.7388 5.9809Z" fill="white"/>
<path d="M11.7388 11.7387C11.5421 11.9355 11.2158 11.9355 11.0191 11.7387L5.26123 5.98087C5.06451 5.78414 5.06451 5.45786 5.26123 5.26114C5.45796 5.06441 5.78424 5.06441 5.98097 5.26114L11.7388 11.019C11.9356 11.2157 11.9356 11.542 11.7388 11.7387Z" fill="white"/>
</svg>
