<svg width="15" height="15" viewBox="0 0 15 15" fill="none" xmlns="http://www.w3.org/2000/svg">
<g clip-path="url(#clip0_3273_611)">
<path d="M14.0754 4.34261C13.9963 4.04477 13.8403 3.77294 13.6231 3.55433C13.4059 3.33572 13.135 3.17799 12.8377 3.09693C11.7432 2.80261 7.36816 2.80261 7.36816 2.80261C7.36816 2.80261 2.99316 2.80261 1.89862 3.09693C1.60129 3.17799 1.33047 3.33572 1.11325 3.55433C0.896032 3.77294 0.740042 4.04477 0.660891 4.34261C0.368164 5.44193 0.368164 7.73443 0.368164 7.73443C0.368164 7.73443 0.368164 10.0269 0.660891 11.1262C0.740042 11.4241 0.896032 11.6959 1.11325 11.9145C1.33047 12.1331 1.60129 12.2909 1.89862 12.3719C2.99316 12.6662 7.36816 12.6662 7.36816 12.6662C7.36816 12.6662 11.7432 12.6662 12.8377 12.3719C13.135 12.2909 13.4059 12.1331 13.6231 11.9145C13.8403 11.6959 13.9963 11.4241 14.0754 11.1262C14.3682 10.0269 14.3682 7.73443 14.3682 7.73443C14.3682 7.73443 14.3682 5.44193 14.0754 4.34261Z" fill="white"/>
<path d="M5.93652 9.81612V5.65271L9.59561 7.73441L5.93652 9.81612Z" fill="#333333"/>
</g>
<defs>
<clipPath id="clip0_3273_611">
<rect width="14" height="14" fill="white" transform="translate(0.354492 0.734375)"/>
</clipPath>
</defs>
</svg>
