<svg width="24" height="18" viewBox="0 0 24 18" fill="none" xmlns="http://www.w3.org/2000/svg">
<path d="M23.7609 4.15008C23.7609 4.15008 23.5266 2.47737 22.8047 1.74289C21.8906 0.776223 20.8688 0.771484 20.4 0.714621C17.0438 0.468216 12.0047 0.468216 12.0047 0.468216H11.9953C11.9953 0.468216 6.95625 0.468216 3.6 0.714621C3.13125 0.771484 2.10938 0.776223 1.19531 1.74289C0.473438 2.47737 0.24375 4.15008 0.24375 4.15008C0.24375 4.15008 0 6.11658 0 8.07835V9.91691C0 11.8787 0.239062 13.8452 0.239062 13.8452C0.239062 13.8452 0.473437 15.5179 1.19062 16.2524C2.10469 17.219 3.30469 17.1859 3.83906 17.2901C5.76094 17.4749 12 17.5318 12 17.5318C12 17.5318 17.0438 17.5223 20.4 17.2806C20.8688 17.2238 21.8906 17.219 22.8047 16.2524C23.5266 15.5179 23.7609 13.8452 23.7609 13.8452C23.7609 13.8452 24 11.8834 24 9.91691V8.07835C24 6.11658 23.7609 4.15008 23.7609 4.15008ZM9.52031 12.1488V5.32998L16.0031 8.75122L9.52031 12.1488Z" fill="white"/>
</svg>
