<svg width="32" height="32" viewBox="0 0 32 32" fill="none" xmlns="http://www.w3.org/2000/svg">
<path d="M27.7609 11.1501C27.7609 11.1501 27.5266 9.47737 26.8047 8.74289C25.8906 7.77623 24.8688 7.77149 24.4 7.71462C21.0438 7.46822 16.0047 7.46822 16.0047 7.46822H15.9953C15.9953 7.46822 10.9563 7.46822 7.6 7.71462C7.13125 7.77149 6.10938 7.77623 5.19531 8.74289C4.47344 9.47737 4.24375 11.1501 4.24375 11.1501C4.24375 11.1501 4 13.1166 4 15.0784V16.9169C4 18.8787 4.23906 20.8452 4.23906 20.8452C4.23906 20.8452 4.47344 22.5179 5.19062 23.2524C6.10469 24.219 7.30469 24.1859 7.83906 24.2901C9.76094 24.4749 16 24.5318 16 24.5318C16 24.5318 21.0438 24.5223 24.4 24.2806C24.8688 24.2238 25.8906 24.219 26.8047 23.2524C27.5266 22.5179 27.7609 20.8452 27.7609 20.8452C27.7609 20.8452 28 18.8834 28 16.9169V15.0784C28 13.1166 27.7609 11.1501 27.7609 11.1501ZM13.5203 19.1488V12.33L20.0031 15.7512L13.5203 19.1488Z" fill="white"/>
</svg>
